<?xml version="1.0" encoding="utf-8"?>
<!-- Generator: Adobe Illustrator 25.4.1, SVG Export Plug-In . SVG Version: 6.00 Build 0)  -->
<svg version="1.1" id="圖層_1" xmlns="http://www.w3.org/2000/svg" xmlns:xlink="http://www.w3.org/1999/xlink" x="0px" y="0px"
	 viewBox="0 0 334 131" style="enable-background:new 0 0 334 131;" xml:space="preserve">
<style type="text/css">
	.st0{fill:#4F8700;}
	.st1{fill:#FFA300;}
	.st2{fill:#0094A8;}
	.st3{fill:#9AAF00;}
	.st4{display:none;fill:#9AAF00;}
</style>
<g>
	<g>
		<path class="st0" d="M1.9,89.7h30.3c0,0,8.4,0.4,11.8-6.2c0,0,4.3-8.6,5.2-10.2H18.9c0,0-8.1,0.2-11,7.5C8,80.8,4.8,87.6,1.9,89.7
			z"/>
		<path class="st1" d="M115.5,48.7l-13,11.5c-4.6-6.4-9.2-9.6-14-9.6c-2.3,0-4.2,0.6-5.7,1.9c-1.5,1.2-2.2,2.6-2.2,4.2
			s0.5,3,1.6,4.4c1.4,1.8,5.7,5.8,12.9,11.9c6.7,5.6,10.8,9.2,12.2,10.6c3.6,3.6,6.1,7.1,7.6,10.3c1.5,3.3,2.2,6.9,2.2,10.8
			c0,7.6-2.6,13.9-7.9,18.8c-5.2,4.9-12.1,7.4-20.5,7.4c-6.6,0-12.3-1.6-17.2-4.8c-4.9-3.2-9.1-8.3-12.6-15.2l14.8-8.9
			c4.5,8.2,9.6,12.3,15.4,12.3c3,0,5.6-0.9,7.6-2.6c2.1-1.8,3.1-3.8,3.1-6.1c0-2.1-0.8-4.2-2.3-6.3c-1.6-2.1-5-5.3-10.3-9.6
			c-10.1-8.2-16.6-14.6-19.5-19c-2.9-4.5-4.4-8.9-4.4-13.4c0-6.4,2.4-11.9,7.3-16.5c4.9-4.6,10.9-6.9,18.1-6.9c4.6,0,9,1.1,13.2,3.2
			C106.1,39.2,110.6,43.1,115.5,48.7z"/>
		<path class="st2" d="M205.3,84.3l3.9-8.1l-25.4,0.2l-10.4,21.9h26.5c-2.6,5.5-5.9,9.5-10.1,12c-4.2,2.6-9.3,3.8-15.4,3.8
			c-9.4,0-17.2-3.1-23.6-9.3c-6.4-6.2-9.6-13.8-9.6-22.7c0-8.6,3.1-16,9.2-22c6.1-6,13.8-9.1,22.9-9.1c10.5,0,19.6,4.2,27.4,12.5
			l0.1-0.1l7.9-16.6c-4.2-3.8-8.5-6.7-12.9-8.6c-7-3-14.5-4.5-22.6-4.5c-15.4,0-27.9,5.4-37.5,16.2c-8.1,9.1-12.1,19.7-12.1,32
			c0,8.9,2.2,17.3,6.6,25c4.4,7.7,10.3,13.7,17.9,17.8c7.5,4.2,16.1,6.3,25.7,6.3c9,0,16.8-1.9,23.5-5.7c6.7-3.8,12.1-9.3,16.3-16.6
			c4.2-7.3,6.3-14.9,6.3-23l0-1.2L205.3,84.3z"/>
		<g>
			<polygon class="st3" points="17.5,69.4 17.5,53.4 50.5,53.4 50.5,36.2 0,36.2 0,69.4 			"/>
			<polygon class="st3" points="17.5,96.2 0,96.2 0,128.7 50.5,128.7 50.5,111.4 17.5,111.4 			"/>
		</g>
	</g>
	<g>
		<g>
			<path class="st3" d="M321.6,72l-3.4-0.3l0.1,16.7l3.4,0.1V73.2c0.6-0.2,0.9-0.5,0.9-0.7C322.4,72.2,322.1,72.1,321.6,72z"/>
			<path class="st3" d="M317.3,80.6l-2.5-2.7l-1.8,2l0-7.4l3.9,0v0c0.4,0,1.2,0.1,0-1.1v0l-2.3-2.3l-1.6,1.8h-8.3l0.3,1.7h3.5l0,7.6
				h-4.3l0.3,1.5h4l0,11.7l4.4-0.8l0.1-10.9h4.3C317.7,81.7,318.5,81.9,317.3,80.6L317.3,80.6z"/>
			<path class="st3" d="M328.2,69.1l-4.5-0.4v21.3c0,0,0.2,3.1-0.8,4.4l4.2-0.8c0.6-0.5,1-1.3,1-2.2V70.6c0.7-0.4,1-0.7,1-1
				C329.1,69.3,328.8,69.2,328.2,69.1z"/>
			<path class="st3" d="M295.5,84l-2.9-2l-1.6,1.4h-2.3l-3.7-1v9.8l3.9-0.6v-2.2h2.1v1.1l4.1-0.6v-4.8c0.6-0.2,0.9-0.4,0.9-0.7
				C295.9,84.4,295.8,84.2,295.5,84z M291,88.2h-2.1v-3.4h2.1V88.2z"/>
			<path class="st3" d="M302,70.6l-3.8-2.3l-1.7,2.1h-13.2l-4.2-0.7v11.9c-0.1,2-0.7,8.6-3.7,12.3c0,0,7.5-1.1,8-12.3h0v-0.3
				c0-0.1,0-0.2,0-0.4l0-1l0.2,0.9h12.4c0.3,0.1,1-0.1,0.2-0.9l0,0l-0.2-0.2c-0.1-0.1-0.1-0.1-0.2-0.2l-1.8-1.9l-1.4,1.7l-1,0v-2.6
				h3.9l0.1,0c0.3,0,1.3,0.1,0-1.2v0l-1.8-1.8l-1.4,1.6h-0.8v-1.2c0.5-0.2,0.8-0.4,0.8-0.7c0-0.3-0.3-0.4-0.9-0.5l-4-0.3v2.6h-3.5
				l0.3,1.4h3.2v2.6h-4.3v-7.4h13.3h0.1v18.2c0,0,0.2,3.1-0.8,4.4l4.2-0.8c0.6-0.5,1-1.3,1-2.2l0-19.3l0.2-0.1
				c0.7-0.4,1.1-0.6,1.1-0.9C302.4,71,302.3,70.8,302,70.6z"/>
			<path class="st3" d="M250.3,53.6c0.5-0.7,1-1.4,1.5-2.1c0,0,1.4,0.1,1.6-1c0,0,0.1-0.8-1.2-1.2l-8.2-2.7c0,0-8.1,18.1-25.5,28.4
				c0,0,16.5-3.2,29.3-18.3c0.6,0.8,2.6,3.2,5.6,6c7.1,8.3,17.7,11.6,17.7,11.6c0.8-1.7,8.2-9.1,8.2-9.1
				C262.4,63.7,252,55.1,250.3,53.6z"/>
			<path class="st3" d="M258.1,70l-4.7-4.2c0,0-0.8-0.8-1.4,0.2l-2.4,3.6l-14.5-0.1l0.4,2h21.8C257.4,71.5,259.4,71.8,258.1,70z"/>
			<path class="st3" d="M264.8,77.6l-5.8-2.7l-2.8,1.9h-27.2l0.5,2.1l25.8-0.1l-8.2,11.9c-1.8,2.1-1.4,1.7-2.4,2.5l7.8,1.2
				c1.9,0.2,3.5-2.1,3.5-2.1l8.2-11.7c1-0.3,1.5-0.9,1.5-0.9C266.5,78.6,264.8,77.6,264.8,77.6z"/>
		</g>
		<g>
			<polygon class="st3" points="265.2,98.6 225.5,98.6 223.8,101 265.2,101 			"/>
			<polygon class="st3" points="278.8,98.6 275.5,101 331.2,101 332.9,98.6 			"/>
			<polygon class="st3" points="262.6,112.2 262.6,98.6 265.2,98.6 265.2,108.1 278.8,98.6 282.6,98.6 			"/>
			<polygon class="st4" points="278.8,101.2 262.6,112.5 262.6,110 278.8,98.6 			"/>
		</g>
	</g>
	<g>
		<path class="st3" d="M50,21.1h-2c0.6-2.1,0.8-4.4,0.8-6.7h1.8C50.7,16.7,50.5,19,50,21.1z M54.4,13.6c-0.1-0.3-0.3-0.9-0.4-1.3
			l-0.6,1.3h-3.8c-0.5,0-0.9-0.3-1.2-0.6c-0.2-0.4-0.2-0.9,0.2-1.4l3.1-4.4h-2.4c-0.4,0-0.7-0.2-0.9-0.5c-0.2-0.3-0.2-0.7,0-1.1
			l3.3-5.3h2.3l-3.4,5.3h2.1l1-1.5h2.5l-5.5,8h3.3c-0.1-0.6-0.4-2-0.6-2.8h1.9c0.2,1.3,0.7,3.3,1.1,4.4H54.4z M51.9,21.1
			c-0.3-2-0.6-4.6-0.6-6.7h1.8c0.1,2.3,0.2,4.6,0.7,6.7H51.9z M54.5,20.1c-0.3-1.9-0.5-3.8-0.6-5.7h1.8c0,1.7,0.3,3.8,0.8,5.7H54.5z
			 M63.4,2.8v0.9h4.9v1.4H56.7V3.7h4.7V2.8h-5.5V1.3h5.5V0.1h2.1v1.2H69v1.5H63.4z M59.3,21.1h-3.4c1.1-0.6,2.2-1.2,3.2-2.2h3
			C61.3,19.9,60.3,20.6,59.3,21.1z M68.3,9.7c-0.3,0.2-0.6,0.4-1.2,0.4h-9.5c-0.4,0-0.7-0.2-0.9-0.4c-0.3-0.3-0.5-0.7-0.5-1.2V7.4
			c0-0.4,0.2-0.8,0.5-1.1c0.3-0.2,0.6-0.4,1-0.4H67c0.5,0,0.9,0.1,1.2,0.4c0.4,0.3,0.5,0.8,0.5,1.3v0.9C68.7,8.9,68.6,9.3,68.3,9.7z
			 M67.5,17.9c-0.3,0.3-0.8,0.5-1.3,0.5h-7.8c-0.4,0-0.8-0.2-1.1-0.6c-0.2-0.3-0.4-0.7-0.4-1.1v-4.4c0-0.5,0.2-0.9,0.6-1.2
			c0.3-0.3,0.7-0.4,1.2-0.4h7.6c0.5,0,0.9,0.2,1.2,0.6s0.5,0.8,0.5,1.3v4.1C68,17.2,67.8,17.6,67.5,17.9z M59.8,7.3h-1.2
			c-0.2,0-0.4,0.2-0.4,0.4v0.5c0,0.2,0.2,0.4,0.4,0.4h1.2V7.3z M65.9,12.5c0-0.2-0.2-0.4-0.4-0.4h-6c-0.2,0-0.4,0.2-0.4,0.4v0.4h6.8
			V12.5z M65.9,14.2H59v0.7h6.8V14.2z M65.9,16.2H59v0.3c0,0.2,0.2,0.4,0.4,0.4h6c0.2,0,0.4-0.2,0.4-0.4V16.2z M63.2,7.3h-1.5v1.2
			h1.5V7.3z M65.9,21.1c-0.8-0.6-1.8-1.4-2.4-2.2h2.9c0.8,0.8,2,1.6,3.1,2.2H65.9z M66.6,7.8c0-0.2-0.2-0.4-0.5-0.4h-1.1v1.2h1.1
			c0.2,0,0.5-0.2,0.5-0.4V7.8z"/>
		<path class="st3" d="M110.3,8.9c-0.3-0.3-0.7-0.9-1-1.3l-0.8,1.3H93.4c-0.5,0-0.8-0.2-0.9-0.6c-0.2-0.4-0.1-0.8,0.2-1.2l5.9-7.1
			h2.9l-5.9,7.1H109c-0.9-1.5-1.9-3.2-2.6-4.9h2.5c1.1,2.3,2.6,4.6,4.3,6.6H110.3z M111.4,20.3c-0.4,0.4-0.9,0.6-1.5,0.6H95.5
			c-0.6,0-1.1-0.2-1.5-0.6c-0.4-0.4-0.7-1-0.7-1.6v-5.4c0-0.6,0.2-1.1,0.6-1.5c0.4-0.4,0.9-0.6,1.6-0.6h14.3c0.6,0,1.2,0.3,1.6,0.7
			c0.3,0.4,0.5,0.9,0.5,1.5v5.3C111.9,19.4,111.7,20,111.4,20.3z M109.7,13.7c0-0.4-0.3-0.7-0.7-0.7H96.3c-0.3,0-0.7,0.3-0.7,0.7v5
			c0,0.3,0.2,0.6,0.6,0.6h13c0.2,0,0.6-0.3,0.6-0.6V13.7z"/>
		<path class="st3" d="M136.1,21.1h-2.3c0.8-2.2,1.9-6.2,2.2-8.6h2.1C137.7,14.7,136.8,18.8,136.1,21.1z M135.9,5.1
			c-0.6-1.1-1.6-3.6-2.1-5.1h2.2c0.3,1.3,1.4,3.7,2.2,5.1H135.9z M135.8,11.2c-0.6-1.3-1.6-3.9-2-5.3h2.2c0.3,1.4,1.4,4,2.2,5.3
			H135.8z M139.6,10.6h-1.3c0.3-0.8,0.5-2.4,0.6-3.5h1.2C140,8.2,139.9,9.7,139.6,10.6z M151.4,5.3h1.7c-0.1-0.3-0.2-0.9-0.3-1.2
			h1.3c0.1,0.6,0.4,1.8,0.7,2.5h-1.4c-0.1-0.2-0.2-0.7-0.3-1l-0.6,1h-2.3c-0.5,0-0.7-0.2-0.8-0.5c-0.1-0.3,0-0.7,0.3-1
			c0.5-0.5,1.2-1.3,1.5-1.7h-0.8c-0.2,0-0.4,0-0.6-0.1c-0.2-0.1-0.3-0.3-0.4-0.5h-5.7V2.2c-0.7,0.7-2.4,2.4-3.2,3.2h1.7
			c-0.1-0.3-0.2-0.8-0.2-1.2h1.3c0.1,0.6,0.4,1.8,0.6,2.4h-1.4c-0.1-0.2-0.2-0.6-0.3-0.8l-0.6,0.8h-2.7c-0.3,0-0.5-0.2-0.6-0.4
			c-0.1-0.2-0.1-0.5,0.1-0.7c0.6-0.6,1.4-1.4,1.9-1.9h-1.2c-0.3,0-0.6-0.2-0.7-0.4c-0.1-0.3-0.1-0.7,0.1-0.9c0.5-0.5,1.5-1.5,2-2.1
			h2c-0.6,0.6-1.6,1.7-2.2,2.3h1c0.2-0.2,0.5-0.5,0.6-0.6h1.5V1.3h1.9c-0.1-0.3-0.3-0.9-0.3-1.3h1.9c0,0.3,0.2,0.9,0.3,1.3h2.1V2
			c0.5-0.5,1.3-1.5,1.7-2h1.8c-0.4,0.6-1.4,1.7-1.9,2.3h1c0.3-0.3,0.7-0.7,0.9-1h1.8C154.1,2.4,152.6,4.1,151.4,5.3z M153.9,20.5
			c-0.3,0.4-0.8,0.6-1.3,0.6H146l-0.9-1.5h6.6c0.2,0,0.4-0.3,0.4-0.5v-0.5c0-0.2-0.2-0.5-0.4-0.5H141c-0.5,0-0.9-0.1-1.2-0.4
			c-0.3-0.3-0.4-0.6-0.4-1.1v-0.8c0-0.6,0.2-1.1,0.6-1.3c0.3-0.2,0.7-0.3,1.3-0.3h10.1c0.2,0,0.4-0.3,0.4-0.5v-0.3
			c0-0.2-0.2-0.4-0.4-0.4h-12.3v-1.4h13.2c0.5,0,1,0.1,1.3,0.4c0.2,0.2,0.4,0.6,0.4,1V14c0,0.5-0.2,0.8-0.5,1.1
			c-0.3,0.2-0.7,0.4-1.2,0.4h-10.4c-0.2,0-0.4,0.2-0.4,0.4v0.4c0,0.2,0.2,0.4,0.4,0.4h10.7c0.5,0,0.8,0.2,1.1,0.4
			c0.3,0.3,0.5,0.7,0.5,1.2v1.3C154.2,19.9,154.1,20.2,153.9,20.5z M140.8,10.6c-0.1-0.8-0.3-2.6-0.3-3.5h1.1c0,0.9,0.1,2.6,0.3,3.5
			H140.8z M142.5,10.6c-0.2-1-0.4-2.6-0.4-3.5h1.1c0,1,0.3,2.6,0.5,3.5H142.5z M148.8,10.3c-0.2,0.2-0.5,0.3-0.9,0.3h-2.8
			c-0.4,0-0.7-0.1-0.9-0.3c-0.2-0.2-0.3-0.5-0.3-0.9v-1c0-0.5,0.1-0.8,0.4-1.1c0.2-0.2,0.5-0.2,0.9-0.2h2.7c0.4,0,0.7,0.1,0.9,0.4
			c0.2,0.2,0.3,0.5,0.3,0.8v1.1C149.1,9.8,149,10.1,148.8,10.3z M144.2,4.6V3.4h4.9v1.2H144.2z M144.2,6.5V5.2h4.9v1.2H144.2z
			 M147.5,8.7c0-0.2-0.1-0.4-0.3-0.4h-1.2c-0.2,0-0.4,0.2-0.4,0.4v0.4c0,0.2,0.2,0.4,0.4,0.4h1.3c0.2,0,0.3-0.2,0.3-0.3V8.7z
			 M150.5,10.6h-1.3c0.3-1,0.6-2.6,0.6-3.5h1.2C151,8,150.8,9.7,150.5,10.6z M151.7,10.6c-0.1-0.8-0.3-2.5-0.2-3.5h1.1
			c0,0.9,0.2,2.7,0.4,3.5H151.7z M153.6,10.6c-0.2-0.8-0.4-2.6-0.4-3.5h1.2c0.1,0.9,0.3,2.6,0.5,3.5H153.6z"/>
		<g>
			<path class="st3" d="M7,19.5H3.9c2.9-2.7,5.1-5.5,6.5-9c0-0.2-0.1-0.4-0.3-0.4H4.9V8.4h5.8c0.7,0,1.3,0.3,1.7,0.8
				c0.3,0.5,0.4,1.2,0.1,1.9C11.1,14.7,9.2,17.3,7,19.5z M21.9,19.5c-2.6-2.4-4.6-5.2-6.2-8.1v7.3c0,0.8-0.2,1.4-0.7,1.8
				c-0.4,0.4-0.9,0.6-1.6,0.6h-3.1l-0.8-1.6h3.3c0.4,0,0.7-0.3,0.7-0.7v-12c0-0.3-0.2-0.6-0.6-0.6h-5V4.6h5.6c0.6,0,1.2,0.2,1.5,0.6
				c0.4,0.4,0.6,0.9,0.6,1.5v0.8c0.5,1,1.1,2,1.7,2.8c1.7-1.3,3.2-3.1,4.1-5h2.5c-1,2.6-3.2,4.8-5.4,6.7c1.9,2.6,4.2,5.4,6.9,7.4
				H21.9z"/>
			<polygon class="st3" points="18.1,4 14.2,4 10,0.3 13.9,0.3 			"/>
		</g>
	</g>
</g>
</svg>
