<?xml version="1.0" encoding="utf-8"?>
<!-- Generator: Adobe Illustrator 25.4.1, SVG Export Plug-In . SVG Version: 6.00 Build 0)  -->
<svg version="1.1" xmlns="http://www.w3.org/2000/svg" xmlns:xlink="http://www.w3.org/1999/xlink" x="0px" y="0px" viewBox="0 0 50 50" xml:space="preserve">
<style type="text/css">
	.st0{fill:#00963B;}
	.st1{fill:#D6A600;}
	.st2{fill:#E73819;}
	.st3{fill:#C60F28;}
	.st4{fill:#25A739;}
	.st5{fill:#E4001E;}
	.st6{fill:#004C87;}
	.st7{fill:#0076BA;}
	.st8{fill:#003067;}
	.st9{fill:#D29100;}
	.st10{fill:#F4A100;}
	.st11{fill:#DC007A;}
	.st12{fill:#417935;}
	.st13{fill:#F9BC00;}
	.st14{fill:#00A6D8;}
	.st15{fill:#EC6A02;}
	.st16{fill:#960B30;}
</style>
<g>
	<path class="st0" d="M38.7,16.5c0.2,0.3,0.3,0.6,0.5,0.9c0.2,0.3,0.3,0.6,0.4,0.9c-0.4-6.8-3.5-13-8.2-17.4c-0.5-0.1-1-0.3-1.5-0.4
		c-0.5-0.1-1-0.2-1.5-0.3C33.7,4.1,37.5,9.8,38.7,16.5z"/>
	<path class="st1" d="M37,14.1c0.2,0.2,0.4,0.5,0.6,0.8c0.2,0.3,0.4,0.5,0.6,0.8C36.5,9.1,32.4,3.6,27,0.1c-0.5,0-1-0.1-1.5-0.1
		c-0.1,0-0.3,0-0.4,0c-0.4,0-0.7,0-1.1,0C29.7,2.8,34.5,7.8,37,14.1z"/>
	<path class="st2" d="M40.9,22.1c0.1,0.3,0.1,0.7,0.2,1c0,0.3,0.1,0.7,0.1,1c2.1-6.5,1.5-13.3-1.3-19.2C39.4,4.5,39,4.2,38.5,4
		c-0.4-0.3-0.9-0.5-1.3-0.8C40.7,8.6,42.1,15.4,40.9,22.1z"/>
	<path class="st3" d="M40.4,20.1c0.1,0.3,0.2,0.6,0.3,1c0.8-6.8-1-13.4-4.8-18.6c-0.5-0.2-0.9-0.4-1.4-0.6c-0.5-0.2-1-0.4-1.4-0.5
		c4.4,4.7,7.1,11.1,7.1,17.9C40.2,19.5,40.3,19.8,40.4,20.1z"/>
	<path class="st4" d="M26.5,8.9c0.3,0,0.7,0.1,1,0.1c0.3,0.1,0.7,0.1,1,0.2c-5.7-3.8-12.4-5.1-18.8-4c-0.4,0.3-0.8,0.6-1.2,1
		C8.1,6.6,7.7,6.9,7.4,7.3C13.6,5.4,20.4,5.9,26.5,8.9z"/>
	<path class="st5" d="M34.8,12.1c0.3,0.2,0.5,0.4,0.8,0.6c0.3,0.2,0.5,0.4,0.7,0.7C33.4,7.2,28.4,2.6,22.4,0.1
		c-0.5,0.1-1,0.1-1.5,0.2c-0.5,0.1-1,0.2-1.5,0.3C25.6,2.3,31.2,6.3,34.8,12.1z"/>
	<path class="st6" d="M29.4,9.5c0.3,0.1,0.6,0.2,0.9,0.3c0.3,0.1,0.6,0.2,0.9,0.4C26.4,5.4,20,2.9,13.5,2.8
		c-0.5,0.2-0.9,0.5-1.3,0.7c-0.4,0.3-0.9,0.5-1.3,0.8C17.4,3.7,24,5.4,29.4,9.5z"/>
	<path class="st7" d="M23.5,8.9c0.3,0,0.7,0,1-0.1c0.2,0,0.3,0,0.5,0c0.2,0,0.4,0,0.5,0C19.3,6.2,12.4,6.2,6.3,8.4
		C6,8.8,5.6,9.2,5.3,9.6C5,10,4.7,10.4,4.4,10.8C10.2,7.9,17,7,23.5,8.9z"/>
	<path class="st8" d="M32.2,10.5c0.3,0.1,0.6,0.3,0.9,0.5c0.3,0.2,0.6,0.3,0.8,0.5C30,6,24.2,2.3,17.8,1c-0.5,0.1-1,0.3-1.5,0.5
		c-0.5,0.2-1,0.4-1.4,0.6C21.4,2.6,27.6,5.5,32.2,10.5z"/>
	<path class="st9" d="M32.2,39.5c-0.3,0.1-0.6,0.3-0.9,0.4c-0.3,0.1-0.6,0.2-0.9,0.4c6.8,0.2,13.2-2.2,18.1-6.5
		c0.2-0.5,0.3-1,0.5-1.5c0.1-0.5,0.3-1,0.4-1.5C45,35.6,39,38.9,32.2,39.5z"/>
	<path class="st10" d="M34.7,37.9c-0.3,0.2-0.5,0.4-0.8,0.6c-0.3,0.2-0.6,0.4-0.8,0.5c6.7-1,12.6-4.6,16.6-9.7
		c0.1-0.5,0.2-1,0.2-1.5c0.1-0.5,0.1-1,0.1-1.5C46.6,31.8,41.3,36.1,34.7,37.9z"/>
	<path class="st11" d="M36.9,35.9c-0.2,0.2-0.5,0.5-0.7,0.7c-0.2,0.2-0.5,0.5-0.7,0.7C41.9,35,47,30.4,50,24.7c0-0.5,0-1-0.1-1.5
		c0-0.5-0.1-1-0.2-1.5C47.5,27.7,43,32.9,36.9,35.9z"/>
	<path class="st12" d="M29.4,40.5c-0.3,0.1-0.6,0.2-1,0.2c-0.3,0.1-0.6,0.1-1,0.2c6.7,1.5,13.4,0.2,19-3.1c0.3-0.4,0.5-0.9,0.8-1.3
		c0.2-0.5,0.5-0.9,0.7-1.4C42.7,39.1,36.2,41.2,29.4,40.5z"/>
	<path class="st13" d="M40.9,28c-0.1,0.3-0.1,0.6-0.2,1c-0.1,0.3-0.2,0.6-0.3,1c4.3-5.3,6.2-11.9,5.7-18.4c-0.3-0.4-0.6-0.9-0.9-1.3
		c-0.3-0.4-0.6-0.8-0.9-1.2C45.6,15.4,44.5,22.2,40.9,28z"/>
	<path class="st14" d="M41.2,25c0,0.3,0,0.7,0,1c0,0.3-0.1,0.7-0.1,1c3.2-6,3.9-12.8,2.2-19.1c-0.4-0.4-0.7-0.7-1.1-1.1
		c-0.4-0.4-0.8-0.7-1.2-1C43.4,11.8,43.6,18.7,41.2,25z"/>
	<path class="st15" d="M38.7,33.5c-0.2,0.3-0.4,0.6-0.6,0.8c-0.2,0.3-0.4,0.5-0.6,0.8c5.9-3.4,10.1-8.9,11.9-15.1
		c-0.1-0.5-0.2-1-0.4-1.5c-0.1-0.5-0.3-1-0.4-1.5C47.6,23.5,44.2,29.4,38.7,33.5z"/>
	<path class="st16" d="M40.1,30.9c-0.1,0.3-0.3,0.6-0.4,0.9c-0.1,0.3-0.3,0.6-0.4,0.9c5.2-4.4,8.3-10.6,9-17
		c-0.2-0.5-0.4-0.9-0.6-1.4c-0.2-0.5-0.5-0.9-0.7-1.4C47,19.4,44.7,25.8,40.1,30.9z"/>
	<path class="st1" d="M13,35.9c-0.2-0.2-0.4-0.5-0.6-0.8c-0.2-0.3-0.4-0.5-0.6-0.8c1.7,6.6,5.8,12.1,11.2,15.6c0.5,0,1,0.1,1.5,0.1
		c0.1,0,0.3,0,0.4,0c0.4,0,0.7,0,1.1,0C20.3,47.2,15.5,42.2,13,35.9z"/>
	<path class="st3" d="M9.6,29.9c-0.1-0.3-0.2-0.6-0.3-1c-0.8,6.8,1,13.4,4.8,18.6c0.5,0.2,0.9,0.4,1.4,0.6c0.5,0.2,1,0.4,1.4,0.5
		C12.6,44,9.9,37.6,9.9,30.8C9.8,30.5,9.7,30.2,9.6,29.9z"/>
	<path class="st5" d="M15.2,37.9c-0.3-0.2-0.5-0.4-0.8-0.6c-0.3-0.2-0.5-0.4-0.7-0.7c2.8,6.2,7.9,10.8,13.9,13.3
		c0.5-0.1,1-0.1,1.5-0.2c0.5-0.1,1-0.2,1.5-0.3C24.4,47.7,18.8,43.7,15.2,37.9z"/>
	<path class="st4" d="M23.5,41.1c-0.3,0-0.7-0.1-1-0.1c-0.3-0.1-0.7-0.1-1-0.2c5.7,3.8,12.4,5.1,18.8,4c0.4-0.3,0.8-0.6,1.2-1
		c0.4-0.3,0.8-0.7,1.1-1.1C36.4,44.6,29.6,44.1,23.5,41.1z"/>
	<path class="st2" d="M9.1,27.9C9.1,27.6,9,27.3,9,27c0-0.3-0.1-0.7-0.1-1c-2.1,6.5-1.5,13.3,1.3,19.2c0.4,0.3,0.8,0.6,1.3,0.9
		c0.4,0.3,0.9,0.5,1.3,0.8C9.3,41.4,7.9,34.6,9.1,27.9z"/>
	<path class="st7" d="M26.5,41.1c-0.3,0-0.7,0-1,0.1c-0.2,0-0.3,0-0.5,0c-0.2,0-0.4,0-0.5,0c6.3,2.7,13.1,2.7,19.2,0.4
		c0.3-0.4,0.7-0.8,1-1.2c0.3-0.4,0.6-0.8,0.9-1.2C39.8,42.1,33,43,26.5,41.1z"/>
	<path class="st8" d="M17.8,39.5c-0.3-0.1-0.6-0.3-0.9-0.5c-0.3-0.2-0.6-0.3-0.8-0.5C20,44,25.8,47.7,32.2,49c0.5-0.1,1-0.3,1.5-0.5
		c0.5-0.2,1-0.4,1.4-0.6C28.6,47.4,22.4,44.5,17.8,39.5z"/>
	<path class="st6" d="M20.6,40.5c-0.3-0.1-0.6-0.2-0.9-0.3c-0.3-0.1-0.6-0.2-0.9-0.4c4.9,4.7,11.3,7.3,17.8,7.4
		c0.5-0.2,0.9-0.5,1.3-0.7c0.4-0.3,0.9-0.5,1.3-0.8C32.6,46.3,26,44.6,20.6,40.5z"/>
	<path class="st0" d="M11.3,33.5c-0.2-0.3-0.3-0.6-0.5-0.9c-0.2-0.3-0.3-0.6-0.4-0.9c0.4,6.8,3.5,13,8.2,17.4c0.5,0.1,1,0.3,1.5,0.4
		c0.5,0.1,1,0.2,1.5,0.3C16.3,45.9,12.5,40.2,11.3,33.5z"/>
	<path class="st10" d="M15.3,12.1c0.3-0.2,0.5-0.4,0.8-0.6c0.3-0.2,0.6-0.4,0.8-0.5c-6.7,1-12.6,4.6-16.6,9.7
		c-0.1,0.5-0.2,1-0.2,1.5c-0.1,0.5-0.1,1-0.1,1.5C3.4,18.2,8.7,13.9,15.3,12.1z"/>
	<path class="st11" d="M13.1,14.1c0.2-0.2,0.5-0.5,0.7-0.7c0.2-0.2,0.5-0.5,0.7-0.7C8.1,15,3,19.6,0,25.3c0,0.5,0,1,0.1,1.5
		c0,0.5,0.1,1,0.2,1.5C2.5,22.3,7,17.1,13.1,14.1z"/>
	<path class="st12" d="M20.6,9.5c0.3-0.1,0.6-0.2,1-0.2c0.3-0.1,0.6-0.1,1-0.2c-6.7-1.5-13.4-0.2-19,3.1C3.3,12.6,3,13,2.8,13.5
		c-0.2,0.5-0.5,0.9-0.7,1.4C7.3,10.9,13.8,8.8,20.6,9.5z"/>
	<path class="st9" d="M17.8,10.5c0.3-0.1,0.6-0.3,0.9-0.4c0.3-0.1,0.6-0.2,0.9-0.4C12.8,9.5,6.4,12,1.6,16.3c-0.2,0.5-0.3,1-0.5,1.5
		c-0.1,0.5-0.3,1-0.4,1.5C5,14.4,11,11.1,17.8,10.5z"/>
	<path class="st13" d="M9.1,22c0.1-0.3,0.1-0.6,0.2-1c0.1-0.3,0.2-0.6,0.3-1C5.3,25.4,3.4,32,3.9,38.5c0.3,0.4,0.6,0.9,0.9,1.3
		c0.3,0.4,0.6,0.8,0.9,1.2C4.4,34.6,5.5,27.8,9.1,22z"/>
	<path class="st14" d="M8.8,25c0-0.3,0-0.7,0-1c0-0.3,0.1-0.7,0.1-1c-3.2,6-3.9,12.8-2.2,19.1c0.4,0.4,0.7,0.7,1.1,1.1
		c0.4,0.4,0.8,0.7,1.2,1C6.6,38.2,6.4,31.3,8.8,25z"/>
	<path class="st15" d="M11.3,16.5c0.2-0.3,0.4-0.6,0.6-0.8c0.2-0.3,0.4-0.5,0.6-0.8C6.5,18.2,2.4,23.7,0.5,29.9
		c0.1,0.5,0.2,1,0.3,1.5c0.1,0.5,0.3,1,0.4,1.5C2.4,26.5,5.8,20.6,11.3,16.5z"/>
	<path class="st16" d="M9.9,19.1c0.1-0.3,0.3-0.6,0.4-0.9c0.1-0.3,0.3-0.6,0.4-0.9c-5.2,4.4-8.3,10.6-9,17c0.2,0.5,0.4,0.9,0.6,1.4
		c0.2,0.5,0.5,0.9,0.7,1.4C3,30.6,5.3,24.2,9.9,19.1z"/>
</g>
</svg>
