<?xml version="1.0" encoding="utf-8"?>
<!-- Generator: Adobe Illustrator 25.4.1, SVG Export Plug-In . SVG Version: 6.00 Build 0)  -->
<svg version="1.1"
	 id="svg2" inkscape:version="0.48.4 r9939" sodipodi:docname="啁姘撣svg" xmlns:cc="http://creativecommons.org/ns#" xmlns:dc="http://purl.org/dc/elements/1.1/" xmlns:inkscape="http://www.inkscape.org/namespaces/inkscape" xmlns:rdf="http://www.w3.org/1999/02/22-rdf-syntax-ns#" xmlns:sodipodi="http://sodipodi.sourceforge.net/DTD/sodipodi-0.dtd" xmlns:svg="http://www.w3.org/2000/svg"
	 xmlns="http://www.w3.org/2000/svg" xmlns:xlink="http://www.w3.org/1999/xlink" x="0px" y="0px" viewBox="0 0 50 50"
	 style="enable-background:new 0 0 50 50;" xml:space="preserve">
<style type="text/css">
	.st0{fill:#017A37;}
	.st1{fill:#DB261F;}
</style>
<sodipodi:namedview  bordercolor="#666666" borderopacity="1.0" fit-margin-bottom="0" fit-margin-left="0" fit-margin-right="0" fit-margin-top="0" id="base" inkscape:current-layer="layer1" inkscape:cx="421" inkscape:cy="90.417802" inkscape:document-units="px" inkscape:pageopacity="0.0" inkscape:pageshadow="2" inkscape:window-height="998" inkscape:window-maximized="1" inkscape:window-width="1680" inkscape:window-x="-8" inkscape:window-y="-8" inkscape:zoom="1" pagecolor="#ffffff" showgrid="false">
	</sodipodi:namedview>
<g id="layer1" transform="translate(699.64287,-601.79027)" inkscape:groupmode="layer" inkscape:label="Layer 1">
	<g id="g3017" transform="matrix(0.40209147,0,0,0.40209147,-494.49926,535.9139)">
		<g id="_x23_314639ff" transform="matrix(0.88194485,0,0,0.88194413,-699.39063,108.07417)">
			<path id="path5906" inkscape:connector-curvature="0" sodipodi:nodetypes="cccccccccccccccccccccccccccccccccccccccccc" d="
				M283.9,72.7c0.1-0.4,0.4-0.7,0.7-1c0.1,15.4,0.1,30.8,0.1,46.3c0,4.7,0,9.4,0,14.1c0,0.7-0.1,1.6-0.8,1.9c-0.7,0.4-1.4-0.1-2-0.4
				c-2.1-1.2-3.5-3.1-5.3-4.6c-3.6,0.8-6.5,3.3-9.2,5.6c-1,0.9-1.5,2.2-2,3.3c-0.8,0.1-1.6,0-2.3-0.2c0.6,0.5,1,1.2,1.5,1.8
				c-0.8,0.8-1.6,1.7-2.2,2.7c-0.7,1-0.9,2.3-1.2,3.4c-0.7,3-1.1,6.2-0.4,9.3c2.5,0.8,5.3,1.3,7.4,3.2c0.4,0.3,0.7,0.9,0.4,1.4
				c-0.4,0.7-1.1,1.2-1.7,1.6c-13.3,7.7-26.6,15.4-39.9,23.1c-2.8,1.7-5.8,3.2-8.6,4.9c-1.2,0.7-2.4,1.3-3.6,1.9
				c0.4-0.6,0.7-1.2,1.2-1.7c4.8-4.9,9.7-9.7,14.6-14.6c2.1-2.1,4.1-4.2,6.2-6.4c1.5-1.6,3-3.3,4.7-4.7c2.1-1.6,4.4-2.9,6.7-4.2
				c0.3-0.2,0.9-0.3,0.8-0.8c0-0.8-0.5-1.6-0.6-2.4c-0.3-2.8-0.1-5.7,0.1-8.5c0.2-3,1.3-5.7,2-8.6c0.2-1,0.5-1.9,0.4-2.9
				c-0.1-0.8-0.4-1.6-0.7-2.4c0.2-0.4,0.3-0.8,0.5-1.1c1.4-0.2,2.8-0.3,4.2-0.1c-0.9-1-1.4-2.4-1.2-3.8c0.1-0.4,0.3-0.8,0.5-1.1
				c1.4-0.1,2.9-0.3,4.1-1.1c1.3-1,2.7-2.1,4-3.2c1.4-1.1,2.8-2.1,4.3-3c1.7-0.9,3.4-1.8,5.2-2.5c0.9-0.4,1.9-0.7,2.8-1.3
				c0-5,0.5-10,1.7-14.9C278.6,91.9,281.5,82.3,283.9,72.7"/>
			<path id="path5908" inkscape:connector-curvature="0" sodipodi:nodetypes="cccccccccccccccccccccccccccccccccccccc" d="
				M285.5,71.7c0.3,0.2,0.6,0.6,0.7,1c2.1,8.3,4.4,16.4,6.8,24.6c0.9,3.1,1.8,6.2,2.2,9.4c0.5,3.2,0.7,6.5,0.7,9.8
				c0.7,0.5,1.6,0.8,2.4,1.1c2.6,1.1,5.3,2.3,7.6,4c2.3,1.5,4.3,3.5,6.6,5.1c1.1,0.6,2.5,0.9,3.7,0.9c0.4,0.6,0.8,1.3,0.6,2.1
				c0,1.1-0.6,2-1.3,2.8c1.4-0.2,2.8-0.1,4.2,0.1c0.2,0.4,0.3,0.8,0.5,1.1c-0.4,1.2-0.9,2.4-0.7,3.6c0.4,2,0.9,3.9,1.5,5.9
				c0.8,2.7,1,5.4,1.1,8.2c0,2.1,0.2,4.4-0.6,6.4c-0.1,0.4-0.3,1,0.2,1.2c2.1,1.1,4.2,2.3,6.1,3.7c1.7,1.2,3.2,2.7,4.6,4.2
				c6.6,6.8,13.3,13.5,20,20.2c1.1,1.2,2.4,2.2,3.2,3.7c-1.9-0.8-3.6-1.9-5.4-3c-8-4.5-15.8-9.1-23.8-13.6c-7-4-14-8.1-21-12.1
				c-1.2-0.8-2.6-1.3-3.6-2.4c-0.4-0.5-0.4-1.2,0.1-1.6c2-1.9,4.9-2.5,7.4-3.2c0.8-3.6,0.1-7.2-0.8-10.7c-0.5-1.8-1.7-3.4-3.1-4.6
				c0.5-0.6,0.9-1.3,1.5-1.8c-0.8,0.2-1.5,0.3-2.3,0.2c-0.6-1.2-1-2.5-2-3.3c-2.7-2.3-5.6-4.8-9.2-5.6c-1.8,1.5-3.2,3.5-5.3,4.7
				c-0.6,0.3-1.5,0.8-2.1,0.3c-0.7-0.6-0.7-1.6-0.7-2.4C285.5,111.5,285.3,91.6,285.5,71.7"/>
			<path id="path5910" inkscape:connector-curvature="0" d="M255.9,129.9c0.3-0.2,0.6-0.5,0.8-0.7c0.7,0.8,1.3,1.7,2.2,2.4
				c1.5,1,3.1,1.8,4.9,2c-0.1,0.4-0.1,0.7-0.2,1.1c-1.6-0.1-3-0.7-4.3-1.5C257.9,132.3,256.8,131.1,255.9,129.9z"/>
			<path id="path5912" inkscape:connector-curvature="0" d="M311.1,131.5c0.9-0.6,1.5-1.5,2.2-2.4c0.3,0.2,0.6,0.5,0.8,0.7
				c-0.8,1-1.6,2-2.7,2.7c-1.5,1-3.2,1.8-5,2c-0.1-0.4-0.1-0.7-0.2-1.1C308,133.3,309.6,132.5,311.1,131.5L311.1,131.5L311.1,131.5z
				"/>
			<path id="path5914" inkscape:connector-curvature="0" sodipodi:nodetypes="cccccccccccccccccccccccccccccc" d="M280.1,135.7
				c0.7-0.4,1.6-0.3,2.2,0.1c1,0.7,1.9,1.5,2.7,2.3c0.9-0.8,1.8-1.6,2.7-2.3c0.6-0.5,1.5-0.5,2.2-0.2c1.9,1,3.9,1.8,5.5,3.2
				c2.1,1.7,3.9,3.7,4.8,6.3c0.7,2.2,1.1,4.5,1.5,6.8c-0.2,0.2-0.3,0.3-0.5,0.5c-1.6,0-3.1,0-4.7,0c-0.4-0.9-0.3-1.9-0.5-2.8
				c-0.2-0.9-0.4-1.9-0.8-2.8c-0.3-0.7-0.9-1.3-1.5-1.8c0,2.5,0,4.9,0,7.4c-1.6,0-3.1,0-4.7,0c0-3.3,0-6.5,0-9.8
				c-1.3,0.9-2.5,1.9-3.8,2.8c-0.2,0.2-0.5,0-0.7-0.1c-1.2-0.9-2.4-1.8-3.6-2.7c0,3.3,0,6.5,0,9.8c-1.6,0-3.1,0-4.7,0
				c0-2.5,0-4.9,0-7.4c-0.6,0.6-1.2,1.1-1.5,1.9c-0.5,1.3-0.8,2.7-1,4.2c0,0.4-0.2,0.9-0.3,1.3c-1.6,0-3.1,0-4.7,0
				c-0.2-0.2-0.3-0.3-0.5-0.5c0.5-2.3,0.8-4.6,1.5-6.8c0.9-2.5,2.6-4.5,4.6-6.1C276.1,137.5,278.1,136.7,280.1,135.7"/>
			<path id="path5916" inkscape:connector-curvature="0" sodipodi:nodetypes="ccccccccccccccccccccccccccccccccccccccc" d="
				M282.5,151.6c1.7,0,3.4,0,5.1,0c0,0.6,0,1.3,0,1.9c3.9,0,7.9,0,11.8,0c0.8,0,1.7,0,2.5,0.1c0,0.8,0.1,1.6-0.1,2.3
				c-0.3,0.8-0.9,1.5-1.5,2.1c-4.3,0-8.5,0-12.8,0c0,0.1,0,0.4,0,0.6c3.7,0,7.4,0,11.1,0c0.7,0,1.5,0.1,1.6,0.9
				c-0.8,1.4-1.6,2.8-2.6,4.1c-1.1,1.2-2.3,2.2-3.7,3.1c-1.4,0.9-3.1,1.5-4.7,2.1c-0.4,0.2-0.9,0.2-1.3,0.2c0-1.4,0-2.8,0-4.2
				c0.1,0,0.3-0.1,0.4-0.1c0.8-0.7,2-1,2.8-1.7c-1.2,0-2.5,0-3.7,0c0,2,0,4,0,6c-1.7,0-3.4,0-5.1,0c0-2,0-4,0-6c-1.2,0-2.5,0-3.7,0
				c0.9,0.7,2,1,2.8,1.7c0.1,0,0.3,0.1,0.4,0.1c0.1,1.4,0,2.8,0,4.2c-0.4,0-0.9,0-1.3-0.2c-1.6-0.6-3.2-1.2-4.7-2.1
				c-1.1-0.7-2.2-1.5-3.2-2.5c-1.4-1.3-2.2-3.1-3.2-4.7c0.1-0.8,1-0.9,1.6-0.9c3.7,0,7.4,0,11.1,0c0-0.1,0-0.4,0-0.6
				c-4.3,0-8.5,0-12.8,0c-0.6-0.6-1.2-1.3-1.5-2.1c-0.2-0.8-0.1-1.6-0.1-2.3c0.8-0.1,1.7-0.1,2.5-0.1c4,0,7.9,0,11.9,0
				C282.5,152.8,282.5,152.2,282.5,151.6"/>
			<path id="path5918" inkscape:connector-curvature="0" sodipodi:nodetypes="cccccccccccccccccccccccccccccccccc" d="M300,161.2
				c1.9,0,3.4,1.4,5,2.2c15,8.5,29.9,17.1,44.8,25.7c1.7,1,3.5,1.8,4.9,3.3c-10.3-2.2-20.5-4.7-30.5-7.7c-4.8-1.3-9.3-3.3-13.6-5.7
				c-1.9,1.6-3.7,3.3-5.6,4.7c-0.8,0.6-1.6,1-2.4,1.5c-3.2,2.1-7,3-10.5,4.3c-1,0.3-1.9,0.9-2.9,1.2c-0.6,0.2-1.3,0-1.7-0.5
				c-0.9-0.9-1.3-2.2-2-3.3c-0.2,0-0.4,0-0.6,0c-0.8,1.2-1.1,2.7-2.3,3.6c-0.6,0.5-1.4,0.4-2,0c-3.7-1.8-7.8-2.5-11.4-4.4
				c-0.8-0.4-1.5-0.9-2.2-1.3c-2.7-1.5-4.9-3.8-7.4-5.8c-3.1,1.7-6.4,3.3-9.8,4.5c-2,0.8-4.2,1.3-6.2,1.9c-9.3,2.7-18.7,5-28.1,7
				c1.1-1.2,2.6-2,4-2.8c15.2-8.7,30.4-17.5,45.6-26.1c1.6-0.9,3.1-2.2,5-2.2c1.2,3.5,0,7.1-1,10.5c3.6,2.1,7.4,3.9,11.1,5.8
				c1.1,0.5,2.4,0.1,3.5,0.1c0.3,0.3,0.7,0.7,0.8,1.1c0.2,0.8,0.1,1.7,0.2,2.6c0.2,0,0.5,0,0.6,0c0.2-1.2-0.2-2.8,1-3.6
				c1.1-0.2,2.4,0.4,3.5-0.1c3.8-1.8,7.6-3.7,11.2-5.8C300,168.3,298.8,164.7,300,161.2"/>
		</g>
		<path id="path5921" inkscape:connector-curvature="0" sodipodi:nodetypes="cccccccccc" class="st0" d="M-449.2,177.8l0,8.3l0,27.7
			l-0.1,11c-0.6-0.1-1.2-0.2-1.8-0.6c-1.9-1.6-3.6-3.2-4.4-5.4c-0.8-2.3-0.7-4.7-0.8-7c-0.1-1.8,0-3.5,0-5.3
			c0.2-4.1,1.3-8.1,2.3-11.8L-449.2,177.8z"/>
		<path id="path5923" inkscape:connector-curvature="0" sodipodi:nodetypes="ccccccccc" class="st0" d="M-446.8,177.8
			c1.6,5.5,3.4,11.9,4.7,16.9c1.2,4.3,2.4,8.6,2.3,12.7c0,1.2,0.1,2.3,0,3.5c-0.1,2.6,0.1,5.2-0.8,7.7c-0.7,2.1-2.8,4.3-4.3,5.5
			c-0.5,0.4-1.2,0.5-1.9,0.6l-0.1-39.4L-446.8,177.8z"/>
		<path id="path5925" inkscape:connector-curvature="0" class="st0" d="M-460.9,213.6c1.1-0.6,2.3-0.9,3.4-1.4c0,0.2,0,0.4,0,0.7
			c-2.3,1-4.6,2-6.6,3.4c-2.7,1.8-5.4,3.8-7.9,5.9c0.2,0.3,0.4,0.5,0.6,0.8c2.6-2.1,5.2-4.2,8-6c1.9-1.3,3.9-2.2,6-3
			c0.2,2.3,0.6,4.5,1.2,6.7c-1.8,0.6-3.6,1.3-5.1,2.6c-1.2,1-2.4,2-3.5,3.1c-0.7,0.7-1,1.6-1.5,2.4c-1.5-0.5-3.1-1-4.4-2
			c-1.3-0.7-2.4-1.7-3.3-2.8c-0.5-0.6-0.7-1.3-1-2c0-0.1,0.1-0.3,0.2-0.3c1.1-0.2,2.2-0.4,3.2-0.8c1-0.4,1.8-1.2,2.7-1.8
			C-466.4,217.1-463.9,215.1-460.9,213.6 M-473.7,222.6c0.8,1.1,1.8,2.1,3,2.8c1.2,0.7,2.4,1.3,3.8,1.4c0.1-0.3,0.1-0.6,0.2-1
			c-1.6-0.2-3-0.9-4.3-1.8c-0.8-0.6-1.4-1.4-2-2.1C-473.2,222.2-473.5,222.4-473.7,222.6L-473.7,222.6L-473.7,222.6z"/>
		<path id="path5927" inkscape:connector-curvature="0" sodipodi:nodetypes="ccccccccccccccccccccccccccc" class="st0" d="
			M-438.5,212.3c0.9,0.4,1.9,0.7,2.8,1.1c3.1,1.4,5.8,3.5,8.6,5.5c0.9,0.6,1.7,1.4,2.8,1.9c1,0.5,2.1,0.7,3.2,0.8
			c0,0.1,0.1,0.3,0.2,0.3c-0.3,0.7-0.5,1.4-1,2c-1,1.1-2.1,2.1-3.3,2.8c-1.3,1-2.9,1.5-4.4,2c-0.5-0.9-0.9-1.8-1.7-2.5
			c-1.2-1.1-2.5-2.2-3.8-3.2c-1.4-1.1-3.1-1.7-4.8-2.3c0.6-2.2,1-4.4,1.2-6.7c2.3,0.9,4.6,2,6.6,3.4c2.6,1.7,5,3.7,7.4,5.6
			c0.2-0.3,0.4-0.5,0.6-0.8c-2.5-2.1-5.1-4.1-7.9-5.9c-2.1-1.4-4.4-2.4-6.6-3.4C-438.5,212.7-438.5,212.5-438.5,212.3 M-425,224.1
			c-1.3,0.9-2.7,1.6-4.3,1.8c0.1,0.3,0.1,0.6,0.2,1c1.6-0.1,3.1-0.9,4.4-1.7c1-0.6,1.7-1.5,2.4-2.4c-0.2-0.2-0.5-0.4-0.7-0.6
			C-423.7,222.7-424.2,223.5-425,224.1z"/>
		<path id="path5929" inkscape:connector-curvature="0" class="st0" d="M-477.3,225.8c1,0,2.1,0.1,3.1,0.3c1.2,0.3,2.2,1,3.2,1.6
			c1.4,0.8,2.6,1.9,3.8,3.1c-0.6,0.7-1.4,1.4-1.8,2.3c-1.3,3-1.8,6.2-1.7,9.4c0,0.5,0,1.1-0.2,1.6c-0.3,0.4-0.9,0.5-1.3,0.7
			c-1.6,0.6-3.2,1.3-4.9,1.9c-0.5-1.6-0.9-3.3-0.7-5c0.3-2.8,0.8-5.5,1.5-8.3c0.5-1.8,1.2-3.6,2.3-5.1c1,0.4,2,0.9,2.8,1.6
			c0.7,0.5,1,1.3,1.4,2c0.3-0.2,0.6-0.3,0.8-0.6c-0.4-1.1-1.2-2-2.1-2.6c-0.8-0.5-1.6-1.2-2.6-1.4c-0.7-0.1-1.2,0.5-1.5,1
			c-0.6,1-1.1,2-1.5,3.1c-0.7,2-1.1,4-1.4,6.1c-0.4,2.1-0.8,4.2-0.6,6.3c0.1,1.1,0.5,2.2,0.8,3.3c-0.3,0.1-0.5,0.2-0.8,0.4
			c-0.3-1-0.7-2.1-0.7-3.2c-0.1-2.8,0-5.7,0.8-8.5c0.3-1.6,0.7-3.2,1.1-4.7c0.2-0.8,0.5-1.7,0.5-2.5
			C-477.2,227.7-477.5,226.8-477.3,225.8L-477.3,225.8z"/>
		<path id="path5931" inkscape:connector-curvature="0" class="st0" d="M-423.1,226.7c1.3-0.7,2.9-0.8,4.4-0.8c0.2,1-0.2,2-0.1,3
			c0.1,1.2,0.5,2.4,0.8,3.6c0.4,1.6,0.7,3.2,1.2,4.9c0.5,2.3,0.5,4.7,0.5,7.1c0,1.1-0.4,2.1-0.7,3.2c-0.3-0.1-0.5-0.2-0.8-0.4
			c0.4-1.4,0.8-2.8,0.8-4.3c0-2-0.4-3.9-0.7-5.8c-0.5-2.6-1-5.3-2.3-7.6c-0.4-0.8-0.9-1.9-1.9-2.1c-0.5,0-1,0.3-1.5,0.5
			c-0.7,0.4-1.3,0.8-2,1.3c-0.7,0.6-1.1,1.4-1.6,2.1c0.3,0.2,0.6,0.4,0.8,0.6c0.4-0.8,0.8-1.6,1.6-2.1c0.8-0.5,1.6-1.1,2.5-1.4
			c0.2-0.1,0.4,0.2,0.5,0.3c1.3,2.1,2,4.4,2.5,6.8c0.4,2,0.8,4.1,1,6.1c0.2,1.7-0.2,3.5-0.8,5.1c-1.7-0.8-3.5-1.5-5.3-2.1
			c-0.4-0.2-0.8-0.3-0.9-0.8c-0.2-1.1,0-2.2-0.1-3.3c-0.2-2.6-0.7-5.2-1.8-7.6c-0.4-0.9-1.1-1.5-1.8-2.2c1-1,2-2,3.2-2.7
			C-424.7,227.6-423.9,227.1-423.1,226.7L-423.1,226.7z"/>
		<path id="path5933" inkscape:connector-curvature="0" class="st0" d="M-474.9,247.4c1.6-0.6,3.3-1.5,5.1-1.4c2.2,0,4.1,1.1,6,2
			c-0.4,0.7-1,1.2-1.7,1.6c-2.5,1.4-5,2.8-7.5,4.3c-9,5.1-18,10.4-27,15.5c-1.1,0.6-2.1,1.3-3.2,1.7c1.3-1.6,2.7-3,4.1-4.4
			c2.5-2.5,5-5,7.6-7.5c1.9-1.8,3.6-3.8,5.6-5.6C-482.7,250.7-478.8,248.9-474.9,247.4L-474.9,247.4L-474.9,247.4z"/>
		<path id="path5935" inkscape:connector-curvature="0" class="st0" d="M-426.2,246c1.8-0.1,3.4,0.8,5.1,1.4
			c3.9,1.5,7.7,3.2,10.9,5.9c1.4,1.3,2.7,2.6,4,4c3.5,3.6,7.1,7,10.6,10.6c1,1,2,2,2.8,3.1c-0.8-0.3-1.6-0.8-2.4-1.2
			c-11.3-6.4-22.6-13-33.9-19.4c-1.1-0.6-2.5-1.2-3.2-2.3C-430.3,247-428.4,246-426.2,246L-426.2,246z"/>
		<path id="path5937" inkscape:connector-curvature="0" class="st0" d="M-500.2,273.6c12.5-7.3,25.1-14.3,37.7-21.5
			c0.1,1.7,0.2,3.4-0.2,5c-0.4,1.5-1.6,2.6-2.8,3.5c-1.4,1-2.7,2.2-4.2,3.2c-1.6,1.1-3.3,2-5,2.9c-1,0.4-2,0.9-3.1,1.4
			c-2.8,1-5.7,2-8.6,2.7c-2.9,0.7-5.7,1.7-8.7,2.2c-2.3,0.5-4.5,1.2-6.8,1.6C-501.3,274.2-500.7,273.9-500.2,273.6L-500.2,273.6
			L-500.2,273.6z"/>
		<path id="path5939" inkscape:connector-curvature="0" class="st0" d="M-433.5,252.1c12.5,7.2,25.2,14.2,37.7,21.5
			c0.6,0.3,1.1,0.6,1.6,1.1c-2.3-0.4-4.5-1.1-6.8-1.6c-3-0.6-5.8-1.5-8.8-2.3c-2.7-0.7-5.3-1.6-7.8-2.5c-1-0.3-2-0.9-3-1.3
			c-3-1.3-5.8-3-8.3-5.2c-1.6-1.3-3.6-2.3-4.3-4.4C-433.8,255.7-433.6,253.9-433.5,252.1C-433.5,252.1-433.5,252.1-433.5,252.1z"/>
		<path id="path5941" inkscape:connector-curvature="0" class="st0" d="M-464.1,261.3c0.5-0.3,1-0.8,1.6-0.5c2.7,1.1,5,2.8,7.5,4.1
			c1.7,0.9,3.5,1.5,5.4,1.5c0.3,2,0.6,4.2,0,6.2c-0.3,0.9-0.9,1.6-1.7,2.1c-5.1-1.5-10.3-3.2-14.7-6.4c-1.2-0.9-2.3-1.9-3.2-3.1
			c0.1-0.1,0.3-0.2,0.5-0.3c1.9,1.5,3.7,3.1,5.8,4.2c1.5,0.8,3,1.6,4.6,2.2c1.4,0.6,2.8,1,4.3,1.4c0.8,0.2,1.7,0.3,2.4-0.1
			c0.6-0.5,0.4-1.3,0.3-2c-0.2-1,0.4-1.9,0.7-2.8c-0.3-0.1-0.6-0.2-0.9-0.3c-0.2,0.7-0.5,1.3-0.7,2c-0.2,0.8,0,1.6,0.1,2.4
			c-1.1,0.1-2.1-0.3-3.1-0.6c-2.4-0.7-4.7-1.8-7-3c-2-1.1-3.8-2.6-5.6-4C-466.6,263.2-465.4,262.2-464.1,261.3L-464.1,261.3z"/>
		<path id="path5943" inkscape:connector-curvature="0" class="st0" d="M-439.7,264.2c2.2-1.2,4.3-2.7,6.6-3.6
			c1.2,0.5,2.2,1.4,3.3,2.2c0.6,0.4,1.1,0.9,1.7,1.4c-1.9,1.6-3.8,3.2-6,4.3c-2.1,1.1-4.2,2.1-6.4,2.7c-1.1,0.3-2.1,0.7-3.2,0.6
			c0.1-0.8,0.3-1.7,0-2.5c-0.2-0.6-0.4-1.3-0.7-1.9c-0.3,0.1-0.6,0.2-0.9,0.3c0.3,0.9,0.8,1.8,0.7,2.8c0,0.7-0.3,1.5,0.3,2
			c0.7,0.4,1.5,0.3,2.3,0.1c1.6-0.5,3.3-0.9,4.9-1.6c2.4-1.1,4.8-2.2,6.9-3.8c1-0.8,2-1.6,3-2.4c0.1,0.1,0.3,0.2,0.5,0.3
			c-1.1,1.5-2.6,2.7-4.1,3.8c-4.1,2.8-9,4.4-13.8,5.8c-0.9-0.5-1.6-1.4-1.8-2.4c-0.5-1.9-0.1-3.9,0.1-5.9
			C-444.1,266.4-441.8,265.4-439.7,264.2L-439.7,264.2L-439.7,264.2z"/>
		<g id="_x23_cc2a21ff" transform="matrix(0.88194485,0,0,0.88194413,-699.39063,108.07417)">
			<path id="path5946" inkscape:connector-curvature="0" class="st1" d="M280.9,136.6c0.5-0.2,0.9,0.2,1.3,0.4
				c1,0.8,2.1,1.6,2.9,2.7c0.9-1.1,1.9-1.9,3-2.8c0.3-0.2,0.7-0.6,1.2-0.4c1.7,0.7,3.3,1.5,4.8,2.5c2.2,1.6,4.2,3.6,5.1,6.2
				c0.7,1.9,1,3.9,1.4,5.9c-1,0-2.1,0-3.1,0c-0.2-1.7-0.5-3.3-1.1-4.9c-0.4-1.1-1.4-1.9-2.3-2.6c-0.4,0.1-0.8,0.1-1.2,0.1
				c0,2.5,0,4.9,0,7.4c-0.9,0-1.7,0-2.6-0.1c0-2.5,0-5,0-7.5c0-0.7,0.2-1.5-0.4-2c-0.5-0.5-1.2-0.1-1.7,0.2c-1,0.7-2,1.5-3,2.3
				c-0.9-0.7-1.9-1.4-2.8-2.1c-0.5-0.3-1-0.7-1.5-0.6c-0.5,0.2-0.8,0.7-0.8,1.2c0.1,2.8,0,5.6,0.1,8.4c-0.9,0.1-1.7,0.1-2.6,0.1
				c-0.1-2.5,0-4.9,0-7.4c-0.4,0-0.8-0.1-1.2-0.1c-0.9,0.7-1.9,1.5-2.3,2.6c-0.6,1.6-1,3.2-1.1,4.9c-1,0-2.1,0-3.1,0
				c0.4-2,0.7-4,1.4-5.9c1-2.6,3-4.6,5.1-6.2C277.6,138.1,279.2,137.3,280.9,136.6L280.9,136.6L280.9,136.6z"/>
			<path id="path5948" inkscape:connector-curvature="0" class="st1" d="M283.5,152.6c1,0,2,0,3,0c0,0.6,0,1.3,0,1.9
				c4.8,0,9.6,0,14.3,0c0,0.8-0.2,1.6-0.9,2.2c-0.2,0.3-0.6,0.2-1,0.3c-3.4,0-6.8,0-10.1,0c-0.8,0-1.6-0.1-2.4,0.2
				c0,0.8,0,1.6,0,2.4c1.1,0.2,2.2,0.1,3.3,0.1c3,0,6,0,9,0c-0.9,1.7-2,3.4-3.5,4.6c-1.8,1.6-4,2.6-6.2,3.3c0-0.7,0-1.5,0-2.2
				c1.6-0.7,3.1-1.6,4.2-3c-0.3-0.2-0.5-0.7-0.9-0.6c-2,0.1-4,0-6,0c0,2,0,4.1,0,6.1c-1,0-1.9,0-2.9,0c0-2,0-4.1,0-6.1
				c-2,0-4,0.1-6,0c-0.4-0.1-0.6,0.4-0.9,0.6c1.1,1.3,2.6,2.3,4.2,2.9c0,0.7,0,1.5,0,2.2c-2.6-0.9-5.1-2.2-7.1-4.1
				c-1.1-1.1-1.9-2.5-2.7-3.8c3,0,6,0,9,0c1.1,0,2.2,0.1,3.3-0.1c0-0.8,0-1.6,0-2.4c-0.4-0.1-0.8-0.2-1.2-0.2c-3.8,0-7.5,0-11.3,0
				c-0.3,0-0.5,0-0.8-0.1c-0.7-0.6-1.1-1.5-1.1-2.4c4.8,0,9.6,0,14.3,0C283.5,153.9,283.5,153.2,283.5,152.6L283.5,152.6
				L283.5,152.6z"/>
		</g>
	</g>
	<g id="g5950" transform="translate(-699.35687,7.58419)">
	</g>
	<g id="g5952" transform="translate(-699.35687,7.58419)">
	</g>
	<g id="g5954" transform="translate(-699.35687,7.58419)">
	</g>
	<g id="g5956" transform="translate(-699.35687,7.58419)">
	</g>
	<g id="g5958" transform="translate(-699.35687,7.58419)">
	</g>
	<g id="g5960" transform="translate(-699.35687,7.58419)">
	</g>
</g>
</svg>
