<?xml version="1.0" encoding="utf-8"?>
<!-- Generator: Adobe Illustrator 25.4.1, SVG Export Plug-In . SVG Version: 6.00 Build 0)  -->
<svg version="1.1" id="圖層_1" xmlns="http://www.w3.org/2000/svg" xmlns:xlink="http://www.w3.org/1999/xlink" x="0px" y="0px"
	 viewBox="0 0 50 50" style="enable-background:new 0 0 50 50;" xml:space="preserve">
<style type="text/css">
	.st0{fill-rule:evenodd;clip-rule:evenodd;fill:#E8C21C;}
	.st1{fill-rule:evenodd;clip-rule:evenodd;fill:#014693;}
	.st2{fill-rule:evenodd;clip-rule:evenodd;fill:#FFFFFF;}
	.st3{fill-rule:evenodd;clip-rule:evenodd;fill:#00994E;}
	.st4{fill:#DA2027;}
</style>
<g>
	<ellipse transform="matrix(0.164 -0.9865 0.9865 0.164 -3.7625 45.5602)" class="st0" cx="25" cy="25" rx="25" ry="25"/>
	<g>
		<ellipse transform="matrix(0.9181 -0.3964 0.3964 0.9181 -7.8623 11.9589)" class="st1" cx="25" cy="25" rx="22.8" ry="22.8"/>
		<path class="st0" d="M19.7,40.2c-3.1,1.2-6.2,0.5-6.2,0.5C5.5,38.1,3.6,31,5.6,25c-2-6-0.1-13.1,7.9-15.7c0,0,3.1-0.7,6.2,0.5
			c2-2,3.8-4.1,5.2-7.1c1.4,3,3.2,5.1,5.2,7.1c3.1-1.2,6.2-0.5,6.2-0.5c8,2.6,9.9,9.7,7.9,15.7c2,6,0.1,13.1-7.9,15.7
			c0,0-3.1,0.7-6.2-0.5c-2,2-3.8,4.1-5.2,7.1C23.5,44.3,21.7,42.2,19.7,40.2z"/>
		<path class="st2" d="M24.9,35c-0.9,2.2-2.3,3.6-3.8,4.5c0.1,0.1,0.2,0.2,0.3,0.3c1.3,1.3,2.5,2.8,3.4,4.3c1-1.6,2.1-3,3.4-4.3
			c0.1-0.1,0.2-0.2,0.3-0.3C27.2,38.7,25.8,37.3,24.9,35z"/>
		<path class="st2" d="M42.6,25c-0.6,1.6-1.5,3.1-2.7,4.4c-1.9,2-3.9,3.8-6,5.6c-1.4,1.1-2.8,2.3-4.1,3.5c-1.6-0.8-2.8-2.2-3.5-4
			l-1.4-3.3l-1.4,3.3c-0.8,1.8-1.9,3.2-3.5,4c-1.3-1.2-2.7-2.3-4.1-3.5c-2.1-1.8-4.1-3.6-6-5.6c-0.9-1-1.6-2.1-2.2-3.3
			c-0.2-0.4-0.3-0.7-0.5-1.1c0.1-0.4,0.3-0.7,0.5-1.1c0.6-1.2,1.3-2.3,2.2-3.3c1.9-2,3.9-3.8,6-5.6c1.4-1.1,2.8-2.3,4.1-3.5
			c1.6,0.8,2.8,2.2,3.5,4l1.4,3.3l1.4-3.3c0.8-1.8,1.9-3.2,3.5-4c1.3,1.2,2.7,2.3,4.1,3.5c2.1,1.8,4.1,3.6,6,5.6
			C41,21.8,41.9,23.4,42.6,25z"/>
		<path class="st3" d="M31.4,39c2.9-2.5,6.2-4.9,9.6-8.7c0.9-0.9,1.6-2,2.2-3.1c0.4,1.9,0.3,3.9-0.3,5.8c-1.1,3.3-3.7,5.3-7,6.2
			c-1.2,0.3-2.8,0.2-4,0C31.7,39.1,31.5,39.1,31.4,39z"/>
		<path class="st3" d="M6.6,27.2c0.6,1.1,1.3,2.2,2.2,3.1c3.5,3.7,6.8,6.1,9.6,8.7c-0.2,0.1-0.4,0.1-0.6,0.1c-1.2,0.2-2.8,0.3-4,0
			c-3.3-0.9-5.9-2.9-7-6.2C6.2,31.1,6.2,29.1,6.6,27.2z"/>
		<path class="st4" d="M12.7,21.1h1.5v-2.3h1.5v2.3h0.8c-0.1-0.2-0.1-0.4-0.2-0.6l1.2-0.4c0.4,0.9,0.7,1.8,0.9,2.6v-3.9h1.4v6.5
			c0,2.4-0.8,4.4-2.3,6.1l-1.3-1.1c1.1-1,1.8-2.2,2.1-3.7c-0.5,0.6-1,1.1-1.5,1.5L16,26.2c0.2-0.1,0.3-0.1,0.5-0.2
			c-0.2-0.4-0.5-0.7-0.7-1.1v6.2h-1.5v-5.2c-0.3,0.9-0.7,1.7-1.1,2.5l-0.6-2.2c0.8-1.1,1.3-2.3,1.6-3.6h-1.4V21.1L12.7,21.1z
			 M15.7,23.2c0.8,0.5,1.3,1,1.7,1.4l-0.8,1.3c0.6-0.4,1.2-0.9,1.7-1.6v-0.9l-1.3,0.4c0-0.4-0.1-0.8-0.2-1.2h-1.1V23.2L15.7,23.2z
			 M21.9,18.7v4c0.4-0.9,0.8-1.8,1-2.8l1.3,0.3c-0.2,1.2-0.5,2.4-1,3.5l-1.3-0.7V24c1.1,0.7,2,1.3,2.5,1.8l-1,1.6
			c-0.4-0.5-0.9-1.1-1.5-1.6v3.3c0,0.3,0.2,0.5,0.4,0.5h0c0.2,0,0.3-0.1,0.4-0.2c0.1-0.1,0.1-0.6,0.2-1.6l1.5,0.3
			c-0.1,1.3-0.3,2.1-0.5,2.5c-0.2,0.3-0.6,0.4-1.1,0.4h-1.2c-0.7,0-1.1-0.5-1.1-1.5V18.7H21.9L21.9,18.7z M37.5,18.9v12.3h-1.6v-0.4
			h-8.1v0.4h-1.6V18.9H37.5L37.5,18.9z M27.7,29.6h8.1v-9.3h-8.1v7.1c0.8-0.1,1.6-0.4,2.4-0.8h-1.6v-2.5h6.7v2.5h-1.1l0.8,0.5
			c-0.1,0.2-0.3,0.4-0.4,0.6c0.4,0.1,0.8,0.3,1.2,0.5l-0.6,1.3c-1.2-0.6-2.2-1.1-3.2-1.4l0.6-0.9c0.2,0,0.4,0.1,0.7,0.2
			c0.1-0.2,0.3-0.4,0.4-0.7h-1.7c0,0-0.1,0.1-0.1,0.1v2.5h-1.5v-1.3c-0.6,0.4-1.3,0.7-2,0.9l-0.6-1.2V29.6L27.7,29.6z M28.5,20.8V22
			H31v0.5h-3v1.2h7.5v-1.2h-2.9V22h2.4v-1.2h-2.4v-0.5H31v0.5H28.5L28.5,20.8z M33.7,25.6V25H30v0.5H33.7z"/>
		<path class="st2" d="M31.4,10.9c2.9,2.5,6.2,4.9,9.6,8.7c0.9,0.9,1.6,2,2.2,3.1c0.4-1.9,0.3-3.9-0.3-5.8c-1.1-3.3-3.7-5.3-7-6.2
			c-1.2-0.3-2.8-0.2-4,0C31.7,10.8,31.5,10.9,31.4,10.9z"/>
		<path class="st2" d="M6.6,22.7c0.6-1.1,1.3-2.2,2.2-3.1c3.5-3.7,6.8-6.1,9.6-8.7c-0.2-0.1-0.4-0.1-0.6-0.1c-1.2-0.2-2.8-0.3-4,0
			c-3.3,0.9-5.9,2.9-7,6.2C6.2,18.8,6.2,20.8,6.6,22.7z"/>
		<path class="st3" d="M24.9,14.9c-0.9-2.2-2.3-3.6-3.8-4.5c0.1-0.1,0.2-0.2,0.3-0.3c1.3-1.3,2.5-2.8,3.4-4.3c1,1.6,2.1,3,3.4,4.3
			c0.1,0.1,0.2,0.2,0.3,0.3C27.2,11.3,25.8,12.7,24.9,14.9z"/>
	</g>
</g>
</svg>
