<?xml version="1.0" encoding="utf-8"?>
<!-- Generator: Adobe Illustrator 25.4.1, SVG Export Plug-In . SVG Version: 6.00 Build 0)  -->
<svg version="1.1" id="圖層_1" xmlns="http://www.w3.org/2000/svg" xmlns:xlink="http://www.w3.org/1999/xlink" x="0px" y="0px"
	 viewBox="0 0 50 50" style="enable-background:new 0 0 50 50;" xml:space="preserve">
<style type="text/css">
	.st0{fill:#B5B6B6;}
	.st1{enable-background:new    ;}
	.st2{fill:#FCD007;}
	.st3{fill:#28AC4A;}
	.st4{fill:#E51E25;}
	.st5{fill:#1569B3;}
	.st6{fill:#FFFFFF;}
</style>
<g>
	<g id="Layer_4_00000072268890254864891190000004949102676617497274_">
		<path class="st0" d="M12.9,44.4c-0.6-0.7-1.4-2.6-2-3.3c-0.6-0.8-1.8-2.1-2.5-2.8c-0.2-0.2-1.1-0.9-1.1-0.9s1.7-0.1,3,0.2
			c0.9,0.2,2.8,2,3.3,3.2c0,0.1,1.1,1.1,2.2,3.4c0.7,1.5,0.6,2.9,0.6,2.9S13.6,45.2,12.9,44.4z"/>
		<path class="st0" d="M18.3,45.5c-0.3-0.4-0.3-2.5-0.2-3.2c0-0.8,0.6-2.5,1-3.2c0.4-0.7,2.1-2.6,2.1-2.6s-1,2.1-1.2,2.9
			c-0.4,2-0.9,4.4-0.5,5.1c0.4,0.6,1.1,0.4,1.1,0.4s-0.3,1.3-1.3,1.3c-0.3,0-0.3-0.2-0.5-0.3C18.6,45.7,18.4,45.7,18.3,45.5z"/>
		<path class="st0" d="M32.2,44.3c-5.1,2.1-5.1,3.2-7.8,4.4c-2.1,0.9-5.9,1.3-5.9,1.3c1.4-1.6,1.4-1.5,2.1-2.4
			c0.9-1.2,2.6-2.3,3.9-3c1-0.6,3.8-1.7,4.4-2.2c1-0.8,2.2-0.9,3.1-0.9c3.9,0,5.4,1.3,5.4,1.3S36.3,42.6,32.2,44.3z"/>
	</g>
	<g id="Layer_2_00000080918796269968240530000005935285347479118235_" class="st1">
		<path class="st2" d="M20.4,17.2l0.2-1.3L7.8,13.3c0,0,0.2-2.9,2.3-5.7c2.2-3,5.9-3.2,5.9-3.2s1.8-3.3,4.6-4.2
			c2.8-0.8,6.7,0.4,6.7,0.4l-3.5,17.1L20.4,17.2z"/>
	</g>
	<path class="st3" d="M11.7,26.7c0,0-1.7-0.7-3.5-3.1c-2.3-2.9-0.9-8.3-0.9-8.3l13,2.6l0.2-0.8l3.4,0.7l-3.3,16.4
		c0,0-2.9,0.2-6.1-1.9C11.7,30.7,11.7,26.7,11.7,26.7z"/>
	<g id="Layer_3_00000062895349072597242590000015047087802884566150_" class="st1">
		<path class="st4" d="M29.5,19l-3.3-0.7l3.5-16.8c0,0,3.7,0,6.2,2c2.7,2.1,2.7,5.7,2.7,5.7s2.1,0.6,3.7,3.9
			c1.8,3.7,0.4,7.4,0.4,7.4l-12.9-2.8L29.5,19z"/>
	</g>
	<path class="st5" d="M31.4,34.4c-2.9,1.9-5.4,1.1-5.4,1.1l-3.2-0.7l3.3-16.5l3.3,0.7l-0.2,1l12.9,2.5c0,0-0.2,3.5-2.5,6.1
		c-2.6,3-6,2.8-6,2.8S32.9,33.4,31.4,34.4z"/>
	<path class="st6" d="M11.9,11c0,0,0.5-1.8,1.8-2.7c1.8-1.2,4.1-1,4.1-1s0.4-1.2,1.9-2.2C21.1,4.2,23,4.5,23,4.5l-1.7,8.4l-2.7-0.6
		L11.9,11z M38.1,12.3c-1.3-1-2.4-1.3-2.4-1.3s-0.1-2-1.2-3.3c-0.9-1-2.5-1.4-2.5-1.4l-1.8,8.4l9.5,1.9C39.8,16.7,40.2,14,38.1,12.3
		z M17.9,29.5l1.8-8.6l-9.4-1.8c0,0-0.5,2.4,1.2,4.2c1.2,1.3,2.7,1.4,2.7,1.4s0.4,2.6,1.5,3.6C16.8,29.2,17.9,29.5,17.9,29.5z
		 M32.1,28.5c0,0,2.9,0.3,4.7-1.3c1.1-1,1.3-2.4,1.3-2.4l-9.5-1.9L27,31.4c0,0,2.2,0.3,3.5-0.7C31.3,29.9,32.1,28.5,32.1,28.5z"/>
</g>
</svg>
