<?xml version="1.0" encoding="utf-8"?>
<!-- Generator: Adobe Illustrator 25.4.1, SVG Export Plug-In . SVG Version: 6.00 Build 0)  -->
<svg version="1.1" id="圖層_1" xmlns="http://www.w3.org/2000/svg" xmlns:xlink="http://www.w3.org/1999/xlink" x="0px" y="0px"
	 viewBox="0 0 50 50" style="enable-background:new 0 0 50 50;" xml:space="preserve">
<style type="text/css">
	.st0{fill:#FFCC00;}
	.st1{fill:#E60000;}
	.st2{fill:#007F00;}
	.st3{fill:#007F00;stroke:#FFFFFF;stroke-width:1.0079;stroke-miterlimit:10;}
	.st4{fill:#004CFF;}
	.st5{fill:#0000CC;}
</style>
<g>
	<g id="g4082_00000020369501314638383110000014810241592686625451_">
		<path id="_x36_1386608_00000031909716861602464340000015497846119126528178_" class="st0" d="M14,22.2
			C14.3,22.2,13.9,22.2,14,22.2C14,22.2,13.9,22.2,14,22.2z"/>
		<path id="_x36_1386696_00000073699416139816474920000005349365055890143164_" class="st0" d="M13.9,27.5c0.3,0,0,0.1,0.1,0.1
			c0,0-0.1,0-0.2,0C13.8,27.6,13.8,27.6,13.9,27.5C14.1,27.4,13.6,27.5,13.9,27.5z"/>
		<path id="_x36_1386784_00000024681763160016322290000016029579088518608298_" class="st0" d="M14,28.5c0.1,0,0,0.1,0.1,0.2h-0.1
			C13.9,28.7,13.9,28.5,14,28.5z"/>
		<path id="_x36_1386872_00000083052037689592114510000004597957228818969787_" class="st0" d="M15.8,32.9
			C16.1,32.9,15.6,32.9,15.8,32.9C15.8,33,15.6,32.9,15.8,32.9z"/>
		<path id="_x36_1386960_00000036935932355550523890000008046378840196646557_" class="st0" d="M15.1,31.1
			C15.1,31.1,15.1,31.1,15.1,31.1c0,0.1-0.4,0.2,0.1,0.3C15.2,31.2,15.2,31,15.1,31.1z"/>
		<path id="_x36_1387048_00000075129758482370063510000016351117920792928436_" class="st0" d="M14,30.7c0.1,0,0,0.1,0.1,0.3h-0.2
			C13.9,31,13.9,30.7,14,30.7z"/>
		<path id="_x36_1387136_00000029743700919865801460000015089037690179310991_" class="st0" d="M14.8,30.4c0,0.1,0,0.2,0,0.3
			c0,0,0.1,0,0.1,0c0.1,0.2,0,0.1,0.1,0.3h0.2c0-0.1,0-0.2,0-0.3c0,0-0.2-0.1-0.3-0.1C14.8,30.6,14.8,30.4,14.8,30.4
			C14.8,30.4,14.8,30.4,14.8,30.4z"/>
		<path id="_x36_1387224_00000029036077326031457740000002788672007023154354_" class="st0" d="M14,30.1C14,30.2,14,30.2,14,30.1
			c0,0.3,0,0.1,0.1,0.2c0,0.1,0,0.2,0,0.3c0,0-0.1,0.1-0.2,0.1v-0.2c0,0-0.1,0-0.1,0C13.8,30.4,13.9,30.1,14,30.1z"/>
		<path id="_x36_1387312_00000086681799106021565310000004016797080488565663_" class="st0" d="M13.9,29.4c0,0,0,0.2,0,0.3
			c0.1-0.1,0.2,0.2-0.1,0.2c0.1,0-0.1-0.3-0.1-0.3C13.8,29.5,13.8,29.5,13.9,29.4C13.8,29.5,13.8,29.3,13.9,29.4z"/>
		<path id="_x36_1387400_00000131330176625559270480000007686402509312503739_" class="st0" d="M14.6,28.3c0,0.2,0,0.4-0.1,0.7
			c0,0,0.1,0,0.1,0v0.2h0.2c0,0,0-0.2,0.1-0.1c0-0.3,0-0.4,0.1-0.7c-2.2-0.5,2,0.6-0.1-0.1C14.8,28.3,14.7,28.3,14.6,28.3z"/>
		<path id="_x36_1387488_00000152225142944790098490000014919138647883915191_" class="st0" d="M13.8,25.7c0.2,0,0.1,0.2,0.1,0.3
			h-0.2v-0.2c0,0,0.1,0,0.1,0C13.8,25.8,13.8,25.8,13.8,25.7C13.6,25.8,13.6,25.7,13.8,25.7z"/>
		<path id="_x36_1387576_00000152233222837547831060000006180848031105316755_" class="st0" d="M13.9,21.4c0,0,0,0.2,0,0.3
			c0,0-0.1,0-0.1,0C13.8,21.6,13.8,21.4,13.9,21.4z"/>
		<path id="_x36_1387664_00000081633908065525145510000002209553767681990321_" class="st0" d="M13.9,20.7c0.1,0,0,0,0.1,0.3h-0.2
			C13.9,20.9,13.8,20.7,13.9,20.7z"/>
		<path id="_x36_1387752_00000083061656230781903540000017571323362528317629_" class="st0" d="M14.1,19.2c0,0,0,0.2,0,0.3
			c-0.1,0-0.1,0.1,0.1,0.1C14.2,19.5,14.2,19.2,14.1,19.2z"/>
		<path id="_x36_1387840_00000062172392298126474060000011173371488790024629_" class="st0" d="M14.1,18.2c0-0.1,0.1,0.1-0.1,0.3
			c-0.1,0,0.1,0.1,0.1,0.2h-0.2C14,18.4,13.8,18.5,14.1,18.2C14.2,18.2,13.8,18.2,14.1,18.2z"/>
		<path id="_x36_1387928_00000065755985938631496140000013529024724559846820_" class="st0" d="M18.6,6.2c0.1,0.1,0.2,0.1,0.3,0.2
			c0,0,0,0.1,0,0.1c0.1,0,0.2,0,0.3,0.1c0.1,0.1,0,0.4,0,0.5c0.1,0,0.1,0,0.3-0.1c0,0,0-0.1,0-0.1h0.2c0,0,0,0.1,0.1,0.2
			c0,0,0.3,0.2,0.3,0.3c0,0.1,0,0.2,0,0.3c0,0,0.1,0,0.1,0c0,0.1,0,0.2,0,0.3c0,0,0.1,0,0.1,0c0,0.1,0,0.2,0,0.3c0,0,0.1,0,0.1,0
			c0.1,0.3,0,0.4,0.1,0.8c0,0,0.1,0,0.1,0c0,0.2-0.1,0.4,0,0.6c0,0,0.1,0,0.1,0v0.2c0,0,0.2,0.1,0.2,0.1c0.1,0.2,0,0.3,0.1,0.4
			c0,0,0.1,0,0.1,0c0,0.2-0.1,0.5,0,0.7c0,0,0.1,0,0.1,0.2c0,0-0.1,0-0.1,0v0.2c0,0,0.1,0,0.1,0c0,0.2,0,0.4,0,0.6c0,0,0.1,0,0.1,0
			c0.1,0.5,0,1,0,1.5c0,0-0.1,0-0.1,0c0,0.3,0,0.6,0,0.8c0,0-0.1,0-0.1,0c0,0.2,0,0.4,0,0.7c0,0-0.1,0-0.1,0c-0.1,0.6,0,1.1-0.1,1.7
			c0,0-0.1,0-0.1,0c-0.1,0.3,0,0.4-0.1,0.7c0,0-0.1,0-0.1,0c-0.1,0.4,0,0.7,0,1.1c-0.1,0-0.1,0.1-0.2,0.2c0,0,0.1,0,0.1,0
			c0,0.2,0,0.4,0,0.6c0,0-0.1,0-0.1,0c0,0.4,0,0.7-0.1,1.1c0,0-0.1,0-0.1,0c0,0.1,0.1,0.2,0.1,0.3c0,0-0.1,0-0.1,0c0,0.3,0,0.7,0,1
			c0,0-0.1,0-0.1,0c0,0,0.1,0.2,0.1,0.1v0.2c0,0-0.1,0-0.1,0c0,0.4,0,0.8,0,1.2c0,0-0.1,0-0.1,0c0,0.8-0.1,1.3-0.1,2.1
			c0,0-0.1,0-0.1,0c0,0.2,0.1,0.2,0.1,0.5c0,0-0.1,0-0.1,0c0,0.4,0,0.7,0,1c0,0-0.1,0-0.1,0c0,0.2,0,0.3,0,0.5c0,0,0.1,0,0.1,0V27
			c0,0-0.1,0-0.1,0c0,0.2,0,0.3,0,0.5c0,0-0.1,0-0.1,0c0,0,0,0.1,0,0.1c0.1,0,0.1,0.1,0.1,0.3c0,0-0.1,0-0.1,0
			c-0.1,0.2,0,0.3-0.1,0.5c0,0-0.1,0-0.1,0c0,0,0,0.1,0,0.1c0,0,0.1,0,0.1,0c0,0.2,0.1,0-0.1,0.1c0,0.1,0,0.3,0,0.4h-0.2
			c0,0-0.1,0.2-0.1,0.2H19c0,0.1,0,0.4,0,0.5c-0.6,0,0.4,0.1-0.1-0.1c-0.1,0-0.3,0.1-0.3,0.1v0.2c-0.2,0.1,0-0.1-0.1,0.1
			c0-0.2,0.1,0.1,0.1,0.1c0,0-0.1,0-0.1,0c0,0.2,0,0,0.1,0.1c0,0.2,0.1,0-0.1,0.1c0,0.1,0,0.3,0,0.4l-0.3,0.2c-0.1,0.2,0,0.4,0,0.6
			c0,0-0.2,0.1-0.2,0.1c0,0.2,0.1,0.1,0.1,0.3c0,0-0.1,0-0.1,0c-0.1,0.2,0,0.2-0.1,0.3c0,0-0.2,0-0.3,0c0,0-0.1-0.1-0.1-0.2
			c0,0-0.2,0-0.3,0v-0.2c0,0-0.1,0-0.1,0c0,0-0.1-0.1-0.1-0.2H17c0,0,0-0.1,0-0.1c-0.2-0.1,0,0-0.1,0.1c-0.1,0-0.2-0.1-0.2-0.1
			c-0.1,0-0.3,0-0.4,0v0.2c0,0-0.1,0.1-0.2,0.1c0,0,0,0.1,0,0.1c-0.3,0-0.3-0.2-0.3-0.2c-0.1,0-0.4,0-0.5,0v0.2c0,0,0.2,0.1,0.2,0.1
			V32l0.3,0.2c0.1,0.1,0,0.1-0.1,0.1c0.1,0.2-0.1,0,0.1,0.1v0.2c0,0,0.1,0,0.1,0c0,0.1,0,0.1,0,0.3c0,0-0.2-0.1-0.2-0.1
			c-0.1-0.1,0-0.2-0.1-0.3c-0.1-0.1-0.3,0-0.3-0.1c0,0.1,0,0.2,0,0.3c0,0,0.1,0,0.1,0v0.2c0,0,0.1,0,0.1,0c0,0.1,0,0.2,0,0.3
			c-0.1,0.1-0.1-0.1-0.1,0.1c0,0,0.1,0,0.1,0v0.2c0,0-0.2,0-0.3,0c-0.1-0.2,0.1,0-0.1-0.1c0-0.1,0-0.3,0-0.4l-0.2-0.1
			c-0.1-0.1,0-0.2-0.1-0.3c-0.1-0.1-0.2,0-0.3-0.1c-0.1-0.1,0-0.2,0-0.3c0,0-0.1,0-0.1,0V32c-0.2-0.1,0,0.1-0.1-0.1
			c0.1,0,0.1,0.1,0.1-0.1c0,0-0.1,0-0.1,0v-0.2c0,0-0.1,0-0.1,0c-0.1-0.2,0-0.4-0.1-0.6c0,0-0.1,0-0.1,0c0-0.2,0,0,0.1-0.1
			c0-0.1,0-0.1-0.1-0.2c0,0,0.1,0,0.1,0c0-0.2,0.1,0-0.1-0.1c0-0.1,0-0.4,0-0.5c0,0-0.2-0.1-0.2-0.2c0,0,0.1,0,0.1,0
			c0-0.1,0-0.1,0.1-0.2c0,0,0-0.1,0-0.1c-0.2-0.1,0.1-0.5-0.2-0.6c0,0,0-0.1,0-0.1c0,0,0.1,0,0.1,0c0-0.2,0-0.3,0-0.5
			c0,0-0.1,0-0.1,0c0-0.1,0-0.3,0-0.4c-0.2-0.1,0,0.1-0.1-0.1c0-0.1-0.1,0.2-0.1,0.2c-0.1,0-0.2-0.4,0-0.4c0,0.1,0.1,0.2,0.1,0.2
			c0,0,0-0.3,0-0.3c0,0,0.1,0,0.1,0c0-0.2,0-0.1-0.1-0.3c0,0,0.3-0.1,0.2-0.2c0,0-0.1,0-0.1,0L13.9,27c-0.2-0.1-0.2,0.1-0.3,0.1
			c0.1-0.3,0-0.3,0.1-0.6c0.1,0,0.1,0.1,0.2,0.1v-0.2c0,0,0.1,0,0.1,0c0-0.1-0.1-0.3-0.1-0.4c0,0,0.1,0,0.1,0
			c0.9-0.4-0.9,0.2,0.1-0.1c0,0,0-0.1,0-0.1c0,0-0.1-0.1-0.2-0.1c0,0,0-0.2,0-0.3c0,0-0.1,0.1-0.2,0.1c-0.1-0.3,0,0-0.1-0.2v-0.2
			c0.2,0,0.1,0.2,0.3,0.2v-0.2c0,0,0.1,0,0.1,0s0.1,0,0.1,0v-0.2h-0.2c0-0.1,0-0.3,0-0.4c-0.4-0.3,0,0.3-0.2-0.2
			c-0.3,0,0.1-0.2,0.1-0.3c0,0,0,0.2,0,0.3c0,0,0.1,0,0.1,0c0-0.1,0-0.2,0-0.3h0.2c0-0.2,0-0.3,0.1-0.4c-0.3,0-0.3,0.1-0.4,0.1v-0.2
			c0.1,0,0.2,0,0.3,0c0-0.2,0-0.1,0.1-0.2c-0.1-0.1,0-0.2-0.1-0.3h-0.2v-0.2c0.5-0.1-0.3,0.2,0.1-0.1c0,0,0.1,0,0.1,0v-0.2
			c0,0-0.1,0-0.1,0c0,0-0.1,0-0.1,0c0,0,0-0.2,0-0.3c0.1,0,0.2,0,0.3,0c0-0.2,0-0.1,0.1-0.2c-0.1-0.1,0,0-0.1-0.2c0,0-0.1,0-0.1,0
			v-0.2c0,0-0.1,0-0.1,0c-0.2-0.1,0.2-0.2,0.2-0.2c0-0.1,0-0.2,0-0.3c-0.2-0.1,0,0.1-0.1-0.1c0.1-0.1,0.1,0.1,0.1-0.1
			c-0.1,0-0.4-0.3,0.1-0.3c-0.1,0,0-0.6,0-0.6c0,0-0.2-0.1-0.2-0.2c0,0,0.1,0,0.1,0c0.1-0.2,0.1-0.3,0.1-0.3c-0.1,0-0.1,0-0.1-0.2
			c0,0,0.1-0.1,0.2-0.1v-0.2c0,0-0.1,0-0.1,0v-0.2c-0.1-0.1-0.2,0-0.3,0.1c0-0.2,0-0.3,0-0.5c-0.2-0.1,0,0.1-0.1-0.1
			c0.2-0.1,0.1,0,0.3,0c0-0.2-0.1-0.5,0-0.7c0,0,0.1,0,0.1,0c0.1-0.1,0,0,0.1-0.2c-0.1-0.1-0.1,0-0.2-0.1c0,0,0.1-0.2,0.1-0.2
			c-0.2-0.1,0,0.1-0.1-0.1c0.1,0,0.1,0.1,0.1-0.1c0-0.1-0.2-0.1-0.3-0.1c0,0,0-0.2,0-0.3c0,0,0.1,0,0.1,0c0.1-0.4,0-0.8,0-1.2
			c0,0,0.1,0,0.1,0c0,0-0.1-0.2-0.1-0.3c0,0,0.1,0,0.1,0c0-0.2,0-0.5,0-0.7c0,0,0.1,0,0.1,0c0-0.1,0-0.2,0-0.3c0,0,0.1,0,0.1,0
			c0-0.1,0-0.3,0-0.4c0,0-0.1,0-0.1,0c0-0.2,0.1-0.2-0.1-0.3c0,0,0-0.1,0-0.1c0,0,0.1,0,0.1,0c0-0.1,0.1-0.4,0.1-0.4
			c0,0-0.1,0-0.1-0.2c0,0,0.1,0,0.1,0c0,0,0.1-0.2,0.1-0.2c0,0,0.2-0.1,0.2-0.1c0.1-0.2,0-0.4,0.1-0.7c0,0,0.1,0,0.1,0v-0.2
			c0,0,0.1,0,0.1,0c0-0.1,0-0.3,0-0.4l0.2-0.1c0-0.1,0-0.2,0-0.3c0,0,0.1,0,0.1,0v-0.2c0,0,0.1,0,0.1,0c0-0.1,0-0.3,0-0.4
			c0,0,0.1,0,0.1,0c0.1-0.3-0.2,0,0.1-0.1v-0.2c0,0,0.1,0,0.1,0c0-0.1,0-0.2,0-0.3c0,0,0.1,0,0.1,0v-0.2c0,0,0.1,0,0.1,0v-0.2
			l0.2-0.1c0.1-0.1,0.1-0.3,0.1-0.3H16c0,0,0-0.1,0-0.1c0.1,0,0.2,0,0.3-0.1V9.8c0-0.1,0.2,0,0.3-0.1c0.1-0.1,0-0.1,0.1-0.3
			c0,0,0.1,0,0.1,0c0-0.1,0-0.2,0-0.3c0,0,0.1,0,0.1,0c0-0.3,0-0.4,0.1-0.7c-0.2,0-0.2,0.1-0.5,0.1c0-0.1,0-0.2,0-0.3
			c0,0,0.2-0.1,0.2-0.1c0,0,0-0.2-0.1-0.1c0,0,0-0.1,0-0.1c0,0,0.2-0.1,0.2-0.1c0,0,0-0.1,0-0.1h0.2V7.7c0,0,0.1,0,0.1,0
			c0,0,0-0.1,0-0.1c0.2-0.1,0.2-0.2,0.4-0.3c0,0,0-0.1,0-0.1c0,0,0.1,0,0.1,0V7c0,0,0.2,0,0.3,0V6.8l0.3-0.2c0,0,0-0.1,0-0.1h0.2
			c0,0,0.1,0.3,0.1,0.3c0.1,0.1,0.3,0,0.5,0.1c0,0,0.1,0.2,0.1,0.2H19V7c0,0-0.1,0-0.1,0l-0.1-0.2h-0.2c0,0-0.1-0.1-0.1-0.2
			c0,0-0.1,0-0.1,0V6.5c0,0-0.1,0-0.1,0c-0.1-0.2,0-0.1-0.1-0.3C18.5,6.2,18.4,6.3,18.6,6.2z"/>
	</g>
	<path id="_x36_1388104_00000096021875792633218270000004479881092965481905_" class="st1" d="M6.4,17.5c0.1,0,0,0.1,0.1,0.2H6.3
		c0,0,0,0,0-0.1C6.2,17.8,6.2,17.5,6.4,17.5z"/>
	<path id="_x36_1388192_00000086658732891818638510000002196345625730123424_" class="st1" d="M6.1,17.9c0.2,0,0.2,0.2,0,0.2
		c0,0,0,0,0-0.1C6,18,6.1,17.9,6.1,17.9z"/>
	<path id="_x36_1388280_00000041277883096492736390000000528595862934118567_" class="st1" d="M5.7,18.3c0.1,0,0.2,0,0.4,0
		c0,0,0.1,0.1,0.1,0.1c0.1,0,0,0.1-0.1,0.1c0,0,0,0,0,0.1c-0.2,0-0.3,0-0.4-0.1C5.6,18.4,5.6,18.3,5.7,18.3z"/>
	<path id="_x36_1388368_00000106144132223942739970000018349666116180002696_" class="st1" d="M6,24c0.1,0,0,0.1,0.1,0.2H5.9
		C5.9,24.1,5.9,24,6,24z"/>
	<path id="_x36_1388456_00000121980390775974492260000007832218736355234698_" class="st1" d="M7,16.8c0,0,0.1,0.1,0.1,0.2H7
		C7,16.9,6.9,16.8,7,16.8z"/>
	<path id="_x36_1388544_00000040542286822659517790000002063935969656585365_" class="st1" d="M7.7,16.2c0.1,0,0.3,0,0.4,0
		c0,0,0,0.1,0,0.1c0.1,0,0.2,0,0.3,0l0.3,0.3c0.1,0,0.2,0,0.3,0L9,16.9c0.1,0,0.2,0,0.3,0c0,0,0,0.1,0,0.1c0.1,0,0.2,0,0.3,0.1
		c0,0,0,0.1,0,0.1c0.1,0,0.2,0,0.3,0l0.1,0.2c0.1,0.1,0.2,0,0.3,0.1l0.1,0.2h0.2c0,0,0.1,0.2,0.1,0.2h0.2c0,0,0,0.1,0,0.1h0.2
		c0,0,0.1,0.2,0.1,0.2c0,0,0.2,0.1,0.3,0.1c0,0,0,0.1,0,0.1c0,0,0.1,0,0.1,0c0,0.1,0,0.2,0,0.3l0.3,0.2c0.1,0.2,0,0.2,0.1,0.4
		c0,0,0.1,0,0.1,0c0,0.1,0,0.2,0,0.3c0,0,0.1,0,0.1,0v0.2c0,0,0.1,0,0.1,0c0,0.1,0,0.2,0,0.3c0,0,0.1,0,0.1,0c0.1,0.2,0,0.1,0.1,0.3
		c0,0,0.1,0,0.1,0c0,0.1-0.1,0.2,0,0.3c0,0,0.2,0.2,0.3,0.2c0,0,0,0.1,0,0.1h0.2c0,0,0,0.1,0,0.1h0.2c0,0,0,0.1,0,0.1L13,21
		c0,0.1,0,0.2,0,0.3c0.1,0.1,0.2,0,0.3,0.1v0.2c0,0,0.2,0.2,0.3,0.2c0,0,0,0.1,0,0.1h0.2c0.1,0.1,0,0.4,0,0.5c0,0,0.2,0.1,0.2,0.1
		c0,0,0,0.2,0,0.3c0,0,0.3,0,0.3,0.1v0.2H14c0,0,0,0.1,0,0.1v0.2h-0.2c-0.1,0.1,0,0.4-0.1,0.6c0,0-0.1,0.1-0.2,0.1v0.2
		c0,0-0.1,0-0.1,0c0,0.1,0,0.2,0,0.3l-0.3,0.1v0.2c0,0-0.2,0.1-0.2,0.1c0,0,0,0.1,0,0.1c-0.1,0-0.2,0-0.3,0.1v0.2c0,0-0.1,0-0.1,0
		V25c0,0-0.1,0-0.1,0c-0.1,0.2,0,0.3-0.1,0.4c-0.2,0-0.2,0.1-0.4,0.1c0,0,0-0.1,0-0.1H12c0,0,0-0.1-0.2-0.1c0,0,0,0.1,0,0.1h-0.2
		c0,0,0,0.1,0,0.1c-0.1,0-0.3,0.3-0.3,0.3c-0.1,0-0.2,0.1-0.3,0.1c0,0,0-0.1,0-0.1c-0.1,0-0.2,0-0.3,0c-0.3,0.1,0.3,0.1-0.1,0.1
		c0,0,0-0.1,0-0.1c-0.1,0-0.2,0-0.3,0c0,0,0-0.1,0-0.1c-0.1,0-0.2,0-0.3,0l-0.1-0.2c-0.2-0.1-0.2,0-0.3-0.1c0,0,0-0.1,0-0.1
		c-0.3-0.1-0.2,0.2-0.2,0.2c-0.1,0-0.2-0.2-0.2-0.2c-0.1,0-0.2,0-0.3,0c0,0-0.1-0.2-0.1-0.2H9c0,0,0-0.1,0-0.1c0,0-0.1,0-0.1,0
		c0,0,0-0.1,0-0.1c-0.1,0-0.2,0-0.3,0v-0.2c-0.2-0.1-0.4,0-0.6,0L8,24.7c-0.1,0-0.2,0-0.3,0l-0.2-0.3c-0.2-0.1-0.4,0-0.5-0.1v-0.2
		H6.9c0,0,0-0.1,0-0.1c-0.1,0-0.3,0.1-0.3,0c0,0,0-0.1,0-0.1c-0.1-0.1,0-0.1-0.1-0.3l-0.2-0.1v-0.2c0,0-0.1,0-0.1,0c0,0,0-0.1,0-0.1
		c-0.1,0-0.2,0-0.3,0c0,0,0-0.1,0-0.1c0.1,0.2,0-0.3,0-0.3H5.8c0-0.1,0-0.2,0-0.3c0,0-0.1,0-0.1,0c0,0-0.1-0.2-0.1-0.3
		c0,0-0.1-0.1-0.2-0.1c0,0,0-0.1,0-0.1c0,0-0.1,0-0.1,0v-0.2c-0.1,0-0.2,0-0.2-0.1c0-0.1,0-0.2,0-0.3c0,0-0.1-0.1-0.2-0.1v-0.2
		l-0.3-0.1c0-0.1,0-0.3,0-0.3c0.1-0.1,0.2,0,0.3-0.1C5,21.1,5,21,5.1,21c0,0,0-0.3-0.2-0.2c0,0-0.1-0.2-0.1-0.2H4.7
		c0-0.1,0.1-0.3,0.1-0.3c0.1,0,0.2,0,0.3,0c0,0,0-0.1,0-0.1c0.3,0,0.4,0,0.7-0.1c0,0,0-0.1,0-0.1c0.1,0,0.2,0,0.3,0c0,0,0-0.1,0-0.1
		C6.3,20,6,20,6,20v-0.2h0.2c0,0,0-0.1,0-0.1c0.2,0,0.3,0.1,0.5,0.1c0-0.1,0-0.2,0-0.3c0.2-0.1,0,0.1,0.1-0.1H7
		c0.1,0-0.2-0.1-0.1-0.3H7c0.1-0.2-0.2,0,0.1-0.1c0,0,0-0.2,0-0.3l0.3-0.1c0-0.2-0.1-0.1-0.2-0.2c0-0.2,0-0.4,0-0.6c0,0,0.2,0,0.3,0
		v-0.2h0.2c0.1-0.1,0.1-0.5,0.1-0.6h0.2c0,0-0.1,0.4-0.1,0.4c0.2,0,0.3,0,0.5,0c0,0,0-0.1,0-0.1c0,0,0-0.1,0-0.1
		c-0.1,0-0.2-0.2-0.3-0.3c0,0,0-0.1,0-0.1H7.8c0,0,0-0.1,0-0.1c-0.1,0.1-0.3,0-0.4,0.1s0.1,0.2,0.1,0.2c0,0,0,0.2,0,0.2
		c-0.3,0-0.2-0.1-0.3-0.1c0,0,0,0.1,0,0.1c0,0-0.2,0-0.3,0c0,0-0.2-0.3-0.2-0.3c0.2-0.1,0.2,0,0.4-0.1c0,0,0-0.1,0-0.1
		c0,0,0.1-0.1,0.2-0.1c0-0.1-0.1-0.3,0-0.4h0.2c0,0.1,0,0,0.1,0.1c0,0,0.2-0.4,0-0.3c0,0,0-0.1,0-0.1C7.6,16.3,7.7,16.2,7.7,16.2z"
		/>
	<g id="g43_00000014608998874641704880000003987138790953437580_">
		<path id="_x36_1388720_00000046302953143632979970000014020091860969321888_" class="st2" d="M24.8,20.3c0.1,0,0,0.1,0.1,0.2h-0.1
			C24.8,20.4,24.7,20.3,24.8,20.3z"/>
		<path id="_x36_1388808_00000073691744257163646790000009781696408993833875_" class="st2" d="M24.9,25.5c0.2-0.1,0.1,0.2,0.1,0.2
			c0,0,0,0-0.1,0c0,0-0.1,0.1-0.1,0.1c-0.2,0.1-0.2-0.2-0.1-0.1C24.8,25.7,24.8,25.5,24.9,25.5C24.9,25.5,24.9,25.5,24.9,25.5z"/>
		<path id="_x36_1388896_00000059998642219970116170000003567651454488906126_" class="st2" d="M24.8,25.9c0.2-0.2,0,0.4-0.1,0.4
			c-0.1,0.1,0-0.1-0.1-0.1c0,0.1-0.1-0.1-0.1-0.1l0.1-0.1C24.8,26.1,24.8,25.9,24.8,25.9C24.8,25.9,24.8,25.9,24.8,25.9z"/>
		<path id="_x36_1388984_00000155128591992502668640000008347484291474029192_" class="st2" d="M25.8,26C25.8,26,25.8,26,25.8,26
			c0.1,0.1,0.1,0.1,0,0.1c0,0,0,0,0,0.1C25.7,26.1,25.7,26,25.8,26z"/>
		<path id="_x36_1389072_00000065042593885471624570000001850665292624916612_" class="st2" d="M26.1,26c0.2,0,0,0.1,0.1,0.2
			c-0.1,0-0.1,0-0.2,0c0,0,0,0,0-0.1C26,26.1,26,25.9,26.1,26z"/>
		<path id="_x36_1389160_00000054247783840692613600000014992349321042783881_" class="st2" d="M24.8,26.5
			C24.9,26.5,24.8,26.5,24.8,26.5c0,0.1,0,0.1,0,0.1C24.7,26.6,24.7,26.5,24.8,26.5z"/>
		<path id="_x36_1389248_00000014599570140887846990000009397385612864800141_" class="st2" d="M25.4,27.4
			C25.2,27.4,25.4,27.4,25.4,27.4c0,0.1,0,0.2,0,0.2c-0.1,0-0.2-0.1-0.1-0.1C25.3,27.4,25.3,27.4,25.4,27.4z"/>
		<path id="_x36_1389336_00000080908848150206059800000016043894548124918949_" class="st2" d="M25.7,27.4
			C25.7,27.4,25.7,27.4,25.7,27.4v0.2c0,0,0,0-0.1,0c0,0,0,0,0-0.1C25.5,27.6,25.6,27.4,25.7,27.4z"/>
		<path id="_x36_1389424_00000174570965894761147540000009252648523235030454_" class="st2" d="M23.4,29.2c0.5,0-0.1,0.1-0.1,0.1
			C23.4,29.3,23.3,29.2,23.4,29.2z"/>
		<path id="_x36_1389512_00000171700609094701366760000012955314111815406252_" class="st2" d="M24.2,29.5c0.1,0,0.1,0.2,0.1,0.3
			h-0.1c0,0-0.1-0.2,0-0.2C24.2,29.6,24.1,29.5,24.2,29.5z"/>
		<path id="_x36_1389600_00000163031288707872772830000017185177798743588229_" class="st2" d="M24.5,29.8
			C24.6,29.9,24.5,29.8,24.5,29.8c0.1,0.3,0.1,0.4,0.1,0.6c0,0-0.2,0-0.2,0v-0.1c0,0-0.1,0-0.1-0.1v-0.1l0.2-0.1c0-0.1,0-0.2,0-0.2
			C24.4,29.8,24.5,29.8,24.5,29.8z"/>
		<path id="_x36_1389688_00000078748116329603456670000008216414774791829682_" class="st2" d="M23,32.5c0.1,0-0.1,0.1-0.1,0.1
			C22.9,32.6,22.9,32.5,23,32.5z"/>
		<path id="_x36_1389776_00000112633353748764689530000018204627353902869684_" class="st2" d="M23.8,32.8
			C24.1,32.8,23.7,32.8,23.8,32.8C23.8,32.9,23.7,32.8,23.8,32.8z"/>
		<path id="_x36_1389864_00000114037523236849450540000002541864772774164904_" class="st2" d="M25.3,33c0.1,0,0,0.2,0.1,0.2
			c-0.1,0-0.1,0-0.1,0.1c-0.1,0-0.1,0-0.1-0.1C24.9,33.1,25.1,33.1,25.3,33C25.7,32.9,24.7,33.1,25.3,33z"/>
		<path id="_x36_1389952_00000121999178084938114280000009976648735552219563_" class="st2" d="M22.8,33.3c0.1,0,0,0.2,0.1,0.2h-0.1
			C22.8,33.5,22.7,33.3,22.8,33.3z"/>
		<path id="_x36_1390040_00000134233886446705935960000017383835909651233712_" class="st2" d="M23.8,33.6
			C23.8,33.6,23.8,33.6,23.8,33.6c0.1,0.1,0,0.1,0.1,0.2c0,0-0.1,0-0.1,0.1c0,0,0,0,0-0.1c0,0.2,0-0.1-0.1-0.2
			C23.7,33.7,23.7,33.7,23.8,33.6C23.8,33.6,23.6,33.6,23.8,33.6z"/>
		<path id="_x36_1390128_00000107566653903989680570000004299281965168626318_" class="st2" d="M23.6,34c0.2,0,0.2,0.2,0,0.2V34
			C23.5,34.1,23.5,34,23.6,34z"/>
		<path id="_x36_1390216_00000075850171141499500160000014390070086075597960_" class="st2" d="M24.5,34.1c0.2,0,0.2,0.2,0.1,0.1
			c0,0.1,0,0.2-0.1,0.2c0,0-0.1-0.1-0.1-0.1C24.4,34.3,24.4,34.1,24.5,34.1z"/>
		<path id="_x36_1390304_00000008865526384472749400000008600900142115868852_" class="st3" d="M24.3,34.5
			C24.3,34.6,24.3,34.6,24.3,34.5c0.1,0,0.1,0,0.2,0"/>
		<path id="_x36_1390392_00000093174166978262734990000014661907548342277783_" class="st3" d="M24.5,34.5v0.1"/>
		<path id="_x36_1390480_00000051348412003070519550000014483813144693469876_" class="st3" d="M24.5,34.7c0,0-0.1,0-0.2,0
			C24.4,34.8,24.4,34.7,24.5,34.7c-0.1,0.3-0.1,0.4-0.1,0.6c0.1,0,0.1,0,0.2-0.1c0,0,0,0,0,0.1c0,0,0,0,0.1,0c0,0.1,0,0.2,0,0.2
			c0.1,0.1,0-0.1,0.1,0.1c-0.1,0-0.1,0-0.2,0.1c0,0.1,0,0-0.1,0.1"/>
		<path id="_x36_1390568_00000041269496757107814050000016065426395510631065_" class="st3" d="M24.4,35.7v0.1"/>
		<path id="_x36_1390656_00000183237957715074439390000002793357261769670564_" class="st3" d="M24.4,35.8
			C24.4,35.8,24.5,35.8,24.4,35.8c0,0.1,0,0,0,0.2c-0.1,0-0.2,0-0.3,0c0-0.1,0-0.1,0.1-0.2c0,0,0,0,0.1,0c0,0,0-0.1,0-0.2
			c0,0,0,0-0.1,0c0-0.2,0-0.5,0-0.6"/>
		<path id="_x36_1390744_00000060727667068708697470000011454248767918893990_" class="st3" d="M24.2,34.9h0.1"/>
		<path id="_x36_1390832_00000091009200802909714680000000755153907074096045_" class="st3" d="M24.3,34.9c0-0.1,0-0.3-0.1-0.2
			c0,0,0.1-0.1-0.1-0.1c0,0,0.1-0.2,0.1-0.1"/>
		<path id="_x36_1390920_00000026160762707645471460000008481704811521377195_" class="st2" d="M23.2,34.7c0,0,0.1,0,0.2,0
			c0,0.1,0,0-0.1,0.1c0,0,0,0-0.1,0c0,0.1,0,0.3,0,0.5c0,0,0,0-0.1,0c0,0,0,0.1,0,0.2c0.1,0,0.1,0,0.1,0.1c0,0,0,0-0.1,0
			c0,0.1,0,0.2,0,0.3c0,0-0.2,0-0.2,0c0,0,0,0,0,0.1c0.1,0,0.1,0,0.2,0.1c0,0.1,0,0.2,0,0.3c0,0,0,0-0.1,0c0,0.1,0,0.3,0,0.4
			l-0.1,0.1c0,0.1,0,0.1,0,0.2c0,0,0,0,0.1,0c0,0,0,0.1,0,0.2c-0.1,0-0.1-0.1-0.1,0.1c0,0,0,0,0,0.1c0,0,0.2,0,0.2,0V37
			c0.1,0,0.2,0,0.2,0c0,0,0,0,0,0.1c-0.1,0-0.1,0-0.2,0.1l0.1,0.2c0.1,0,0.2-0.1,0.2-0.1c0,0,0.1,0,0.2,0c0,0,0.1,0.1-0.2,0.1v0.1
			c0,0,0,0,0.1,0c0,0.1,0,0,0.1,0.1v0.1c0,0-0.1,0-0.1,0.1v0.1c0.1,0,0.1,0,0.2,0.1c0,0,0,0.3-0.1,0.2c0,0,0.1,0.1-0.1,0.1
			c0,0.1,0,0.2,0,0.2h-0.1c0-0.1,0-0.1-0.1-0.1c0,0,0-0.5,0.1-0.3c0-0.1-0.2-0.1-0.2-0.1c0-0.1,0-0.4-0.1-0.5c0,0-0.2,0-0.2,0
			c0,0.1,0,0-0.1,0.1c0,0.2,0,0.2-0.1,0.4c0,0,0,0,0.1,0c0,0.1,0,0.2,0,0.3l0.2,0.1c0,0,0,0.2,0.1,0.2c0,0,0,0,0.1,0v0.1
			c0,0,0,0,0.1,0l-0.1,0.2c0,0-0.1,0-0.2,0c-0.1-0.1,0-0.1,0-0.3c0,0-0.2,0-0.2,0c0,0.1,0,0.2,0,0.2c0,0-0.1,0.1-0.1,0.1
			s0,0.2,0.1,0.1c0,0,0,0.2,0.1,0.1c0,0.1,0,0.2,0,0.2c-0.1,0-0.1,0-0.2,0c0,0-0.1-0.1-0.1-0.1c0,0-0.2,0-0.2-0.1c0-0.1,0-0.1,0-0.2
			c0,0,0,0,0.1,0c0,0,0-0.1,0-0.2c0,0,0,0,0.1,0c0-0.1,0-0.1,0-0.2c0,0-0.1,0-0.1-0.1c0,0,0,0,0.1,0c0-0.1,0-0.2,0-0.2
			c0,0,0,0-0.1,0c0,0,0-0.1,0-0.2c0.1,0,0.1,0,0.1-0.1c0,0,0,0,0-0.1c0,0,0.1,0.1,0.1,0.1c0,0,0-0.1,0-0.2c0,0,0,0-0.1,0
			c0-0.2,0.1-0.4,0-0.6c0,0,0,0-0.1,0c0,0,0,0,0-0.1h-0.1c0-0.1,0-0.2-0.1-0.2l-0.1-0.1v-0.1h0.1c0,0.1,0,0,0.1,0.1c0,0,0,0,0.1,0
			v0.1h0.1c0-0.2,0-0.5,0-0.7c0,0,0.2-0.1,0.2-0.1c0,0,0,0,0-0.1c0,0-0.1,0-0.2,0c0,0,0-0.2,0-0.2H23c0,0,0,0,0-0.1h-0.1
			c0-0.1,0-0.2,0-0.2c0,0,0,0,0.1,0v-0.1c0,0,0,0,0.1,0c0-0.1,0,0-0.1-0.1v-0.1c0,0,0,0,0.1,0c0-0.1,0-0.2,0-0.4
			C23,34.7,23.1,34.7,23.2,34.7C23.6,34.6,22.8,34.7,23.2,34.7z"/>
		<path id="_x36_1391008_00000181061146037812924940000002770056632804655497_" class="st2" d="M23.8,35.5c0.5,0-0.1,0.1-0.1,0.1
			C23.8,35.5,23.7,35.5,23.8,35.5z"/>
		<path id="_x36_1391096_00000156586492793425695240000007836393579792018584_" class="st2" d="M24.6,35.7c0.1,0,0,0.2,0,0.2
			C24.5,35.9,24.5,35.7,24.6,35.7z"/>
		<path id="_x36_1391184_00000060710515954127268890000004048766811267990966_" class="st2" d="M22.6,35.8c0.4,0-0.1,0.1-0.1,0.1
			C22.6,35.9,22.5,35.8,22.6,35.8z"/>
		<path id="_x36_1391272_00000049932284892805503900000009256386264067081902_" class="st2" d="M23.5,36.1c0.2,0,0.2,0.2,0,0.2
			c0,0,0,0,0-0.1C23.4,36.2,23.4,36.1,23.5,36.1z"/>
		<path id="_x36_1391360_00000140701534121257793780000012995859412981632425_" class="st2" d="M23.8,36.1c0.1,0,0,0.1,0.1,0.2h-0.1
			c0,0,0,0,0-0.1C23.6,36.3,23.7,36.1,23.8,36.1z"/>
		<path id="_x36_1391448_00000047035860301334864620000003945377062486189208_" class="st2" d="M23.4,36.4
			C23.4,36.4,23.5,36.4,23.4,36.4c0.1,0.2,0.1,0.2,0.1,0.3h0.1c0.1,0,0-0.1,0.2-0.1c0,0.2,0,0.3,0,0.5c-0.1,0-0.2,0-0.2,0v-0.1
			c0,0,0.2,0,0.1-0.1c-0.2-0.1-0.1,0-0.3,0C23.4,36.6,23.3,36.5,23.4,36.4z"/>
		<path id="_x36_1391536_00000148649025814965416340000001611562673508987022_" class="st2" d="M24,36.9c0.1,0,0.1,0.2,0.1,0.2H24
			C24,37.1,23.9,36.9,24,36.9z"/>
		<path id="_x36_1391624_00000120539562231242836880000010425208284925449395_" class="st2" d="M22.5,37.1c0,0,0.1,0.2,0.1,0.2
			c0,0,0,0-0.1,0c0,0,0,0,0,0.1C22.4,37.5,22.4,37.1,22.5,37.1z"/>
		<path id="_x36_1391712_00000110447053753446107880000003628704006198643133_" class="st2" d="M24.2,37.1c0.5,0-0.1,0.1-0.1,0.1
			C24.2,37.1,24.1,37.1,24.2,37.1z"/>
		<path id="_x36_1391800_00000047031474074456886660000016320368934875566013_" class="st2" d="M24.8,37.1c0.4,0-0.1,0.1-0.1,0.1
			C24.7,37.2,24.7,37.1,24.8,37.1z"/>
		<path id="_x36_1391888_00000151528575473912849440000011045959491471644569_" class="st2" d="M24.2,37.3c0.1-0.1,0,0.3,0,0.4
			c0,0,0,0-0.1,0c0,0,0,0,0,0.1H24c0-0.1,0,0-0.1-0.1C24,37.5,24,37.4,24.2,37.3z"/>
		<path id="_x36_1391976_00000120529024513072095030000007786827901924982695_" class="st2" d="M24.1,37.8c0.2,0,0.1,0.3,0,0.3
			c0,0,0,0,0-0.1C23.9,38.1,23.9,37.8,24.1,37.8z"/>
		<path id="_x36_1392064_00000155148010006902655210000011797331422675806641_" class="st2" d="M23.4,38.1c0.1,0-0.1,0.1-0.1,0.1
			C23.3,38.2,23.3,38.1,23.4,38.1z"/>
		<path id="_x36_1392152_00000141447963599831925260000008638294006103372685_" class="st2" d="M23.6,38.5
			C23.7,38.6,23.5,38.5,23.6,38.5c0.1,0.1,0,0.2,0.1,0.3c0.1-0.1,0,0,0.1,0.1c0,0,0,0,0.1,0c0,0-0.1,0.1-0.1,0.1c-0.1,0-0.1,0-0.2,0
			l-0.1-0.3c0,0,0,0,0.1,0C23.5,38.6,23.5,38.5,23.6,38.5C23.6,38.5,23.6,38.5,23.6,38.5z"/>
		<path id="_x36_1392240_00000036228592603667546340000018282697793039461798_" class="st2" d="M23.2,38.8c0.2,0,0.2,0.2,0.1,0.1
			c0,0,0,0,0,0.1c0,0-0.1,0-0.2,0C23.2,38.9,23.1,38.8,23.2,38.8z"/>
		<path id="_x36_1392328_00000116233844050254860860000017304295366787481265_" class="st2" d="M23.8,38.9l0.1,0.2c0,0,0.2,0,0.2,0
			v0.1c0,0-0.1,0.1-0.1,0.1c0,0.1,0,0.2,0,0.4c0,0-0.1,0-0.1,0.1c0,0-0.1-0.1-0.1-0.1c0,0.1-0.1-0.1-0.1-0.1
			c0.2,0.1,0.1-0.2,0.1-0.3c0,0-0.1,0-0.2,0v-0.1c0,0,0,0-0.1,0C23.7,39,23.7,38.9,23.8,38.9C23.9,39,23.7,38.9,23.8,38.9z"/>
		<path id="_x36_1392416_00000008863808151999494740000009369315766999250099_" class="st2" d="M23.5,39c0.1,0-0.1,0.1-0.1,0.1
			C23.5,39.1,23.4,39,23.5,39z"/>
		<path id="_x36_1392504_00000116951094529635993740000011350130641272966073_" class="st2" d="M23.7,39.5c0.1,0,0.1,0.1,0,0.1
			C23.7,39.6,23.7,39.6,23.7,39.5C23.6,39.5,23.6,39.4,23.7,39.5z"/>
		<path id="_x36_1392592_00000101085074576220288930000018315870106321921935_" class="st2" d="M23.5,39.5v0.1
			C23.3,39.7,23.5,39.6,23.5,39.5z"/>
		<path id="_x36_1392680_00000115486681138997532240000004551454489455327878_" class="st2" d="M23.9,39.9c0.3,0,0,0.1,0.2,0.2
			c0,0,0,0,0,0.1c0,0,0.1,0,0.2,0c0,0,0,0.2,0,0.2c-0.2,0-0.2-0.1-0.4-0.1c0,0,0,0.1-0.1,0.1c0-0.1,0.1-0.2,0.1-0.2H24
			c0,0,0,0,0-0.1h-0.1C23.8,40,23.8,39.9,23.9,39.9z"/>
		<path id="_x36_1392768_00000028315867529217207080000018368074212343914380_" class="st2" d="M23.4,40.1c0.1,0,0.1,0,0.2,0.1
			c0,0.1,0.1,0.3-0.1,0.2l-0.1-0.2c0,0,0,0-0.1,0L23.4,40.1C23.4,40.1,23.4,40.1,23.4,40.1z"/>
		<path id="_x36_1392856_00000043423586204271750370000012093015048158047886_" class="st2" d="M26.9,40.5c0.3,0,0,0.1,0.1,0.1
			c0,0-0.1,0-0.2,0C26.9,40.5,26.8,40.5,26.9,40.5z"/>
		<path id="_x36_0589552_00000033348777867307870010000002109361254608884356_" class="st2" d="M23.5,40.5
			C23.5,40.6,23.5,40.6,23.5,40.5c0.1,0.1,0,0.3,0.1,0.4c-0.2,0,0,0-0.1,0.1c-0.1,0-0.1,0-0.2,0c0.1,0,0-0.3,0-0.3L23.5,40.5z"/>
		<path id="_x36_0589640_00000038396762689028592590000013670383542181502106_" class="st2" d="M23.9,40.5H24c0,0,0,0.2,0,0.2
			c0,0,0.2,0,0.2,0c0,0.1,0,0.2,0,0.4c0,0-0.1,0.1-0.1,0.1L24,40.9h-0.1v-0.1c0,0-0.1,0-0.1,0.1c0,0,0,0,0-0.1c0,0,0,0-0.1,0
			c0,0,0-0.2,0-0.2h0.1C23.8,40.6,23.8,40.6,23.9,40.5C23.9,40.5,23.9,40.5,23.9,40.5z"/>
		<path id="_x36_0589728_00000121982301917247694120000005326501277021177743_" class="st2" d="M23.5,41.2
			C23.5,41.3,23.5,41.3,23.5,41.2c0.1,0,0.2,0.1-0.1,0.2c0,0,0,0,0-0.1C23.3,41.4,23.4,41.2,23.5,41.2z"/>
		<path id="_x36_0589816_00000062163799846120917630000009895173644125751941_" class="st2" d="M23.5,41.5c0.2,0,0.1,0.2,0.1,0.2
			c0,0,0,0,0,0.1h-0.1c0,0-0.1-0.1-0.1-0.1c0,0,0,0,0.1,0C23.5,41.5,23.4,41.5,23.5,41.5z"/>
		<path id="_x36_0589904_00000135687661063415821320000016381102297990628531_" class="st2" d="M23.8,42.1c0.1,0,0,0.1,0.1,0.2h-0.1
			C23.8,42.2,23.7,42.1,23.8,42.1z"/>
		<path id="_x36_0589992_00000024719667941373632470000010502976677570245034_" class="st2" d="M23.8,42.4c0.1,0,0,0.1,0.1,0.2
			c-0.4,0-0.1-0.1-0.2-0.1L23.8,42.4C24,42.4,23.6,42.4,23.8,42.4z"/>
		<path id="_x36_0590080_00000027566507023078316580000004436554476481835680_" class="st2" d="M24,42.5c0.5,0-0.1,0.1-0.1,0.1
			C24,42.6,23.9,42.5,24,42.5z"/>
		<path id="_x36_0590168_00000111871313203258864740000003736064948842870461_" class="st2" d="M22.7,48.1c0.1,0,0.1,0,0.2,0.1
			c0,0,0,0,0,0.1c0,0,0,0-0.1,0c0,0,0.1,0.1-0.1,0.1c0,0,0,0,0,0.1c0,0,0,0,0.1,0c0,0.1,0,0,0.1,0.1c0,0,0,0.1,0,0.2h-0.1
			c0-0.1,0-0.1-0.1-0.2c0,0,0,0-0.1,0C22.6,48.4,22.6,48,22.7,48.1z"/>
		<path id="_x36_0590256_00000067922056447065627570000008756767135653887929_" class="st2" d="M22.8,48.7c0.1-0.1,0.1,0.2,0.1,0.3
			h-0.1C22.7,48.9,22.6,48.6,22.8,48.7C22.8,48.7,22.7,48.6,22.8,48.7z"/>
		<path id="_x36_0590344_00000069383119310219863250000012360694932607530932_" class="st2" d="M23.3,48.9c0,0,0,0.2,0,0.2
			C23,49.3,23.1,49,23.3,48.9z"/>
		<path id="_x36_0590432_00000018952807782843150050000000578861339001968573_" class="st2" d="M22.7,49.9c0.1,0,0.2,0,0.2,0
			c-0.1,0.1,0.1,0.1-0.1,0.1c0,0,0,0,0,0.1c0,0-0.1,0-0.2,0C22.7,50,22.6,49.9,22.7,49.9C22.6,49.9,22.6,49.9,22.7,49.9z"/>
		<path id="_x36_0590520_00000018930824567470411160000008624934431624232849_" class="st2" d="M22.5,46.7c0.1,0.1-0.1,0.2-0.1,0.2
			C22.4,46.8,22.4,46.7,22.5,46.7z"/>
		<path id="_x36_0590608_00000014632598173941769470000012533182281249574837_" class="st2" d="M22.4,46.2c0.1,0.1-0.1,0.2-0.1,0.2
			C22.3,46.3,22.3,46.1,22.4,46.2z"/>
		<path id="_x36_0590696_00000083055825076680045870000007762150602438207418_" class="st2" d="M25.5,43.5c0.3-0.1,0,0.2,0,0.2
			C25.3,43.8,25.4,43.6,25.5,43.5z"/>
		<path id="_x36_0590784_00000003101818582643812100000011649182777696882874_" class="st2" d="M25.9,43.1c0,0.2,0,0.4,0,0.6
			c-0.1-0.1-0.1,0.1-0.1-0.1c-0.1,0.3-0.1-0.3-0.1-0.3c0,0,0.1,0,0.1,0C25.9,43.3,25.8,43.2,25.9,43.1
			C25.9,43.1,25.9,43.1,25.9,43.1z"/>
		<path id="_x36_0590872_00000024712967394052241910000014843078911729244321_" class="st2" d="M25.5,42.8c0,0,0.2,0.5,0,0.3v-0.2
			C25.3,42.9,25.5,42.7,25.5,42.8z"/>
		<path id="_x36_0590960_00000069382649492568128770000003007000732709326269_" class="st2" d="M23.8,41.7c0.2,0,0.3,0.4,0,0.3v-0.2
			C23.5,41.9,23.8,41.7,23.8,41.7z"/>
		<path id="_x36_0591048_00000072977121709385404470000014642141880238263432_" class="st2" d="M22.2,40c-0.1,0,0.1,0.3,0,0.3
			C22,40.5,22.1,40.1,22.2,40z"/>
		<path id="_x36_0591136_00000139974067014323519000000014677731717214710180_" class="st2" d="M23.1,39.5c0.1,0.3,0,0.5,0.1,0.8
			c0,0-0.1,0-0.1,0c0,0.3,0,0.5,0,0.8c0,0,0.1,0,0.1,0c0,0.2,0,0.3,0,0.5c0,0-0.1,0-0.1,0c0,0.5,0,1.1,0,1.6h0.2l0.1-0.2h0.2
			c0,0,0-0.1,0-0.1c0,0,0.1,0,0.1,0c0,0.1,0,0.2,0,0.3c0,0-0.1,0-0.1,0v0.2c0,0-0.1,0-0.1,0c0,0,0.1,0.5,0.1,0.5
			c-0.2,0.1,0,0.3,0,0.4c-0.2,0-0.1,0.6,0,0.5c0,0,0,0.1,0,0.1c0,0-0.1,0-0.1,0c0,0.4,0,0.7,0,1.1c-0.1,0.1,0,0.1-0.2,0.1
			c0,0,0,0.1,0,0.1c0,0,0.1,0,0.1,0c0,0,0.1,0,0.1,0c0,0,0,0.2,0,0.3c-0.2,0.1,0,0.3,0,0.4c-0.2,0-0.1,0.6,0,0.5c0,0,0,0.1,0,0.1
			c0,0-0.1,0-0.1,0c0,0.4,0,0.7,0,1.1c0,0,0.1,0,0.1,0c0,0,0,0.1,0,0.1c-0.2,0.1,0,0.3-0.1,0.3c-0.1,0-0.3,0-0.3,0
			c0-0.2,0.2-0.2,0.1-0.3c0,0-0.1,0-0.1,0c0-0.2,0.1-0.5-0.1-0.6c0,0,0-0.1,0-0.1c0,0,0.1,0,0.1,0c0-0.1,0-0.3,0-0.4
			c0,0-0.1,0-0.1,0v-0.2c0,0,0.1,0,0.1,0c0-0.1,0-0.3,0-0.4l-0.2-0.1c0-0.1,0-0.2,0-0.3c0,0-0.1,0-0.1,0c0,0,0-0.2,0-0.3
			c0.2,0.1,0.2-0.2,0.3-0.2c0,0-0.1,0-0.1,0c0,0,0-0.1,0-0.1c0,0-0.1-0.1-0.2-0.1c0.1-0.1-0.2-0.1-0.3-0.1c0.1,0.1-0.1,0.4-0.1,0.2
			c0,0-0.1,0-0.1,0c0-0.2,0-0.4,0-0.6c0.2,0,0.1-0.1,0.1-0.2h0.2c0,0,0,0.2,0,0.3c0,0,0.1,0,0.1,0c0,0,0-0.1,0-0.1c0,0,0.1,0,0.1,0
			v-0.2c0,0,0.1,0,0.1,0v-0.2c-0.1,0-0.2,0-0.3,0c-0.2-0.1,0.2-0.2-0.1-0.1c-0.2,0,0.2,0.1-0.1,0.1c0-0.2,0.1,0-0.1-0.1
			c0-0.2,0-0.3,0-0.5c0,0-0.1,0-0.1,0c0-0.2,0,0,0.1-0.1c0-0.1,0-0.1-0.1-0.2c0,0,0-0.1,0-0.1c0,0,0.1,0,0.1,0c0-0.2,0-0.3,0-0.5
			c0,0-0.1,0-0.1,0c0-0.3,0.1-0.4,0.1-0.7h-0.2c0-0.1,0.2-0.1,0.2-0.2c0.1-0.4,0-0.9,0-1.3c0,0,0.1,0,0.1,0c0-0.2,0-0.4,0-0.5
			c0,0-0.1,0-0.1,0v-0.2c0,0,0.1,0,0.1,0c0-0.2,0.1-0.5,0-0.8c0,0-0.2-0.1-0.2-0.2c0.1,0.1,0-0.1,0.2-0.1V40c0.1,0,0.2,0.1,0.3,0.2
			c0.1-0.2-0.1,0,0.1-0.1c0-0.1,0-0.3,0-0.3h0.2v-0.2C22.9,39.6,23.1,39.5,23.1,39.5z"/>
		<path id="_x36_0591224_00000119802869614872673800000008637155324752636331_" class="st2" d="M22.7,39.5c0.2-0.1,0,0.3,0,0.3
			C22.6,39.8,22.6,39.5,22.7,39.5z"/>
		<path id="_x36_0591312_00000046320277481726827550000018416115654222638515_" class="st2" d="M22.6,39.4c0,0.1,0,0.1,0,0.3
			c0,0-0.1,0-0.1,0v0.2c0,0-0.1,0-0.1,0c0-0.1,0-0.2,0-0.3L22.6,39.4z"/>
		<path id="_x36_0591400_00000119815206868643851840000013804035283360866206_" class="st2" d="M24.9,34.7c0.1,0.1-0.1,0.2-0.1,0.2
			C24.9,34.8,24.8,34.7,24.9,34.7z"/>
		<path id="_x36_0591488_00000047053753867312096680000013297727126369288088_" class="st2" d="M23.8,34.5
			C23.8,34.5,23.8,34.5,23.8,34.5c0.1,0,0.1,0.3,0.1,0.3c-0.2,0-0.2,0-0.3,0.1c0,0,0,0.1,0,0.1c0,0-0.1,0-0.1,0c0,0,0-0.2,0-0.3h0.2
			v-0.2C23.7,34.5,23.8,34.5,23.8,34.5z"/>
		<path id="_x36_0591576_00000012430779411599270590000014126284080003052717_" class="st2" d="M24.4,34.3c0.1,0.1-0.1,0.2-0.1,0.2
			C24.4,34.4,24.3,34.2,24.4,34.3z"/>
		<path id="_x36_0591664_00000115481054211582251880000010776089389565072514_" class="st2" d="M23.9,34c-0.1,0,0.1,0.3,0.1,0.3
			c0,0-0.1,0.1-0.2,0.1C23.8,34.4,23.8,34,23.9,34z"/>
		<path id="_x36_0591752_00000160873016640722942000000017515899228151353000_" class="st2" d="M24.2,33.5c0,0,0.2,0,0.3,0
			c0,0,0,0.2,0,0.3c0,0,0.1,0,0.1,0c0,0,0,0.1-0.1,0.3c0,0-0.1,0-0.1,0v-0.2c0,0-0.2,0-0.3,0c0.1,0.3-0.1,0.1-0.2,0.1
			c0-0.1,0-0.2,0-0.3C24,33.5,24.2,33.5,24.2,33.5z"/>
		<path id="_x36_0591840_00000150062959753240925930000009255741822028312972_" class="st2" d="M23.7,33.3c0.4,0,0.1,0.1,0.2,0.2
			c-0.1,0-0.2,0-0.3,0C23.7,33.4,23.6,33.3,23.7,33.3z"/>
		<path id="_x36_0591928_00000065072581799804622880000010522382520308769180_" class="st2" d="M24.5,32.9
			C24.5,32.9,24.5,32.9,24.5,32.9c0.1,0.2,0,0.2,0.1,0.4h-0.2C24.4,33.3,24.3,32.8,24.5,32.9C24.5,32.9,24.4,32.8,24.5,32.9z"/>
		<path id="_x36_0592016_00000097487513090353859760000010132422116071045555_" class="st2" d="M25.5,31.5c0.2,0,0.1,0,0.3,0.1
			c0,0,0,0.1,0,0.1c-0.1,0-0.2,0-0.3,0C25.5,31.7,25.5,31.6,25.5,31.5C25.4,31.6,25.4,31.5,25.5,31.5z"/>
		<path id="_x36_0592104_00000152942690500487805830000004056638434522877629_" class="st2" d="M23.6,31.2c0,0.2,0,0.2-0.1,0.4
			c0,0-0.1,0-0.1,0c0,0,0,0.1,0,0.1c0,0,0.1,0,0.1,0v0.2c0,0-0.1,0-0.1,0c0,0.2,0,0.1,0.1,0.2c0,0,0,0.1,0,0.1
			c-0.2,0.1-0.1,0.5-0.1,0.8c0,0-0.1,0-0.1,0c0,0.1,0,0.2,0,0.3c0,0-0.1,0-0.1,0c0,0.1,0,0.2,0,0.3c0,0,0.1,0,0.1,0
			c0,0.2,0,0.4,0,0.5c0,0-0.1,0-0.1,0c0,0.2,0,0.4,0,0.7c-0.1,0-0.3-0.1-0.4,0c0-0.2-0.1,0,0.1-0.1c0-0.3,0-0.5,0-0.8
			c0,0,0.2-0.1,0.2-0.1c0-0.2,0,0-0.1-0.1c0-0.1,0-0.2,0-0.3c0,0-0.1,0-0.1,0c0,0,0-0.1,0-0.1c0.2,0,0-0.2,0.1-0.3c0,0,0.1,0,0.1,0
			c0,0,0-0.2,0-0.3c0,0,0.1,0,0.1,0c0-0.1,0-0.4,0-0.5c0,0-0.1,0-0.1,0c0-0.1,0-0.2,0-0.3c0,0,0.1,0,0.1,0c0-0.1,0-0.2,0-0.3
			c0,0,0.1,0,0.1,0c0-0.1,0-0.2,0-0.3c-0.1-0.1-0.1,0.1-0.1-0.1C23.3,31.3,23.4,31.3,23.6,31.2C23.5,31.2,23.5,31.2,23.6,31.2
			C23.5,31.2,23.6,31.2,23.6,31.2z"/>
		<path id="_x36_0592192_00000032631831778951494150000005998186707066527678_" class="st2" d="M24.8,30.3c0.3,0.2,0.1,0.4,0.1,0.7
			c0,0-0.1,0-0.1,0c0,0.1,0,0.1,0.1,0.2c0.1,0.1-0.2,0.2-0.2,0.2c0,0,0.1,0.3,0.1,0.3h-0.2c0,0,0,0.2,0,0.3
			c-0.1-0.1-0.1,0.2-0.2,0.3c0.2,0.1,0.2,0,0.3,0.1c0,0,0,0.1,0,0.1c0,0-0.1,0-0.1,0c0,0.1,0,0.3,0,0.3c-0.5,0,0.3,0-0.1-0.1
			c-0.1,0-0.3,0-0.4,0c0,0,0,0.1,0,0.1H24c0,0,0-0.1,0-0.1c-0.2,0,0,0.1-0.3,0.1c0-0.2,0-0.3,0-0.4c0.1-0.1,0.1,0.1,0.1-0.1
			c-0.1-0.1-0.1,0.1-0.1-0.1c0,0,0.2-0.2,0.2,0c0,0,0.1,0,0.1,0v-0.2h0.2c0-0.1,0.1,0,0.1-0.3c0,0-0.1,0-0.1,0c0-0.1,0-0.2,0-0.3
			c-0.2-0.1-0.1,0.1-0.1-0.1c0.1-0.1,0.2,0,0.4-0.1v-0.2c0,0-0.1-0.1-0.2-0.1c0-0.1,0-0.2,0-0.3c0.1-0.1,0.1,0.1,0.1,0.1h0.2
			C24.6,30.5,24.6,30.4,24.8,30.3C24.7,30.3,24.7,30.3,24.8,30.3z"/>
		<path id="_x36_0592280_00000096744496806648796680000013298435357418881711_" class="st2" d="M25.4,30.2
			C25.6,30.2,25.7,30.3,25.4,30.2c0.1,0.1,0.1,0.1,0.1,0.2C25.3,30.3,25.2,30.4,25.4,30.2C25.6,30.1,25.1,30.3,25.4,30.2z"/>
		<path id="_x36_0592368_00000097476878049204228980000010192161082887049390_" class="st2" d="M24.8,30c0.1,0.1-0.1,0.2-0.1,0.2
			C24.8,30.1,24.7,30,24.8,30z"/>
		<path id="_x36_0592456_00000178189926856055513950000003920789358988111533_" class="st2" d="M24.9,29.8
			C25.1,29.7,24.9,29.8,24.9,29.8C25,29.9,25,29.9,24.9,29.8c0,0.1,0,0.1,0,0.2C24.7,30,24.8,29.8,24.9,29.8z"/>
		<path id="_x36_0592544_00000002377728096394464350000001757416868527642303_" class="st2" d="M26.1,29.5
			C26.3,29.5,26.1,29.6,26.1,29.5C26.2,29.6,26.1,29.6,26.1,29.5c0,0.1,0,0.1,0,0.2C25.9,29.7,26,29.5,26.1,29.5z"/>
		<path id="_x36_0592632_00000035514020000349452770000010298297750829578941_" class="st2" d="M26.2,29C26.2,29,26.2,29,26.2,29
			c0,0.2,0,0.2,0,0.4C26,29.4,26.1,29,26.2,29z"/>
		<path id="_x36_0592720_00000008148815487454164910000013972977682324412847_" class="st2" d="M26.3,28.3c0.2-0.1,0,0.3,0,0.3
			C26.1,28.5,26.2,28.3,26.3,28.3z"/>
		<path id="_x36_0592808_00000104687759755172271250000013969259238620578475_" class="st2" d="M25.1,27.7
			C25.1,27.7,25.1,27.7,25.1,27.7c0.1,0.1,0.1,0.2,0.2,0.3c-0.1,0-0.2,0-0.3,0c0,0,0,0.1,0,0.1c-0.1,0.1-0.1,0.1-0.3,0.2
			c0,0,0,0.2,0,0.3c0.1,0,0.2,0,0.3,0c0,0,0.2-0.3,0.2-0.3c0,0,0.1,0,0.1,0c0.1-0.1,0-0.2,0.1-0.3h0.2v-0.2c0.1-0.1,0.4,0,0.5-0.1
			c0,0-0.2,0.2-0.2,0.3c0,0-0.1,0-0.1,0c-0.1,0.1,0.1,0.2,0.1,0.3c-0.1,0.1-0.1,0.1-0.2,0.3c0,0-0.1,0-0.1,0v0.2c0,0-0.1,0-0.1,0
			c0,0.1,0,0.2,0,0.3c-0.3,0-0.2-0.1-0.3-0.1c0,0,0,0.1,0,0.1c-0.1,0-0.2,0-0.3,0c-1.1,0.4,1.1-0.1-0.1,0.1c0,0.2,0.1,0.4,0.1,0.4
			c-0.1,0.1-0.3-0.2-0.3-0.2c-0.2,0,0,0.2-0.2,0.1c0,0,0,0.1,0,0.1c0,0-0.1,0-0.1,0c0,0.1,0,0.2,0,0.3l-0.2,0.1
			c0-0.1,0.1-0.2,0.1-0.2c0-0.2,0-0.5,0-0.7h0.2c0,0,0-0.1,0-0.1c0,0,0-0.1,0-0.1c-0.1,0-0.2,0-0.3,0c0,0,0-0.1,0-0.1
			c0,0,0.1,0,0.1,0c0-0.1,0-0.4,0-0.4h0.2c0.1-0.1,0-0.3,0.1-0.4h0.2c0,0,0-0.1,0-0.1C25,27.7,25,27.7,25.1,27.7z"/>
		<path id="_x36_0592896_00000116952314498078249320000004246907513400913545_" class="st2" d="M26,27.2C25.9,27.2,26,27.3,26,27.2
			C26.1,27.2,26.1,27.2,26,27.2c0.1,0,0.1,0,0.2,0c0,0,0,0.2,0,0.3c-0.1,0-0.2,0-0.3,0c0,0,0,0.1,0,0.1C25.7,27.5,25.9,27.2,26,27.2
			z"/>
		<path id="_x36_0592984_00000108270436852418892740000007026689944608082868_" class="st2" d="M26.3,26.8c0.1,0.1-0.1,0.2-0.1,0.2
			C26.2,26.9,26.1,26.7,26.3,26.8z"/>
		<path id="_x36_0593072_00000081607898764731959190000011456293186362582926_" class="st2" d="M24.2,26.7c-0.1,0.5-0.1,0.7,0,1.2
			c-0.1,0-0.2,0-0.3,0.1C23.8,28,24,28,24,28c0,0.4,0,0.4-0.1,0.7c0,0,0.1,0,0.1,0c0,0,0,0.1,0,0.1l-0.2,0.1c0,0.1,0,0.2,0,0.3
			c0-0.2-0.1,0.1-0.1,0.1c0,0,0.1,0,0.1,0c0,0.2,0,0-0.1,0.1c0,0.2-0.1,0,0.1,0.1c0,0.1,0,0.3,0,0.4h-0.2c0,0,0,0.1,0,0.1
			c0,0-0.1,0-0.1,0V30c0.1,0,0.2-0.1,0.2,0.1c0,0-0.1,0-0.1,0c0,0.1,0.2,0.1,0.1,0.2c-0.2,0.1-0.1,0.6-0.2,0.8h-0.2
			c0,0-0.1-0.1-0.1-0.2c0,0-0.1,0-0.1,0c0,0,0.2-0.3,0-0.2c0-0.1-0.1-0.1-0.1-0.3h0.2c0-0.1,0.1-0.3,0.1-0.4c0,0,0.1,0,0.1,0
			c0-0.2,0,0-0.1-0.1c0-0.3,0-0.5,0.1-0.7c0,0,0.2-0.1,0.1-0.2h-0.2c0-0.1,0.2-0.1,0.1-0.2h-0.2c0-0.1,0-0.2,0-0.3
			c0-0.1,0,0,0.3-0.1v-0.2c0,0,0.1,0,0.1,0c0-0.1-0.2-0.1-0.1-0.2c0,0,0.1,0,0.1,0c0-0.3,0-0.4,0.1-0.7c0,0-0.1,0-0.1,0v-0.2
			c0,0,0.1,0,0.1,0c0,0,0.1-0.1,0.1-0.2c0,0,0.1,0,0.1,0c0-0.2-0.2-0.2-0.1-0.4C23.8,26.8,24.1,26.7,24.2,26.7z"/>
		<path id="_x36_0593160_00000023250915851209990090000005359922529667515791_" class="st3" d="M26,26.5c0.1,0.1,0,0,0.2,0.1
			c0,0.1,0.1,0.2-0.1,0.2c0,0,0-0.1,0-0.1c0,0-0.1,0-0.1,0C26,26.7,25.8,26.4,26,26.5"/>
		<path id="_x36_0593248_00000003791541835200359520000014389437545567892650_" class="st2" d="M25,26.5c0.1,0.1,0.1,0,0.3,0.1
			c0,0.2,0,0.1,0.2,0.2c-0.1,0.2,0,0.2-0.1,0.4c-0.4,1.2,0.1-1.2-0.1,0.1c-0.1,0-0.3,0-0.3,0v0.2c-0.1,0.1-0.1,0-0.2,0.1
			c0-0.1,0-0.4,0-0.5h-0.2v0.2c0,0-0.1,0-0.1,0c0,0,0-0.2,0-0.3c0,0,0.2,0,0.3,0c0-0.1,0-0.2,0-0.3L25,26.5z"/>
		<path id="_x36_0593336_00000014607846160208271960000009537176920967948431_" class="st2" d="M24.3,26.5c0.1,0.1-0.1,0.2-0.1,0.2
			C24.2,26.6,24.1,26.4,24.3,26.5z"/>
		<path id="_x36_0593424_00000160875654195151948260000016831091610649980559_" class="st2" d="M26.4,26.2c0.1,0.1-0.1,0.2-0.1,0.2
			C26.4,26.4,26.3,26.2,26.4,26.2z"/>
		<path id="_x36_0593512_00000156565193895001937950000008550147918283244470_" class="st2" d="M24.2,25.5
			C24.2,25.5,24.2,25.6,24.2,25.5l0.2,0.1c0.1-0.3,0.1,0.1,0.1,0.1c-0.1-0.1-0.1,0.1-0.1,0.1c0,0-0.1,0-0.1,0c0.1,0.2-0.1,0,0.1,0.1
			c0,0.1,0,0.2,0,0.3c0,0,0.1,0,0.1,0c0,0-0.1,0.4-0.2,0.1c0,0,0.1,0.2,0.1,0.3c-0.4,0.1,0.2,0-0.1-0.1c-0.1,0-0.2,0-0.3,0
			c0,0,0-0.1,0-0.1c0,0.1-0.2-0.1-0.1-0.2h0.2c0-0.2-0.2-0.2-0.1-0.3C24.2,25.8,24.1,25.7,24.2,25.5C24.1,25.5,24.1,25.5,24.2,25.5z
			"/>
		<path id="_x36_0593600_00000012452140971210240500000004543518326027550389_" class="st2" d="M26.7,23.4
			C26.7,23.4,26.7,23.5,26.7,23.4c-0.1,0.2-0.1,0.3-0.1,0.4c0,0,0.2,0,0.3,0c0,0,0-0.2,0.2-0.3c0,0,0-0.1,0-0.1
			C26.9,23.4,26.8,23.4,26.7,23.4z"/>
		<path id="_x36_0593688_00000156573524462907097060000016564742996112367264_" class="st2" d="M27.4,22.9c-0.1,0.2,0,0.2-0.1,0.3
			c0,0-0.1,0-0.1,0c0,0.1,0,0.2,0,0.3c0,0-0.1,0-0.1,0c0,0-0.2,0.5,0,0.3C27,24,27.3,24,27.4,24c0,0,0-0.1,0-0.1c0,0,0.1,0,0.1,0
			c0,0,0-0.3,0-0.3c0,0-0.1,0-0.1,0c0,0,0.1-0.3,0.1-0.2c0.3-0.1-0.3-0.1,0.1-0.1c0-0.1,0.1-0.5,0-0.3c0,0,0-0.1,0-0.1H27.4z"/>
		<path id="_x36_0593776_00000051375811386614520510000005065511438496814240_" class="st2" d="M25.6,22.8l-0.1,0.3
			c-0.3,0.1-0.1-0.2-0.2-0.3C25.5,22.8,25.5,22.9,25.6,22.8z"/>
		<path id="_x36_0593864_00000097499763845712671360000001481131541452796294_" class="st2" d="M25.6,22.4c0.1,0,0.2,0.2,0,0.2
			C25.6,22.5,25.6,22.5,25.6,22.4C25.5,22.5,25.5,22.4,25.6,22.4z"/>
		<path id="_x36_0593952_00000142868785228914136560000018385508501507424684_" class="st2" d="M27.1,21c0,0.1-0.2,0.2-0.2,0.2
			c0,0.1,0,0.2,0,0.3c0,0,0.1,0,0.1,0c0,0.2-0.1,0.2-0.2,0.3c-0.1,0,0.1,0.1,0.1,0.2c0,0-0.3,0.2,0,0.2c0,0,0,0.1,0,0.1
			c0,0-0.1,0-0.1,0c-0.1,0.2,0,0-0.1,0.3c0.2-0.1-0.1,0,0.1,0.1c0.1,0,0.1,0,0.3,0c0-0.1,0.2-0.2,0.2-0.2c0-0.1-0.1-0.3-0.1-0.4h0.2
			v-0.2c-0.1,0.3-0.1-0.3-0.1-0.3h0.2c0,0,0-0.2,0-0.3C27.3,21.1,27.2,21.1,27.1,21z"/>
		<path id="_x36_0594040_00000034048277100814985300000003133767621626675075_" class="st2" d="M27.8,18.9
			C27.8,18.9,27.8,18.9,27.8,18.9l-0.2,0.1c0,0,0,0.1,0,0.1c-0.2,0.1-0.4,0.5,0,0.3l0.2-0.3h0.2C27.9,19.1,28,18.8,27.8,18.9z"/>
		<path id="_x36_0594128_00000134938567511640602780000018092912058885682098_" class="st2" d="M32.9,2.3
			C32.9,2.4,32.9,2.4,32.9,2.3l0.2,0.1C33.1,2.4,33.1,2.3,32.9,2.3z"/>
		<path id="_x36_0594216_00000041990183103097499730000004770867109529010360_" class="st2" d="M32.5,1.6
			C32.5,1.6,32.5,1.6,32.5,1.6l0.2,0.1C32.6,1.7,32.6,1.6,32.5,1.6z"/>
		<path id="_x36_0594304_00000173146045437953311680000009636577639506412732_" class="st2" d="M30,1.2c0.3-0.2,0.1,0.3,0.1,0.3
			C29.8,1.6,29.9,1.1,30,1.2z"/>
		<path id="_x36_0594392_00000009563431504404762650000016159069363695479723_" class="st2" d="M30.3,0.8c0.1,0,0.1,0.1,0.1,0.3
			h-0.2C30.2,1,30.1,0.8,30.3,0.8z"/>
		<path id="_x36_0594480_00000145765817769995404140000014928238814735236521_" class="st2" d="M30.6,0.6c0.1,0,0,0.2,0,0.3
			C30.4,0.9,30.5,0.6,30.6,0.6z"/>
		<path id="_x36_0594568_00000042707396617209710440000017946330286464358286_" class="st2" d="M31.6,0c0.1,0,0.2,0,0.3,0
			c0,0.1,0.1,0.3,0.1,0.3c0.1,0,0.2-0.1,0.3-0.1c0,0.2,0,0.3-0.2,0.3c-0.1,0,0.1,0.1,0.1,0.2h0.2c0,0,0,0.1,0,0.1h0.2
			c0,0-0.1,0.1-0.1,0.2c0,0,0.2,0,0.3,0.1l0.1,0.2h0.2c0,0,0.1,0.3,0.1,0.3l0.3,0.2v0.2c-0.1,0-0.2,0-0.3,0C33,2,33,2,33,2h0.2
			c0.3,0.1-0.3,0.1,0.1,0.1c0,0,0-0.1,0-0.1h0.2c0,0.2-0.1,0.2,0.1,0.3c0,0.2,0,0-0.1,0.1c0,0.1,0,0.2,0,0.3c0,0,0.1,0,0.1,0
			c0,0.2-0.1,0.3,0.1,0.3c0,0,0,0.1,0,0.1c-0.1,0-0.1,0-0.1,0.2l0.2,0.1c0.1,0.1,0,0.4,0.1,0.6C33.8,4,34,4,34,4c0,0.1,0,0.2,0,0.3
			c0,0,0.1,0,0.1,0c0,0.1,0,0.2,0,0.2c0,0,0.1,0,0.1,0c0,0.2,0,0.3-0.1,0.4c0,0,0.1,0,0.1,0c0,0.1-0.1,0.1-0.1,0.2
			c0.1,0,0.1,0.2,0.1,0.3c0,0-0.1,0-0.1,0.2c0.1,0,0.1-0.1,0.1,0.1c0,0-0.1,0-0.1,0c0,0.1,0,0.2,0,0.3c0,0-0.1,0-0.1,0
			c0,0.1,0,0.4,0,0.5c0,0-0.1,0-0.1,0c-0.1,0.2,0,0.3-0.1,0.5c0,0-0.1,0-0.1,0c0,0.2,0.1,0.1,0.1,0.3c0,0-0.1,0-0.1,0
			c-0.1,0.4,0,0.6-0.1,1c0,0-0.1,0-0.1,0c-0.1,0,0.1,0.1,0.1,0.2l-0.2,0.1c0,0.1,0,0.2,0,0.3c0,0-0.1,0-0.1,0
			c-0.1,0.3,0,0.4-0.1,0.7c0,0-0.1,0-0.1,0c0,0.2,0,0.3,0,0.5c0,0-0.1,0-0.1,0c0,0.2,0.1,0.1,0.1,0.3c0,0-0.1,0-0.1,0v0.2
			c0,0-0.1,0-0.1,0C33,11,33,11.1,33,11.3c0,0-0.1,0-0.1,0c0,0.1,0,0.2,0,0.3c0,0-0.1,0-0.1,0c0,0.1,0,0.2,0,0.3c0,0-0.1,0-0.1,0
			c0,0.2,0,0.5,0,0.7c0,0-0.1,0-0.1,0c-0.1,0.3,0,0.4-0.1,0.7c0,0-0.1,0-0.1,0c0,0.1,0,0.4,0,0.5c0,0-0.1,0-0.1,0
			c-0.1,0.2,0,0.2-0.1,0.3c0,0-0.1,0-0.1,0c0,0.1,0,0.4,0,0.5c0,0-0.1,0-0.1,0c0,0,0,0.1,0,0.1c0,0,0.2,0,0.2,0.2h-0.2
			c0,0.1,0,0.2,0,0.3c0,0-0.1,0-0.1,0v0.2c0,0-0.1,0-0.1,0c0,0.1,0.1,0.2,0.1,0.3c-0.2,0.1,0,0.1-0.1,0.3c0,0-0.1,0-0.1,0
			c0,0.4,0,0.7-0.1,1.1c0,0-0.1,0-0.1,0c0,0.1,0,0.2,0,0.3c0,0-0.1,0-0.1,0c-0.1,0.3,0,0.5-0.1,0.8c0,0-0.1,0-0.1,0v0.2
			c0,0,0.1,0,0.1,0c0.7,0.5-0.8-0.3,0.1,0.1c0,0,0,0.1,0,0.1l-0.3,0.1c0,0.1,0,0.3,0,0.4c-0.1,0.1-0.1-0.1-0.1,0.1
			c0.1,0,0.1-0.1,0.1,0.1c0,0-0.1,0-0.1,0v0.2c0,0-0.1,0-0.1,0c0,0.1,0.1,0.1,0.1,0.3c0,0-0.1,0-0.1,0c0,0.1,0,0.2,0,0.3
			c0,0-0.1,0-0.1,0c0,0.1,0,0.3,0,0.4c0,0-0.1,0-0.1,0c0,0.1,0,0.2,0,0.3c0,0-0.1,0-0.1,0c0,0.2,0,0.3,0,0.5c0,0-0.1,0-0.1,0
			c0,0.3,0,0.4-0.1,0.8c0,0-0.1,0-0.1,0c0,0.2,0.1,0.4,0,0.6h-0.2c0,0,0,0.1,0,0.1c-0.2,0.1-0.3,0.3-0.5,0.4c0,0,0,0.1,0,0.1
			c0,0-0.1,0-0.1,0c0,0.1,0,0.4,0,0.5c0,0.1,0.1,0,0.2,0.2c0,0,0.1,0,0.1,0c0.1,0.2,0.1,0.4,0.1,0.7c0,0-0.1,0-0.1,0
			c0,0.1,0,0.3,0,0.4L30,24.7c-0.1,0.2,0.1,0.1,0.1,0.3H30c0,0.2,0,0.3,0,0.5c0,0-0.1,0-0.1,0c0,0.1,0,0.2,0,0.3c0,0-0.1,0-0.1,0
			c0,0.1,0.1,0.2,0.1,0.3c-0.1,0.1,0,0-0.1,0.2c0,0-0.1,0-0.1,0c0,0.3,0,0.7,0,1c0.1,0,0.1-0.1,0.1,0.1c0,0-0.1,0-0.1,0v0.2
			c0,0-0.1,0-0.1,0c-0.1,0.3,0,0.4-0.1,0.8c0,0-0.1,0-0.1,0v0.2c0,0-0.1,0-0.1,0c-0.1,0.2,0,0.3-0.1,0.4c0,0-0.1,0-0.1,0
			c0,0.1,0,0.4,0,0.5c0,0-0.1,0-0.1,0v0.2c-0.2,0.1,0-0.2-0.1,0.1c0,0-0.1,0-0.1,0c0,0.2,0,0.3,0,0.5c0,0-0.1,0-0.1,0
			c0,0.2,0,0,0.1,0.1c0,0.2,0.1,0-0.1,0.1c0,0.1,0,0.3,0,0.4c0,0-0.1,0-0.1,0c0,0.1,0,0.1,0,0.3c0,0-0.1,0-0.1,0
			c0,0.2,0,0.3-0.1,0.5h-0.2c0,0.2,0,0.1,0.2,0.2v0.2c0,0-0.1,0-0.1,0c0,0.2-0.1,0,0.1,0.1c0,0,0,0.1,0,0.1c-0.2-0.1,0,0.2,0,0.2
			l-0.3,0.2c-0.1,0.3,0-0.1,0.1,0.1c0,0.1,0,0.2-0.1,0.3c0,0,0,0.1,0,0.1c0.1,0.1,0.1,0.1,0.1,0.3c0,0-0.2,0.2-0.2,0.2
			c-0.2,0,0,0-0.1-0.1H28c0,0.1,0,0.3,0,0.4c0,0-0.1,0-0.2,0.2c-0.1,0-0.2,0-0.3,0c0,0.1,0.2,0.5,0.2,0.6c0,0-0.1,0-0.1,0v0.2
			c0,0,0.1,0,0.1,0c0,0.1,0,0.2,0,0.3c0,0-0.1,0-0.1,0c0,0.1,0,0.2,0,0.3c0,0-0.1,0-0.1,0c0,0.1,0,0.1,0.1,0.2c0,0,0,0.1-0.1,0.3
			c0,0-0.1,0-0.1,0c0,0.2,0.1,0.1,0.1,0.3c0,0-0.1,0-0.1,0c0,0.1,0,0.2,0,0.3h-0.2c-0.1,0.2,0.1,0.2-0.1,0.3c0,0,0,0.1,0,0.1
			c0.1,0,0.1,0,0.1,0.2c0,0-0.1,0-0.1,0v0.2c-0.3,0.1,0-0.2-0.1,0.1c0,0-0.1,0-0.1,0c0,0.1,0,0.2,0,0.3c0,0-0.1,0-0.1,0
			c0,0,0,0.1,0,0.1c0.1,0.1,0.2,0.2,0.2,0.4H27c0,0,0,0.2,0,0.3c0,0-0.2,0.1-0.2,0.1s0.2,0.3,0.2,0.3c-0.2,0.1-0.1,0.2-0.2,0.4h-0.2
			c0,0.2,0.1,0.2,0.1,0.4c0,0-0.1,0-0.1,0c0,0.1,0,0.2,0,0.3c0,0-0.1,0-0.1,0c0,0.2,0,0.4,0,0.6h-0.2c0,0.1,0,0.3,0,0.4
			c0.1,0.1,0.1-0.1,0.1,0.1c0,0-0.1,0-0.1,0c0,0.1,0,0.2,0,0.3c0,0-0.1,0-0.1,0v0.2c0,0-0.1,0-0.1,0c0,0.1,0,0.2,0,0.3
			c0,0,0.1,0,0.1,0v0.2c0,0-0.1,0-0.1,0c0,0,0,0.2,0,0.3c-0.1,0.1-0.3,0.1-0.3,0.1c0,0,0,0.1-0.1,0.3c0,0,0.2,0,0.3,0v0.2
			c0,0-0.1,0-0.1,0c0,0,0-0.1,0-0.1c0,0-0.2,0-0.3,0V42c0,0-0.1,0-0.1,0c0,0.1,0,0.4,0,0.5c0,0-0.1,0-0.1,0v0.2h-0.2
			c-0.1-0.3,0.1,0.1-0.1-0.1c0,0,0-0.1,0-0.1c-0.1-0.1,0,0-0.1-0.2c0,0-0.2-0.1,0-0.1c0,0,0-0.1,0-0.1c0,0-0.1-0.1-0.2-0.1
			c0,0,0-0.1,0-0.1c0.1-0.1,0.1-0.1,0.1-0.3c0,0-0.1,0-0.1,0c0-0.1,0-0.2,0-0.3c0,0,0.1,0,0.1,0v-0.2c0,0-0.1,0-0.1,0v-0.2
			c0,0-0.1,0-0.1,0c0,0,0-0.2,0.1-0.1v-0.2h-0.2c0-0.1,0-0.3,0-0.4h0.2c0-0.2,0-0.4,0-0.6c0,0-0.1,0-0.1,0c0,0,0.1-0.2,0.1-0.1
			c0.3-0.1-0.3-0.1,0.1-0.1c0,0-0.1-0.2-0.1-0.3c0,0.2-0.1-0.1-0.1-0.1s0.1-0.1,0.2-0.1c0-0.2-0.1-0.1-0.1-0.3c0,0,0.1,0,0.1,0
			c0-0.2,0-0.3,0-0.5c0,0,0.1,0,0.1,0c0-0.2,0-0.3,0-0.5c0,0,0.1,0,0.1,0c0-0.2-0.1-0.2-0.1-0.3c0,0,0.1,0,0.1,0c0-0.1,0-0.2,0-0.3
			c0,0,0.2,0.1,0.2,0.1c0-0.2,0,0-0.1-0.1c0-0.3,0-0.6,0-0.8c0,0,0.1,0,0.1,0c0-0.1,0-0.3,0-0.4c0,0,0.1,0,0.1,0c0-0.1,0-0.2,0-0.3
			c0,0,0.1,0,0.1,0c0-0.2,0,0-0.1-0.1c0-0.1,0-0.3,0-0.4c0,0,0.1,0,0.1,0c0.1-0.2,0-0.4,0.1-0.6c0,0,0.1,0,0.1,0
			c0,0-0.2-0.4-0.2-0.4h0.2c0-0.1,0-0.2,0-0.3c0,0,0.1,0,0.1,0c0-0.3-0.1-0.3-0.1-0.6c0,0,0-0.1,0-0.1c0.1,0,0.1-0.1,0.1-0.2
			c0,0.2-0.1-0.1-0.1-0.1c0,0,0.1,0,0.1,0c0-0.2-0.1-0.5,0-0.8c0,0,0.1,0,0.1,0V32c0,0,0.1,0,0.1,0c0-0.1,0-0.2,0-0.3
			c-0.1,0-0.2-0.1-0.2-0.2h0.2c0,0,0-0.1,0-0.1c0,0,0.1,0,0.1,0c0-0.3,0-0.5,0-0.8c0,0,0.1,0,0.1,0c0-0.2,0-0.3,0-0.5
			c-0.6,0,0.4-0.1-0.1,0.1c-0.2,0.1-0.2-0.1-0.3-0.1V30c0.1,0,0-0.1,0.2-0.1c0,0,0,0.1,0.2,0.1c0.9-0.3-1,0,0.1-0.1
			c0-0.1,0-0.2,0-0.3c0,0,0.1,0,0.1,0c0-0.1-0.1-0.2-0.1-0.3c0,0,0.1,0,0.1,0v-0.2c0,0,0.1,0,0.1,0c0-0.1,0-0.2,0-0.3h0.2
			c0-0.2,0-0.4,0-0.6c0,0,0.1,0,0.1,0c0-0.2,0-0.5,0-0.7c0,0,0.1,0,0.1,0c0-0.1,0-0.3,0-0.4c0,0,0.1,0,0.1,0c0-0.2-0.1-0.1-0.1-0.3
			c0,0,0.1,0,0.1,0c0-0.1,0-0.2,0-0.3c0,0,0.1,0,0.1,0c-0.1,0,0.1-0.4-0.1-0.5c0,0,0-0.1,0-0.1H27c0-0.1-0.1-0.2-0.1-0.3
			c0,0,0.1,0,0.1,0c0.1-0.2,0-0.2,0.1-0.3h-0.2v-0.2h0.2v-0.2c0,0,0.1,0,0.1,0c0.1-0.3,0-0.6,0.1-0.9c-0.2,0-0.4,0-0.6,0
			c-0.1,0.2,0,0.3-0.1,0.6c0,0-0.1,0-0.1,0V25c0,0-0.1,0-0.1,0c0,0.1,0.1,0.2,0.1,0.2c0,0.1-0.2,0.6,0,0.5c0,0,0,0.1,0,0.1h-0.2
			c0,0-0.2-0.2-0.2-0.2v-0.2c0,0-0.1,0-0.1,0c0-0.1,0,0,0.1-0.1c0.2-0.1-0.2-0.1-0.1-0.2c0,0,0.1,0,0.1,0c0.1-0.2,0-0.2,0.1-0.3
			c0,0,0.1,0,0.1,0c0-0.2,0-0.5,0-0.7c-0.1,0-0.3,0-0.4,0c0,0.1,0,0.2,0,0.3c0.1,0.1,0.1-0.1,0.1,0.1c0,0-0.1,0-0.1,0
			c0,0.1,0,0.2,0,0.3h-0.2c-0.1,0.2,0,0.8-0.1,1c0,0-0.2,0-0.3,0c-0.1,0.2,0,0.2-0.1,0.3c0,0-0.1,0-0.1,0c0,0.1,0,0.2,0,0.3
			c0,0-0.1,0-0.1,0c-0.1-0.2,0-0.3-0.1-0.4c-0.1,0-0.1-0.1-0.1-0.2c0.1,0,0.2,0,0.3,0c0,0,0-0.1,0-0.1c-0.3,0.2-0.2-0.3-0.1-0.2
			c0-0.1,0-0.2,0.1-0.3c0,0,0.1,0,0.1,0c0,0,0-0.2,0-0.3c-0.9,0.1,0.7-0.2-0.1,0.1h-0.2v-0.2c0,0,0.4-0.1,0.1-0.2
			c0.1,0,0.3,0,0.3-0.1c0-0.1,0-0.2,0-0.3c-0.1,0-0.1,0.1-0.2,0.2c-0.1,0-0.1-0.1-0.2-0.1v-0.2c0,0-0.2,0-0.3,0v-0.2
			c0,0,0.1,0,0.1,0c0-0.1,0-0.2,0.1-0.3c0,0,0.3,0,0.3,0c0-0.1,0-0.3,0-0.4c0,0,0.2-0.1,0.2-0.1c0-0.2-0.1-0.1-0.1-0.2h0.2
			c0.1-0.2,0-0.3,0.1-0.5c0,0,0.1,0,0.1,0v-0.2c0,0,0.1,0,0.1,0v-0.2c-3.4-1.7,3.2,1.8-0.1-0.1c0,0-0.4-0.1-0.4-0.1
			c0-0.1,0-0.2,0-0.3h0.2v-0.2c0,0,0.1,0,0.1,0c0-0.1,0-0.3,0-0.4c-0.2,0.1-0.2-0.2-0.4-0.1c0,0,0,0.2,0,0.3c-0.1,0-0.3,0.1-0.3,0.1
			v0.2c0,0,0.2,0,0.1-0.1c0,0,0.1,0,0.1,0c0,0,0,0.1,0,0.1c0,0,0.1,0,0.1,0c0,0.1,0,0.2,0,0.3c0,0-0.1,0.1-0.2,0.1v0.2
			c0-0.1,0.1,0.1,0.1,0.1c0,0-0.1,0-0.1,0c-0.1,0.3,0,0.3-0.1,0.5c0,0-0.1,0-0.1,0c0,0.2,0,0.4,0,0.6c0,0-0.1,0-0.1,0
			c0,0,0,0.1,0,0.1c0.1,0,0.1,0,0.1,0.2c0,0-0.1,0-0.1,0c0,0.1,0,0.2,0,0.3c0,0-0.1,0-0.1,0c0,0.1,0.1,0.2,0.1,0.3
			c-0.2,0.1-0.1,0.6-0.2,0.8l-0.2,0.1V25c-0.2-0.1-0.2,0.1-0.3,0.1c0.1-0.2-0.1-0.2-0.1-0.3h0.2c0,0,0-0.1,0-0.1c0,0,0.1,0,0.1,0
			v-0.2c0,0,0.1-0.1,0.2-0.1v-0.2c-0.1,0-0.1,0.1-0.1-0.1c0.1,0,0.2,0,0.3,0c0,0,0-0.1,0-0.1c-0.1-0.1-0.1,0-0.2-0.1
			c-0.2-0.2,0.2-0.1-0.1-0.1c0.1-0.2,0-0.3,0.1-0.5h0.2c0-0.1,0-0.1-0.1-0.2c0,0,0-0.1,0-0.1c0,0,0.1,0,0.1,0
			c0.1-0.1-0.1-0.2-0.1-0.2c0,0,0-0.1,0-0.1c0.1-0.1,0.1-0.1,0.1-0.3c-0.1-0.1-0.1,0.1-0.1-0.1c0,0,0.1,0,0.1,0v-0.2
			c0,0,0.1,0,0.1,0c0-0.1,0-0.2,0-0.3c0.2-0.1,0,0.1,0.1-0.1c0,0-0.2,0-0.1-0.1c0.2-0.1,0,0.1,0.1-0.1c0,0,0.1,0,0.1,0
			c0-0.1-0.1-0.1-0.1-0.3c0,0,0.1,0,0.1,0c0-0.4,0-0.6,0.1-0.9c-0.1,0-0.1,0.1-0.1-0.1c0,0,0.1,0,0.1,0c0.1-0.2,0-0.2,0.1-0.4
			c0,0,0.1,0,0.1,0c0-0.1,0-0.4,0-0.6h-0.2c0,0,0-0.2,0-0.3c0,0,0.1,0,0.1,0v-0.2c0,0,0.1,0,0.1,0c0.1-0.4,0-0.7,0.1-1.1
			c0,0,0.1,0,0.1,0c0-0.1,0-0.2,0-0.3c0,0,0.1,0,0.1,0c0.1-0.3,0-0.4,0.1-0.6l0.2-0.1c0-0.1,0,0-0.1-0.1c0,0,0-0.1,0-0.1
			c0,0,0.1,0,0.1,0c0.1-0.1-0.1-0.1-0.1-0.1c0-0.1,0.1-0.1,0.1-0.3c0,0-0.1,0-0.1,0c0-0.1,0-0.3,0-0.4c0,0,0.1,0,0.1,0
			c0,0,0-0.2,0-0.3c0,0,0.1,0,0.1,0c0-0.2,0-0.4,0-0.5c0,0,0.1,0,0.1,0c0.1-0.4,0-0.5,0.1-0.9c0,0,0.1,0,0.1,0c0-0.2,0-0.4,0-0.6
			c0,0,0.1,0,0.1,0c0,0,0-0.2,0-0.3c0,0,0.1,0,0.1,0c0-0.2-0.1-0.5,0.1-0.6c0,0,0-0.1,0-0.1c-0.1,0-0.1-0.1-0.1-0.3l0.2-0.1
			c0-0.1,0-0.3,0-0.4c0,0,0.1,0,0.1,0c0.1-0.4,0-0.6,0.1-1c0,0,0.1,0,0.1,0c0-0.2-0.1-0.1-0.1-0.3h0.2c0.1-0.3,0-0.4,0.1-0.7
			c0,0,0.1,0,0.1,0c0-0.2,0-0.3,0.1-0.6c0,0,0.1,0,0.1,0c0-0.1,0-0.3,0-0.4c0,0,0.1,0,0.1,0c0-0.1,0-0.1,0-0.2c0,0,0.1,0,0.1,0
			c0.1-0.3,0-0.5,0.1-0.8c0,0,0.1,0,0.1,0V8.1c0,0,0.1,0,0.1,0c0-0.2,0-0.4,0-0.6c0,0,0.1,0,0.1,0c0.1-0.3,0-0.4,0.1-0.7
			c0,0,0.1,0,0.1,0c0-0.1,0-0.3,0-0.4c0,0,0.1,0,0.1,0c0-0.2,0-0.3,0-0.5c0,0,0.1,0,0.1,0c0-0.1,0-0.2,0-0.3c0,0,0.1,0,0.1,0
			c0-0.1,0-0.2,0-0.3c0,0,0.1,0,0.1,0C28,5,28,5,28,4.8c0,0,0.1,0,0.1,0c0-0.1,0-0.2,0-0.3h0.2c0,0,0-0.1,0-0.1c0,0,0.1,0,0.1,0
			c0.1-0.1,0-0.3,0.2-0.4c0,0,0-0.1,0-0.1c0,0,0.2,0,0.3,0l0.2-0.3c0.1-0.1,0.3,0,0.4-0.1V3.4h0.2c0-0.1,0.1-0.2,0.1-0.2
			c0.1,0,0.2,0,0.3,0c0,0,0-0.1,0-0.1c0.2,0,0.3,0,0.4-0.1l0.2-0.3c0,0,0.1,0,0.1,0V2.6c0,0,0.1,0,0.1,0V2.4h0.2V2.3H31
			c0,0,0.1-0.2,0.1-0.2c0,0,0.1,0,0.1,0V1.9c0.1-0.1,0.2,0,0.3,0c0,0,0-0.1,0-0.1c0.1,0,0.1,0,0.2-0.1c0,0,0-0.2,0-0.3
			c-0.1-0.1,0,0-0.2-0.1c0,0,0-0.1,0-0.1c-0.1,0-0.2,0-0.3,0c0,0-0.1-0.2-0.1-0.2c0.1,0,0.2,0.1,0.2-0.1c0,0-0.1-0.1-0.2-0.1
			c0-0.2,0-0.4,0-0.5c-0.1,0-0.2,0-0.3,0V0.3c0,0,0.1,0,0.1,0c0.1-0.2-0.1,0,0.1-0.1V0.1C31.1,0,31.4,0.1,31.6,0
			C31.5,0.1,31.5,0,31.6,0C31.5,0,31.5,0,31.6,0z"/>
	</g>
	<path id="_x36_0594744_00000073684041278904176080000006136292184641045951_" class="st4" d="M36.1,19c0,0,0.1,0.1,0.1,0.1
		c0,0-0.1,0-0.2,0C36.1,19,36,18.9,36.1,19z"/>
	<path id="_x36_0594832_00000031914428243449771750000015966344170236436891_" class="st4" d="M42.7,26.4c0,0,0.1,0.2,0.1,0.3
		c0.1,0.1,0.1-0.1,0.1-0.2C42.8,26.5,42.9,26.5,42.7,26.4z"/>
	<path id="_x36_0594920_00000051380867751660283260000003833846192434785193_" class="st4" d="M44.5,25.9V26c0,0,0.1,0,0.1,0
		C44.5,25.9,44.7,25.9,44.5,25.9z"/>
	<path id="_x36_0595008_00000011729012302597586850000015419342630404370085_" class="st4" d="M44.1,25.5l0.1,0.2
		c0.1,0,0.1-0.1,0.1-0.2H44.1z"/>
	<path id="_x36_0595096_00000116938070353363121100000012105614494796576663_" class="st4" d="M44.5,24.9v0.2c0,0,0.1,0,0.1,0
		C44.5,25,44.7,24.9,44.5,24.9z"/>
	<path id="_x36_0595184_00000109749497329019879570000010808916349279785373_" class="st4" d="M44.7,23.1l0.1,0.2
		c0.2,0,0.1-0.1,0.1-0.2H44.7z"/>
	<path id="_x36_0595272_00000098927117413772839130000017806582577949843842_" class="st4" d="M34.1,20.2v0.2c0,0,0.1,0,0.1,0
		C34.1,20.3,34.2,20.2,34.1,20.2z"/>
	<path id="_x36_0595360_00000167358684244532848280000010434584765582719141_" class="st4" d="M42.8,18.4
		C42.8,18.4,42.8,18.5,42.8,18.4l0.2,0.1C43,18.5,43,18.4,42.8,18.4z"/>
	<path id="_x36_0595448_00000171685117116599679400000001535854341466644909_" class="st4" d="M42.1,18c0,0,0,0.2,0,0.3
		C42.2,18.2,42.2,18,42.1,18z"/>
	<path id="_x36_0595536_00000041984944542591205630000008351595258302527897_" class="st5" d="M40.5,17.7
		C40.5,17.7,40.5,17.7,40.5,17.7c0.2,0.1,0.5,0,0.7,0.1c0,0,0,0.1,0,0.1c0.1,0,0.2,0,0.3,0c0,0,0,0.1,0,0.1c0.4,0-0.2,0,0.1-0.1
		c0.1,0,0.1,0,0.3,0c0.6-0.2-0.7-0.1,0.1-0.1c0,0,0,0.1,0,0.1c0.2,0,0.5,0,0.7,0c0,0,0,0.1,0,0.1c0.1,0,0.2,0,0.3,0c0,0,0,0.1,0,0.1
		c0.1,0,0.3,0,0.4,0l0.1,0.2c0.1,0,0.3,0,0.4,0c0,0,0,0.1,0,0.1h0.2c0,0,0,0.1,0,0.1c0.1,0,0.2,0,0.3,0c0,0,0,0.1,0,0.1
		c0.2,0.1,0.2,0.2,0.4,0.3c0,0,0,0.1,0,0.1c0.1,0,0.2,0,0.3,0.1c0,0-0.1,0.2-0.2,0.3c-0.1,0-0.1,0-0.2-0.1c0,0.1,0,0.2,0,0.3
		c0,0,0.1,0,0.1,0v0.2l0.2,0.1v0.2c0,0,0.1,0,0.1,0c0,0.2-0.1,0.1-0.2,0.1c-0.1,0.2,0,0.2-0.1,0.3c0.2,0.1,0.2,0,0.3,0.2
		c0,0-0.1,0-0.1,0c0,0-0.1,0.1-0.1,0.2c0,0-0.1,0-0.1,0c0,0-0.1,0.3-0.1,0.3c0.2-0.1,0.1,0.4,0.2,0.5c0,0,0.1,0.1,0.2,0.1v0.2h0.2
		c0.3,0.3-0.3,0,0.1,0.2c0,0,0,0.1,0,0.1h0.2c0,0.1,0,0.2,0,0.3c-0.3,0,0.1,0-0.1,0.1c0,0-0.3-0.1-0.1,0.1v0.2c0,0,0.1,0,0.1,0
		c0,0,0.1,0,0.1,0c0,0.1-0.1,0.1-0.1,0.3c0,0,0.1,0,0.1,0V23c0,0,0.1,0,0.1,0c0,0,0.2,0.2,0.2,0.3c0,0,0.1,0,0.1,0v0.2
		c0,0,0.1,0,0.1,0c0,0,0,0.2-0.1,0.1c0.1,0.2,0,0.1,0.1,0.3c0,0,0.1,0,0.1,0v0.2c0,0,0.1,0,0.1,0c0,0.1,0,0.2,0,0.3c0,0-0.1,0-0.1,0
		c0,0.2,0,0.4,0,0.6c0,0,0.1,0,0.1,0c0,0.1,0,0.2,0,0.3c0,0,0.1,0,0.1,0c0,0.1,0,0.2,0,0.3c0,0-0.3,0.1-0.3,0.1v0.2c0,0-0.1,0-0.1,0
		c-0.1,0.2,0,0.3-0.1,0.5c-0.1,0-0.2,0.2-0.2,0.2c-0.2,0.1-0.2-0.1-0.4-0.1v0.2c-0.2,0.1,0-0.1-0.1,0.1c0,0-0.3,0-0.3,0
		c0,0.1,0,0.3,0,0.3c-0.2,0.1,0-0.1-0.1,0.1c-0.3,0-0.6,0-0.8,0c0,0,0,0.1,0,0.1c-0.2,0-0.4-0.1-0.6,0c0,0,0,0.2,0,0.3
		c-0.2,0-0.1,0.1-0.3,0.1c0,0,0-0.1,0-0.1c-0.1,0-0.3,0-0.4,0l-0.2,0.3c0,0-0.6,0.1-0.6,0.1c0,0-0.1-0.2-0.2-0.2c0,0.2,0,0.3,0,0.5
		c-0.2,0.1-0.1-0.1-0.1,0.1c-0.1-0.1-0.3,0-0.4,0c0-0.1,0.1-0.1-0.1-0.2c0,0,0-0.1,0-0.1c0,0-0.1,0-0.1,0c0,0,0,0.2,0,0.3
		c0,0-0.1,0.1-0.1,0.1c-0.1,0-0.2,0-0.3,0c0,0,0,0.1,0,0.1c-0.2,0-0.2,0.1-0.4,0.1c0,0,0-0.1,0-0.1c-0.1,0-0.3,0-0.4,0L39.3,28
		c-0.2-0.1-0.4,0-0.7-0.1l-0.1-0.2c-0.1-0.1-0.5-0.1-0.7-0.1c0,0,0,0.1,0,0.1c-0.1,0.1-0.3,0.3-0.5,0.3l-0.2-0.3c-0.1,0-0.2,0-0.3,0
		c0,0,0-0.1,0-0.1c-0.2,0-0.5,0-0.7,0c-0.1-0.2,0-0.2-0.1-0.3c-0.2,0-0.4,0-0.5,0c0,0,0,0.1,0,0.1c-0.3,0-0.4-0.1-0.7-0.1
		c0,0,0,0.1,0,0.1c-0.1,0-0.3,0-0.4,0l-0.2-0.3h-0.2L34,27h-0.2c0,0-0.1-0.1-0.1-0.2c0,0-0.1,0-0.1,0c0,0,0-0.1,0-0.1h-0.2
		c0,0-0.2-0.2-0.2-0.3h-0.2c0,0-0.1-0.1-0.1-0.2h-0.2c0,0,0-0.2-0.1-0.3h-0.2v-0.2l-0.3-0.3c-0.1-0.1,0-0.2-0.1-0.3h-0.2
		c0,0,0-0.1,0-0.1h-0.2c0,0,0-0.1,0-0.1c-0.1,0-0.2,0-0.3,0c0,0,0-0.1,0-0.1c0,0-0.2,0-0.3,0V25c-0.1,0-0.2,0-0.3,0c0,0,0-0.1,0-0.1
		c0,0-0.2,0-0.3,0c0,0,0-0.1,0-0.1c-0.1,0-0.2,0-0.3,0c0,0,0,0.1,0,0.1c-0.1,0-0.2,0-0.3,0v-0.2c0,0,0.2,0,0.3,0c0,0,0-0.1,0-0.1
		c-0.2-0.1-0.2,0-0.4-0.1c0-0.1,0-0.3,0-0.4c0,0,0.1,0,0.1,0c0-0.2,0-0.4,0-0.5c0,0-0.1,0-0.1,0v-0.2l-0.3-0.2c0-0.1,0-0.4,0-0.5
		l0.3-0.2c0.1-0.1,0.2-0.3,0.3-0.3c0,0,0-0.1,0-0.1c0.2-0.1,0.1,0.1,0.3,0.1l0.1-0.2c0.1-0.1,0.3,0,0.4-0.1c0,0,0.1-0.4,0.1-0.4h0.2
		c0,0,0.1-0.1,0.1-0.2h0.2c0.1-0.1,0-0.5,0.1-0.6c0,0,0.2,0,0.3,0c0,0,0.1-0.2,0.1-0.2c0,0,0.1,0,0.1,0v-0.2c0,0-0.1-0.1-0.2-0.1
		c0-0.2,0-0.3,0-0.4c0,0,0.1,0,0.1,0c0-0.1,0.1-0.6,0.1-0.6L32,19.2c0-0.1,0.1-0.1,0.1-0.3c0,0-0.1,0-0.1,0c0,0-0.1,0-0.1,0v-0.2
		c0,0,0.1,0,0.1,0c0,0,0.2-0.2,0.2-0.3c0.1,0,0.3,0,0.4,0c0,0,0,0.1,0,0.1c0.1,0,0.4,0,0.5,0c0,0,0,0.1,0,0.1c0.1,0,0.2,0,0.3,0
		c0,0,0,0.1,0,0.1c0.1,0,0.2,0,0.3,0c0,0,0,0.1,0,0.1c0.1,0,0.3,0,0.4,0c0,0,0,0.1,0,0.1c0.2,0,0.4,0,0.6,0c0,0,0,0.1,0,0.1
		c0.2,0,0.3,0,0.5,0.1c0,0,0,0.1,0,0.1c0.2,0,0.4-0.1,0.6,0l0.1,0.2c0.1,0,0.1,0,0.3,0c0,0,0,0.1,0,0.1h0.2c0,0,0,0.1,0,0.1
		c0.1,0,0.2,0,0.3,0c0.1-0.2-0.1,0,0.1-0.1c0-0.1,0-0.2,0-0.3l0.2-0.1c0,0,0-0.2,0-0.3c0.1-0.1,0.2,0,0.3-0.1c0.1-0.1,0-0.1-0.1-0.1
		c0.1-0.2-0.1,0,0.1-0.1v-0.2c0,0,0.2-0.1,0.2-0.1c0,0,0-0.1,0-0.1h0.2c0,0,0,0.1,0,0.1c0.2,0,0.4,0.2,0.6,0.1c0.1,0-0.1-0.2,0-0.3
		c0,0,0.2,0,0.3,0c0-0.1,0-0.2,0.1-0.3c0.1,0,0.2,0,0.3,0c0,0,0-0.1,0-0.1c0.3,0,0.6,0,0.9,0c0,0,0-0.1,0-0.1
		C39.7,17.8,40.1,17.9,40.5,17.7C40.8,17.6,40,17.7,40.5,17.7z"/>
	<g id="g3902_00000097493046944051665350000001570952726414517167_">
		<path id="_x36_0595800_00000017504116381857454090000008681376973172677779_" d="M8,45.6h-3V37H1.6v-2.2h9.9V37H8V45.6z"/>
		<path id="_x36_0595888_00000053535738307996656000000010188125469018178691_" d="M44.3,37h-5.1v2H44v2.2h-4.7v2.2h5.1v2.2h-8V34.8
			h7.9V37z"/>
		<path id="_x36_0595976_00000057125083925215656650000003784522534279987097_" d="M48.4,34.8v10.8h-3V34.8H48.4z"/>
		<path id="_x36_0596064_00000150073174007174397870000008446222952286288040_" d="M25,34.8v10.8h-3V34.8H25z"/>
		<path id="_x36_0596152_00000152264722308655523100000001534148899899581858_" d="M29.5,45.6h-2.9V34.8h4.8c1.6,0,2.4,0.2,3.1,0.7
			c0.7,0.5,1.1,1.5,1.1,2.7c0,1.4-0.6,2.5-1.5,3c-0.7,0.4-1.5,0.5-3,0.5h-1.6V45.6z M30.3,39.7c1.7,0,2.2-0.4,2.2-1.4
			c0-1-0.5-1.3-1.9-1.3h-1.1v2.8H30.3z"/>
		<path id="_x36_0596240_00000071542839148626722460000018231118609343185077_" d="M12.6,43.5l-0.8,2.1H8.8l4.7-10.8H17l4.8,10.8
			h-3.3l-0.9-2.1H12.6z M15.1,37.1l-1.7,4.3h3.4L15.1,37.1z"/>
	</g>
</g>
</svg>
