<?xml version="1.0" encoding="utf-8"?>
<!-- Generator: Adobe Illustrator 25.4.1, SVG Export Plug-In . SVG Version: 6.00 Build 0)  -->
<svg version="1.1" id="圖層_1" xmlns="http://www.w3.org/2000/svg" xmlns:xlink="http://www.w3.org/1999/xlink" x="0px" y="0px"
	 viewBox="0 0 50 50" style="enable-background:new 0 0 50 50;" xml:space="preserve">
<style type="text/css">
	.st0{fill-rule:evenodd;clip-rule:evenodd;fill:#1D2088;}
	.st1{fill:#FFFFFF;}
	.st2{fill-rule:evenodd;clip-rule:evenodd;fill:#FFFFFF;}
	.st3{fill:#009944;}
	.st4{fill-rule:evenodd;clip-rule:evenodd;fill:#009944;}
	.st5{fill-rule:evenodd;clip-rule:evenodd;fill:#E60012;}
</style>
<g>
	<g>
		<g>
			<path class="st0" d="M25,2.6c12.3,0,22.4,10.1,22.4,22.4c0,12.3-10.1,22.4-22.4,22.4C12.7,47.4,2.6,37.3,2.6,25
				C2.6,12.7,12.7,2.6,25,2.6z"/>
			<path class="st1" d="M25,50C11.2,50,0,38.8,0,25c0-6.7,2.6-12.9,7.3-17.7C12.1,2.6,18.3,0,25,0c13.8,0,25,11.2,25,25
				C50,38.8,38.8,50,25,50z M25,5.2c-5.3,0-10.2,2.1-14,5.8c-3.8,3.8-5.8,8.7-5.8,14c0,10.9,8.9,19.8,19.8,19.8
				c10.9,0,19.8-8.9,19.8-19.8C44.8,14.1,35.9,5.2,25,5.2z"/>
		</g>
		<g>
			<path class="st0" d="M25,2.6c12.3,0,22.4,10.1,22.4,22.4c0,12.3-10.1,22.4-22.4,22.4C12.7,47.4,2.6,37.3,2.6,25
				C2.6,12.7,12.7,2.6,25,2.6z"/>
		</g>
		<g>
			<g>
				<path class="st2" d="M25,33C25,33,25,33,25,33C25,33,25,33,25,33L25,33l1.3-28.8c3.7,0.7,6.4,4.1,6.2,8c0,0.8-0.2,1.5-0.4,2.2
					c1.3-0.9,2.9-1.4,4.6-1.3c4.2,0.2,7.5,3.8,7.3,8.1c-0.2,4.2-3.7,7.5-7.8,7.4c2.3,1.4,3.8,4.1,3.7,7c-0.2,4.3-3.8,7.6-8,7.4
					c-3.3-0.1-6-2.4-6.9-5.4c-0.1,0.3-0.2,0.5-0.3,0.8L25,33z M25,33C25,33,25,33,25,33l-0.2,5.6c-1.2,2.9-4.1,4.8-7.4,4.7
					c-4.2-0.2-7.5-3.9-7.3-8.1c0.1-2.7,1.6-5,3.7-6.3c-0.3,0-0.6,0-0.9,0c-4.2-0.2-7.5-3.8-7.3-8.1c0.2-4.3,3.8-7.6,8-7.4
					c1.5,0.1,2.9,0.6,4,1.4c-0.3-1-0.5-2-0.5-3.1c0.2-4.3,3.8-7.6,8-7.4c0.4,0,0.7,0.1,1.1,0.1L25,33L25,33L25,33z"/>
			</g>
			<g>
				<path class="st2" d="M25,33C25,33,25,33,25,33C25,33,25,33,25,33L25,33L25,33z M25,37.8c-1,3.3-4.1,5.6-7.7,5.5
					c-4.2-0.2-7.5-3.9-7.3-8.1c0.1-2.7,1.6-5,3.7-6.3c-0.3,0-0.6,0-0.9,0c-4.2-0.2-7.5-3.8-7.3-8.1c0.2-4.3,3.8-7.6,8-7.4
					c1.5,0.1,2.9,0.6,4,1.4c-0.3-1-0.5-2-0.5-3.1c0.2-4.3,3.8-7.6,8-7.4c4.2,0.2,7.5,3.9,7.3,8.1c0,0.8-0.2,1.5-0.4,2.2
					c1.3-0.9,2.9-1.4,4.6-1.3c4.2,0.2,7.5,3.8,7.3,8.1c-0.2,4.2-3.7,7.5-7.8,7.4c2.3,1.4,3.8,4.1,3.7,7c-0.2,4.3-3.8,7.6-8,7.4
					C28.7,43,26,40.8,25,37.8z"/>
			</g>
		</g>
		<g>
			<path class="st3" d="M24.9,14.5c-2.7,0-4.9-2.1-4.9-4.7c0-2.6,2.2-4.7,4.9-4.7c2.7,0,4.8,2.1,4.8,4.7
				C29.8,12.4,27.6,14.5,24.9,14.5z M24.9,5.8c-2.3,0-4.1,1.8-4.1,4c0,2.2,1.8,3.9,4.1,3.9c2.2,0,4.1-1.8,4.1-3.9
				C29,7.6,27.2,5.8,24.9,5.8z"/>
		</g>
		<g>
			<path class="st3" d="M24.9,14.5c-1.1,0-1.7-2.4-1.7-4.7c0-2.3,0.6-4.7,1.7-4.7c1.1,0,1.7,2.4,1.7,4.7
				C26.7,12.1,26.1,14.5,24.9,14.5z M24.9,5.8c-0.4,0-1,1.5-1,4c0,2.6,0.7,4,1,4c0.4,0,1-1.5,1-4C26,7.3,25.3,5.8,24.9,5.8z"/>
		</g>
		<g>
			<path class="st3" d="M24.9,11.2c-1.8,0-4.8-0.3-4.8-1.5c0-1.1,3-1.5,4.8-1.5c1.8,0,4.8,0.3,4.8,1.5
				C29.7,10.9,26.7,11.2,24.9,11.2z M20.8,9.8c0.2,0.3,1.7,0.8,4.1,0.8c2.4,0,4-0.5,4.1-0.8C28.9,9.5,27.4,9,24.9,9
				C22.5,9,20.9,9.5,20.8,9.8z"/>
		</g>
		<g>
			<rect x="19.6" y="13.9" class="st3" width="10.9" height="0.8"/>
		</g>
		<g>
			<rect x="20.7" y="15.3" class="st3" width="0.8" height="4.7"/>
		</g>
		<g>
			<rect x="23.4" y="15.3" class="st3" width="0.8" height="4.7"/>
		</g>
		<g>
			<rect x="26.1" y="15.3" class="st3" width="0.8" height="4.7"/>
		</g>
		<g>
			<rect x="28.9" y="15.3" class="st3" width="0.8" height="4.7"/>
		</g>
		<g>
			<rect x="19.1" y="26.8" class="st3" width="11.9" height="0.9"/>
		</g>
		<g>
			<path class="st4" d="M18.4,38.2h-3.2c0,0,5.5-5.4,5.1-10.8c0,0,1.6-0.1,1.6,0C21.8,33,18.4,38.2,18.4,38.2z"/>
		</g>
		<g>
			<path class="st4" d="M23.2,27.4c0,7.2-2.3,10.8-2.3,10.8h2.4c0.3-1.1,1.4-4,1.4-10.9C24.6,27.3,23.2,27.4,23.2,27.4z"/>
		</g>
		<g>
			<path class="st4" d="M31.7,38.2h3.2c0,0-5.5-5.4-5.1-10.8c0,0-1.6-0.1-1.6,0C28.3,33,31.7,38.2,31.7,38.2z"/>
		</g>
		<g>
			<path class="st4" d="M27,27.4c0,7.2,2.3,10.8,2.3,10.8h-2.4c-0.3-1.1-1.4-4-1.4-10.9C25.5,27.3,27,27.4,27,27.4z"/>
		</g>
		<g>
			<path class="st5" d="M20.8,22.5L20.8,22.5l3.3,0l-1.1,3.8H22l0.8-3.2h-2.5C20.5,22.9,20.6,22.8,20.8,22.5z"/>
		</g>
		<g>
			<polygon class="st5" points="22.9,21 23,21.7 25.1,21.7 24.3,25.3 25.3,25.3 26.2,21.1 			"/>
		</g>
		<g>
			<polygon class="st5" points="29,21.2 28.3,24.8 29.1,24.9 30,21.3 			"/>
		</g>
		<g>
			<polygon class="st5" points="27,22.4 25.9,26 27.1,26.1 28.3,22.5 			"/>
		</g>
		<g>
			<rect x="19.6" y="19.6" class="st3" width="10.9" height="0.8"/>
		</g>
	</g>
</g>
</svg>
