<?xml version="1.0" encoding="utf-8"?>
<!-- Generator: Adobe Illustrator 25.4.1, SVG Export Plug-In . SVG Version: 6.00 Build 0)  -->
<svg version="1.1"
	 id="圖層_1" inkscape:version="0.43" sodipodi:docbase="D:\蝬剖" sodipodi:docname="Seal_of_Keelung.svg" sodipodi:version="0.32" xmlns:cc="http://web.resource.org/cc/" xmlns:dc="http://purl.org/dc/elements/1.1/" xmlns:inkscape="http://www.inkscape.org/namespaces/inkscape" xmlns:rdf="http://www.w3.org/1999/02/22-rdf-syntax-ns#" xmlns:sodipodi="http://inkscape.sourceforge.net/DTD/sodipodi-0.dtd" xmlns:svg="http://www.w3.org/2000/svg"
	 xmlns="http://www.w3.org/2000/svg" xmlns:xlink="http://www.w3.org/1999/xlink" x="0px" y="0px" viewBox="0 0 50 50"
	 style="enable-background:new 0 0 50 50;" xml:space="preserve">
<style type="text/css">
	.st0{fill:#FFFFFF;}
	.st1{fill-rule:evenodd;clip-rule:evenodd;fill:#008738;}
	.st2{fill-rule:evenodd;clip-rule:evenodd;fill:#00873A;}
	.st3{fill-rule:evenodd;clip-rule:evenodd;fill:#00007C;}
	.st4{fill:#00007C;}
</style>
<sodipodi:namedview  bordercolor="#666666" borderopacity="1.0" id="base" inkscape:current-layer="圖層_1" inkscape:cx="224.505" inkscape:cy="195.2635" inkscape:pageopacity="0.0" inkscape:pageshadow="2" inkscape:window-height="998" inkscape:window-width="1680" inkscape:window-x="-8" inkscape:window-y="-8" inkscape:zoom="1" pagecolor="#ffffff">
	</sodipodi:namedview>
<g id="path1385">
	<path sodipodi:cx="-239.5" sodipodi:cy="56.763504" sodipodi:rx="93.5" sodipodi:ry="93.5" sodipodi:type="arc" class="st0" d="
		M46.8,25c0,12-9.8,21.8-21.8,21.8S3.2,37,3.2,25S13,3.2,25,3.2S46.8,13,46.8,25z"/>
</g>
<g id="g1415" transform="translate(-1.387779e-17,-4.26285e-6)">
	<g id="polygon1417">
		<polygon class="st1" points="18.2,37.2 24.9,3.3 31.5,37.2 		"/>
	</g>
	<g id="polygon1419">
		<polygon class="st2" points="24.8,37.2 32.6,18.2 40.3,37.2 		"/>
	</g>
	<g id="polygon1421">
		<polygon class="st2" points="9.4,37.2 17.1,18.2 24.9,37.2 		"/>
	</g>
	<g id="path1423">
		<path class="st3" d="M27.1,3.3l1.4,7C35.1,11.8,40,17.8,40,24.9c0,8.4-6.8,15.2-15.2,15.2c-8.4,0-15.2-6.8-15.2-15.2
			c0-7.2,5-13.1,11.6-14.7l1.4-7C11.7,4.3,3.1,13.6,3.1,24.9c0,12,9.8,21.8,21.8,21.8c12,0,21.8-9.8,21.8-21.8
			C46.6,13.7,38.1,4.4,27.1,3.3z"/>
	</g>
	<g id="g1425" transform="translate(-1e-3,0.736496)">
		<g id="path1427">
			<path class="st0" d="M24.5,28.9v1.4H11l-0.7-0.7v-1.9l1-1.5l2.4,0v0.7h10.8v1.5h-2.3v0.5H24.5z M18.9,28.9v-0.5H17v0.5H18.9z
				 M13.8,28.9v-0.5h-0.9l-0.4,0.5H13.8z"/>
		</g>
		<g id="path1429">
			<path class="st0" d="M27.4,35.4l0,1.1c-10.6,0-24.9,0-24.9,0l-2.3-3.2v-8.6h9.6v4.1l-0.5,0.4l0.5,0.4v0.8v2.3l-0.9,0.8H3.2
				l1.3,1.9h12.1v-0.2h-4.4v-0.8c0,0-0.6,0.3-0.9,0.4c-1.6,0.5-6.7,0.3-6.7,0.3L4,33.9l4.7,0c0,0,0.9-0.1,1.3-0.5
				c0.9-0.6,0.7-1.4,0.7-1.4h-0.5l0-1.8H11l0,0h13.5v0h0.3v1.6h-5.2v0.2h4.8v1.6h-4.7v0.2h4.7v1.3h-4.8v0.2L27.4,35.4l-0.6-0.8
				L27.4,35.4z M16.6,33.9v-0.2h-3.8v0.2H16.6z M16.6,32.1v-0.2h-2.8v0.2H16.6z M7,32.1c0.4-0.7,0.4-1.9,0-2.7c-1.4,0-2.8,0-4.3,0
				c0,0.9,0,1.8,0,2.7C4.2,32.1,5.6,32.1,7,32.1z M7,28.4c0.5-0.5,0.4-1.6,0-2.1c-1.4,0-2.8,0-4.3,0c0,0.7,0,1.4,0,2.1
				C3.7,28.4,5.9,28.4,7,28.4z"/>
		</g>
		<g id="path1431">
			<path class="st0" d="M31.1,28.4c0,0.3,0,0,0,0.4c2.2,0,7,0,7,0s4.9,0,7,0c0-0.3,0,0,0-0.4c-2.2,0-7,0-7,0S33.3,28.4,31.1,28.4z
				 M31.1,30c0,0.3,0,0,0,0.4c2.2,0,7,0,7,0s4.9,0,7,0c0-0.3,0,0,0-0.4c-2.2,0-7,0-7,0S33.3,30,31.1,30z M31.1,31.7c0,0.3,0,0,0,0.4
				c2.2,0,7,0,7,0s4.9,0,7,0c0-0.3,0,0,0-0.4c-2.2,0-7,0-7,0S33.3,31.7,31.1,31.7z M36.7,33.8c0-0.4,0-0.1,0-0.5c-1.9,0-3.8,0-5.6,0
				c0,0.2,0,0.5,0,0.5S36,33.8,36.7,33.8z M38.1,27.1c0.4,0,7,0,7,0s0-0.6,0-0.9c0.2,0,2.7,0,2.9,0c0,0.2,0,0.9,0,0.9l1.4,0v1.5
				h-1.2l0,3.3h1.6v1.7h-1.7l1.4,0.9l-0.6,0.8c0,0,0,0.7,0,1.1c-3.3,0-7.5,0-10.7,0c-1.1,0-5.4,0-10.7,0l0-1.1l-0.6-0.8l1.4-0.9
				h-1.7v-1.7H28l0-3.3h-1.2v-1.5l1.4,0c0,0,0-0.7,0-0.9c0.2,0,2.7,0,2.9,0c0,0.3,0,0.9,0,0.9S37.8,27.1,38.1,27.1z M39.5,33.3
				c0,0.4,0,0.1,0,0.5c0.8,0,5.6,0,5.6,0s0-0.3,0-0.5C43.3,33.3,41.4,33.3,39.5,33.3z M46.6,34.5c0,0,0,0.2,0,0.3c-0.2,0-7,0-7.1,0
				c0,0.1,0,0.4,0,0.5c0.4,0,7.8,0,8.5,0C47.6,35.2,47,34.8,46.6,34.5z M36.7,35.4c0-0.2,0-0.4,0-0.5c-0.1,0-6.9,0-7.1,0
				c0-0.1,0-0.3,0-0.3c-0.4,0.3-1,0.7-1.4,0.9C28.9,35.4,36.3,35.4,36.7,35.4z"/>
		</g>
	</g>
	<g id="g1433" transform="translate(-1e-3,0.736496)">
		<g id="path1435">
			<path class="st4" d="M39.4,34v-0.8h6l0,0.2c0,0.2,0,0.5,0,0.5l0,0.2l-0.2,0c0,0-4.9,0-5.6,0L39.4,34z M41.3,33.6
				c1.4,0,3.1,0,3.7,0c0-0.1,0-0.1,0-0.2h-5.3v0.2C40,33.6,40.6,33.6,41.3,33.6z"/>
		</g>
		<g id="path1437">
			<path class="st4" d="M48.6,35.6l-0.6,0c-0.5,0-5.8,0-7.7,0l-0.9,0v-0.9h7.1v-0.4l0.3,0.2c0.6,0.4,1.1,0.7,1.4,0.9L48.6,35.6z
				 M39.7,35v0.2l0.5,0c1.6,0,5.6,0,7.1,0c-0.2-0.1-0.4-0.2-0.6-0.4V35H39.7z"/>
		</g>
		<g id="path1439">
			<path class="st4" d="M36.9,34l-0.2,0c-0.8,0-5.6,0-5.6,0l-0.2,0l0-0.2c0,0,0-0.3,0-0.5l0-0.2h6V34z M31.3,33.5c0,0.1,0,0.1,0,0.2
				c0.8,0,4.3,0,5.3,0v-0.2H31.3z"/>
		</g>
		<g id="path1441">
			<path class="st4" d="M27.6,35.6l0.6-0.3c0.3-0.2,0.7-0.4,1.4-0.9l0.3-0.2v0.4h7.1v0.9l-0.9,0c-2,0-7.2,0-7.7,0L27.6,35.6z
				 M30.7,35.2c1.8,0,4.2,0,5.3,0l0.5,0V35h-7.1v-0.2c-0.2,0.1-0.4,0.3-0.6,0.4C29.3,35.2,30,35.2,30.7,35.2z"/>
		</g>
		<g id="path1443">
			<path class="st4" d="M45.3,32.3H30.9v-0.7h14.4V32.3z M31.3,31.9H45v0L31.3,31.9L31.3,31.9z"/>
		</g>
		<g id="path1445">
			<path class="st4" d="M45.3,28.9H30.9v-0.7h14.4V28.9z M31.3,28.6H45v0L31.3,28.6L31.3,28.6z"/>
		</g>
		<g id="path1447">
			<path class="st4" d="M45.3,30.6H30.9v-0.7h14.4V30.6z M31.3,30.2H45v0L31.3,30.2L31.3,30.2z"/>
		</g>
		<g id="path1449">
			<path class="st4" d="M7.1,28.5H2.6v-2.5h4.5l0,0.1C7.6,26.8,7.7,27.9,7.1,28.5L7.1,28.5z M2.9,28.2h4c0.4-0.4,0.3-1.3,0-1.8h-4
				V28.2z"/>
		</g>
		<g id="path1451">
			<path class="st4" d="M7.1,32.3H2.6v-3h4.5l0,0.1C7.7,30.2,7.7,31.4,7.1,32.3L7.1,32.3z M2.9,31.9h4c0.4-0.7,0.4-1.7,0-2.3h-4
				V31.9z"/>
		</g>
		<g id="path1453">
			<path class="st4" d="M2.5,36.7L2.5,36.7L0,33.3v-8.8h10v4.3l-0.4,0.3l0.4,0.3v0.7h15v1.9h-0.5v1.6h0v1.4H27l-0.5-0.7l1.1-0.7
				h-1.3v-2h1.6l0-3h-1.2V27l1.4,0V26h0.2c0.1,0,0.7,0,1.3,0c0.7,0,1.5,0,1.6,0h0.2V27c1,0,6.5,0,6.9,0c0.3,0,5.8,0,6.9,0V26h0.2
				c0.1,0,0.9,0,1.6,0c0.6,0,1.2,0,1.3,0h0.2V27l1.4,0v1.8h-1.2l0,3H50v2h-1.3l1.1,0.7l-0.7,0.9c0,0.2,0,0.7,0,1.1v0.2H27.4
				C16.8,36.7,2.5,36.7,2.5,36.7z M0.3,33.2l2.2,3.1c1.2,0,14.7,0,24.8,0h21.3c0-0.4,0-1,0-1l0-0.1l0.6-0.7l-1.8-1.1h2.2v-1.4h-1.6
				l0-3.6h1.2v-1.1l-1.4,0v-0.9c-0.2,0-0.7,0-1.2,0c-0.6,0-1.1,0-1.4,0v0.9h-0.2c-0.1,0-6.7,0-7,0c-0.4,0-7,0-7,0h-0.2v-0.9
				c-0.3,0-0.9,0-1.4,0c-0.5,0-0.9,0-1.2,0v0.9l-1.4,0v1.1h1.2l0,3.6h-1.6v1.4h2.2L27,34.6l0.6,0.9h-8.2V35h4.8V34h-4.7v-0.5h4.7
				v-1.2h-4.8v-0.6h5.2v-1.3H10.3l0,1.4h0.5l0,0.1c0,0,0.2,0.9-0.7,1.6c-0.5,0.4-1.4,0.5-1.4,0.5l0,0l-4.4,0l0.5,0.8
				c0.7,0,5.1,0.1,6.5-0.3c0.3-0.1,0.9-0.4,0.9-0.4l0.2-0.1V35h4.4v0.5H4.4l-1.5-2.2h6l0.8-0.7v-3L9,29.1l0.7-0.4v-3.8H0.3V33.2z
				 M10,35.1H12v-0.5c-0.2,0.1-0.5,0.2-0.7,0.3C11,35,10.5,35.1,10,35.1z M3.5,33.6l0.1,0.2l5,0c0.1,0,0.8-0.2,1.3-0.4
				c0.6-0.4,0.6-0.9,0.6-1.1H10v0.5l-1,0.9H3.5z"/>
		</g>
		<g id="polygon1455">
			<path class="st4" d="M24.7,30.5H10.9l-0.8-0.8v-2l1.1-1.6l2.7,0v0.7h10.8v1.8h-2.3v0.2h2.3V30.5z M11,30.1h13.3v-1.1H22v-0.9h2.3
				V27H13.5v-0.7l-2.2,0l-0.9,1.4v1.8L11,30.1z"/>
		</g>
		<g id="rect1457">
			<path class="st4" d="M19.1,29h-2.3v-0.8h2.3V29z M17.2,28.7h1.6v-0.1h-1.6V28.7z"/>
		</g>
		<g id="polygon1459">
			<path class="st4" d="M13.9,29h-1.7l0.6-0.8h1.1V29z M12.9,28.7h0.7v-0.1H13L12.9,28.7z"/>
		</g>
		<g id="rect1461">
			<rect x="13.7" y="31.8" class="st4" width="3.2" height="0.5"/>
		</g>
		<g id="rect1463">
			<rect x="12.6" y="33.5" class="st4" width="4.2" height="0.5"/>
		</g>
	</g>
</g>
</svg>
