<?xml version="1.0" encoding="utf-8"?>
<!-- Generator: Adobe Illustrator 25.4.1, SVG Export Plug-In . SVG Version: 6.00 Build 0)  -->
<svg version="1.1"
	 id="圖層_1" xmlns:cc="http://creativecommons.org/ns#" xmlns:dc="http://purl.org/dc/elements/1.1/" xmlns:rdf="http://www.w3.org/1999/02/22-rdf-syntax-ns#"
	 xmlns="http://www.w3.org/2000/svg" xmlns:xlink="http://www.w3.org/1999/xlink" x="0px" y="0px" viewBox="0 0 50 50"
	 style="enable-background:new 0 0 50 50;" xml:space="preserve">
<style type="text/css">
	.st0{fill:#FFFFFF;}
	.st1{opacity:0.5;}
	.st2{fill:#0092DB;}
	.st3{fill:#E77918;}
	.st4{fill:#DB241C;}
</style>
<g>
	<path class="st0" d="M25,0c0.5,0.3,0.9,0.7,1.5,0.8c1.8,0.4,3.7,0.1,5.5,0.7c0.8,0.2,1.3,0.8,1.8,1.3c0.9-0.1,1.9-0.3,2.7,0.3
		c1.6,0.9,2.8,2.4,4.4,3.5c0.5,0.4,1.1,0.4,1.7,0.5c0.1,0.5,0.1,1.1,0.5,1.6c1.1,1.6,2.6,2.8,3.5,4.5c0.5,0.7,0.3,1.6,0.3,2.5
		c0.6,0.5,1.2,1.1,1.4,2c0.4,1.8,0.3,3.7,0.6,5.6c0.1,0.6,0.6,1.1,1,1.5c-0.4,0.4-0.9,0.8-1,1.5c-0.3,1.9-0.2,3.8-0.6,5.6
		c-0.2,0.8-0.8,1.4-1.4,2c0,0.8,0.1,1.7-0.3,2.5c-1,1.7-2.6,3-3.6,4.6c-0.3,0.5-0.2,1-0.3,1.6c-0.5,0-1.1-0.1-1.6,0.3
		c-1.9,1.2-3.3,3.2-5.5,4c-0.6,0.3-1.3,0-1.9-0.1c-0.4,0.5-0.9,1-1.5,1.3c-1.1,0.5-2.4,0.4-3.6,0.5c-1.3,0.2-2.7,0.1-3.7,1
		c-1-1-2.4-0.9-3.7-1c-1.2-0.1-2.5,0-3.6-0.5c-0.6-0.3-1.1-0.8-1.5-1.3c-0.7,0.3-1.5,0.4-2.2,0c-2-0.8-3.4-2.7-5.2-3.9
		c-0.5-0.3-1-0.2-1.6-0.3c0-0.5,0.1-1.1-0.3-1.6c-1.1-1.7-2.6-2.9-3.6-4.6C2.9,35.3,3,34.4,3,33.6c-0.6-0.5-1.2-1.1-1.4-2
		c-0.4-1.8-0.4-3.7-0.6-5.6c-0.1-0.6-0.5-1.1-1-1.5c0.4-0.4,0.9-0.9,1-1.5c0.3-1.9,0.2-3.7,0.6-5.6c0.2-0.8,0.8-1.5,1.4-2
		c0-0.8-0.1-1.7,0.3-2.5c1-1.7,2.5-2.9,3.5-4.5c0.3-0.5,0.4-1.1,0.5-1.6c0.6-0.1,1.2-0.2,1.7-0.5C10.6,5.4,11.8,4,13.4,3
		c0.8-0.5,1.8-0.4,2.7-0.3c0.5-0.6,1.1-1.1,1.8-1.3c1.8-0.5,3.7-0.3,5.5-0.7C24.1,0.7,24.5,0.3,25,0L25,0z"/>
</g>
<g>
	<path class="st0" d="M25,0.6c-2.2,1.5-5.1,0.4-7.4,1.6c-0.6,0.3-0.9,0.9-1.2,1.4c-0.8-0.6-2-0.6-2.8,0C12,4.5,10.8,5.9,9.3,6.9
		c-0.4,0.3-1,0.4-1.5,0.5C7.7,8.1,7.5,8.8,7,9.4c-1.1,1.5-2.6,2.6-3.3,4.3c-0.3,0.7-0.2,1.4,0,2.1c-0.5,0.4-1.1,0.8-1.4,1.5
		c-0.5,1.1-0.4,2.3-0.6,3.5c-0.1,0.8,0,1.6-0.3,2.4c-0.2,0.5-0.5,1-0.7,1.5c0.2,0.5,0.6,1,0.7,1.5c0.2,0.7,0.1,1.5,0.2,2.3
		c0.2,1.2,0.1,2.4,0.6,3.5c0.3,0.6,0.9,1.1,1.4,1.4c-0.1,0.6-0.3,1.2-0.1,1.8c0.8,2.5,3.8,3.8,4.2,6.6c0.6,0.1,1.1,0.3,1.6,0.6
		c1.5,1.1,2.7,2.6,4.4,3.4c0.8,0.4,1.8,0.3,2.5-0.2c0.4,0.8,1,1.5,1.9,1.7c2.2,0.7,4.7,0,6.7,1.3c2.1-1.4,4.9-0.5,7.2-1.5
		c0.7-0.3,1.1-0.9,1.5-1.5c0.7,0.5,1.7,0.6,2.5,0.2c1.7-0.9,2.9-2.4,4.4-3.4c0.5-0.3,1.1-0.5,1.6-0.6c0.1-0.6,0.3-1.2,0.6-1.7
		c1.1-1.6,2.7-2.8,3.5-4.6c0.3-0.7,0.1-1.5,0-2.2c0.6-0.4,1.1-0.8,1.4-1.4c0.5-1.1,0.4-2.3,0.6-3.5c0.1-0.8,0-1.5,0.2-2.3
		c0.1-0.5,0.5-1,0.7-1.5c-0.2-0.5-0.6-1-0.7-1.6c-0.2-0.7-0.1-1.5-0.2-2.2c-0.2-1.2-0.1-2.4-0.6-3.5c-0.3-0.7-0.9-1.1-1.4-1.5
		c0.1-0.5,0.3-1,0.2-1.6c-0.7-2.7-3.9-4-4.3-6.8c-0.5-0.1-1.1-0.2-1.5-0.5c-1.5-1-2.7-2.4-4.3-3.4c-0.9-0.5-2-0.6-2.8,0
		c-0.4-0.6-0.8-1.3-1.5-1.5C29.9,1.1,27.1,2,25,0.6L25,0.6z"/>
</g>
<g transform="matrix(0.8819442,0,0,0.96426381,-222.90048,-22.293164)" class="st1">
</g>
<g transform="matrix(0.8819442,0,0,0.96426381,-222.90048,-22.293164)" class="st1">
</g>
<g transform="translate(0,-100.39506)">
</g>
<g transform="translate(0,-100.39506)">
</g>
<g transform="translate(0,-100.39506)">
</g>
<g transform="translate(0,-100.39506)">
</g>
<g transform="translate(0,-100.39506)">
</g>
<g transform="translate(0,-100.39506)">
</g>
<g>
	<path class="st2" d="M25,3.6c-1,0.7-2.3,0.5-3.5,0.7c-1,0.1-2,0-2.9,0.4c-0.6,0.2-0.9,0.8-1.3,1.2c-0.8-0.1-1.6-0.4-2.3,0.1
		c-1.4,0.9-2.5,2.2-3.9,3.2c-0.4,0.3-0.8,0.4-1.3,0.5c-0.1,0.6-0.4,1.2-0.8,1.7c-0.9,1.1-2,2.1-2.8,3.4c-0.4,0.6-0.2,1.4-0.3,2.1
		c-0.4,0.4-0.9,0.7-1.1,1.3c-0.7,2.1,0,4.4-1,6.5c0.2,0.6,0.5,1.2,0.5,1.9c0.1,1.5,0,3,0.4,4.4c0,0.2,0.1,0.4,0.3,0.6l39.7,0.1
		c0.2-0.2,0.3-0.4,0.3-0.7c0.4-1.4,0.2-3,0.4-4.4c0.1-0.7,0.4-1.2,0.5-1.9c-1-2-0.3-4.4-1-6.5c-0.2-0.6-0.7-0.9-1.2-1.3
		c0.1-0.7,0.2-1.5-0.2-2.2c-0.9-1.4-2.2-2.5-3.1-3.8c-0.3-0.4-0.4-0.8-0.5-1.3c-0.4-0.1-0.9-0.2-1.3-0.5c-1.4-1-2.5-2.3-3.9-3.2
		c-0.7-0.5-1.5-0.2-2.3-0.1C32.2,5.5,32,5,31.5,4.7c-0.9-0.4-1.9-0.3-2.8-0.4C27.4,4.1,26.1,4.3,25,3.6L25,3.6z"/>
</g>
<g>
	<path class="st0" d="M25,11.9c-3.4,8.9-11.8,15.4-19.8,19.6c0.3,0.3,0.6,0.6,0.9,0.9c0,0.5-0.1,1.1,0,1.5
		c8.2-4.2,16.7-11.2,18.8-15.9c1.8,4.6,11.4,12.2,19.1,16c0.1-0.5,0-1.1,0-1.6c0.2-0.3,0.5-0.5,0.8-0.8C37.7,28.3,28.6,21.1,25,11.9
		L25,11.9z"/>
	<path class="st3" d="M44,34.3l-0.2-0.1c-7.3-3.6-16.8-11-19-15.8c-2.3,4.6-10.3,11.4-18.7,15.7l-0.2,0.1l0-0.2c-0.1-0.3,0-0.7,0-1
		c0-0.2,0-0.3,0-0.5c-0.1-0.1-0.2-0.2-0.3-0.3C5.4,32,5.2,31.8,5,31.6l-0.1-0.2l0.2-0.1c7-3.6,16.1-10,19.8-19.5l0.2,0.1l0.2-0.1
		c3.7,9.4,12.9,16.5,19.7,19.6l0.2,0.1l-0.2,0.2c-0.1,0.2-0.3,0.3-0.4,0.4c-0.1,0.1-0.2,0.2-0.3,0.3c0,0.2,0,0.3,0,0.5
		c0,0.4,0,0.7-0.1,1.1L44,34.3z M24.8,17.6L25,18c1.8,4.6,11.4,12.1,18.8,15.8c0-0.2,0-0.5,0-0.8c0-0.2,0-0.4,0-0.6l0-0.1l0,0
		c0.1-0.1,0.3-0.3,0.4-0.4c0.1-0.1,0.2-0.2,0.2-0.2C37.8,28.5,28.8,21.6,25,12.4c-3.8,9.3-12.7,15.6-19.6,19.2
		c0.1,0.1,0.2,0.2,0.4,0.4c0.1,0.1,0.3,0.2,0.4,0.4l0,0l0,0.1c0,0.2,0,0.4,0,0.6c0,0.2,0,0.5,0,0.7c8.4-4.4,16.5-11.2,18.5-15.7
		L24.8,17.6z"/>
</g>
<g>
	<path class="st0" d="M24.8,18C22.7,22.8,14.2,29.8,6.1,34c0,0.2,0.1,0.3,0.2,0.5c0.1,0.1,0.1,0.2,0.2,0.4c0.2,0.3,0.5,0.6,0.8,0.9
		C14.3,32,23.8,24.9,25,22.1c1.2,2.7,11.1,10.3,17.8,13.6c0.4-0.4,0.7-0.8,1-1.3c0.1-0.1,0.1-0.2,0.2-0.4
		C36.2,30.2,26.6,22.6,24.8,18L24.8,18z"/>
	<path class="st3" d="M42.8,36l-0.1-0.1c-3.2-1.5-7.3-4.2-11-7c-3.4-2.6-5.9-5-6.7-6.3c-1.8,3.1-11.1,9.9-17.7,13.3l-0.1,0.1L7,35.7
		c-0.2-0.3-0.5-0.5-0.7-0.8l0,0c-0.1-0.1-0.2-0.2-0.2-0.4C6,34.4,5.9,34.2,5.9,34l0-0.1L6,33.8c8.5-4.4,16.7-11.3,18.7-15.9l0-0.1
		l0.2-0.1L25,18c1.8,4.6,11.5,12.2,19,15.9l0.1,0.1l0,0.1c0,0.2-0.1,0.3-0.2,0.4c-0.3,0.5-0.7,1-1,1.3L42.8,36z M25,21.7l0.2,0.4
		c1.2,2.7,11,10.2,17.6,13.5c0.3-0.3,0.6-0.7,0.9-1.2c0-0.1,0.1-0.1,0.1-0.2c-7.3-3.7-16.7-11-18.9-15.7C22.5,23,14.5,29.8,6.3,34.1
		c0,0.1,0.1,0.2,0.1,0.3c0.1,0.1,0.1,0.2,0.2,0.3c0.2,0.2,0.4,0.5,0.7,0.8l0,0c3.4-1.8,7.5-4.4,11-7.1c3.7-2.8,6.1-5.1,6.6-6.4
		L25,21.7z"/>
</g>
<g>
	<path class="st0" d="M25,22.1C23.8,24.9,14.3,32,7.2,35.7c0.3,0.4,0.7,0.8,1,1.2c0.7,0.8,1.6,1.6,1.7,2.7c2.2,0.5,3.4,2.9,5.4,3.8
		c0.7,0.2,1.4,0.1,2.1-0.1c0.3,0.5,0.7,1,1.2,1.2c0.9,0.4,1.8,0.3,2.7,0.4c1.2,0.1,2.6-0.1,3.7,0.7c1.1-0.7,2.4-0.6,3.7-0.7
		c0.9-0.1,1.9,0,2.7-0.4c0.6-0.2,0.9-0.7,1.2-1.2c0.8,0.2,1.7,0.4,2.4-0.1c1.4-0.9,2.4-2.2,3.8-3.1c0.4-0.3,0.8-0.4,1.2-0.5
		c0.1-1.1,1-1.9,1.7-2.7c0.3-0.4,0.7-0.8,1-1.1C36.1,32.4,26.2,24.8,25,22.1L25,22.1z"/>
	<path class="st3" d="M25,45.8L25,45.8c-0.9-0.6-1.8-0.6-2.8-0.7c-0.3,0-0.6,0-0.9,0c-0.3,0-0.5,0-0.8-0.1c-0.7,0-1.4-0.1-2-0.3
		c-0.6-0.2-0.9-0.7-1.2-1.2c-0.7,0.2-1.4,0.3-2,0l0,0c-0.9-0.4-1.6-1.1-2.3-1.8c-0.9-0.9-1.8-1.7-3-2l-0.1,0l0-0.1
		c-0.1-0.8-0.6-1.4-1.2-2.1c-0.2-0.2-0.3-0.4-0.5-0.6c-0.2-0.2-0.4-0.5-0.6-0.7C7.3,36.1,7.2,36,7,35.8l-0.2-0.2l0.2-0.1
		c7.4-3.8,16.6-10.9,17.7-13.5l0.1,0l0.2,0c1.2,2.7,11.1,10.3,17.7,13.5l0.2,0.1l-0.2,0.2c-0.1,0.1-0.2,0.3-0.4,0.4
		c-0.2,0.2-0.4,0.5-0.7,0.7c-0.2,0.2-0.3,0.4-0.5,0.6c-0.6,0.6-1.1,1.2-1.2,2.1l0,0.1l-0.1,0c-0.1,0-0.1,0-0.2,0.1
		c-0.4,0.1-0.7,0.2-1,0.4c-0.6,0.4-1.2,1-1.8,1.5c-0.6,0.6-1.3,1.2-2,1.7c-0.7,0.5-1.6,0.4-2.5,0.2c-0.3,0.4-0.7,0.9-1.2,1.2
		c-0.6,0.3-1.3,0.3-2,0.3c-0.3,0-0.5,0-0.8,0.1c-0.3,0-0.6,0-0.9,0C26.8,45.2,25.9,45.2,25,45.8L25,45.8z M17.5,43.1l0.1,0.2
		c0.3,0.4,0.6,0.9,1.1,1.1l0,0c0.6,0.3,1.2,0.3,1.9,0.3c0.3,0,0.5,0,0.8,0.1c0.3,0,0.6,0,0.9,0c0.9,0,1.9,0.1,2.8,0.6
		c0.8-0.5,1.8-0.6,2.8-0.6c0.3,0,0.6,0,0.9,0c0.3,0,0.5,0,0.8-0.1c0.7,0,1.3-0.1,1.9-0.3l0,0c0.5-0.2,0.8-0.6,1.1-1.1l0.1-0.2l0.1,0
		c0.8,0.2,1.6,0.3,2.3-0.1c0.7-0.5,1.4-1.1,2-1.6c0.6-0.5,1.2-1.1,1.8-1.5c0.3-0.2,0.7-0.3,1.1-0.5c0,0,0.1,0,0.1,0
		c0.1-0.9,0.7-1.5,1.3-2.2c0.2-0.2,0.3-0.4,0.5-0.6c0.2-0.3,0.4-0.5,0.7-0.8c0.1-0.1,0.1-0.1,0.2-0.2c-3.1-1.6-7.2-4.1-10.8-6.9
		c-3.4-2.6-5.9-5-6.7-6.3c-0.8,1.4-3.1,3.6-6.6,6.2c-3.5,2.7-7.6,5.3-10.9,7.1c0.1,0.1,0.1,0.2,0.2,0.2c0.2,0.2,0.4,0.5,0.7,0.7
		c0.1,0.2,0.3,0.4,0.5,0.5c0.6,0.6,1.1,1.3,1.3,2.1c1.3,0.3,2.2,1.2,3.1,2.1c0.7,0.7,1.4,1.3,2.2,1.7c0.6,0.2,1.3,0.1,2-0.1
		L17.5,43.1z"/>
</g>
<g>
	<path class="st3" d="M16.4,34.1l-7.1,4.1c0.3,0.4,0.5,0.9,0.6,1.4c2.2,0.5,3.4,2.9,5.4,3.8c0.7,0.2,1.4,0.1,2.1-0.1
		c0.3,0.5,0.7,1,1.2,1.2c0.9,0.4,1.8,0.3,2.7,0.4c1.2,0.1,2.6-0.1,3.7,0.7c1.1-0.7,2.4-0.6,3.7-0.7c0.9-0.1,1.9,0,2.7-0.4
		c0.6-0.2,0.9-0.7,1.2-1.2c0.8,0.2,1.7,0.4,2.4-0.1c1.4-0.9,2.4-2.2,3.8-3.1c0.4-0.3,0.8-0.4,1.2-0.5c0.1-0.5,0.3-1,0.6-1.4
		l-7.1-4.1L25,42.5L16.4,34.1L16.4,34.1z"/>
</g>
<g transform="matrix(0.88193978,0,0,0.88191441,-0.00816327,0.53296863)">
</g>
<g transform="matrix(0.88193978,0,0,0.88191441,-0.00816327,0.53296863)">
	<g>
		<path class="st3" d="M28.4-0.6c-0.5,0.4-1,0.8-1.7,0.9c-2.1,0.4-4.2,0.1-6.3,0.7c-0.9,0.2-1.5,0.9-2,1.5c-1-0.1-2.2-0.3-3.1,0.3
			c-1.8,1-3.2,2.7-5,3.9C9.7,7.2,9,7.3,8.4,7.4C8.2,8,8.2,8.7,7.8,9.2c-1.2,1.8-2.9,3.2-4,5.1c-0.5,0.8-0.4,1.8-0.4,2.8
			c-0.7,0.6-1.4,1.3-1.6,2.2c-0.5,2.1-0.4,4.2-0.7,6.3C1,26.3,0.5,26.8,0,27.3c0.5,0.5,1,0.9,1.1,1.7c0.3,2.1,0.2,4.3,0.7,6.3
			c0.2,0.9,0.9,1.6,1.6,2.2c0,0.9-0.2,1.9,0.4,2.8c1.1,1.9,2.9,3.4,4.1,5.3c0.4,0.5,0.3,1.2,0.3,1.8c0.6,0,1.3-0.1,1.8,0.3
			c2.1,1.3,3.6,3.4,5.9,4.4c0.8,0.4,1.7,0.2,2.5-0.1c0.5,0.6,1,1.2,1.7,1.5c1.3,0.6,2.7,0.4,4.1,0.6c1.4,0.2,3.1,0.1,4.2,1.2
			c1.1-1.1,2.8-1,4.2-1.2c1.4-0.1,2.8,0,4.1-0.6c0.7-0.3,1.2-0.9,1.7-1.5c0.7,0.2,1.4,0.5,2.1,0.2c2.5-0.9,4.1-3.1,6.2-4.5
			c0.5-0.4,1.2-0.3,1.8-0.3c0-0.6-0.1-1.3,0.3-1.8c1.2-1.9,3-3.3,4.1-5.3c0.5-0.8,0.4-1.8,0.4-2.8c0.7-0.6,1.4-1.3,1.6-2.2
			c0.5-2.1,0.4-4.2,0.7-6.3c0.1-0.7,0.6-1.2,1.1-1.7c-0.5-0.5-1-1-1.1-1.7c-0.3-2.1-0.2-4.3-0.7-6.3c-0.2-0.9-0.9-1.6-1.6-2.2
			c0-0.9,0.1-1.9-0.4-2.8c-1.1-1.9-2.8-3.3-4-5.1c-0.4-0.5-0.4-1.2-0.5-1.8c-0.7-0.1-1.4-0.2-1.9-0.6c-1.7-1.2-3.1-2.9-5-3.9
			c-0.9-0.6-2.1-0.4-3.1-0.3c-0.6-0.6-1.2-1.3-2-1.5c-2-0.6-4.2-0.3-6.3-0.7C29.4,0.2,28.9-0.2,28.4-0.6L28.4-0.6z M28.4,0.1
			c2.4,1.6,5.5,0.5,8.1,1.7c0.8,0.3,1.2,1,1.7,1.7c0.9-0.7,2.2-0.6,3.2,0c1.8,1,3.1,2.7,4.8,3.8c0.5,0.3,1.1,0.4,1.7,0.5
			c0.5,3.2,4,4.7,4.9,7.7c0.1,0.6-0.1,1.2-0.2,1.8c0.6,0.5,1.3,0.9,1.6,1.7c0.6,1.2,0.5,2.7,0.7,4c0.1,0.8,0,1.7,0.2,2.6
			c0.1,0.7,0.6,1.2,0.8,1.8c-0.3,0.6-0.7,1.1-0.8,1.7c-0.2,0.8-0.1,1.7-0.2,2.6c-0.2,1.3-0.1,2.7-0.7,4c-0.3,0.7-1,1.2-1.6,1.6
			c0.2,0.8,0.4,1.7,0,2.4c-0.9,2-2.7,3.4-4,5.2c-0.4,0.6-0.6,1.2-0.7,1.9c-0.6,0.2-1.3,0.3-1.9,0.7c-1.7,1.2-3.1,2.9-5,3.9
			c-0.9,0.5-2,0.4-2.9-0.2c-0.4,0.7-0.9,1.4-1.7,1.7c-2.6,1.1-5.7,0.1-8.1,1.7c-2.2-1.5-5.1-0.7-7.6-1.5c-1-0.2-1.7-1.1-2.2-1.9
			c-0.8,0.6-2,0.7-2.9,0.2c-1.9-1-3.3-2.7-5-3.9c-0.6-0.4-1.2-0.5-1.9-0.7C8.3,43.6,5,42.2,4,39.3c-0.2-0.7,0-1.4,0.2-2.1
			c-0.6-0.4-1.3-0.9-1.6-1.6c-0.6-1.2-0.5-2.7-0.7-4c-0.1-0.8,0-1.7-0.2-2.6c-0.1-0.6-0.5-1.1-0.8-1.7c0.2-0.6,0.6-1.1,0.7-1.6
			c0.3-0.9,0.2-1.8,0.3-2.7c0.2-1.3,0.1-2.7,0.7-4c0.3-0.7,1-1.2,1.6-1.7c-0.2-0.8-0.4-1.6,0-2.4C5,13,6.7,11.7,7.9,10
			c0.5-0.6,0.8-1.4,0.9-2.2c0.6-0.1,1.2-0.2,1.7-0.5c1.7-1.1,3.1-2.8,4.8-3.8c1-0.6,2.2-0.7,3.2,0c0.4-0.6,0.7-1.2,1.3-1.6
			C22.5,0.5,25.8,1.8,28.4,0.1L28.4,0.1z"/>
	</g>
</g>
<g transform="matrix(0.88193978,0,0,0.88191441,-0.00816327,0.53296863)">
	<g>
		<path class="st3" d="M28.4,1.8c-1.3,0.8-2.8,0.6-4.2,0.8c-1.2,0.2-2.4,0-3.5,0.4c-0.7,0.3-1,0.9-1.6,1.4c-0.9-0.1-1.9-0.4-2.8,0.1
			c-1.7,1.1-3.1,2.7-4.7,3.9c-0.4,0.3-1,0.5-1.5,0.6c-0.2,0.7-0.5,1.5-1,2.1c-1.1,1.4-2.4,2.6-3.4,4.1c-0.5,0.8-0.3,1.7-0.3,2.6
			c-0.5,0.5-1.1,0.9-1.4,1.6c-0.9,2.5,0,5.4-1.2,7.8c0.2,0.8,0.6,1.5,0.6,2.3c0.2,1.8,0,3.6,0.5,5.4c0.2,0.8,0.9,1.3,1.5,1.9
			c0,0.8-0.2,1.7,0.2,2.4c0.6,1.1,1.6,2,2.4,3c0.8,1,1.9,1.9,2.1,3.3c2.7,0.7,4.1,3.5,6.6,4.6c0.8,0.3,1.7,0.1,2.5-0.1
			c0.4,0.6,0.8,1.2,1.5,1.5c1,0.5,2.2,0.4,3.3,0.5c1.5,0.1,3.1-0.1,4.4,0.8c1.3-0.9,2.9-0.7,4.4-0.8c1.1-0.1,2.3,0,3.3-0.5
			c0.7-0.3,1.1-0.9,1.5-1.5c1,0.2,2.1,0.5,3-0.1c1.7-1.1,3-2.7,4.6-3.8c0.5-0.3,1-0.4,1.5-0.6c0.2-1.4,1.3-2.3,2.1-3.3
			c0.8-1,1.8-1.8,2.4-3c0.4-0.7,0.2-1.6,0.2-2.4c0.5-0.6,1.3-1.1,1.5-1.9c0.4-1.8,0.3-3.6,0.5-5.4c0.1-0.8,0.5-1.5,0.6-2.3
			c-1.2-2.4-0.4-5.3-1.2-7.8c-0.2-0.7-0.9-1.1-1.4-1.5c0.1-0.9,0.3-1.9-0.3-2.6c-1.1-1.7-2.6-3-3.8-4.6c-0.3-0.5-0.4-1-0.6-1.5
			c-0.5-0.1-1.1-0.3-1.5-0.6c-1.7-1.2-3-2.8-4.7-3.9c-0.8-0.6-1.9-0.2-2.8-0.1c-0.5-0.4-0.8-1-1.4-1.3c-1.1-0.5-2.3-0.4-3.4-0.5
			C31.3,2.4,29.7,2.7,28.4,1.8L28.4,1.8z M28.4,3.5c1.2,0.8,2.8,0.6,4.2,0.8c1.1,0.1,2.2,0,3.2,0.5C36.3,5,36.6,5.6,37,6
			c0.9-0.1,1.8-0.4,2.6,0.1c1.6,1,2.9,2.5,4.4,3.6c0.4,0.3,0.9,0.4,1.4,0.6c0.1,0.5,0.2,1,0.5,1.4c1.1,1.5,2.5,2.7,3.5,4.3
			c0.5,0.7,0.3,1.6,0.2,2.5c0.5,0.4,1.1,0.8,1.3,1.4c0.8,2.4,0,5,1.1,7.3c-0.2,0.7-0.5,1.4-0.6,2.1c-0.2,1.7,0,3.4-0.4,5
			c-0.2,0.8-0.9,1.2-1.4,1.8c0,0.8,0.2,1.6-0.2,2.3c-0.6,1-1.5,1.8-2.2,2.8c-0.8,1-1.8,1.8-1.9,3.1c-0.5,0.1-1,0.3-1.4,0.6
			c-1.5,1.1-2.7,2.5-4.3,3.6c-0.8,0.6-1.9,0.4-2.8,0.1c-0.4,0.5-0.8,1.1-1.4,1.4c-1,0.4-2.1,0.3-3.1,0.4c-1.4,0.1-2.9-0.1-4.1,0.8
			c-1.2-0.8-2.7-0.6-4.1-0.8c-1-0.1-2.1,0-3.1-0.4c-0.6-0.2-1-0.8-1.4-1.4c-0.8,0.2-1.6,0.4-2.3,0.1c-2.3-1.1-3.6-3.7-6.1-4.3
			c-0.1-1.3-1.2-2.1-1.9-3.1c-0.8-0.9-1.7-1.7-2.2-2.8c-0.4-0.7-0.2-1.5-0.2-2.3c-0.5-0.5-1.2-1-1.4-1.8c-0.4-1.6-0.3-3.3-0.4-5
			C5,28.6,4.6,28,4.4,27.2c1.2-2.3,0.3-5,1.1-7.3c0.2-0.7,0.8-1,1.3-1.5c0-0.8-0.2-1.7,0.3-2.4c0.9-1.4,2.1-2.5,3.2-3.8
			c0.5-0.5,0.8-1.2,0.9-1.9c0.5-0.1,1-0.2,1.4-0.6c1.6-1.1,2.8-2.6,4.4-3.6c0.8-0.5,1.7-0.2,2.6-0.1c0.5-0.5,0.8-1.1,1.5-1.3
			c1-0.4,2.2-0.2,3.3-0.4C25.7,4.1,27.2,4.3,28.4,3.5L28.4,3.5z"/>
		<path class="st3" d="M28.4,52.8L28.4,52.8c-1-0.7-2.2-0.7-3.4-0.8c-0.4,0-0.7,0-1.1-0.1c-0.3,0-0.6,0-0.9-0.1
			c-0.8,0-1.6-0.1-2.4-0.4c-0.7-0.2-1.1-0.8-1.5-1.4l0-0.1c-0.9,0.2-1.7,0.4-2.5,0.1c-1.1-0.5-2-1.3-2.8-2.2c-1.1-1-2.2-2.1-3.8-2.5
			l0,0l0,0c-0.1-1.1-0.8-1.9-1.5-2.6c-0.2-0.2-0.4-0.4-0.6-0.7c-0.3-0.3-0.5-0.6-0.8-0.9C6.6,40.7,6,40,5.5,39.2
			c-0.3-0.5-0.3-1.2-0.3-1.8c0-0.2,0-0.5,0-0.7c-0.1-0.1-0.3-0.3-0.4-0.4c-0.4-0.4-0.9-0.8-1-1.5c-0.3-1.1-0.3-2.3-0.4-3.4
			c0-0.6,0-1.3-0.1-1.9c0-0.5-0.2-1-0.4-1.4c-0.1-0.3-0.2-0.6-0.3-0.9l0,0l0,0c0.7-1.3,0.7-2.8,0.8-4.2c0-1.2,0.1-2.4,0.5-3.6
			c0.2-0.5,0.5-0.8,0.9-1.1C5,18.1,5.2,18,5.3,17.8c0-0.2,0-0.4,0-0.7c0-0.7-0.1-1.3,0.3-1.9c0.6-0.9,1.4-1.8,2.1-2.6
			c0.4-0.5,0.9-1,1.3-1.5c0.5-0.5,0.8-1.2,1-2l0,0l0.2,0c0.5-0.1,1-0.3,1.4-0.5C12.3,8,13,7.3,13.6,6.7c0.8-0.8,1.7-1.5,2.7-2.2
			c0.7-0.5,1.5-0.3,2.3-0.2c0.2,0,0.4,0.1,0.5,0.1c0.1-0.1,0.3-0.3,0.4-0.5c0.3-0.4,0.6-0.8,1.1-0.9c0.7-0.3,1.5-0.3,2.2-0.4
			c0.4,0,0.9,0,1.3-0.1c0.4-0.1,0.8-0.1,1.2-0.1c1-0.1,2.1-0.1,3-0.7l0.1,0l0,0.1c0.9,0.6,2,0.6,3,0.7c0.5,0,0.9,0.1,1.4,0.1
			c0.3,0,0.7,0.1,1.1,0.1c0.8,0,1.6,0.1,2.4,0.4c0.4,0.2,0.7,0.5,1,0.9c0.1,0.2,0.3,0.3,0.4,0.5c0.2,0,0.4,0,0.5-0.1
			c0.8-0.1,1.6-0.2,2.2,0.2c1,0.6,1.8,1.4,2.7,2.2c0.7,0.6,1.3,1.2,2.1,1.7c0.4,0.3,0.9,0.4,1.4,0.5l0.2,0l0,0c0,0.1,0,0.2,0.1,0.2
			c0.1,0.4,0.2,0.9,0.5,1.3c0.5,0.7,1.1,1.4,1.7,2.1c0.7,0.8,1.5,1.6,2.1,2.5c0.5,0.7,0.4,1.6,0.3,2.4c0,0.1,0,0.1,0,0.2
			c0.1,0,0.1,0.1,0.2,0.1c0.5,0.4,1,0.8,1.2,1.4c0.4,1.2,0.4,2.4,0.5,3.6c0,1.4,0.1,2.9,0.8,4.2l0,0l0,0c-0.1,0.3-0.2,0.6-0.3,0.9
			c-0.2,0.4-0.3,0.9-0.4,1.4c-0.1,0.6-0.1,1.3-0.1,1.9c0,1.1-0.1,2.3-0.4,3.4c-0.1,0.6-0.6,1.1-1,1.5c-0.1,0.1-0.3,0.3-0.4,0.4
			c0,0.2,0,0.5,0,0.7c0,0.6,0.1,1.2-0.3,1.8c-0.4,0.8-1,1.4-1.6,2.1c-0.3,0.3-0.5,0.6-0.8,0.9c-0.2,0.2-0.4,0.5-0.6,0.7
			c-0.7,0.8-1.4,1.6-1.5,2.6l0,0l0,0c-0.1,0-0.2,0.1-0.3,0.1c-0.4,0.1-0.9,0.3-1.2,0.5c-0.8,0.5-1.5,1.2-2.2,1.8
			c-0.8,0.7-1.5,1.4-2.4,2c-0.9,0.6-1.9,0.4-3,0.1l0,0.1c-0.4,0.6-0.8,1.1-1.5,1.4c-0.8,0.3-1.6,0.4-2.4,0.4c-0.3,0-0.6,0-0.9,0.1
			c-0.4,0-0.7,0-1.1,0.1C30.6,52.1,29.4,52.1,28.4,52.8L28.4,52.8z M19.1,50L19.1,50c0.4,0.7,0.8,1.2,1.5,1.5
			c0.7,0.3,1.6,0.4,2.3,0.4c0.3,0,0.6,0,0.9,0.1c0.4,0,0.7,0,1.1,0.1c1.2,0,2.3,0.1,3.4,0.7c1-0.7,2.2-0.7,3.4-0.7
			c0.4,0,0.7,0,1.1-0.1c0.3,0,0.6,0,0.9-0.1c0.8,0,1.6-0.1,2.3-0.4c0.6-0.2,1-0.8,1.4-1.4l0.1-0.1l0,0c1,0.3,2.1,0.4,2.9-0.1
			c0.9-0.6,1.7-1.3,2.4-2c0.7-0.6,1.4-1.3,2.2-1.8c0.4-0.3,0.8-0.4,1.3-0.5c0.1,0,0.2,0,0.2-0.1c0.1-1.1,0.8-1.9,1.5-2.6
			c0.2-0.2,0.4-0.4,0.6-0.7c0.3-0.3,0.5-0.6,0.8-0.9c0.6-0.6,1.2-1.3,1.6-2c0.3-0.5,0.3-1.1,0.2-1.7c0-0.2,0-0.5,0-0.7l0,0l0,0
			c0.1-0.2,0.3-0.3,0.5-0.4c0.4-0.4,0.9-0.8,1-1.4c0.3-1.1,0.3-2.3,0.4-3.4c0-0.6,0-1.3,0.1-1.9c0-0.5,0.2-1,0.4-1.4
			c0.1-0.3,0.2-0.6,0.3-0.9c-0.7-1.3-0.7-2.8-0.8-4.3c0-1.2-0.1-2.4-0.5-3.6c-0.2-0.6-0.7-1-1.2-1.4c-0.1,0-0.1-0.1-0.2-0.1l0,0l0,0
			c0-0.1,0-0.2,0-0.2c0.1-0.8,0.2-1.7-0.3-2.4c-0.6-0.9-1.3-1.7-2-2.5c-0.6-0.7-1.2-1.3-1.7-2.1c-0.3-0.4-0.4-0.9-0.5-1.3
			c0-0.1,0-0.1-0.1-0.2l-0.1,0c-0.5-0.1-1-0.3-1.4-0.6c-0.7-0.5-1.4-1.1-2.1-1.7c-0.8-0.8-1.7-1.5-2.7-2.1c-0.7-0.4-1.4-0.3-2.2-0.2
			c-0.2,0-0.4,0.1-0.6,0.1l0,0l0,0c-0.2-0.2-0.3-0.3-0.5-0.5c-0.3-0.3-0.5-0.7-0.9-0.8c-0.7-0.4-1.6-0.4-2.3-0.4
			c-0.4,0-0.7,0-1.1-0.1c-0.5-0.1-0.9-0.1-1.4-0.1c-1-0.1-2.1-0.1-3.1-0.7c-0.9,0.6-2,0.7-3,0.7c-0.4,0-0.8,0-1.2,0.1
			c-0.4,0.1-0.9,0.1-1.3,0.1c-0.7,0-1.5,0.1-2.2,0.3c-0.5,0.2-0.8,0.6-1.1,0.9c-0.1,0.2-0.3,0.3-0.4,0.5l0,0l0,0
			c-0.2,0-0.4-0.1-0.6-0.1c-0.8-0.1-1.5-0.2-2.2,0.2c-1,0.6-1.8,1.4-2.7,2.1C13,7.4,12.3,8,11.6,8.5c-0.4,0.3-0.9,0.4-1.4,0.6
			l-0.1,0c-0.2,0.9-0.5,1.6-1,2c-0.4,0.5-0.9,1-1.3,1.5c-0.7,0.8-1.5,1.6-2.1,2.6c-0.4,0.6-0.4,1.2-0.3,1.9c0,0.2,0,0.5,0,0.7l0,0
			l0,0C5.2,18,5,18.2,4.9,18.3c-0.4,0.3-0.7,0.6-0.9,1.1c-0.4,1.1-0.4,2.4-0.5,3.6c0,1.4-0.1,2.9-0.8,4.3c0.1,0.3,0.2,0.6,0.3,0.8
			c0.2,0.5,0.3,0.9,0.4,1.4c0.1,0.6,0.1,1.3,0.1,1.9c0,1.1,0.1,2.3,0.4,3.4c0.1,0.6,0.6,1,1,1.4c0.2,0.1,0.3,0.3,0.4,0.4l0,0l0,0
			c0,0.2,0,0.5,0,0.7c0,0.6-0.1,1.2,0.2,1.7c0.4,0.8,1,1.4,1.6,2.1c0.3,0.3,0.5,0.6,0.8,0.9c0.2,0.2,0.4,0.5,0.6,0.7
			c0.7,0.8,1.4,1.6,1.5,2.6c1.5,0.4,2.7,1.5,3.8,2.5c0.8,0.8,1.7,1.6,2.8,2.1C17.4,50.4,18.3,50.2,19.1,50L19.1,50z M28.4,51.1
			L28.4,51.1c-0.9-0.6-2.1-0.7-3.1-0.7c-0.3,0-0.7,0-1-0.1c-0.3,0-0.6,0-0.9-0.1c-0.7,0-1.5-0.1-2.2-0.4c-0.6-0.2-1-0.8-1.4-1.3l0,0
			c-0.8,0.2-1.6,0.4-2.3,0.1c-1-0.5-1.8-1.3-2.6-2c-1-1-2.1-2-3.5-2.3l0,0l0,0c-0.1-1-0.8-1.7-1.4-2.4c-0.2-0.2-0.4-0.4-0.5-0.6
			c-0.2-0.3-0.5-0.6-0.7-0.8C8,39.8,7.4,39.2,7,38.5c-0.3-0.5-0.3-1.1-0.2-1.6c0-0.2,0-0.4,0-0.6c-0.1-0.1-0.3-0.3-0.4-0.4
			c-0.4-0.4-0.8-0.8-1-1.4c-0.3-1.1-0.3-2.2-0.3-3.2c0-0.6,0-1.2-0.1-1.8c0-0.5-0.2-0.9-0.3-1.3c-0.1-0.3-0.2-0.5-0.3-0.8l0,0l0,0
			c0.6-1.2,0.7-2.6,0.7-4c0-1.1,0.1-2.3,0.4-3.4c0.1-0.5,0.5-0.8,0.8-1.1c0.1-0.1,0.3-0.3,0.4-0.4c0-0.2,0-0.4,0-0.6
			c0-0.6-0.1-1.3,0.3-1.8c0.6-0.9,1.3-1.6,2-2.4c0.4-0.5,0.8-0.9,1.2-1.4c0.4-0.5,0.7-1.1,0.9-1.9l0,0l0.2,0
			c0.4-0.1,0.9-0.2,1.3-0.5c0.7-0.5,1.3-1.1,1.9-1.6c0.8-0.7,1.6-1.4,2.5-2c0.6-0.4,1.4-0.3,2.1-0.2c0.2,0,0.3,0.1,0.5,0.1
			c0.1-0.1,0.3-0.3,0.4-0.4c0.3-0.3,0.6-0.7,1.1-0.9c0.7-0.3,1.4-0.3,2.1-0.3c0.4,0,0.8,0,1.2-0.1c0.4-0.1,0.7-0.1,1.1-0.1
			c1-0.1,2-0.1,2.8-0.7l0,0l0,0c0.8,0.6,1.9,0.6,2.8,0.7c0.4,0,0.9,0.1,1.3,0.1c0.3,0,0.7,0.1,1,0.1c0.7,0,1.5,0.1,2.2,0.4
			c0.4,0.2,0.6,0.5,0.9,0.8C36.8,5.7,36.9,5.8,37,6c0.2,0,0.3,0,0.5-0.1c0.7-0.1,1.5-0.2,2.1,0.2c0.9,0.6,1.7,1.3,2.5,2
			c0.6,0.6,1.2,1.1,1.9,1.6c0.4,0.3,0.8,0.4,1.3,0.5l0.2,0l0,0c0,0.1,0,0.1,0.1,0.2c0.1,0.4,0.2,0.8,0.5,1.2
			c0.5,0.7,1.1,1.3,1.6,1.9c0.7,0.7,1.4,1.5,1.9,2.4c0.5,0.7,0.4,1.5,0.3,2.3c0,0.1,0,0.1,0,0.2c0.1,0,0.1,0.1,0.2,0.1
			c0.5,0.4,1,0.7,1.2,1.3c0.4,1.1,0.4,2.2,0.4,3.3c0,1.3,0.1,2.7,0.7,4l0,0l0,0c-0.1,0.3-0.2,0.6-0.3,0.8c-0.1,0.4-0.3,0.8-0.3,1.3
			c-0.1,0.6-0.1,1.2-0.1,1.8c0,1.1-0.1,2.2-0.3,3.2c-0.1,0.6-0.6,1-1,1.4c-0.1,0.1-0.3,0.3-0.4,0.4c0,0.2,0,0.4,0,0.6
			c0,0.6,0.1,1.1-0.2,1.6c-0.4,0.7-1,1.3-1.5,1.9c-0.2,0.3-0.5,0.6-0.7,0.8c-0.2,0.2-0.4,0.4-0.5,0.6c-0.6,0.7-1.3,1.4-1.4,2.4l0,0
			l0,0c-0.1,0-0.2,0-0.2,0.1c-0.4,0.1-0.8,0.2-1.2,0.5c-0.7,0.5-1.4,1.1-2,1.7c-0.7,0.7-1.4,1.3-2.3,1.9C39,49,38,48.8,37,48.6
			l0,0.1c-0.4,0.5-0.7,1.1-1.4,1.3c-0.7,0.3-1.5,0.3-2.2,0.4c-0.3,0-0.6,0-0.9,0.1c-0.3,0-0.7,0-1,0.1
			C30.4,50.5,29.3,50.5,28.4,51.1L28.4,51.1z M19.7,48.5L19.7,48.5c0.4,0.6,0.8,1.1,1.4,1.4c0.7,0.3,1.5,0.3,2.2,0.4
			c0.3,0,0.6,0,0.9,0.1c0.3,0,0.7,0,1,0.1c1.1,0,2.2,0.1,3.1,0.7c0.9-0.6,2.1-0.7,3.1-0.7c0.3,0,0.7,0,1-0.1c0.3,0,0.6,0,0.9-0.1
			c0.7,0,1.5-0.1,2.2-0.4c0.6-0.2,1-0.8,1.3-1.3l0.1-0.1l0,0c1,0.2,1.9,0.4,2.7-0.1c0.8-0.5,1.6-1.2,2.3-1.9c0.6-0.6,1.3-1.2,2-1.7
			c0.4-0.2,0.8-0.4,1.2-0.5c0.1,0,0.1,0,0.2-0.1c0.1-1,0.8-1.7,1.4-2.5c0.2-0.2,0.4-0.4,0.5-0.6c0.2-0.3,0.5-0.6,0.7-0.8
			c0.5-0.6,1.1-1.2,1.5-1.9c0.3-0.5,0.3-1.1,0.2-1.6c0-0.2,0-0.4,0-0.7l0,0l0,0c0.1-0.1,0.3-0.3,0.4-0.4c0.4-0.4,0.8-0.8,1-1.3
			c0.3-1,0.3-2.1,0.3-3.2c0-0.6,0-1.2,0.1-1.8c0-0.5,0.2-0.9,0.3-1.3c0.1-0.3,0.2-0.5,0.3-0.8c-0.6-1.3-0.7-2.6-0.7-4
			c0-1.1-0.1-2.3-0.4-3.3c-0.2-0.6-0.7-0.9-1.1-1.3c-0.1,0-0.1-0.1-0.2-0.1l0,0l0,0c0-0.1,0-0.1,0-0.2c0.1-0.8,0.2-1.6-0.3-2.2
			c-0.6-0.9-1.2-1.6-1.9-2.4c-0.6-0.6-1.1-1.3-1.6-1.9c-0.3-0.4-0.4-0.8-0.5-1.2c0-0.1,0-0.1-0.1-0.2l-0.1,0
			c-0.4-0.1-0.9-0.2-1.3-0.5c-0.7-0.5-1.3-1.1-1.9-1.6c-0.8-0.7-1.6-1.4-2.5-2c-0.6-0.4-1.3-0.3-2-0.2C37.4,6,37.2,6,37,6l0,0l0,0
			c-0.2-0.1-0.3-0.3-0.4-0.5c-0.3-0.3-0.5-0.6-0.9-0.8c-0.7-0.3-1.4-0.4-2.2-0.4c-0.3,0-0.7,0-1-0.1c-0.4-0.1-0.9-0.1-1.3-0.1
			c-1-0.1-2-0.1-2.9-0.7c-0.9,0.6-1.8,0.6-2.8,0.7c-0.4,0-0.7,0-1.1,0.1c-0.4,0.1-0.8,0.1-1.2,0.1c-0.7,0-1.4,0-2.1,0.3
			c-0.4,0.2-0.7,0.5-1,0.9C20,5.7,19.9,5.9,19.7,6l0,0l0,0c-0.2,0-0.3,0-0.5-0.1c-0.7-0.1-1.4-0.2-2.1,0.2c-0.9,0.6-1.7,1.3-2.5,2
			c-0.6,0.6-1.2,1.1-1.9,1.6c-0.4,0.3-0.8,0.4-1.3,0.5l-0.1,0c-0.2,0.8-0.5,1.4-0.9,1.9c-0.4,0.5-0.8,1-1.2,1.4
			c-0.7,0.7-1.4,1.5-1.9,2.4c-0.4,0.5-0.3,1.1-0.3,1.8c0,0.2,0,0.4,0,0.6l0,0l0,0c-0.1,0.2-0.3,0.3-0.5,0.4c-0.3,0.3-0.7,0.6-0.8,1
			c-0.4,1.1-0.4,2.2-0.4,3.3c0,1.3-0.1,2.7-0.7,4c0.1,0.3,0.2,0.5,0.2,0.8c0.2,0.4,0.3,0.9,0.3,1.3c0.1,0.6,0.1,1.2,0.1,1.8
			c0,1.1,0.1,2.2,0.3,3.2c0.1,0.6,0.5,1,1,1.3c0.1,0.1,0.3,0.3,0.4,0.4l0,0l0,0c0,0.2,0,0.4,0,0.7c0,0.5-0.1,1.1,0.2,1.6
			c0.4,0.7,1,1.3,1.5,1.9c0.2,0.3,0.5,0.6,0.7,0.8c0.2,0.2,0.4,0.4,0.5,0.6c0.6,0.7,1.3,1.5,1.4,2.5c1.4,0.4,2.5,1.4,3.5,2.3
			c0.8,0.8,1.6,1.5,2.6,2C18.1,48.9,18.9,48.7,19.7,48.5L19.7,48.5z"/>
	</g>
	<g>
		<path class="st4" d="M17.8,40.1c-0.6,0-1.2,0.3-0.1,1c-0.7,0-0.9,0-1.2-0.4c-0.3,0.3-0.8,0.3-1,0c-2,1-3.2,1.8-4.7,2.6
			c0.2,0.3,0.3,0.7,0.4,1.1c0.5,0.1,1,0.3,1.4,0.6c1.5,1.1,2.7,2.5,4.3,3.6c0.8,0.6,1.9,0.4,2.8,0.1c0.4,0.5,0.8,1.1,1.4,1.4
			c1,0.4,2.1,0.3,3.1,0.4c1.4,0.1,2.9-0.1,4.1,0.8c1.2-0.8,2.7-0.6,4.1-0.8c1-0.1,2.1,0,3.1-0.4c0.6-0.2,1-0.8,1.4-1.4
			c0.9,0.2,1.9,0.4,2.8-0.1c1.6-1,2.8-2.5,4.3-3.6c0.4-0.3,0.9-0.4,1.4-0.6c0-0.4,0.2-0.8,0.4-1.1c-1.5-0.8-2.7-1.5-4.7-2.6
			c-0.2,0.3-0.6,0.3-1,0c-0.3,0.5-0.5,0.4-1.2,0.4c2.3-1.4-2.7-1.2-0.5,0c-0.3,0-0.7,0.2-1.1-0.4c-0.2,0.3-0.7,0.4-0.9,0
			c-2.7,2.5-5.7,5.5-8.1,7.8c-2.4-2.4-5.4-5.4-8.1-7.8c-0.2,0.4-0.7,0.3-0.9,0c-0.4,0.6-0.8,0.4-1.1,0.4
			C19.4,40.4,18.6,40.1,17.8,40.1L17.8,40.1z"/>
	</g>
</g>
<g transform="matrix(0.88193978,0,0,0.88191441,-0.00816327,0.53296863)">
	<g transform="translate(-0.19482232,0)">
		<g transform="translate(2.356325,0)">
			<g>
				<path class="st3" d="M25.8,30.2v0.6L23,32.4l0.4,0.4l2.8-1.4l2.8,1.4l0.4-0.4l-2.9-1.5v-0.6L25.8,30.2L25.8,30.2z"/>
			</g>
			<g>
				<path class="st3" d="M23.5,32.8v0.6h2.4V34c-0.8,0-1.6,0-2.4,0v0.6h2.4v1.9h-0.7l0-1.4h-1.6v0.6h1v0.7h-1v0.6h5.4v-0.6h-1v-0.7
					h1v-0.6h-1.6v1.4h-0.7v-1.9h2.4V34c-0.8,0-1.6,0-2.4,0v-0.5h2.4v-0.6L23.5,32.8L23.5,32.8z"/>
			</g>
			<g>
				<path class="st3" d="M23.5,37.7h0.6v0.6h1.2v-0.4h0.6c0,1.2,0,2.7,0,3.9h-0.6v-0.5h-1.2v2.4h-0.6V37.7z M24.1,38.9v0.6h1.2v-0.6
					H24.1z M24.1,40.1v0.6h1.2v-0.6H24.1z"/>
			</g>
			<g>
				<path class="st3" d="M28.9,37.7h-0.6v0.6h-1.2v-0.4h-0.6c0,1.2,0,2.7,0,3.9h0.6v-0.5h1.2v2.4h0.6L28.9,37.7L28.9,37.7L28.9,37.7
					z M28.2,38.9v0.6h-1.2v-0.6H28.2L28.2,38.9z M28.2,40.1v0.6h-1.2v-0.6H28.2L28.2,40.1z"/>
			</g>
		</g>
	</g>
</g>
<g>
	<path class="st3" d="M25,22.1c-0.3,0.8-1.3,1.9-2.7,3.2c0.3,1.2,1.7,1.6,2,0.6c-0.4,0.4-1.3-0.3-1-0.8c0.4-0.4,0.3,0.4,0.8,0.4
		c0.3,0,0.1-0.5,0.4-0.5c0.3,0,0,0.5,0.5,0.5c0.5,0,0.1-0.5,0.5-0.5c0.3,0,0.1,0.5,0.4,0.5c0.4,0.1,0.4-0.7,0.8-0.4
		c0.4,0.4-0.5,1.1-1,0.8c0.3,1,1.7,0.6,2-0.6C26.3,24,25.3,22.9,25,22.1z"/>
</g>
<g>
	<path class="st0" d="M24.8,13.7c-0.6,0-1.1,0.3-1.2,0.9c-0.1,2.7-0.9,5.4-1.8,7.8c1.4-1.5,2.5-3,3-4.3c0.5,1.2,1.5,2.7,3,4.2
		c0,0,0,0,0,0c-0.9-2.5-1.4-5-1.5-7.6C26.1,14,25.4,13.7,24.8,13.7L24.8,13.7z"/>
	<path class="st3" d="M21.9,22.4l-0.1-0.1c1.1-2.8,1.7-5.4,1.8-7.7l0,0c0.1-0.6,0.8-0.9,1.3-0.9l0.1,0v0c0.6,0,1.3,0.4,1.4,1l0,0
		c0.1,2.5,0.5,5,1.5,7.6l-0.1,0.1l0,0c-1.4-1.5-2.4-2.9-2.9-4.1C24.2,19.5,23.2,20.9,21.9,22.4z M23.7,14.6
		c-0.1,2.2-0.6,4.7-1.6,7.3c1.3-1.4,2.2-2.8,2.7-3.9l0.1-0.2l0.1,0.2c0.4,1.1,1.3,2.4,2.6,3.9c-0.9-2.4-1.3-4.8-1.4-7.2
		c-0.1-0.5-0.8-0.8-1.3-0.8c0,0,0,0,0,0l0,0C24.3,13.8,23.8,14.1,23.7,14.6z"/>
</g>
<g>
	<path class="st0" d="M23.5,6.9l0.3,4.5c0,0.1,0,0.2,0,0.3c0.6,0.6,1.5,0.6,2.1,0.1c0-0.1,0-0.2,0.1-0.4l0.4-4.5
		C25.9,11.2,24.1,11.2,23.5,6.9L23.5,6.9z"/>
	<path class="st3" d="M25,12.3c-0.4,0-0.8-0.2-1.2-0.5l0,0l0,0c0-0.1,0-0.2,0-0.3l-0.3-4.5l0.2,0c0.3,2.3,0.9,3.1,1.4,3.1
		c0,0,0,0,0,0c0.4,0,1.1-0.8,1.4-3.1l0.2,0l-0.4,4.5c0,0.1,0,0.3-0.1,0.4l0,0l0,0C25.7,12.2,25.4,12.3,25,12.3z M24,11.7
		c0.6,0.5,1.4,0.5,2,0.1c0-0.1,0-0.2,0.1-0.3l0.2-3c-0.3,1.1-0.8,1.8-1.3,1.8c0,0,0,0,0,0c-0.5,0-0.9-0.6-1.3-1.8l0.2,3
		C24,11.6,24,11.6,24,11.7z"/>
</g>
<g>
	<path class="st0" d="M23.6,15c0.2,1.1,2.2,1.2,2.5,0l0.7-4.5c-0.6,2.4-3.1,2.3-3.7,0L23.6,15L23.6,15z"/>
	<path class="st3" d="M24.9,15.9C24.9,15.9,24.9,15.9,24.9,15.9c-0.6,0-1.2-0.3-1.3-0.9l0,0l-0.5-4.5l0.2,0c0.2,1,0.9,1.7,1.7,1.7
		c0.6,0,1.4-0.4,1.8-1.7l0.2,0L26.2,15C26.1,15.7,25.5,15.9,24.9,15.9z M23.7,15c0.1,0.5,0.7,0.8,1.1,0.8c0.5,0,1.1-0.2,1.2-0.8
		l0.6-3.7c-0.4,0.8-1.1,1.1-1.6,1.1c-0.7,0-1.3-0.4-1.7-1.1L23.7,15z"/>
</g>
</svg>
