<?xml version="1.0" encoding="utf-8"?>
<!-- Generator: Adobe Illustrator 25.4.1, SVG Export Plug-In . SVG Version: 6.00 Build 0)  -->
<svg version="1.1"
	 id="svg3616" inkscape:version="0.92.3 (2405546, 2018-03-11)" sodipodi:docname="Logo of Chiayi County Government.svg" xmlns:cc="http://creativecommons.org/ns#" xmlns:dc="http://purl.org/dc/elements/1.1/" xmlns:inkscape="http://www.inkscape.org/namespaces/inkscape" xmlns:rdf="http://www.w3.org/1999/02/22-rdf-syntax-ns#" xmlns:sodipodi="http://sodipodi.sourceforge.net/DTD/sodipodi-0.dtd" xmlns:svg="http://www.w3.org/2000/svg"
	 xmlns="http://www.w3.org/2000/svg" xmlns:xlink="http://www.w3.org/1999/xlink" x="0px" y="0px" viewBox="0 0 50 50"
	 style="enable-background:new 0 0 50 50;" xml:space="preserve">
<style type="text/css">
	.st0{fill:#006B29;}
	.st1{fill:#FFFFFF;}
	.st2{fill:#65BB50;}
	.st3{fill:#0A51A1;}
	.st4{fill:#FF7F00;}
	.st5{fill:#DFDFDE;}
	.st6{fill:#C3C3C2;}
</style>
<sodipodi:namedview  bordercolor="#666666" borderopacity="1.0" fit-margin-bottom="0" fit-margin-left="0" fit-margin-right="0" fit-margin-top="0" id="base" inkscape:current-layer="layer1" inkscape:cx="47.206773" inkscape:cy="24.005844" inkscape:document-units="mm" inkscape:pageopacity="0.0" inkscape:pageshadow="2" inkscape:window-height="1018" inkscape:window-maximized="1" inkscape:window-width="1920" inkscape:window-x="-8" inkscape:window-y="-8" inkscape:zoom="0.98994949" pagecolor="#ffffff" showgrid="false">
	</sodipodi:namedview>
<g id="layer1" transform="translate(-9.7624252,-170.09222)" inkscape:groupmode="layer" inkscape:label="Layer 1">
	<g id="g3563" transform="matrix(1.6391408,0,0,-1.6391408,-262.82211,227.09289)">
		<circle id="_x37_5969688" class="st0" cx="181.5" cy="19.5" r="15.3"/>
		<circle id="_x37_5969776" class="st1" cx="181.5" cy="19.5" r="14.2"/>
		<path id="_x37_5969864" inkscape:connector-curvature="0" d="M188.5,23.4c0-0.1,0.1-0.2,0.4,0c0.4,0.4,1.4,1.7,2.8-0.5
			c1.3-2,1.1-7.2,0.3-8.7c-0.5-0.1-1-0.2-1.7-0.2c0,0.9,0,2.6-0.4,5.4c-0.8,5.9-2.7-3.3-3.1-5c-0.8,0.2-1.7,0.5-2.7,0.8
			c1,2.1,1,9.6,1.5,11.2c0.2,0.7,0.1,1,0,1c-2.8-2-4.9-9.5-5.4-11.2c-0.9,0.1-1.7,0.1-2.5,0.1c0.2,4.1-1.5,0.7-1.8-0.2
			c-1.7-0.3-4.6-2.4-5.6-3.1l0.9,1.7c0,0,7.3,12,8.2,7l0,0c0,0,0.1-1,0.4-0.1C180.2,22.6,189.7,41.4,188.5,23.4L188.5,23.4z"/>
		<path id="_x37_5970128" inkscape:connector-curvature="0" class="st2" d="M169.7,11.8c1,0.6,5.8,3.4,12.5,1c7.5-2.7,12.2-0.6,13,3
			c-0.8-0.6-3.8-3.1-11.2-0.3C176.7,18.2,169.9,14.8,169.7,11.8L169.7,11.8z"/>
		<path id="_x37_5970304" inkscape:connector-curvature="0" class="st3" d="M171.4,9.6c1.4,0.3,2.9,1.4,9.2-0.5
			c6.8-2.1,10.7-1.7,12.4,1.9c-0.8-0.6-3.8-1.2-11,0.9C174.6,14,171.9,12.5,171.4,9.6z"/>
		<circle id="_x37_5970392" class="st4" cx="176.9" cy="27.2" r="3.5"/>
		<path id="_x37_5970568" inkscape:connector-curvature="0" class="st5" d="M180.3,17.2c0,0.2,0,0.4,0.1,0.6
			c0.1,0.2,0.2,0.6,0.3,0.6c0,0,0.1,0.1,0.1,0c0-0.2,0-0.2-0.1-0.2c0,0,0-0.2,0-0.3c0-0.1,0-0.2,0-0.2c0,0,0,0,0,0
			c0-0.1,0-0.1-0.1-0.1c0,0-0.1-0.6-0.1-0.6c0,0-0.1,0-0.2,0C180.2,17,180.3,17.3,180.3,17.2L180.3,17.2z"/>
		<path id="_x37_5970656" inkscape:connector-curvature="0" class="st6" d="M180.9,18.8C180.9,18.8,180.9,18.9,180.9,18.8
			C180.9,18.9,180.9,18.9,180.9,18.8C181,18.9,181,18.9,180.9,18.8l0.1,0c0,0,0,0,0,0c0,0,0,0,0,0c0,0,0,0,0,0v0c0,0,0,0,0,0v0
			c0,0,0,0,0,0h0c0,0,0,0,0,0h0h0h0l0,0h0l0,0h0l0,0h0l0,0c0,0,0,0,0,0c0,0,0,0,0,0S180.9,18.8,180.9,18.8L180.9,18.8
			C180.9,18.8,180.9,18.8,180.9,18.8L180.9,18.8L180.9,18.8L180.9,18.8C180.9,18.8,180.9,18.8,180.9,18.8L180.9,18.8z"/>
		<path id="_x37_5970744" inkscape:connector-curvature="0" class="st5" d="M177.4,22.3C177.4,22.3,177.4,22.3,177.4,22.3
			c-0.1,0-0.2-0.1-0.2-0.1c0,0,0,0,0,0c0,0,0,0,0,0v0c0,0,0,0,0,0v0v0c0,0-0.1,0-0.1-0.1c0,0,0,0,0-0.1c0,0,0-0.1,0.1-0.1
			c0,0,0.1,0,0.1,0h0.1h0c0,0,0.1,0.1,0.1,0.1c0,0,0,0.1,0,0.1c0,0,0,0,0,0c0,0,0,0,0,0C177.5,22.2,177.5,22.3,177.4,22.3
			C177.5,22.3,177.5,22.3,177.4,22.3C177.5,22.3,177.5,22.3,177.4,22.3C177.5,22.3,177.4,22.3,177.4,22.3L177.4,22.3z"/>
		<path id="_x37_5970832" inkscape:connector-curvature="0" class="st6" d="M177.6,22.6L177.6,22.6L177.6,22.6
			C177.7,22.6,177.7,22.6,177.6,22.6c0.1,0,0.1,0,0.1,0c0,0,0,0,0,0h0c0,0,0,0,0.1,0h0v0h0l0,0v0c0,0,0,0,0,0s0,0,0,0c0,0,0,0,0,0
			c0,0,0,0,0,0c0,0,0,0,0,0h0c0,0,0,0,0,0h0l0,0h0v0h0h0h0h0h0h0l0,0h0c0,0,0,0,0,0C177.6,22.5,177.6,22.5,177.6,22.6
			C177.6,22.6,177.6,22.6,177.6,22.6L177.6,22.6L177.6,22.6L177.6,22.6L177.6,22.6C177.7,22.6,177.6,22.6,177.6,22.6L177.6,22.6z"/>
		<path id="_x37_5970920" inkscape:connector-curvature="0" class="st5" d="M172.6,15.7c0.1,0.2,0.1,0.3,0.2,0.6
			c0,0.1,0.4,0.7,0.4,0.8c0.1,0.1,0.4,0.4,0.3,0.1c0-0.2-0.1-0.3-0.2-0.4c0,0-0.1-0.4-0.2-0.4c-0.1-0.1-0.2-0.4-0.3-0.5
			c0,0-0.1-0.1-0.1-0.1C172.7,15.6,172.7,15.6,172.6,15.7C172.6,15.6,172.6,15.7,172.6,15.7L172.6,15.7z"/>
		<path id="_x37_5971008" inkscape:connector-curvature="0" class="st6" d="M173.7,17.5C173.7,17.6,173.8,17.6,173.7,17.5
			C173.8,17.6,173.8,17.6,173.7,17.5c0.1,0,0.1,0,0.1,0h0h0l0,0l0,0v0c0,0,0,0,0,0c0,0,0,0,0,0s0,0,0,0c0,0,0,0,0,0l0,0h0h0v0h0h0h0
			h0h0h0l0,0c0,0,0,0,0,0c0,0,0,0,0,0h0v0C173.7,17.5,173.7,17.5,173.7,17.5L173.7,17.5L173.7,17.5
			C173.7,17.5,173.7,17.5,173.7,17.5C173.7,17.5,173.7,17.5,173.7,17.5L173.7,17.5z"/>
		<path id="_x37_5971096" inkscape:connector-curvature="0" class="st5" d="M188.2,27.2C188.1,27.2,188.2,27.2,188.2,27.2
			L188.2,27.2c-0.1-0.1-0.1-0.1-0.1-0.1c0,0,0,0,0,0l0,0c0,0,0,0,0,0c0,0-0.1,0-0.1,0c0,0,0-0.1,0-0.1c0,0,0-0.1,0-0.1l0,0
			c0,0,0,0,0,0c0,0,0.2,0,0.2,0c0,0,0,0,0,0c0,0,0,0,0,0c0,0,0,0.1,0,0.1c0,0,0,0,0,0l0,0h0c0,0,0,0.1,0,0.1s0,0.1,0,0.1
			c0,0,0,0,0,0h0v0c0,0,0,0,0,0c0,0,0,0,0,0C188.3,27.2,188.3,27.2,188.2,27.2C188.3,27.2,188.2,27.2,188.2,27.2L188.2,27.2z"/>
	</g>
</g>
</svg>
