<?xml version="1.0" encoding="utf-8"?>
<!-- Generator: Adobe Illustrator 25.4.1, SVG Export Plug-In . SVG Version: 6.00 Build 0)  -->
<svg version="1.1"
	 id="svg2" inkscape:version="0.92.3 (2405546, 2018-03-11)" sodipodi:docname="賃鞊酒vg" xmlns:cc="http://creativecommons.org/ns#" xmlns:dc="http://purl.org/dc/elements/1.1/" xmlns:inkscape="http://www.inkscape.org/namespaces/inkscape" xmlns:rdf="http://www.w3.org/1999/02/22-rdf-syntax-ns#" xmlns:sodipodi="http://sodipodi.sourceforge.net/DTD/sodipodi-0.dtd" xmlns:svg="http://www.w3.org/2000/svg"
	 xmlns="http://www.w3.org/2000/svg" xmlns:xlink="http://www.w3.org/1999/xlink" x="0px" y="0px" viewBox="0 0 50 50"
	 style="enable-background:new 0 0 50 50;" xml:space="preserve">
<style type="text/css">
	.st0{fill-rule:evenodd;clip-rule:evenodd;fill:#FDDC02;}
	.st1{fill-rule:evenodd;clip-rule:evenodd;fill:#7FD4F5;}
	.st2{fill-rule:evenodd;clip-rule:evenodd;fill:#0794DC;}
	.st3{fill-rule:evenodd;clip-rule:evenodd;fill:#007835;}
	.st4{fill-rule:evenodd;clip-rule:evenodd;fill:#CCE657;}
	.st5{fill-rule:evenodd;clip-rule:evenodd;fill:#FFFFFF;}
	.st6{fill-rule:evenodd;clip-rule:evenodd;fill:#283D99;}
	.st7{fill:#283D99;}
</style>
<sodipodi:namedview  bordercolor="#666666" borderopacity="1" gridtolerance="10" guidetolerance="10" id="namedview41" inkscape:current-layer="svg2" inkscape:cx="428.43324" inkscape:cy="311.90376" inkscape:pageopacity="0" inkscape:pageshadow="2" inkscape:window-height="1027" inkscape:window-maximized="1" inkscape:window-width="1920" inkscape:window-x="-8" inkscape:window-y="-8" inkscape:zoom="1" objecttolerance="10" pagecolor="#ffffff" showgrid="false">
	</sodipodi:namedview>
<sodipodi:namedview  bordercolor="#666666" borderopacity="1" gridtolerance="10" guidetolerance="10" id="namedview41" inkscape:current-layer="svg2" inkscape:cx="428.43324" inkscape:cy="311.90376" inkscape:pageopacity="0" inkscape:pageshadow="2" inkscape:window-height="1027" inkscape:window-maximized="1" inkscape:window-width="1920" inkscape:window-x="-8" inkscape:window-y="-8" inkscape:zoom="1" objecttolerance="10" pagecolor="#ffffff" showgrid="false">
	</sodipodi:namedview>
<path id="path2" inkscape:connector-curvature="0" class="st0" d="M25,0.2c13.7,0,24.8,11.2,24.8,24.8S38.7,49.8,25,49.8
	S0.2,38.7,0.2,25S11.3,0.2,25,0.2"/>
<path id="path12" inkscape:connector-curvature="0" class="st1" d="M5.3,25.2c0-11,9-19.9,19.9-19.9c11,0,19.9,9,19.9,19.9"/>
<path id="path14" inkscape:connector-curvature="0" class="st2" d="M45.1,25.2c0,11-9,19.9-19.9,19.9c-11,0-19.9-9-19.9-19.9"/>
<path id="path24" inkscape:connector-curvature="0" class="st3" d="M5.2,25.3l8-9.3l3.4,0.4l8.6-7.4l8,7.6l3.9-0.5l7.9,9.1"/>
<path id="path30" inkscape:connector-curvature="0" class="st4" d="M5.2,25.3l39.9-0.1c-0.1,1-0.2,2-0.3,3
	c-4.5,1.5-8.5,3.7-12.4,6.2l-7.1-1.2c-2.5,0.4-5,0.8-7.5,1.2c-4.2-2.9-8.3-4.8-12.2-5.9"/>
<polygon class="st5" points="26.9,23 27,22.6 27.8,22 27.8,21.4 27.8,20.9 26.7,20.9 26.7,20 26.8,20 26.8,19.5 44.5,20.5 
	42.8,16.3 26.3,18.6 26.3,18.5 24.1,18.5 24.1,18.6 7.5,16.3 5.8,20.5 23.5,19.4 23.5,20 23.8,20 23.8,20.9 22.8,20.9 22.8,21.4 
	22.8,22 23.5,22.6 23.5,23 23,31.1 22.1,31.1 22.1,32.3 28.1,32.3 28.1,31.1 27.4,31.1 "/>
<path id="path144" inkscape:connector-curvature="0" class="st6" d="M6.7,38.4L6.7,38.4c0.1,0.2,0.2,0.2,0.3,0.2
	c0.1,0,0.2,0,0.3-0.1l0.3-0.3C7.7,38,7.8,38,7.8,37.9c0-0.1,0-0.2-0.1-0.3l0,0L6.7,38.4z M5.1,38.1L5.1,38.1l0.3,0.2L7,36.7
	l-0.2-0.2l0.1-0.1L8,37.9c0.2,0.3,0.3,0.5,0.3,0.7c0,0.2-0.1,0.4-0.2,0.6c-0.1,0.1-0.2,0.2-0.3,0.2c-0.1,0-0.2,0-0.3,0
	c-0.1,0-0.2-0.1-0.2-0.1c-0.1-0.1-0.2-0.2-0.3-0.4l-0.2-0.3L6,39.1l0.2,0.3l-0.1,0.1L5.1,38.1z M7.1,40.6L7.1,40.6l0.3,0.1L8.8,39
	l-0.2-0.2l0.1-0.1l1.1,1.2L9.7,40l-0.2-0.2L8,41.4l0.2,0.2l-0.1,0.1L7.1,40.6z M9,42c-0.1,0.1-0.1,0.2-0.1,0.2
	c0,0.1,0.1,0.1,0.2,0.2L9,42.5l-0.6-0.5l0.1-0.1l0,0C8.6,42,8.6,42,8.7,42C8.7,42,8.8,42,9,42l1.1-1.7L9.8,40L9.8,40l1,0.9l-0.1,1.7
	l0.6-0.8c0.1-0.1,0.1-0.2,0.1-0.2c0-0.1-0.1-0.1-0.2-0.2l0,0l0.1-0.1l0.6,0.5l-0.1,0.1l0,0c-0.1-0.1-0.2-0.1-0.2-0.1
	c-0.1,0-0.1,0-0.2,0.1l-1.2,1.7l-0.4-0.4l0.1-2.5L9,42z M12.3,43.6L12.3,43.6l1.2,0.7l0,0.1l-0.1-0.1l-0.5,0.8
	c-0.1,0-0.1-0.1-0.2-0.1c-0.1,0-0.1,0-0.2-0.1c0,0-0.1,0-0.1,0c-0.3,0-0.5-0.1-0.6-0.2c-0.1-0.1-0.3-0.2-0.3-0.3
	c-0.1-0.1-0.2-0.3-0.2-0.4c-0.1-0.2-0.1-0.4-0.1-0.6c0-0.2,0.1-0.4,0.2-0.6c0.2-0.3,0.4-0.5,0.8-0.6c0.3-0.1,0.6,0,1,0.2
	c0.1,0.1,0.2,0.1,0.3,0.2c0.1,0.1,0.1,0.2,0.2,0.3l0.3,0l0.1,0.1l-0.4,0.8l-0.1-0.1c0-0.2,0.1-0.5,0-0.6c0-0.2-0.1-0.3-0.3-0.4
	c-0.1-0.1-0.3-0.1-0.4-0.1c-0.1,0.1-0.2,0.2-0.4,0.4l-0.6,1.1c-0.1,0.1-0.1,0.2-0.1,0.3c0,0.1,0,0.1,0.1,0.2c0.1,0,0.1,0,0.2,0
	c0.1,0,0.1-0.1,0.2-0.2l0.4-0.7L12.3,43.6z M17.9,47.6l-1.5-0.5l0-0.1l0.3,0.1l0.7-2.2c-0.1,0-0.3,0-0.4,0.1
	c-0.1,0.1-0.3,0.2-0.4,0.4l-0.1,0l0.2-0.8l2.3,0.8l-0.2,0.8l-0.1,0c0-0.2,0-0.4-0.1-0.6c-0.1-0.2-0.2-0.3-0.3-0.3l-0.7,2.2l0.3,0.1
	L17.9,47.6z M21,47.7c0,0.2-0.2,0.4-0.4,0.5s-0.4,0.1-0.7,0c-0.3-0.1-0.5-0.2-0.7-0.4C19,47.7,19,47.5,19,47.3l0.3-1.8l-0.3-0.1
	l0-0.1l1.5,0.4l0,0.1l-0.3-0.1l-0.3,1.7c0,0.2,0,0.3,0,0.4c0,0.1,0.1,0.2,0.3,0.2c0.2,0,0.3,0,0.4,0c0.1-0.1,0.2-0.2,0.2-0.4
	l0.3-1.4c0-0.1,0-0.2,0-0.2c0,0-0.1-0.1-0.2-0.1l0-0.1l0.7,0.2l0,0.1c-0.1,0-0.2,0-0.3,0c0,0-0.1,0.1-0.1,0.2L21,47.7z M21.9,48.2
	c0,0.1,0,0.2,0,0.2c0,0,0.1,0.1,0.3,0.1l0,0.1l-0.8-0.1l0-0.1l0,0c0.1,0,0.2,0,0.2,0c0,0,0.1-0.1,0.1-0.2l0.1-2.1l-0.3,0l0-0.1
	l1.2,0.1l0.8,1.5l0.1-1c0-0.1,0-0.2,0-0.2c0,0-0.1-0.1-0.2-0.1l0,0l0-0.1l0.8,0.1l0,0.1l0,0c-0.1,0-0.2,0-0.2,0c0,0-0.1,0.1-0.1,0.2
	l-0.1,2.2l-0.5,0L22,46.5L21.9,48.2z M25.5,47.5l0-0.1l1.3-0.1l0,0.1l-0.2,0l0,1c-0.1,0-0.1,0-0.2,0c-0.1,0-0.1,0-0.2,0.1
	c0,0-0.1,0-0.1,0.1c-0.2,0.1-0.5,0.2-0.6,0.2c-0.2,0-0.3,0-0.4-0.1c-0.1,0-0.3-0.1-0.4-0.2c-0.1-0.1-0.2-0.3-0.3-0.5
	c-0.1-0.2-0.1-0.4-0.1-0.6c0-0.4,0.1-0.7,0.3-1c0.2-0.3,0.5-0.4,0.9-0.4c0.1,0,0.2,0,0.3,0c0.1,0,0.2,0.1,0.3,0.1l0.3-0.2l0.1,0
	l0,0.9l-0.1,0c-0.1-0.2-0.2-0.4-0.3-0.5c-0.1-0.1-0.3-0.2-0.4-0.2c-0.2,0-0.3,0.1-0.4,0.2c-0.1,0.1-0.1,0.3-0.1,0.6l0,1.3
	c0,0.1,0,0.2,0.1,0.3c0,0.1,0.1,0.1,0.2,0.1c0.1,0,0.1,0,0.1-0.1c0-0.1,0-0.2,0-0.3l0-0.8L25.5,47.5z M32,45.9L32,45.9
	c-0.2-0.2-0.4-0.3-0.5-0.4c-0.1-0.1-0.3-0.1-0.4-0.1c-0.1,0-0.2,0.1-0.2,0.3c0,0.1,0,0.5,0.2,1c0.1,0.4,0.2,0.7,0.3,0.8
	c0.1,0.1,0.2,0.1,0.4,0.1c0.2-0.1,0.3-0.2,0.4-0.3s0.1-0.4,0.1-0.6l0.1,0c0,0.3,0,0.5-0.1,0.7c-0.1,0.2-0.3,0.3-0.6,0.4
	c-0.3,0.1-0.7,0.1-1-0.1c-0.3-0.2-0.5-0.5-0.6-0.8c0-0.2,0-0.3,0-0.5c0-0.2,0.1-0.3,0.1-0.5c0.1-0.2,0.2-0.3,0.3-0.4
	c0.1-0.1,0.3-0.2,0.5-0.2c0.1,0,0.2,0,0.3,0c0.1,0,0.2,0,0.3,0.1l0.2-0.3l0.1,0L32,45.9z M33.7,46.5c0,0.1,0.1,0.2,0.2,0.3
	c0.1,0.1,0.1,0.1,0.2,0c0.1,0,0.1-0.1,0.1-0.2c0-0.1,0-0.2-0.1-0.3l-0.5-1.5c0-0.1-0.1-0.2-0.2-0.3c-0.1-0.1-0.1-0.1-0.2,0
	c-0.1,0-0.1,0.1-0.1,0.2c0,0.1,0,0.2,0.1,0.3L33.7,46.5z M32.5,46.2c-0.1-0.2-0.1-0.3-0.1-0.5c0-0.2,0-0.3,0.1-0.5
	c0.1-0.2,0.2-0.3,0.3-0.4c0.1-0.1,0.3-0.2,0.4-0.3c0.3-0.1,0.7-0.1,1,0c0.3,0.1,0.5,0.4,0.6,0.8c0.1,0.4,0.1,0.7,0,1
	c-0.1,0.3-0.4,0.6-0.7,0.7c-0.1,0.1-0.3,0.1-0.4,0.1c-0.1,0-0.3,0-0.4-0.1c-0.2-0.1-0.3-0.2-0.4-0.3C32.7,46.5,32.6,46.4,32.5,46.2
	 M37.3,44.5c0.1,0.2,0.1,0.4,0,0.6c-0.1,0.2-0.3,0.4-0.6,0.6c-0.3,0.2-0.5,0.2-0.7,0.2c-0.2,0-0.4-0.1-0.5-0.3L34.8,44l-0.2,0.1
	l0-0.1l1.4-0.8l0,0.1l-0.3,0.2l0.8,1.6c0.1,0.2,0.2,0.3,0.3,0.3c0.1,0,0.2,0,0.3,0c0.1-0.1,0.2-0.2,0.3-0.3c0-0.1,0-0.3-0.1-0.4
	l-0.6-1.3c0-0.1-0.1-0.2-0.2-0.2c-0.1,0-0.1,0-0.3,0.1l0-0.1l0.7-0.4l0,0.1c-0.1,0.1-0.2,0.1-0.2,0.2c0,0.1,0,0.1,0,0.2L37.3,44.5z
	 M38.5,44.1c0.1,0.1,0.1,0.1,0.2,0.1c0.1,0,0.1,0,0.2-0.1l0.1,0.1l-0.6,0.5l-0.1-0.1l0,0c0.1-0.1,0.2-0.1,0.2-0.2
	C38.5,44.4,38.4,44.3,38.5,44.1l-1.2-1.6L37,42.7L37,42.7l1-0.8l1.5,0.5l-0.5-0.8c-0.1-0.1-0.1-0.1-0.2-0.1c-0.1,0-0.1,0-0.2,0.1
	l0,0l-0.1-0.1l0.6-0.5l0.1,0.1l0,0c-0.1,0.1-0.2,0.1-0.2,0.2c0,0.1,0,0.1,0.1,0.2l1.1,1.8l-0.4,0.3l-2.2-0.8L38.5,44.1z M42.6,41.2
	l-1.1,1.2l-0.1-0.1l0.2-0.2l-1.5-1.7c-0.1,0.1-0.1,0.3-0.1,0.5c0,0.2,0.1,0.4,0.2,0.6l-0.1,0.1l-0.6-0.6l1.7-1.8l0.6,0.6l-0.1,0.1
	c-0.2-0.1-0.4-0.2-0.5-0.2c-0.2,0-0.3,0-0.4,0.1l1.5,1.7L42.6,41.2L42.6,41.2z M44.6,38.3l-1,1.4l-0.1-0.1l0.2-0.3l-0.7-0.6
	l-1.5-0.2l-0.1,0.2l-0.1-0.1l0.9-1.3l0.1,0.1l-0.1,0.2l1.2,0.2L43.2,37c0,0,0-0.1,0-0.1c0,0,0,0,0-0.1c0,0-0.1,0-0.1,0
	c0,0-0.1,0.1-0.2,0.1l-0.1-0.1l0.4-0.6l0.1,0.1c0,0.1-0.1,0.1-0.1,0.2c0,0.1,0,0.1,0,0.2l0.4,1.1l0.7,0.6L44.6,38.3"/>
<path id="path146" inkscape:connector-curvature="0" class="st6" d="M19.1,39.5v1.3h0.7v-1.3H21v-0.6h-1.1v-0.8h0.9v-0.6h-0.9
	c0.1-0.2,0.2-0.3,0.3-0.4l-0.5-0.3h0.9c0.2,0,0.3-0.1,0.3-0.3v-1.2c0-0.2-0.1-0.2-0.3-0.3h-5.5c-0.2,0-0.3,0.1-0.3,0.3v2.7
	c0,1-0.2,1.9-0.6,2.6l0.7,0.3c0.2-0.3,0.3-0.6,0.4-1c0.2-0.6,0.3-1.1,0.3-1.7v-1.5H17L16.6,37c0.1,0.1,0.2,0.3,0.3,0.5H16v0.6h0.9
	v0.8h-1.2v0.6h1.2c-0.1,0.3-0.3,0.5-0.7,0.7c-0.2,0.1-0.4,0.1-0.6,0.2l0.4,0.6c0.9-0.4,1.5-0.9,1.6-1.5H19.1z M19.1,38.9h-1.4v-0.8
	h1.4V38.9z M17.6,37.5l0.1,0c-0.1-0.2-0.3-0.4-0.4-0.7h2.1c-0.1,0.1-0.1,0.2-0.2,0.3c-0.1,0.1-0.2,0.2-0.3,0.4H17.6z M15.6,35.9
	c0-0.1,0-0.1,0.1-0.1H20c0.1,0,0.1,0,0.1,0.1v0.2c0,0.1,0,0.1-0.1,0.1h-4.4V35.9z M26.2,39.5c0.7,0.5,1.6,0.9,2.6,1.2l0.5-0.6
	c-1-0.3-1.9-0.6-2.7-1.1h2c0.1,0,0.1,0,0.1-0.1v-2.5c0-0.1,0-0.1-0.1-0.1h-2.4V36H29v-0.6h-2.8v-0.4h-0.7v0.4h-2.9V36h2.9v0.3H23
	c-0.1,0-0.1,0-0.1,0.1v2.5c0,0.1,0,0.1,0.1,0.1h1.8c-0.7,0.5-1.6,0.8-2.5,1.1l0.4,0.6c0.9-0.2,1.7-0.6,2.6-1.3v1.4h0.7V39.5z
	 M25.4,38.4h-1.7c0,0,0,0,0,0V38h1.7V38.4z M26.2,38h1.7v0.4c0,0,0,0,0,0h-1.7V38z M25.4,37.4h-1.7V37c0,0,0,0,0,0h1.7V37.4z
	 M26.2,37h1.7l0,0v0.4h-1.7V37z M33.6,37.9v-2.8c0,0,0-0.1-0.1-0.1h-2c-0.1,0-0.1,0-0.1,0.1v2.8c0,0,0,0.1,0.1,0.1h2
	C33.6,38,33.6,38,33.6,37.9 M33,37.2v0.2c0,0,0,0,0,0h-0.9v-0.3H33z M32.1,36.4H33v0.3h-0.9V36.4z M32.1,35.9v-0.3c0,0,0,0,0,0H33
	c0,0,0,0,0,0v0.3H32.1z M31.9,38.8v2.1h0.7v-2.1h1v-0.6h-2.1c-0.1,0-0.2-0.1-0.2-0.2v-2.6h-0.7v3c0,0.2,0.1,0.3,0.3,0.3H31.9z
	 M31.1,39c-0.1,0.5-0.4,1-0.7,1.4c0.2,0.1,0.4,0.2,0.5,0.4c0.4-0.4,0.7-0.9,0.9-1.5L31.1,39z M32.7,39.3c0.1,0.3,0.2,0.6,0.3,1
	l0.7-0.1c-0.1-0.4-0.2-0.8-0.4-1L32.7,39.3z M36.4,38.9l-0.6,0.2c0.2,0.4,0.5,1,0.8,1.7l0.7-0.2C37,39.9,36.8,39.3,36.4,38.9
	l0.7-0.2c-0.2-0.5-0.5-1-0.7-1.3l-0.6,0.3c0.1,0.1,0.1,0.2,0.2,0.3L35.2,38c0.6-0.6,1-1.1,1.1-1.6l-0.6-0.2
	c-0.1,0.3-0.3,0.6-0.5,0.9c-0.1-0.1-0.2-0.2-0.3-0.3c0.3-0.4,0.5-0.8,0.7-1.1h0.2c0.5-0.1,0.9-0.1,1.1-0.2L36.8,35
	c-0.6,0.1-1.6,0.2-2.7,0.2l0.1,0.6c0.2,0,0.5,0,0.7,0c-0.1,0.2-0.3,0.4-0.4,0.7h0c-0.2-0.1-0.3-0.2-0.3-0.2l-0.3,0.5
	c0.4,0.2,0.7,0.5,1.1,0.8c-0.2,0.2-0.4,0.4-0.5,0.5l-0.6,0.1c0.1,0.2,0.1,0.4,0.1,0.6l1.2-0.1v2.3h0.7v-2.3l0.6-0.1
	C36.4,38.6,36.4,38.7,36.4,38.9 M34.1,39.1c-0.1,0.6-0.2,1-0.6,1.4c0.2,0.1,0.4,0.2,0.6,0.4c0.3-0.5,0.6-1,0.7-1.7"/>
<path id="path148" inkscape:connector-curvature="0" class="st5" d="M18.9,39.5v1.3h0.7v-1.3h1.1v-0.6h-1.1v-0.8h0.9v-0.6h-0.9
	c0.1-0.2,0.2-0.3,0.3-0.4l-0.5-0.3h0.9c0.2,0,0.3-0.1,0.3-0.3v-1.2c0-0.2-0.1-0.2-0.3-0.3h-5.5c-0.2,0-0.3,0.1-0.3,0.3v2.7
	c0,1-0.2,1.9-0.6,2.6l0.7,0.3c0.2-0.3,0.3-0.6,0.4-1c0.2-0.6,0.3-1.1,0.3-1.7v-1.5h1.4L16.4,37c0.1,0.1,0.2,0.3,0.3,0.5h-0.9v0.6
	h0.9v0.8h-1.2v0.6h1.2c-0.1,0.3-0.3,0.5-0.7,0.7c-0.2,0.1-0.4,0.1-0.6,0.2l0.4,0.6c0.9-0.4,1.5-0.9,1.6-1.5H18.9z M18.9,38.9h-1.4
	v-0.8h1.4V38.9z M17.4,37.5l0.1,0c-0.1-0.2-0.3-0.4-0.4-0.7h2.1c-0.1,0.1-0.1,0.2-0.2,0.3c-0.1,0.1-0.2,0.2-0.3,0.4H17.4z
	 M15.4,35.9c0-0.1,0-0.1,0.1-0.1h4.3c0.1,0,0.1,0,0.1,0.1v0.2c0,0.1,0,0.1-0.1,0.1h-4.4V35.9z M25.9,39.5c0.7,0.5,1.6,0.9,2.6,1.2
	l0.5-0.6c-1-0.3-1.9-0.6-2.7-1.1h2c0.1,0,0.1,0,0.1-0.1v-2.5c0-0.1,0-0.1-0.1-0.1h-2.4V36h2.8v-0.6h-2.8v-0.4h-0.7v0.4h-2.9V36h2.9
	v0.3h-2.4c-0.1,0-0.1,0-0.1,0.1v2.5c0,0.1,0,0.1,0.1,0.1h1.8c-0.7,0.5-1.6,0.8-2.5,1.1l0.4,0.6c0.9-0.2,1.7-0.6,2.6-1.3v1.4h0.7
	V39.5z M25.2,38.4h-1.7c0,0,0,0,0,0V38h1.7V38.4z M25.9,38h1.7v0.4c0,0,0,0,0,0h-1.7V38z M25.2,37.4h-1.7V37c0,0,0,0,0,0h1.7V37.4z
	 M25.9,37h1.7l0,0v0.4h-1.7V37z M33.4,37.9v-2.8c0,0,0-0.1-0.1-0.1h-2c-0.1,0-0.1,0-0.1,0.1v2.8c0,0,0,0.1,0.1,0.1h2
	C33.4,38,33.4,38,33.4,37.9 M32.8,37.2v0.2c0,0,0,0,0,0h-0.9v-0.3H32.8z M31.9,36.4h0.9v0.3h-0.9V36.4z M31.9,35.9v-0.3c0,0,0,0,0,0
	h0.9c0,0,0,0,0,0v0.3H31.9z M31.7,38.8v2.1h0.7v-2.1h1v-0.6h-2.1c-0.1,0-0.2-0.1-0.2-0.2v-2.6h-0.7v3c0,0.2,0.1,0.3,0.3,0.3H31.7z
	 M30.9,39c-0.1,0.5-0.4,1-0.7,1.4c0.2,0.1,0.4,0.2,0.5,0.4c0.4-0.4,0.7-0.9,0.9-1.5L30.9,39z M32.5,39.3c0.1,0.3,0.2,0.6,0.3,1
	l0.7-0.1c-0.1-0.4-0.2-0.8-0.4-1L32.5,39.3z M36.2,38.9l-0.6,0.2c0.2,0.4,0.5,1,0.8,1.7l0.7-0.2C36.8,39.9,36.5,39.3,36.2,38.9
	l0.7-0.2c-0.2-0.5-0.5-1-0.7-1.3l-0.6,0.3c0.1,0.1,0.1,0.2,0.2,0.3L35,38c0.6-0.6,1-1.1,1.1-1.6l-0.6-0.2c-0.1,0.3-0.3,0.6-0.5,0.9
	c-0.1-0.1-0.2-0.2-0.3-0.3c0.3-0.4,0.5-0.8,0.7-1.1h0.2c0.5-0.1,0.9-0.1,1.1-0.2L36.5,35c-0.6,0.1-1.6,0.2-2.7,0.2l0.1,0.6
	c0.2,0,0.5,0,0.7,0c-0.1,0.2-0.3,0.4-0.4,0.7h0c-0.2-0.1-0.3-0.2-0.3-0.2l-0.3,0.5c0.4,0.2,0.7,0.5,1.1,0.8
	c-0.2,0.2-0.4,0.4-0.5,0.5l-0.6,0.1c0.1,0.2,0.1,0.4,0.1,0.6l1.2-0.1v2.3h0.7v-2.3l0.6-0.1C36.1,38.6,36.2,38.7,36.2,38.9
	 M33.9,39.1c-0.1,0.6-0.2,1-0.6,1.4c0.2,0.1,0.4,0.2,0.6,0.4c0.3-0.5,0.6-1,0.7-1.7"/>
<g>
	<path class="st7" d="M25.2,45.4C14.1,45.4,5,36.4,5,25.3s9-20.1,20.1-20.1s20.1,9,20.1,20.1S36.3,45.4,25.2,45.4z M25.2,5.6
		c-10.9,0-19.7,8.9-19.7,19.7S14.3,45,25.2,45s19.7-8.9,19.7-19.7S36.1,5.6,25.2,5.6z"/>
</g>
<path class="st7" d="M24.9,0.4c13.5,0,24.5,11,24.5,24.5s-11,24.5-24.5,24.5S0.4,38.4,0.4,24.9S11.4,0.4,24.9,0.4 M24.9,0
	C11.2,0,0,11.2,0,24.9s11.2,24.9,24.9,24.9s24.9-11.2,24.9-24.9S38.7,0,24.9,0L24.9,0z"/>
<path class="st7" d="M28.1,31.1h-0.6L27,23l0.1-0.3l0.7-0.6h0V22v-0.5v-0.1v-0.1v-0.5v-0.1h-0.1h-1.1v-0.7h0.1h0.1V20v-0.6v-0.1
	h-0.1h-0.5v-0.8v-0.1h0v-0.3v0l0,0l-0.1,0l-0.1,0l-0.1,0L26,18L26,18l-0.1,0l-0.1,0l-0.1,0l-0.1,0l-0.1,0l-0.1,0l-0.1,0l-0.1,0
	l-0.1,0l-0.1,0l-0.1,0l-0.1,0l-0.1,0l-0.1,0l-0.1,0l-0.1,0l-0.1,0l-0.1,0l-0.1,0l-0.1,0l-0.1,0l-0.1,0l-0.1,0l-0.1,0l-0.1,0l-0.1,0
	l-0.1,0l0,0v0v0.3v0.1v0.1v0.8h-0.5h-0.1v0.1V20v0.1h0.1V20l0,0v0.1h0.3v0.7h-0.9h-0.1v0.1v0.5v0.1v0.1v0.5h-0.1l0.1,0.1v0h0
	l0.6,0.6l0,0.3L23,31.1h-0.9H22v0.1v1.2v0.1h0.1h6h0.1v-0.1L28.1,31.1L28.1,31.1L28.1,31.1z M23,31.2l4.2,0h0.2h0.1H28v1.1h-5.9
	v-1.1L23,31.2L23,31.2L23,31.2z M27,22.6l-0.1,0.3h-0.6l0.5-0.9h0.8L27,22.6L27,22.6z M23.5,22.9l0-0.3l0,0L23,22h0.7l0.4,0.9H23.5z
	 M27.8,21.5v0.5h-4.8v-0.5H27.8z M24.2,22.9L23.8,22h0.6l0.2,0.9H24.2z M24.7,22.9L24.5,22h0.6v0.9H24.7z M25.3,22H26l-0.4,0.9h-0.3
	V22z M26.1,22h0.6l-0.5,0.9h-0.5L26.1,22z M23.9,20.8v-0.7h2.7v0.7H23.9z M24.1,19.4v-0.8h2.1v0.8H24.1z M24.1,19.5h2.2h0.1h0.4V20
	h-0.1h-0.1h-2.9h-0.1h-0.2v-0.5H24.1L24.1,19.5z M23.6,19.4L23.6,19.4L23.6,19.4L23.6,19.4z M23.8,20.9h2.9h0.1h1v0.5h-4.8v-0.5
	H23.8L23.8,20.9z M23.5,23h3.3l0.5,8.1h-4.3L23.5,23z"/>
</svg>
