<?xml version="1.0" encoding="utf-8"?>
<!-- Generator: Adobe Illustrator 25.4.1, SVG Export Plug-In . SVG Version: 6.00 Build 0)  -->
<svg version="1.1" id="圖層_1" xmlns="http://www.w3.org/2000/svg" xmlns:xlink="http://www.w3.org/1999/xlink" x="0px" y="0px"
	 viewBox="0 0 50 50" style="enable-background:new 0 0 50 50;" xml:space="preserve">
<style type="text/css">
	.st0{fill:#008CCE;}
	.st1{fill:#E13B1B;}
	.st2{fill:#EB6615;}
	.st3{fill:#F5A708;}
	.st4{fill:#9CC53A;}
	.st5{fill:#282527;}
</style>
<g>
	<g>
		<path class="st0" d="M9.6,34.5h7.3c0,0,6.1-5.9,16.3-3.5C33.2,31,22.8,25.4,9.6,34.5z"/>
		<path class="st1" d="M25.8,8.6c0,0,5.3,11.9,24.2,17.3H37.2c0,0,0,5.2,10.8,10.6c0,0-13-2.3-16.6-12.3h6.1
			C37.6,24.1,27.1,17.3,25.8,8.6z"/>
		<path class="st2" d="M20,15.6c0,0,1.6,1.6,2.3,2c0,0,2.9-2.8,3.4-5.9C25.7,11.8,23.1,16,20,15.6z"/>
		<path class="st3" d="M17.7,14.6c0,0,4.7,6.6,10.4,7.9h-5.9C22.1,22.5,18.3,20.4,17.7,14.6z"/>
		<path class="st4" d="M16.7,13.7c0,0-3.6,9.1-16.7,14.3l11.1-1.6c0,0-0.7,5-8.3,8.2c0,0,10.1-0.8,13-8.9l11-1.5H11.5
			C11.5,24.1,16.3,19.6,16.7,13.7z"/>
	</g>
	<g>
		<path class="st5" d="M21.2,37.6c-0.3-0.2-0.6-0.4-0.6-0.4c0,0-0.2,0.1-0.3,0.2c-0.4,0-0.9,0-1.3,0.1v-0.8c0,0,0.1,0,0.2-0.1
			c0,0,0,0,0-0.1c0-0.1-0.3-0.1-1-0.2c0,0.2,0,0.5,0,0.9l0,0.4c-0.5,0.1-1,0.2-1.2,0.4v-0.6c-0.3-0.1-0.5-0.1-0.8-0.2
			c0,0.2,0,0.5,0,0.9v0.4c0,0.1,0,0.5,0,1.2v0c0,0.1,0.1,0.1,0.3,0.1c0.3,0,0.5-0.1,0.5-0.2v-0.3h1.2v0.9c0,0.1,0,0.4,0,1v0
			c0,0.1,0.1,0.1,0.2,0.1c0.4,0,0.6-0.1,0.6-0.2c0-0.5,0-0.8,0-0.9v-1h1.3v0.3c0,0.1,0.1,0.1,0.3,0.1c0.4,0,0.6-0.1,0.6-0.2
			c0-0.7,0-1,0-1.1v-0.6c0,0,0.1-0.1,0.2-0.2C21.2,37.7,21.2,37.7,21.2,37.6C21.2,37.6,21.2,37.6,21.2,37.6z M16.9,39.3v-1
			c0.2-0.2,0.6-0.3,1.2-0.5l0,1.4H16.9z M18.9,39.3v-1.6h0v0c0.4,0,0.8-0.1,1.2-0.1v1.6H18.9z"/>
		<path class="st5" d="M10.1,38.9c0,0,0,0.1,0,0.1c0,0.4-0.2,0.6-0.5,0.6c-0.2,0-0.3-0.1-0.3-0.3c0-0.1,0.1-0.2,0.2-0.3
			c0.3-0.1,0.4-0.3,0.4-0.6l0.1,0c0,0.1,0.1,0.2,0.1,0.3h3.7c0.2-0.2,0.3-0.3,0.4-0.3c0.1,0,0.2,0.1,0.5,0.4c0,0,0,0,0,0
			c0,0,0,0,0,0.1c0,0,0,0.1-0.1,0.1c-0.1,0-0.2,0-0.2,0c-0.2,0.2-0.4,0.4-0.6,0.5l-0.1,0c0-0.1,0-0.2,0-0.3c0,0,0-0.1,0-0.1
			c0-0.1,0-0.1,0-0.2H10.1z M13.6,41.2c0.3-0.3,0.4-0.5,0.5-0.5c0,0,0.2,0.1,0.3,0.2c0.2,0.2,0.3,0.3,0.3,0.3c0,0,0,0.1,0,0.1h-4.2
			c-0.4,0-0.8,0-1,0l-0.1-0.2c0.2,0,0.6,0.1,1.2,0.1h1v-0.5h-0.7c-0.4,0-0.8,0-1,0l-0.1-0.2c0.2,0,0.6,0.1,1.2,0.1h0.6v-0.4
			c-0.4,0.1-0.7,0.1-1.1,0.1c0,0,0,0-0.1,0.1c0,0,0,0.1-0.1,0.1c0,0-0.1-0.3-0.2-0.8c0.3,0,0.6,0.1,0.8,0.1c0.1-0.1,0.1-0.2,0.2-0.4
			c-0.4,0-0.6,0-0.8,0l-0.1-0.2c0.2,0,0.5,0,0.9,0h1.6c0.2-0.2,0.4-0.3,0.4-0.3c0,0,0.1,0.1,0.3,0.2c0.2,0.1,0.3,0.2,0.3,0.2
			c0,0,0,0.1-0.1,0.1H12c-0.1,0.1-0.3,0.2-0.5,0.3c-0.2,0.1-0.3,0.1-0.4,0.1c0.1,0,0.3,0,0.8,0c0.4,0,0.8,0,1.3,0
			c-0.2-0.1-0.3-0.2-0.4-0.2l0-0.1c0,0,0,0,0,0c0.8,0,1.1,0.2,1.1,0.5c0,0.2-0.1,0.3-0.3,0.3c-0.1,0-0.2-0.1-0.2-0.2
			c-0.1-0.2-0.2-0.2-0.2-0.2c-0.3,0.1-0.6,0.2-1,0.3v0.5h0.5c0.3-0.3,0.4-0.4,0.4-0.4c0,0,0.1,0.1,0.3,0.2c0.2,0.1,0.3,0.2,0.3,0.3
			c0,0,0,0.1,0,0.1h-1.6v0.5L13.6,41.2z M11,37.6c-0.4,0-0.8,0-1,0l-0.1-0.2c0.2,0,0.6,0.1,1.2,0.1h0.5v-0.4h-1c-0.4,0-0.8,0-1,0
			l-0.1-0.2c0.2,0,0.6,0.1,1.2,0.1h0.9c0,0,0,0,0,0c0-0.1,0-0.3,0-0.4c0.7,0.1,1,0.1,1,0.2c0,0,0,0.1-0.1,0.1
			c-0.1,0-0.1,0.1-0.1,0.1V37h1.2c0.3-0.3,0.4-0.4,0.4-0.4c0,0,0.1,0.1,0.3,0.2c0.2,0.1,0.3,0.2,0.3,0.3c0,0,0,0.1-0.1,0.1h-2.2v0.4
			h0.8c0.3-0.2,0.4-0.4,0.4-0.4c0,0,0.1,0.1,0.3,0.2c0.2,0.1,0.3,0.2,0.3,0.2c0,0,0,0.1-0.1,0.1H11z M13.8,38.1c0,0.1,0,0.2,0,0.3
			v0.1c0,0.1-0.2,0.1-0.5,0.1c-0.1,0-0.2,0-0.2-0.1v-0.1h-2.2v0.1c0,0.1-0.2,0.1-0.5,0.1c-0.2,0-0.3,0-0.3-0.1c0-0.1,0-0.2,0-0.4
			c0-0.1,0-0.3,0-0.4c0.2,0,0.5,0.1,0.8,0.2H13c0.2-0.2,0.3-0.2,0.4-0.2c0,0,0.1,0,0.3,0.1c0.2,0.1,0.3,0.1,0.3,0.2
			c0,0,0,0.1-0.1,0.1C13.9,38.1,13.8,38.1,13.8,38.1L13.8,38.1z M13.1,38h-2.2v0.3h2.2V38z"/>
		<path class="st5" d="M23.7,37.5c-0.5,0-0.8,0-0.9,0l-0.1-0.2c0.3,0,0.7,0.1,1.3,0.1h3c0.2-0.3,0.4-0.4,0.4-0.5c0,0,0,0,0.1,0
			c0,0,0.2,0.1,0.4,0.3c0.2,0.2,0.3,0.3,0.3,0.3c0,0,0,0.1-0.1,0.1L23.7,37.5z M27.5,40c0,0.3-0.3,0.6-0.8,0.7l0,0
			c-0.1,0-0.1,0-0.1,0c-0.1,0-0.1,0-0.1-0.1c0-0.2-0.1-0.4-0.2-0.4C26.3,40.1,26.2,40,26,40l0-0.1c0.2,0,0.3,0,0.5,0
			c0,0,0.1,0,0.1,0c0.1,0,0.1,0,0.1-0.1v-1.2h-1v1.7c0,0.2,0,0.6,0,1.1c0,0.1-0.1,0.1-0.4,0.1h0c-0.1,0-0.2,0-0.2,0
			c-0.1,0-0.2,0-0.2-0.1c0-0.5,0-1,0-1.2v-1.6H24v1.3c0,0.1,0,0.4,0,0.8c0,0.1-0.2,0.1-0.6,0.1c-0.1,0-0.2,0-0.2-0.1
			c0-0.5,0-0.9,0-0.9v-0.6c0-0.5,0-0.8,0-1c0.2,0,0.3,0.1,0.5,0.1c0.1,0,0.3,0.1,0.4,0.1h0.9c0,0,0,0,0-0.1c0-0.3,0-0.6,0-0.8
			c0.3,0,0.6,0.1,0.8,0.1c0.2,0,0.3,0.1,0.3,0.1c0,0,0,0.1-0.1,0.1c-0.1,0-0.1,0.1-0.1,0.1v0.4h0.9c0.3-0.2,0.4-0.3,0.5-0.3
			c0,0,0.2,0.1,0.4,0.2c0.2,0.1,0.3,0.2,0.3,0.2c0,0,0,0,0,0.1c-0.1,0.1-0.2,0.1-0.2,0.2V40z M24.4,36.5L24.4,36.5
			c0.1-0.1,0.2-0.1,0.3-0.1c0.7,0,1.1,0.2,1.1,0.5c0,0.3-0.1,0.4-0.4,0.4c-0.2,0-0.3-0.1-0.4-0.2C24.9,36.8,24.7,36.6,24.4,36.5z"/>
		<path class="st5" d="M32.1,38.6h-0.6v1.6c0.3,0,0.5-0.1,0.8-0.2l0,0.1c-0.8,0.5-1.6,0.9-2.5,1.1c0,0,0,0.1,0,0.1
			c0,0.1,0,0.1-0.1,0.1c-0.1,0-0.2-0.3-0.4-1c0.2,0,0.3,0,0.4,0v-1.5c0-0.4,0-0.8-0.1-1c0.6,0.1,0.9,0.1,0.9,0.2c0,0,0,0-0.1,0.1
			c-0.1,0-0.1,0.1-0.1,0.1v2.1c0.2,0,0.3,0,0.4-0.1v-3.2h-0.4c-0.1,0-0.2,0-0.3,0c0,0,0,0-0.1,0c-0.2,0-0.3,0-0.4,0l-0.1-0.2
			c0.3,0,0.6,0.1,1.1,0.1h0.7c0.3-0.3,0.4-0.5,0.5-0.5c0.1,0,0.2,0.1,0.4,0.3c0.2,0.2,0.3,0.3,0.3,0.3c0,0,0,0.1-0.1,0.1h-0.8v1.4
			c0.1-0.4,0.2-0.5,0.3-0.5c0,0,0.2,0.2,0.4,0.5c0.2-0.7,0.3-1.4,0.3-2.1c0.3,0.1,0.6,0.1,0.7,0.1c0.2,0,0.3,0.1,0.3,0.1
			c0,0,0,0.1-0.1,0.1c-0.1,0-0.1,0.1-0.1,0.1c-0.1,0.3-0.2,0.6-0.3,0.9h0.6c0.2-0.3,0.4-0.5,0.4-0.5c0,0,0.2,0.1,0.4,0.3
			c0.2,0.2,0.3,0.3,0.3,0.3c0,0,0,0.1-0.1,0.1h-0.3c0,0.4-0.1,0.8-0.3,1.2c-0.2,0.4-0.3,0.8-0.5,1c0,0,0.1,0.1,0.4,0.3
			c0.3,0.1,0.5,0.3,0.9,0.4l0,0.1c-0.2,0-0.3,0.2-0.3,0.5c0,0.1-0.1,0.2-0.1,0.2c-0.1,0-0.3-0.1-0.6-0.3c-0.3-0.2-0.5-0.4-0.6-0.6
			c-0.5,0.4-1.1,0.8-1.9,0.9l-0.1-0.1c0.7-0.3,1.3-0.8,1.7-1.3c-0.2-0.3-0.3-0.8-0.3-1.5c0,0-0.1,0.1-0.2,0.3
			c-0.1,0.2-0.3,0.3-0.3,0.4l-0.1-0.1C31.9,39,32,38.8,32.1,38.6z M33.5,37.8h-0.6c-0.1,0.2-0.2,0.4-0.3,0.5c0,0,0,0.2,0.1,0.5
			c0.1,0.3,0.2,0.6,0.3,0.7C33.3,39.1,33.5,38.5,33.5,37.8z"/>
		<path class="st5" d="M36.4,37.7c0-0.4,0-0.6-0.1-0.9c0.3,0.1,0.6,0.1,0.9,0.2h1.5c0,0-0.1-0.1-0.1-0.1c-0.1-0.2-0.3-0.4-0.5-0.5
			l0-0.1c0.1,0,0.3,0,0.4,0c0.6,0,0.9,0.1,0.9,0.4c0,0.1-0.1,0.2-0.2,0.3h1c0.2-0.3,0.4-0.5,0.5-0.5c0,0,0.2,0.1,0.4,0.3
			c0.2,0.2,0.3,0.3,0.3,0.3c0,0,0,0.1-0.1,0.1h-4.1v1c0,1-0.1,1.7-0.3,2.1c-0.2,0.4-0.5,0.8-0.8,1l-0.1,0c0.3-0.6,0.4-1.6,0.4-3
			V37.7z M37.9,37.4c0.7,0.1,1,0.2,1,0.3c0,0,0,0-0.1,0.1c-0.1,0-0.2,0-0.2,0.1c0,0,0,0,0,0.1c-0.1,0.3-0.2,0.5-0.3,0.7
			c0.1,0,0.2,0.1,0.2,0.1c0,0,0,0.1,0,0.1c-0.1,0-0.1,0.1-0.1,0.1v1.5c0,0,0,0.3,0,0.9c0,0.1-0.2,0.1-0.6,0.1c-0.1,0-0.2,0-0.2-0.1
			c0-0.5,0-0.8,0-1v-0.9c-0.2,0.1-0.3,0.3-0.5,0.4l-0.1,0c0.2-0.3,0.4-0.6,0.5-1.1C37.8,38.2,37.9,37.8,37.9,37.4z M39.4,38.6
			c-0.4,0-0.6,0-0.8,0l-0.1-0.2c0.2,0,0.5,0,0.9,0h0.4v-0.2c0-0.3,0-0.6-0.1-0.8c0.7,0.1,1,0.1,1,0.2c0,0,0,0.1-0.1,0.1
			c-0.1,0-0.1,0.1-0.1,0.1v0.6h0c0.1-0.4,0.2-0.6,0.3-0.6c0,0,0.1,0.1,0.3,0.3c0.1,0.2,0.2,0.3,0.2,0.3c0,0,0,0,0,0h-0.8v2.2
			c0,0.3-0.2,0.6-0.7,0.7h0c0,0-0.1,0-0.1,0c-0.1,0-0.1,0-0.1-0.1c0-0.2-0.1-0.3-0.1-0.4c-0.1-0.1-0.2-0.1-0.5-0.2l0-0.1
			c0.2,0,0.4,0,0.6,0c0,0,0.1,0,0.1,0c0.1,0,0.1,0,0.1-0.1v-2H39.4z M38.6,39L38.6,39c0.3,0,0.5,0.1,0.7,0.2
			c0.2,0.1,0.3,0.3,0.3,0.5c0,0.2-0.1,0.4-0.4,0.4c-0.2,0-0.3-0.1-0.3-0.4C38.9,39.4,38.8,39.1,38.6,39z"/>
	</g>
</g>
</svg>
