<?xml version="1.0" encoding="utf-8"?>
<!-- Generator: Adobe Illustrator 25.4.1, SVG Export Plug-In . SVG Version: 6.00 Build 0)  -->
<svg version="1.1" id="圖層_1" xmlns="http://www.w3.org/2000/svg" xmlns:xlink="http://www.w3.org/1999/xlink" x="0px" y="0px"
	 viewBox="0 0 50 50" style="enable-background:new 0 0 50 50;" xml:space="preserve">
<style type="text/css">
	.st0{fill:url(#SVGID_1_);}
	.st1{fill:url(#SVGID_00000023264036110517101540000010943916553705793171_);}
	.st2{fill:url(#SVGID_00000108269123695199249630000012964235370613256110_);}
	.st3{fill:url(#SVGID_00000078757639220724186020000004247657129532445828_);}
	.st4{fill:url(#SVGID_00000056397640188571695010000018167785681769572520_);}
	.st5{fill:url(#SVGID_00000028322909515371050410000016373495527317182139_);}
	.st6{fill:url(#SVGID_00000012454823037821677040000014063806735887428026_);}
	.st7{fill:url(#SVGID_00000061458173326096581340000008587162839922262168_);}
	.st8{fill:url(#SVGID_00000106836602933912789740000015707484177939379888_);}
</style>
<g>
	<linearGradient id="SVGID_1_" gradientUnits="userSpaceOnUse" x1="31.43" y1="10.0146" x2="19.6035" y2="-0.634">
		<stop  offset="0" style="stop-color:#CA5219"/>
		<stop  offset="0.41" style="stop-color:#F9BC00"/>
		<stop  offset="1" style="stop-color:#F9BE00"/>
	</linearGradient>
	<path class="st0" d="M19.3,4.9C20.9,3.5,23,1.4,24.7,0c8,2.1,6.3,6.6,3.5,10.3C29,5.9,25.7,4.4,19.3,4.9z"/>
	<g>
		
			<linearGradient id="SVGID_00000029014032527195322280000014104461842865064103_" gradientUnits="userSpaceOnUse" x1="3.5392" y1="19.7044" x2="28.7111" y2="17.9442">
			<stop  offset="0" style="stop-color:#B04612"/>
			<stop  offset="0.28" style="stop-color:#F9BE00"/>
			<stop  offset="0.78" style="stop-color:#EFAA00"/>
			<stop  offset="1" style="stop-color:#B04612"/>
		</linearGradient>
		<path style="fill:url(#SVGID_00000029014032527195322280000014104461842865064103_);" d="M28.1,10.7C23.9,21.4,0.9,33.1,4.6,22.8
			C7.7,24.2,18.5,20,28.1,10.7z"/>
		
			<linearGradient id="SVGID_00000173154294846072654910000000403427945139482017_" gradientUnits="userSpaceOnUse" x1="40.9237" y1="15.4849" x2="4.5675" y2="15.4849">
			<stop  offset="0" style="stop-color:#A30035"/>
			<stop  offset="0.25" style="stop-color:#E2007E"/>
			<stop  offset="1" style="stop-color:#E3007F"/>
		</linearGradient>
		<path style="fill:url(#SVGID_00000173154294846072654910000000403427945139482017_);" d="M4.6,22.8C7.9,17.4,39.7,5.7,39.1,16
			C50.6-1.1,2.5,13.7,4.6,22.8z"/>
		
			<linearGradient id="SVGID_00000026152185278564933690000009465652113125406359_" gradientUnits="userSpaceOnUse" x1="18.9759" y1="22.0832" x2="38.9562" y2="22.0832">
			<stop  offset="0" style="stop-color:#8F0023"/>
			<stop  offset="0.25" style="stop-color:#E2007E"/>
			<stop  offset="1" style="stop-color:#E3007F"/>
		</linearGradient>
		<path style="fill:url(#SVGID_00000026152185278564933690000009465652113125406359_);" d="M39,16.3c-2.3,12.2-25.6,15.5-18.7,6.5
			C21.8,28.9,36.5,20.5,39,16.3z"/>
		
			<linearGradient id="SVGID_00000053539609800659363510000010525084668722317448_" gradientUnits="userSpaceOnUse" x1="34.6299" y1="25.6608" x2="22.2649" y2="17.0027">
			<stop  offset="0" style="stop-color:#004A43"/>
			<stop  offset="0.34" style="stop-color:#83C7A9"/>
			<stop  offset="1" style="stop-color:#86C9AB"/>
		</linearGradient>
		<path style="fill:url(#SVGID_00000053539609800659363510000010525084668722317448_);" d="M20.3,22.7c6.6-10.9,24.3-6.6,8.2,6.4
			C35.6,20.2,31.2,16.1,20.3,22.7z"/>
		
			<linearGradient id="SVGID_00000092452573082514331980000003277342966841633429_" gradientUnits="userSpaceOnUse" x1="4.0685" y1="38.4845" x2="29.0803" y2="40.6728">
			<stop  offset="0" style="stop-color:#004A43"/>
			<stop  offset="0.34" style="stop-color:#83C7A9"/>
			<stop  offset="0.66" style="stop-color:#83C8AA"/>
			<stop  offset="1" style="stop-color:#004A43"/>
		</linearGradient>
		<path style="fill:url(#SVGID_00000092452573082514331980000003277342966841633429_);" d="M28.7,29.4C22.8,43.6,0.9,58,5.8,44.8
			C7.5,48.8,22.5,35.5,28.7,29.4z"/>
		
			<linearGradient id="SVGID_00000023277346363740793500000011500956888395808190_" gradientUnits="userSpaceOnUse" x1="40.6647" y1="48.5487" x2="8.1307" y2="24.0327">
			<stop  offset="0" style="stop-color:#003B82"/>
			<stop  offset="0.36" style="stop-color:#008AD4"/>
			<stop  offset="0.78" style="stop-color:#008BD5"/>
			<stop  offset="1" style="stop-color:#003B82"/>
		</linearGradient>
		<path style="fill:url(#SVGID_00000023277346363740793500000011500956888395808190_);" d="M5.8,44.7C6.1,26.9,62,17.4,41.2,40.6
			C46.8,20.6,9.7,35.9,5.8,44.7z"/>
		
			<linearGradient id="SVGID_00000094582387725508452630000005841624304275321023_" gradientUnits="userSpaceOnUse" x1="22.6809" y1="44.6133" x2="41.1236" y2="44.6133">
			<stop  offset="0" style="stop-color:#003B82"/>
			<stop  offset="0.24" style="stop-color:#008AD4"/>
			<stop  offset="1" style="stop-color:#008BD5"/>
		</linearGradient>
		<path style="fill:url(#SVGID_00000094582387725508452630000005841624304275321023_);" d="M41.2,40.6c-6.7,15.6-25.1,7.6-15.9-0.9
			C24.3,50.1,38.2,44.3,41.2,40.6z"/>
		
			<linearGradient id="SVGID_00000079486268769141424690000009162917677856094909_" gradientUnits="userSpaceOnUse" x1="34.2111" y1="43.3343" x2="27.6063" y2="34.8806">
			<stop  offset="0" style="stop-color:#003B82"/>
			<stop  offset="0.15" style="stop-color:#003D83"/>
			<stop  offset="0.39" style="stop-color:#008AD4"/>
			<stop  offset="1" style="stop-color:#008BD5"/>
		</linearGradient>
		<path style="fill:url(#SVGID_00000079486268769141424690000009162917677856094909_);" d="M25.2,39.7c3.9-6.3,10.4-4.9,11.6,0.1
			l-4.2,2.7C32.6,38.6,28.6,36.9,25.2,39.7z"/>
	</g>
</g>
</svg>
