<?xml version="1.0" encoding="utf-8"?>
<!-- Generator: Adobe Illustrator 25.4.1, SVG Export Plug-In . SVG Version: 6.00 Build 0)  -->
<svg version="1.1"
	 id="圖層_1" inkscape:version="0.48.4 r9939" sodipodi:docname="Seal_of_Yilan_County.svg" xmlns:cc="http://creativecommons.org/ns#" xmlns:dc="http://purl.org/dc/elements/1.1/" xmlns:inkscape="http://www.inkscape.org/namespaces/inkscape" xmlns:rdf="http://www.w3.org/1999/02/22-rdf-syntax-ns#" xmlns:sodipodi="http://sodipodi.sourceforge.net/DTD/sodipodi-0.dtd" xmlns:svg="http://www.w3.org/2000/svg"
	 xmlns="http://www.w3.org/2000/svg" xmlns:xlink="http://www.w3.org/1999/xlink" x="0px" y="0px" viewBox="0 0 50 50"
	 style="enable-background:new 0 0 50 50;" xml:space="preserve">
<style type="text/css">
	.st0{fill:url(#rect8640_00000002359216181296478540000010119647236488704175_);}
	.st1{fill-rule:evenodd;clip-rule:evenodd;fill:#FFFFFF;}
	.st2{fill-rule:evenodd;clip-rule:evenodd;fill:#F0B800;}
</style>
<sodipodi:namedview  bordercolor="#666666" borderopacity="1" fit-margin-bottom="0" fit-margin-left="0" fit-margin-right="0" fit-margin-top="0" gridtolerance="10" guidetolerance="10" id="namedview273" inkscape:current-layer="圖層_1" inkscape:cx="152.99067" inkscape:cy="126.6187" inkscape:pageopacity="0" inkscape:pageshadow="2" inkscape:window-height="1017" inkscape:window-maximized="1" inkscape:window-width="1920" inkscape:window-x="-8" inkscape:window-y="-8" inkscape:zoom="1.5931708" objecttolerance="10" pagecolor="#ffffff" showgrid="false">
	</sodipodi:namedview>
<linearGradient id="rect8640_00000098900558910653016720000007058538748091171238_" gradientUnits="userSpaceOnUse" x1="2390.1472" y1="-1394.9458" x2="2491.0068" y2="-1527.6522" gradientTransform="matrix(0.2395 0 0 -0.3258 -557.4127 -447.4283)">
	<stop  offset="0.243" style="stop-color:#1B5634"/>
	<stop  offset="0.8924" style="stop-color:#2156A6"/>
</linearGradient>
<path id="rect8640" inkscape:connector-curvature="0" sodipodi:nodetypes="scccccccscscccccccccccccsccccssccccccccccccccccs" style="fill:url(#rect8640_00000098900558910653016720000007058538748091171238_);" d="
	M11.9,2.4c-0.4,0-0.8,0-1.2,0c-0.6,0-1.2,0.2-1.8,0.2C8,2.8,7.1,3.1,6.2,3.4c-1,0.4-2,0.9-2.9,1.6C2.5,5.8,1.7,6.7,1.2,7.8
	c-0.4,0.9-0.8,1.8-1,2.8C0.1,11,0.1,11.4,0,11.9c0,0.4,0,0.9,0,1.4s0,0.9,0,1.2c0.1,0.8,0.2,1.5,0.4,2.3c0.2,1,0.5,1.9,0.8,2.9
	c0.2,0.7,0.5,1.4,0.8,2c0.8,1.8,1.8,3.6,2.7,5.1c0.8,1.3,1.8,2.5,2.7,3.7c0.5,0.6,1,1.3,1.6,1.9c0.8,0.9,1.6,1.8,2.5,2.6
	c1,0.9,2,1.9,3.1,2.8c1.6,1.3,3.3,2.6,5.1,3.7c1,0.7,2.1,1.3,3.2,1.9c0.7,0.4,1.5,0.8,2.2,1.1c2.1,0.9,4.2,1.8,6.4,2.4
	c1.2,0.3,2.3,0.5,3.5,0.7c0.6,0.1,1.1,0.1,1.7,0.2c0.4,0,0.9,0,1.4,0c0.5,0,1,0,1.5,0c1-0.1,2.1-0.3,3.1-0.5c1.4-0.4,2.7-1,3.9-2
	c0.5-0.4,0.9-0.9,1.3-1.4c1.1-1.4,1.7-3.1,2-4.8c0.1-0.7,0.2-1.4,0.1-2c0-0.2,0-0.5,0-0.7c-0.1-1.8-0.6-3.9-1.3-5.8
	c-0.2-0.7-0.7-1.6-0.9-2.3c-0.6-1.1-1.1-2.2-1.8-3.4c-0.6-0.9-1.1-1.8-1.8-2.7c-0.7-1-1.4-2-2.2-2.9c-0.6-0.7-1.2-1.4-1.8-2.1
	c-0.7-0.7-1.3-1.4-2-2c-1-1-2.1-1.9-3.2-2.7c-1.4-1.2-2.9-2.2-4.5-3.2c-1.1-0.7-2.3-1.4-3.4-2c-1.1-0.6-2.2-1.2-3.4-1.7
	c-1.2-0.5-2.5-1-3.8-1.5c-1.2-0.4-2.5-0.7-3.7-1c-0.7-0.1-1.3-0.2-2-0.3c-0.4,0-0.8-0.1-1.1-0.1C12.7,2.4,12.3,2.4,11.9,2.4z"/>
<g id="g3" transform="matrix(0.99998154,0,0,0.99998154,-289.55671,-40.576725)">
	<g id="g5">
		<path id="path23" class="st1" d="M302,60.4c-0.2,0-0.2,0.1-0.2,0.2c0,0,0.1,0.1,0,0.1c-0.1,0-0.1,0-0.1,0
			c-0.1-0.2-0.2-0.1-0.4-0.1c-0.2,0-0.5,0-0.7-0.1c-0.1-0.1-0.4-0.1-0.5,0.1c-0.1,0.1-0.2,0.1-0.2-0.1c0-0.1-0.1-0.1-0.1-0.1
			c-0.1,0.1-0.3,0.2-0.5,0.2c0.1,0.1,0.2,0,0.2,0.2c-0.1,0.2-0.2,0.3-0.4,0.2c0-0.1,0.1,0,0.2-0.1c0-0.2,0-0.4-0.2-0.4
			c-0.1,0-0.3,0.1-0.3,0.2c0,0.1,0,0.1-0.1,0.1c0,0,0,0,0,0c0,0,0,0,0,0c0,0.1-0.1,0.1,0,0.2c0,0-0.1,0.1-0.1,0.1
			c-0.1,0-0.2,0-0.3,0c0-0.1,0.1-0.1,0.1-0.1c0.1,0,0.1,0,0.1-0.1c0-0.1,0.1-0.1,0.2-0.1c0,0,0,0,0,0c0-0.1-0.1-0.2-0.3-0.2
			c-0.2,0-0.3,0.1-0.5,0c-0.1,0-0.1,0.1-0.1,0.1c0,0.2-0.1,0.2-0.2,0.1c-0.1-0.1-0.3-0.1-0.4,0.1c0,0-0.1,0.1-0.2,0.1
			c0-0.1,0-0.2-0.1-0.2c0,0,0,0,0,0c0,0.1-0.1,0.2-0.1,0.3c-0.1,0.2-0.2,0.2-0.5,0c0,0-0.1-0.1-0.1-0.1c0,0,0,0.1,0,0.1
			c0,0,0.1,0.1,0,0.1c-0.1,0.1-0.1,0-0.2,0c-0.1-0.1-0.3-0.1-0.5,0c0.1,0,0,0.1,0.1,0.1c0,0.1,0,0.2,0,0.2c-0.1,0.1-0.1,0-0.2-0.1
			c-0.1-0.1-0.1-0.1-0.2-0.2c-0.1,0.1,0.1,0.4-0.2,0.2c0,0-0.1,0-0.1,0c0,0.2-0.1,0.1-0.2,0.1c-0.3,0-0.4,0.1-0.5,0.3
			c0.1,0,0.1,0,0.2,0.1c-0.1,0.1-0.2,0.1-0.2,0.1c-0.1-0.1-0.2,0-0.2,0.1c0,0.1-0.1,0.2-0.2,0.1c-0.1,0-0.1,0-0.1,0.1
			c-0.1,0.3-0.3,0.4-0.6,0.4c-0.4,0.1-0.4,0.1-0.3,0.3c-0.1,0-0.2,0-0.3-0.1c-0.1-0.1-0.2-0.1-0.2,0c0.1,0.2,0.2,0.4,0.3,0.6
			c0.1,0,0.1-0.2,0.2-0.2c0,0.2,0,0.2-0.2,0.3c0.2,0.4,0.5,0.9,0.7,1.3c0.2-0.3,0.5-0.5,0.8-0.7c0.3-0.2,0.3-0.5,0.7-0.6
			c0,0,0.1-0.1,0.1-0.1c0.1-0.2,0.2-0.5,0.5-0.4c0,0,0.1,0,0.1,0c0.4-0.2,0.6-0.5,1.1-0.6c0.2,0,0.3-0.2,0.4-0.3
			c0.3-0.1,0.6-0.3,0.9-0.3c0.4-0.1,0.7-0.4,1.1-0.2c0,0,0.1,0,0.1,0c0.2-0.1,0.4-0.2,0.6-0.1c0.1,0,0.1,0,0.2-0.1
			c0.1-0.1,0.3-0.2,0.4-0.1c0.1,0.1,0.3,0.1,0.4,0.1c0.4,0,0.7,0,1.1,0c0.3,0,0.5,0,0.8,0c0.1,0,0.1,0,0.2,0c0.2,0.1,0.4,0.1,0.6,0
			c0.3-0.1,0.5,0,0.6,0.2c0.1,0.1,0.1,0.1,0.2,0.1c0.1-0.1,0.3-0.1,0.4,0c0.1,0,0.1,0.2,0.2,0.1c0.2,0.2,0.5,0.2,0.7,0.3
			c0.2,0.1,0.4,0.4,0.7,0.4c0,0,0,0,0,0c0.1,0.3,0.3,0.3,0.5,0.2c0,0,0.1,0,0.1,0c0.2,0.2,0.5,0.3,0.7,0.5c0.2,0.1,0.5,0.2,0.6,0.5
			c0.1,0.2,0.3,0.3,0.5,0.4c0.1,0.1,0.1,0.2,0.2,0.2c0.1,0,0.1,0,0.2,0.1c0.1,0.1,0.2,0.2,0.3,0.2c0.2,0,0.2,0,0.2,0.2
			c0,0.1,0.1,0.1,0.1,0.1c0-0.1-0.1-0.2,0.1-0.1c0.1,0,0.2,0.1,0.1,0.3c-0.1,0.1-0.1,0.2,0,0.2c0.3,0.2,0.5,0.4,0.6,0.7
			c0.1,0.1,0.1,0.4,0.4,0.4c0.1,0,0.3,0.1,0.3,0.2c0.1,0.3,0.3,0.4,0.5,0.5c0.1,0.1,0.2,0.1,0.1,0.3c0,0-0.1,0.2,0,0.2
			c0.2,0.1,0.3,0.3,0.4,0.4c0.1,0.1,0.1,0.1,0,0.2c0,0,0,0.1,0,0.1c0,0,0,0,0.1,0c0.1,0,0.2,0.1,0.2,0.2c0,0.1,0,0.1-0.1,0
			c0,0-0.1-0.1-0.1,0c0,0,0,0.1,0,0.1c0.1,0,0.1,0.1,0.2,0.1c0.2,0,0.2,0.1,0.1,0.3c0,0.1-0.1,0.3,0,0.3c0.2,0.1,0.1,0.5,0.3,0.5
			c0,0,0,0.1,0,0.1c0,0.2,0,0.3,0.1,0.5c0.2-0.2,0.2-0.2,0.3,0.1c0,0,0,0.1,0,0.1c0,0,0.1,0.1,0,0.1c-0.1,0.1-0.1,0-0.1,0
			c0,0-0.1,0-0.1,0c0.1,0.2,0.1,0.5,0.2,0.8c0-0.1,0.2,0,0.2-0.1c0-0.1,0.1-0.1,0.1-0.1c0.1,0,0.1,0.1,0.1,0.1c0,0.2-0.1,0.4,0,0.6
			c0,0,0,0-0.1,0.1c-0.1,0.2,0.1,0.3,0,0.5c0,0,0,0,0.1,0c0.1,0,0.1,0.1,0.1,0.1c0,0-0.1,0.1,0,0.1c0.3,0.1,0.2,0.3,0.1,0.5
			c0,0,0,0.1,0.1,0.1c0,0,0.1-0.1,0.1-0.1c0,0,0.1-0.1,0.1,0c0,0,0,0.1,0,0.1c0,0.1-0.2,0.2-0.1,0.3c0.1,0.2,0.1,0.4,0.2,0.6
			c0,0.1,0.1,0.3,0.2,0.3c0-0.1,0-0.2-0.1-0.3c0,0,0-0.1,0-0.1c0-0.1,0.1,0,0.1,0c0.1,0.1,0.2,0.2,0.1,0.3c0,0,0,0.1,0,0.1
			c0.2,0.1,0.1,0.2,0.1,0.3c-0.1,0.2-0.1,0.3,0.1,0.5c0.1,0.1,0.1,0.1,0.1,0.2c0,0.3,0.2,0.5,0.4,0.7c0.1,0.1,0.1,0.3,0.3,0.2
			c0,0,0.1,0,0.1,0.1c0,0.1,0.1,0.2,0.2,0.3c0.1,0.2,0.2,0.3,0.2,0.5c-0.1,0.4,0.1,0.6,0.3,0.8c0.1,0.1,0.2,0.2,0.3,0.3
			c0,0.1,0,0.1,0.1,0.1c0.1,0,0.1-0.1,0.1-0.1c0-0.1-0.1-0.1-0.1-0.1c-0.1,0-0.1-0.1,0-0.1c0.1,0,0-0.2,0.1-0.2
			c0.1,0,0.1,0.1,0.1,0.1c0,0.1,0.1,0.2,0.1,0.3c0.1,0.1,0.1,0.2,0.1,0.3c0,0.1,0,0.1,0,0.2c0,0.2,0.3,0.3,0.4,0.4
			c0.2,0.2,0.4,0.3,0.6,0.5c0.1,0.1,0.1,0.3,0.3,0.3c0,0,0,0,0,0.1c0.2,0.2,0.2,0.5,0.6,0.4c0,0,0,0,0,0c0.1,0.3,0.4,0.5,0.7,0.7
			c0.3,0.2,0.5,0.3,0.8,0.5c0.1,0,0.1,0.1,0.2,0.1c0.2,0,0.3,0.1,0.4,0.1c0.4,0.2,0.8,0.4,1.2,0.6c0.1,0.1,0.3,0.1,0.4,0.2
			c0.1,0.1,0.2,0.1,0.3,0c0.1-0.1,0.2-0.1,0.2,0c0.1,0,0.1,0.1,0,0.2c0,0.1,0,0.1,0.1,0.1c0.1,0,0.2,0.1,0.4,0
			c0.2-0.1,0.4,0.1,0.7,0c0,0,0.1,0,0.1,0c0.1,0.3,0.3,0.2,0.4,0.1c0.2-0.1,0.2,0,0.4,0c0.2,0,0.1,0.2,0.1,0.3c0,0.1,0,0.2,0.1,0.1
			c0.1,0,0.2-0.1,0.3-0.1c0.1-0.1,0-0.1,0-0.2c0.2,0,0.3,0,0.2,0.1c0,0.1-0.1,0.1,0,0.2c0.1,0.1,0.2,0.1,0.2,0c0,0,0.1-0.1,0.1,0
			c0.3,0.1,0.5,0,0.8-0.1c0,0.2,0,0.4,0.2,0.2c0,0,0,0,0.1,0c0.2,0.2,0.4,0.1,0.6-0.1c0.1,0,0.1,0,0.1,0.1c-0.1,0.2,0,0.1,0.1,0.1
			c0,0,0.1-0.1,0.1,0c0.3,0.2,0.5-0.1,0.8,0c0,0,0,0,0,0c0.1-0.2,0.2-0.1,0.3-0.1c0.1,0.1,0.1,0,0.2,0c0-0.1,0.2-0.1,0.1-0.2
			c-0.1-0.2,0-0.2,0.1-0.2c0.1,0,0.1,0,0.2-0.1c0.1,0,0.4-0.2,0.4,0c0.1,0.4,0.2,0.2,0.3,0.1c0,0,0,0,0,0c0.2,0,0.4-0.2,0.6-0.2
			c0.1,0,0.2,0,0.2-0.2c0-0.1,0.1-0.1,0.2-0.2c0.2-0.1,0.2-0.1,0.2-0.3c0-0.1,0-0.1,0.1-0.1c0,0,0.1-0.1,0.1,0c0,0,0,0.1,0,0.1
			c-0.1,0.1-0.1,0.1,0,0.2c0.1,0,0.2,0.1,0.3,0c0,0,0-0.1,0.1-0.1c0.1,0,0.2,0,0.2-0.2c0,0,0.1-0.1,0.1-0.1c0.3-0.1,0.4-0.4,0.6-0.6
			c0.1,0,0.2,0.2,0.2,0c0-0.2,0.2-0.2,0.3-0.3c0.1-0.1,0.3-0.1,0.3-0.3c0,0,0.1-0.1,0.1-0.1c0.2,0.1,0.3-0.1,0.4-0.1
			c0.1-0.1,0.1-0.3,0.3-0.3c-0.1-0.2,0.1-0.3,0.2-0.4c0.3-0.3,0.5-0.6,0.6-0.9c0-0.1,0.1-0.2,0.1-0.2c0.2,0,0.2-0.2,0.3-0.3
			c0.1-0.1,0.2-0.2,0.2-0.3c0.1-0.2,0.3-0.2,0.2-0.5c0,0,0-0.1,0.1-0.1c0.1,0,0.3-0.1,0.1-0.2c0,0,0,0,0,0c0.3,0,0.1-0.4,0.4-0.4
			c0,0,0,0,0-0.1c-0.1-0.1,0-0.3-0.1-0.4c0.2,0,0.4-0.2,0.4-0.4c0,0,0-0.1,0-0.1c0.2-0.1,0.1-0.4,0.2-0.5c0,0,0-0.1-0.1-0.1
			c-0.1,0-0.1,0-0.2-0.1c0.1,0,0.2-0.1,0.1-0.2c0,0,0.1-0.1,0-0.2c0,0,0-0.1,0.1-0.1c0,0,0.1,0,0.1,0c0,0,0,0.1,0,0.1
			c-0.1,0.1,0,0.2,0,0.3c0,0,0.1,0,0.1,0c0-0.2,0.1-0.3,0.1-0.5c0-0.2,0-0.4,0-0.6c0-0.2-0.1-0.4-0.3-0.5c0.3,0,0.2-0.1,0.3-0.3
			c0.1-0.2,0-0.6-0.1-0.7c-0.1-0.1-0.2-0.2,0-0.3c0,0.1,0.1,0.3,0.2,0.1c0.1-0.1,0.2-0.2,0.1-0.4c-0.1-0.1,0-0.1,0-0.2
			c0,0,0-0.1-0.1-0.1c-0.1-0.5-0.3-1-0.4-1.4c-0.2-0.6-0.6-1.5-0.9-2.1c-0.1,0-0.1-0.1-0.1-0.1c0,0,0,0,0-0.1c0-0.1-0.1-0.1-0.1-0.2
			c0,0,0-0.1-0.1-0.1c-0.2,0-0.3-0.1-0.2-0.3c-0.1-0.1-0.1-0.3-0.2-0.4c-0.2,0-0.3-0.1-0.4-0.2c-0.1,0-0.1-0.1-0.2-0.1
			c0,0-0.1,0,0-0.1c0.1-0.1,0.2-0.2,0.3-0.1c0.1,0,0.1,0.1,0.2,0.1c0-0.1-0.1-0.2-0.1-0.2c-0.1,0-0.2-0.2-0.3,0
			c-0.1,0.1-0.2,0.1-0.3,0.1c-0.2-0.1-0.2-0.3-0.4-0.4c0.1,0,0.2-0.1,0.2-0.1c0.1,0,0.2,0,0.2,0.1c0,0.1,0,0.1,0.1,0.1
			c0.1,0,0.1-0.1,0.1-0.2c0-0.2-0.3-0.3-0.5-0.2c-0.1,0-0.2,0-0.1,0c0.1-0.2,0-0.2-0.1-0.3c-0.1,0-0.1-0.1-0.1-0.2
			c0-0.1,0-0.1,0-0.2c-0.1,0,0,0.1-0.1,0.1c-0.2-0.1-0.2,0.1-0.2,0.2c0,0,0,0.1,0,0.1c-0.2,0-0.3,0-0.5-0.1c-0.1,0,0-0.2-0.1-0.3
			c-0.1,0.1-0.2,0.1-0.2,0.1c-0.1-0.1-0.3-0.2-0.2-0.5c0.1,0.2,0.2,0.2,0.4,0.2c0.2,0.1,0.2-0.2,0.4-0.2c-0.1-0.1-0.2-0.1-0.2,0
			c-0.1,0.1-0.3,0.1-0.3,0c-0.1-0.2-0.2-0.2-0.4-0.2c-0.1,0-0.2,0-0.2,0c-0.1-0.2-0.2-0.1-0.3-0.1c-0.1,0-0.4-0.1-0.4-0.1
			c0.1-0.1-0.1-0.2,0-0.4c-0.1,0,0,0.1-0.1,0.1c-0.1-0.1,0-0.2,0.1-0.3c-0.4-0.2-0.1,0.3-0.3,0.3c0,0,0,0.1,0,0.1c0,0,0,0,0,0
			c0.1,0,0,0.1,0,0.1c-0.1,0.1-0.1,0.2,0,0.2c0.1,0.1,0,0.2-0.1,0.2c-0.1,0-0.3,0-0.2-0.2c0-0.1,0-0.1-0.1-0.2c0,0,0.1,0,0.1,0
			c0,0,0.1,0,0.1,0c0-0.1,0-0.1-0.1-0.1c-0.1-0.2-0.3-0.1-0.5-0.1c0,0-0.1,0.1-0.1,0c0-0.2-0.1-0.1-0.2-0.1c-0.1,0-0.2,0.1-0.3,0
			c0.1-0.1-0.1-0.1-0.1-0.2c0.1-0.1,0.1,0,0.2-0.1c0.1-0.1,0.1-0.2,0.3-0.1c0,0,0.1-0.1,0.1-0.1c0,0,0-0.1,0-0.1
			c-0.1-0.1-0.1,0-0.1,0.1c-0.1,0-0.1,0-0.2,0.1c0.1-0.2,0.1-0.3,0.2-0.4c-0.2,0-0.3-0.1-0.3,0.2c0,0.1-0.1,0.1-0.1,0.2
			c0,0-0.1,0-0.1-0.1c0.1-0.1,0-0.3,0.1-0.4c0,0,0-0.1,0-0.1c0,0-0.1,0-0.1,0c-0.1,0.1-0.2,0.2-0.3,0.3c-0.2-0.1,0-0.4-0.1-0.5
			c0.1-0.1,0.2,0,0.2-0.1c0-0.1-0.1-0.1-0.1-0.2c-0.1-0.2-0.3-0.3-0.5-0.3c-0.1,0-0.1-0.1-0.2-0.1c0,0-0.2-0.1-0.1,0.1
			c0,0.1,0,0.1-0.1,0c-0.2-0.1-0.2-0.3-0.4-0.3c0,0.2,0,0.4-0.2,0.2c0,0,0,0-0.1,0c-0.2,0.1-0.3,0-0.3-0.1c-0.1-0.1-0.2-0.1-0.2-0.1
			c-0.1,0-0.1,0.1-0.1,0.1c0,0.1,0,0.1-0.1,0.1c-0.1,0-0.1,0-0.1,0c0-0.2-0.2-0.2-0.3-0.3c-0.2-0.2-0.5-0.1-0.7,0.1c0,0,0.1,0,0.1,0
			c0.1,0,0.1,0.1,0.2,0.2c0,0.1,0,0.1-0.1,0.1c-0.1,0.1-0.1-0.1-0.2-0.1c0,0-0.1,0-0.1,0c-0.2,0-0.3,0-0.5-0.1
			c-0.1,0-0.4,0.1-0.4,0.1c0,0.1-0.1,0.2-0.1,0.4c-0.1-0.2-0.3-0.3-0.5-0.4c0,0.1,0,0.2-0.1,0.2c0,0-0.1,0.1-0.1,0
			c0-0.2-0.1,0-0.2,0c-0.1,0-0.2-0.1-0.3,0.1c0,0.1-0.2,0.2-0.1,0.3c0.1,0.2,0,0.2-0.1,0.2c-0.1,0-0.2-0.1-0.2-0.1
			c-0.1,0.1,0.1,0.2,0,0.3c-0.1,0.1-0.2,0.3-0.4,0.2c-0.1,0-0.1,0-0.1,0.1c0,0.1,0,0.1,0,0.1c0.1,0.1,0.2,0.1,0.2,0.2
			c-0.1,0-0.2,0-0.3,0c-0.1,0.1-0.2,0.1-0.2-0.1c0-0.1-0.1-0.1-0.1,0c-0.1,0,0,0.1,0,0.1c0,0.1,0,0.1-0.1,0.1c-0.1,0-0.3,0-0.3,0.2
			c0,0.1-0.2,0-0.2,0.1c0,0.1,0.1-0.1,0.2,0c-0.1,0.2-0.3,0.2-0.5,0.3c0,0-0.1,0-0.1,0.1c0.1,0.1,0,0.2-0.1,0.2
			c-0.1,0-0.1,0.1-0.1,0.2c0.1,0.2,0.2,0.3,0.4,0.3c0,0,0,0,0,0c0,0.1-0.2,0-0.2,0.1c0,0.1,0.2,0.1,0.1,0.2
			c-0.3-0.2-0.3,0.2-0.5,0.2c0-0.1,0-0.2-0.1-0.3c0.2,0,0.3,0,0.3-0.1c-0.2-0.1-0.3,0.1-0.5,0.2c-0.1,0,0.1,0.1,0.1,0.2
			c0,0.1,0,0.1-0.1,0.1c-0.1,0.1-0.2,0.2-0.1,0.3c0.1,0.1,0,0.1,0,0.2c-0.1,0.1-0.2,0.2,0,0.3c0.1,0,0.1,0.1,0,0.2
			c-0.1,0.1-0.1,0.1-0.2,0.1c-0.2,0-0.2,0.1-0.2,0.2c0,0.1,0.1,0.2,0,0.3c-0.2,0.2,0,0.3,0.1,0.3c0.1,0,0.1,0.1,0.1,0.2
			c0,0.1-0.1,0.3-0.1,0.4c0.1,0.2,0,0.2-0.1,0.3c-0.1,0.1-0.2,0.3-0.3,0.4c-0.1,0.2-0.1,0.3-0.2,0.5c-0.1,0.1-0.1,0.2,0,0.2
			c0.1,0,0.1,0.1,0,0.2c0,0.1-0.2,0.1-0.1,0.2c0.1,0.1,0.3,0.2,0.1,0.3c0,0,0,0.1,0,0.1c0.1,0.1,0.1,0.2,0,0.3c0,0.1-0.1,0.2,0,0.3
			c0.1,0.1,0.1,0,0.2-0.1c0,0,0,0.2,0.1,0.2c0.1,0,0.1,0.1,0,0.1c-0.1,0.1-0.1,0.2-0.1,0.4c0,0.2,0.2,0.3,0.3,0.3
			c0.1,0,0.2,0,0.2,0.1c0,0.1-0.1,0.1-0.2,0.1c0,0.1,0.1,0.1,0.2,0.1c0.1,0,0.3,0.1,0.1,0.3c-0.1,0.1,0,0.1,0.1,0.1
			c0.2,0.1,0.2,0.1,0,0.3c0,0,0,0.1,0,0.1c0.1,0.1,0.1,0.2,0.2,0.3c0.1,0,0.1,0.1,0.1,0.1c0,0.1,0,0.2,0.2,0.3c0,0,0.1,0.1,0.1,0.1
			c-0.1,0.2,0,0.2,0.1,0.3c0,0,0,0,0-0.1c0-0.1,0-0.2,0.1-0.1c0.1,0,0,0.1,0,0.1c0,0.1,0,0.1,0.1,0.2c0.1,0.1,0.1,0,0.1-0.1
			c0,0,0.1-0.1,0.1,0c0,0,0,0.1,0,0.1c0,0.1,0,0.2,0.1,0.3c0.1,0.1,0.3,0.1,0.3,0.3c0.1,0.2,0.3,0.3,0.5,0.3c0.1,0.1,0.3,0,0.4,0.1
			c0.1,0.1,0.2,0.1,0.3,0c0,0.2,0,0.3,0.2,0.4c0.3,0.2,0.5,0.3,0.8,0.4c0.3,0.1,0.6,0,0.9,0.1c0,0,0.1,0,0.1,0
			c0.1-0.1,0.4,0,0.5,0.1c0-0.1,0.1-0.2,0.2-0.2c0.2,0.1,0.3,0.2,0.5,0.2c0,0,0,0.1,0,0.1c0,0.1-0.1,0.2,0.1,0.2
			c0.1,0,0.2,0,0.3-0.1c0.1-0.1,0.3-0.2,0.1-0.4c0,0,0,0,0-0.1c0.1-0.1,0.1-0.2,0.2-0.3c0,0,0.1-0.1,0.1,0c0.1,0.1,0.4-0.1,0.4-0.1
			c0.1-0.2,0.4-0.3,0.5-0.5c0.1-0.1,0.1-0.2,0.1-0.2c0,0-0.1-0.1,0-0.1c0,0,0.1,0,0.1,0c0.1,0.1,0.3,0,0.3-0.1
			c0-0.3,0.1-0.5,0.3-0.8c0,0,0-0.1,0-0.1c-0.2-0.2,0.2-0.1,0.1-0.3c0,0,0,0,0.1,0c0.1,0.1,0.1-0.1,0.1-0.1c-0.1-0.2,0-0.3,0.2-0.3
			c-0.1-0.1-0.2,0-0.3-0.1c0-0.1,0-0.2,0-0.3c0-0.1-0.2,0.1-0.2,0c0,0,0,0,0-0.1c0-0.1,0.2,0,0.2-0.1c0-0.3,0-0.7-0.2-1
			c0,0-0.1-0.1-0.1-0.1c0-0.2-0.1-0.4-0.1-0.7c0-0.1-0.1-0.2-0.1-0.2c-0.1,0-0.1,0.1-0.1,0.2c0,0.1,0,0.2,0,0.4c0,0,0,0.1-0.1,0.1
			c-0.1,0-0.1-0.1-0.1-0.1c0-0.1-0.1-0.2-0.2-0.2c0-0.1,0.1-0.1,0.1-0.1c0.1,0,0.1,0,0.1-0.1c0-0.1-0.1,0-0.1,0
			c-0.1,0-0.2-0.1-0.2-0.2c0-0.1,0.1-0.1,0.1-0.1c0.1,0,0.1,0,0.1-0.1c0,0-0.1-0.2-0.2-0.1c0,0-0.1,0-0.1,0c0.1-0.2-0.2-0.3-0.1-0.5
			c0.1-0.1,0-0.2-0.1-0.3c-0.1-0.1-0.1,0-0.2,0c-0.2,0-0.3,0.2-0.5,0.2c-0.1,0.1-0.3,0.1-0.4,0.2c0,0.1-0.1,0-0.2,0
			c-0.2-0.1-0.4,0-0.6,0.1c-0.1,0-0.1,0.2-0.2,0.3c-0.1,0.1-0.1,0.2,0,0.3c0,0,0,0.1,0,0.2c-0.2,0.2,0,0.2,0.1,0.2
			c-0.1,0.2-0.2,0.3-0.1,0.5c0,0.1,0,0.2,0,0.3c-0.1,0.3-0.3,0.5-0.2,0.8c0,0.1-0.1,0.3-0.1,0.4c-0.1,0.2-0.4,0.3-0.7,0.2
			c-0.5-0.2-1.1-0.4-1.5-0.9c-0.1-0.1-0.2-0.2-0.3-0.3c-0.1-0.2-0.3-0.3-0.4-0.5c0,0,0,0-0.1,0c-0.1,0-0.1-0.1-0.1-0.2
			c0-0.1,0-0.1,0-0.2c-0.1-0.2-0.2-0.5-0.3-0.7c-0.1-0.3-0.1-0.6-0.1-0.9c0-0.2-0.1-0.4,0-0.6c0-0.1,0-0.2,0-0.3
			c-0.1-0.1-0.1-0.2,0-0.3c-0.2-0.1-0.2-0.1-0.1-0.3c0.2-0.2,0.4-0.3,0.3-0.6c0,0,0,0,0-0.1c0.3-0.3,0.2-0.7,0.4-1
			c0.1-0.1,0.1-0.3,0.2-0.4c0.2-0.2,0.3-0.4,0.5-0.5c0.2-0.1,0.2-0.2,0.4-0.3c0.2-0.1,0.4,0,0.5-0.1c0.1-0.1,0.3-0.2,0.5,0
			c0,0,0.1,0,0.1,0c0.1-0.1,0.2-0.1,0.3,0c0.1,0,0.1,0.1,0.2,0c0.1-0.1,0.3-0.1,0.4-0.1c0.1,0,0.2,0,0.2-0.1c0,0,0.1-0.1,0.1,0
			c0,0.2,0.2,0.2,0.3,0.2c0,0,0,0,0,0.1c0,0,0,0.1,0,0.1c0.2,0.1,0.3,0.2,0.3,0.4c0,0.1,0.1,0,0.1,0c0.1,0,0.1-0.1,0.1-0.1
			c-0.1-0.2,0-0.3,0.1-0.4c0,0,0-0.1,0.1-0.1c0.1,0,0.1,0.1,0.1,0.1c0,0.1,0,0.1,0.1,0.1c0.1,0,0.2,0.1,0.2,0c0.1-0.1,0-0.1-0.1-0.1
			c-0.1,0-0.1,0-0.1-0.1c0-0.1,0.1-0.1,0.2,0c0.1,0.1,0.1,0.2,0.2,0.3c0.1,0,0.2,0,0.3,0c0,0,0.1,0,0.1,0c0,0,0-0.1,0-0.1
			c0,0-0.1-0.1-0.1,0c0,0-0.1,0.1-0.1,0c0,0,0-0.1,0-0.1c0.1,0,0.2-0.1,0.3,0c0.1,0.1,0.3,0.2,0.5,0.3c0.1,0,0.1,0,0.2,0
			c0.2-0.1,0.2,0,0.3,0.1c0.1,0,0.1,0.2,0.1,0.1c0.1-0.1,0.2-0.2,0-0.3c-0.1,0-0.1-0.1-0.2-0.1c-0.1,0,0-0.2-0.1-0.3
			c0-0.1,0.1-0.1,0.1-0.1c0.1,0,0.2,0.1,0.2,0.1c0.1,0.1,0.2,0.2,0.4,0.3c0-0.1,0-0.2,0-0.2c-0.2,0-0.2-0.2-0.2-0.3
			c0-0.2-0.4-0.2-0.3-0.5c0,0-0.1-0.1,0-0.1c0,0,0.1,0,0.1,0c0.2,0.2,0.4,0.3,0.6,0.4c0,0,0.1,0.1,0.1,0c0.2-0.1,0.4,0.1,0.3,0.3
			c-0.1,0.2,0,0.1,0.1,0.1c0.1,0,0.3,0,0.4,0c0.1,0,0.3,0.1,0.4,0.1c0-0.1,0-0.1,0-0.2c0.1,0.1,0.1,0.1,0.3,0c0.1,0,0.1,0.1,0.2,0.1
			c0.1,0,0,0.1,0,0.1c0,0,0,0.1,0,0.1c0,0,0.1,0,0,0.1c0,0-0.1,0-0.1,0c0,0-0.1-0.1-0.1,0c0,0.1,0,0.1,0.1,0.1
			c0.1,0,0.1,0.1,0.1,0.1c0,0.1-0.1,0-0.2,0c-0.1,0-0.1-0.1-0.2-0.1c-0.1-0.1-0.1-0.2-0.2-0.1c-0.1,0.1,0.1,0.2,0,0.2
			c0,0-0.1,0-0.1,0c-0.1,0-0.2,0-0.2,0.1c0,0.1,0.1,0.1,0.2,0.1c0.1,0,0.2,0,0.3,0c0.1,0,0.3,0.3,0.2,0.3c-0.2,0.1-0.1,0.1,0,0.2
			c0.1,0,0.2,0,0.2-0.1c0,0,0-0.1,0.1-0.1c0.1,0,0,0.1,0,0.2c0,0,0,0.1,0,0.1c0.1,0,0.1,0,0.1,0c0.1,0,0.2,0,0.2,0.1
			c0.1,0.1,0,0.1-0.1,0.2c-0.1,0-0.1,0.1,0,0.2c0,0,0.1,0.1,0.1,0.1c0.1,0,0.1-0.1,0.1-0.2c0-0.1,0-0.1,0.1-0.1c0.1,0,0.1,0,0.2,0
			c0,0.1,0,0.1-0.1,0.1c-0.2,0.1,0,0.2,0,0.4c0,0.1,0.1,0.1,0.2,0.1c0.1,0,0.2,0.1,0.2,0.2c0.1,0,0.2,0,0.2,0.1
			c0,0.1-0.1,0.1-0.2,0.1c-0.1,0-0.1,0.1-0.1,0.1c0,0.1,0.1,0.1,0.1,0.1c0.1-0.1,0.1,0,0.2,0.1c0.1,0.1,0,0.1-0.1,0.1
			c-0.1,0,0,0,0,0.1c0.1,0.1,0.3,0.3,0.4,0.2c0.1-0.1,0.1-0.2,0-0.4c0,0,0,0,0-0.1c0.1,0,0.3,0,0.4,0c0.1,0,0.1,0,0.1-0.1
			c0-0.2,0.2-0.1,0.3-0.1c0.1,0,0.3,0,0.3,0.2c-0.1,0-0.2,0-0.2,0c0,0-0.1-0.1-0.1,0c0,0.1,0,0.1,0.1,0.1c0.1,0.1,0.3,0.1,0.4,0.1
			c0.1,0,0.1,0.1,0,0.1c-0.1,0-0.2,0.2-0.3,0.2c-0.1,0.2,0.2,0.4-0.1,0.6c0,0,0.1,0,0.1,0c0.1,0,0.1,0.1,0.1,0.1c0,0.1-0.1,0-0.1,0
			c-0.2,0-0.3-0.1-0.4-0.1c-0.1,0-0.1,0-0.2,0.1c0,0.1,0,0.1,0.1,0.1c0.1,0.1,0.3,0.2,0.3,0.4c0,0.1,0.1,0.2,0.1,0.2
			c0.1,0.1,0,0.2,0,0.3c0,0,0,0.1-0.1,0.1c0,0-0.1,0-0.1-0.1c0-0.2-0.1-0.2-0.2-0.2c-0.1,0-0.1-0.1-0.1-0.2
			c-0.1-0.3-0.3-0.5-0.5-0.7c0,0-0.1,0-0.1,0c0,0-0.1,0.1-0.1,0.1c0.1,0.1,0.1,0.1,0,0.2c0,0,0,0.1,0,0.1c0.2,0,0.2,0.2,0.3,0.4
			c-0.2,0-0.2-0.1-0.3-0.2c-0.1,0-0.1-0.1-0.2,0c-0.1,0,0,0.1,0,0.2c0,0.2,0.3,0.2,0.2,0.4c0,0.1,0,0.2,0.1,0.2
			c0.1,0.1,0.3,0.3,0.5,0.3c0,0,0,0,0,0.1c-0.1,0.3,0,0.4,0.4,0.4c0.1,0,0.2,0,0.2,0c-0.1,0.2-0.3,0.1-0.4,0.2
			c0.1,0.1,0.1,0.2,0.1,0.3c0,0.2,0.1,0.4,0.3,0.5c0,0,0.1,0,0.1,0.1c0,0.1,0,0.1-0.1,0c0,0-0.1,0-0.1,0c0,0.2-0.1,0.4,0.1,0.5
			c0.1-0.2,0.1-0.2,0.1-0.3c0-0.1,0.1-0.1,0.1-0.2c0.1,0,0.1,0,0.1,0.1c0,0.1,0,0.1,0.1,0.2c0.1,0.1,0,0.3-0.1,0.3
			c0,0-0.1,0.1,0,0.1c0.1,0.1-0.1,0.3,0.1,0.4c0,0,0,0,0,0c-0.1,0.2-0.1,0.3,0,0.5c0.1,0,0.2,0.1,0.1,0.2c-0.1,0.1-0.2,0.3-0.4,0.1
			c-0.1-0.1-0.2,0.1-0.2,0.1c0,0.1,0,0.2,0.1,0.3c0,0.1,0.2,0.1,0.2,0c0.1,0,0.1-0.1,0.2,0c0.1,0.1,0,0.3-0.2,0.3
			c0-0.1-0.1-0.1-0.2-0.1c-0.1,0-0.1,0.1-0.1,0.1c0,0.2-0.1,0.3-0.1,0.5c-0.1,0.2-0.1,0.2,0,0.4c0,0,0,0.1,0,0.1
			c-0.2,0.1-0.2,0.4-0.3,0.5c0,0,0,0.1,0,0.1c0,0,0.1,0.1,0.1,0.1c0.1,0,0-0.1,0-0.1c0-0.1,0-0.1,0.1-0.2c0.1-0.2,0.3-0.3,0.1-0.6
			c0,0,0-0.2,0-0.2c0.2,0,0.2-0.3,0.4-0.3c0,0.1,0,0.2-0.1,0.3c-0.1,0.1-0.2,0.2-0.2,0.4c0,0.2,0,0.4-0.2,0.5
			c-0.1,0.1-0.2,0.2-0.2,0.3c0,0.3-0.2,0.4-0.3,0.7c-0.1-0.3-0.1-0.3-0.6,0c0-0.1,0-0.2,0-0.2c0.2-0.2,0.2-0.3,0-0.5
			c0,0-0.1,0-0.1,0c0,0.2,0,0.3-0.2,0.4c-0.1,0.1-0.1,0.2-0.2,0.3c0,0-0.1,0.1,0,0.1c0.1,0,0,0.1,0,0.1c-0.2,0-0.1,0.2-0.1,0.3
			c0,0,0.1,0,0.1,0c0.1-0.1,0.2-0.1,0.2,0c0.1,0.1,0,0.1,0,0.2c0,0.1,0,0.1,0,0.1c0,0,0.1,0.1,0.1,0.1c0.2-0.1,0.2,0,0.3,0.1
			c0,0,0,0,0,0c0,0,0,0,0,0h0.3c0,0.2-0.2,0.3-0.3,0.6c-0.1-0.2,0-0.4,0-0.6h0c0,0,0,0,0,0c-0.1,0-0.1,0-0.2,0
			c-0.1,0.1-0.1,0.3-0.1,0.4c0,0,0,0.1,0,0.1c0,0-0.1,0-0.1,0c-0.1-0.1-0.2,0-0.2,0c-0.1,0.2-0.3,0.2-0.4,0.3c0,0-0.1,0.1-0.1,0.1
			c0,0.1,0.1,0.1,0.2,0.1c0.1,0,0.1,0,0.1,0.1c0,0.1-0.1,0.1-0.1,0.1c-0.1,0.1-0.1-0.1-0.2-0.1c-0.1,0.1,0.2,0.2,0,0.2
			c-0.3,0.1,0,0.2,0,0.2c0.3,0.1,0.1,0.2,0,0.3c0,0-0.2,0.1-0.1,0.2c0,0.1,0.1,0,0.2,0c0.1,0,0.2,0.1,0.2,0.1
			c-0.1,0.1-0.2,0.2-0.3,0.3c-0.1,0.1-0.1,0-0.2-0.1c-0.1-0.1-0.1-0.1-0.2,0c0.1,0.1-0.1,0.2,0.1,0.2c0,0,0.1,0,0.1,0.1
			c0,0-0.1,0.1-0.1,0.1c-0.1-0.1-0.3-0.1-0.4-0.2c-0.1-0.1,0.1-0.1,0.1-0.2c0,0,0.1-0.1,0.2-0.1c0.1-0.1,0.1-0.1,0-0.2
			c-0.1-0.1-0.3,0.1-0.4,0.2c-0.1,0.1,0,0.3,0,0.4c-0.1,0.2-0.3,0.3-0.5,0.4c0,0-0.1,0.1-0.1,0.1c0,0.1,0.1,0,0.2,0
			c0,0,0.1-0.1,0.1-0.1c0.1,0,0.2-0.2,0.4-0.1c-0.1,0.1-0.1,0.1-0.2,0.2c-0.1,0.3-0.4,0.2-0.5,0.5c0,0-0.1,0-0.2,0
			c-0.1-0.1-0.1,0-0.1,0c0,0,0,0.1-0.1,0.1c-0.3,0-0.4,0.3-0.7,0.3c-0.1,0-0.2,0.1-0.3,0c-0.1-0.1,0-0.2,0-0.3c0-0.1,0.1-0.1,0.1,0
			c0,0,0.2,0,0.1,0.1c0,0-0.1,0.1,0,0.1c0.1,0,0.1-0.1,0.2-0.1c0.1,0,0.1-0.1,0.1-0.2c0-0.1-0.1-0.2-0.1-0.3c0,0,0-0.1-0.1-0.1
			c0,0-0.1,0-0.1,0.1c0,0.1,0,0.1-0.1,0.1c-0.2,0-0.3,0.1-0.4,0.1c-0.3,0.1-0.6,0.3-0.7,0.6c0,0.1-0.1,0.1-0.1,0.2
			c0,0.1,0.1,0,0.2,0c0.1,0,0.1-0.1,0.2-0.1c0.1,0,0.1-0.1,0.2,0c0,0.1-0.1,0.2-0.1,0.2c-0.2,0.1-0.4,0.2-0.7,0.2
			c-0.2,0-0.4,0.1-0.6,0c0,0-0.1,0-0.1,0c0,0-0.6,0-0.6,0c-0.1-0.1-0.2-0.1-0.2,0.1c0,0.2-0.2,0.3-0.3,0.2c-0.2-0.1-0.4-0.2-0.6-0.4
			c-0.1,0,0,0.1-0.1,0.1c-0.1,0.2-0.1,0.2-0.3,0c-0.1-0.1-0.5-0.1-0.5,0c-0.1,0.2-0.1,0.1-0.2,0c-0.1-0.1-0.1-0.1-0.2-0.1
			c-0.1,0.1-0.1,0-0.2,0c0,0-0.1-0.1-0.1-0.1c0,0,0,0.1,0,0.2c0,0.1,0.1,0.1,0.1,0.1c-0.3,0-0.4,0-0.5-0.3c0-0.1-0.1-0.1-0.1-0.1
			c-0.1,0.1-0.4,0-0.4,0.3c-0.2-0.2-0.2-0.2-0.3,0c0,0-0.1,0-0.1,0c0.1-0.1-0.1-0.2,0-0.3c0.1-0.1,0.1-0.1,0-0.2
			c-0.1-0.1-0.2-0.1-0.3,0c-0.1,0.1,0,0.1,0.1,0.2c0,0,0,0.1,0,0.2c-0.1-0.2-0.3-0.1-0.4-0.3c-0.1-0.2-0.3-0.3-0.5-0.4
			c-0.1-0.2-0.3-0.3-0.5-0.4c-0.2-0.2-0.4-0.2-0.6-0.1c-0.1,0-0.1,0-0.1-0.1c0-0.1-0.4-0.2-0.4-0.1c-0.1,0.2-0.2,0.1-0.3,0
			c-0.2-0.1-0.2-0.2-0.1-0.3c0.1-0.1,0.1-0.1,0-0.2c-0.2-0.1-0.3-0.2-0.3-0.4c0-0.1,0-0.1-0.1-0.1c-0.1,0-0.1,0-0.1,0.1
			c0,0,0,0.1-0.1,0.2c0-0.1-0.2,0-0.3-0.1c-0.2-0.2-0.4-0.3-0.6-0.5c-0.1-0.1-0.2-0.2-0.4-0.2c0.1-0.2,0-0.4-0.1-0.3
			c-0.3,0.1-0.3-0.1-0.3-0.3c0-0.1-0.1-0.3-0.3-0.3c-0.1,0-0.1-0.1-0.2-0.1c-0.2-0.1,0-0.3-0.2-0.3c-0.2-0.1-0.1-0.5-0.4-0.5
			c0,0,0-0.1,0-0.1c-0.1-0.2-0.1-0.4-0.3-0.6c0-0.1,0-0.1-0.1-0.1c-0.1,0.1-0.1-0.1-0.2-0.1c-0.1,0-0.1-0.1,0-0.2
			c0.1-0.1,0-0.2-0.1-0.2c-0.1,0-0.1,0-0.1-0.1c0,0,0.1-0.1,0-0.1c-0.1-0.2-0.1-0.5-0.3-0.7c0,0-0.1-0.1,0-0.1
			c0.1-0.2-0.2-0.3-0.2-0.2c-0.2,0.1-0.2,0-0.2-0.1c0,0,0,0,0,0c0,0,0,0,0,0c-0.1,0,0,0.1-0.1,0.2c-0.1,0,0-0.2-0.1-0.2
			c-0.1,0-0.1,0-0.1-0.1c0-0.2,0-0.1,0.1-0.1c0.1,0.1,0.3,0,0.3,0.3c0,0,0,0,0,0c0,0,0,0,0,0c0.1,0,0.2,0,0.1-0.2c0,0,0-0.1,0-0.1
			c0.2-0.2,0.1-0.5,0.1-0.8c-0.2,0.1-0.3,0.2-0.5,0c0,0-0.2,0.2-0.2-0.1c0-0.2,0.1-0.1,0.2-0.1c0.1,0,0.1-0.1,0.1-0.1
			c-0.1-0.1,0-0.2,0-0.3c0-0.2,0.1-0.4-0.1-0.5c-0.1-0.1-0.2-0.3-0.1-0.5c0,0,0-0.1,0-0.1c-0.1,0-0.1,0-0.2,0c0,0,0,0,0,0.1
			c0,0.2,0,0.4,0,0.6c0,0.1-0.1,0.2-0.1,0.3c0,0,0.1,0.1,0,0.1c-0.1,0-0.1,0-0.1-0.1c0-0.1,0-0.1,0-0.2c0-0.3,0-0.7-0.2-1
			c0,0,0,0,0,0c-0.1-0.1,0.1-0.1,0-0.2c0,0,0,0,0.1,0c0,0,0.1,0.1,0.1,0c0-0.1,0-0.1,0-0.2c0-0.2,0-0.4,0.1-0.5
			c0.2-0.1,0.1-0.2,0.1-0.4c0-0.1,0-0.2-0.1-0.1c-0.1,0-0.1,0.1-0.1,0.2c0,0.1,0,0.1-0.1,0.1c-0.1,0-0.1,0-0.2-0.1
			c0-0.1-0.1-0.1-0.1-0.1c-0.1,0-0.1,0-0.1-0.1c0-0.1,0.1-0.1,0.1-0.1c0.1,0,0.2,0,0.2-0.2c0-0.1,0.1-0.1,0.1-0.1c0.1,0,0,0.1,0,0.1
			c0,0,0,0.1,0,0.1c0.1,0,0.1,0,0.2-0.1c0-0.1,0-0.1,0-0.1c-0.2,0-0.2-0.2-0.2-0.3c0-0.1,0-0.2,0-0.3c0-0.1-0.1-0.2-0.2-0.1
			c0,0-0.1,0.1-0.1,0c0-0.2-0.2-0.3-0.1-0.4c0.1-0.2,0-0.2-0.1-0.3c-0.1-0.1-0.3-0.1-0.3-0.3c0,0,0,0-0.1,0c0,0-0.1,0.1-0.1,0
			c0,0,0-0.1,0-0.1c0.2-0.1-0.1-0.3,0.1-0.4c-0.1,0-0.1-0.1-0.2-0.1c0,0-0.1,0.1-0.1,0c0,0,0-0.1,0-0.1c0.1-0.1,0.1-0.2,0-0.4
			c0,0-0.1,0-0.1,0.1c0,0.1-0.2,0.1-0.3,0.2c0,0-0.1,0-0.1-0.1c0-0.1,0.1-0.1,0.2-0.1c0-0.2-0.2-0.3-0.1-0.4c-0.1,0.1-0.2,0-0.3,0
			c0-0.1,0.2-0.1,0.1-0.3c-0.1-0.1-0.1-0.2-0.1-0.3c-0.1-0.1-0.1,0-0.2,0c-0.1-0.1,0-0.2-0.1-0.2c-0.2-0.2-0.2-0.4-0.4-0.5
			c-0.1-0.1-0.2-0.3-0.4-0.4c-0.3-0.1-0.4-0.4-0.6-0.6c-0.1-0.2-0.3-0.3-0.5-0.5c-0.2-0.1-0.3-0.2-0.3-0.4c0,0,0-0.1,0-0.1
			c-0.1,0.1-0.1,0-0.2-0.1c-0.1-0.1-0.2-0.2-0.4-0.2c-0.1,0-0.1,0.1-0.2,0.1c-0.1,0,0-0.1,0-0.2c-0.1-0.1-0.2-0.3-0.3-0.4
			c-0.2-0.3-0.4-0.5-0.7-0.7c-0.1,0,0,0.2-0.1,0.2c-0.1,0-0.1-0.1-0.1-0.2c0-0.1-0.1-0.1-0.1-0.1c-0.1,0-0.1,0-0.1-0.1
			c0-0.2-0.2-0.2-0.3-0.2c-0.2-0.1-0.3-0.3-0.6-0.3c-0.4,0-0.7-0.2-0.9-0.5c-0.1-0.1-0.2-0.1-0.3-0.2c-0.2-0.1-0.5-0.1-0.7-0.2
			c-0.3-0.1-0.5-0.3-0.8-0.3c-0.1,0-0.3,0-0.4-0.1c-0.2-0.1-0.3-0.2-0.5,0c0,0.1-0.1,0-0.2,0c0-0.1,0.1-0.1,0-0.2
			c-0.1,0-0.2-0.1-0.2,0c-0.1,0.2-0.2,0.1-0.4,0.1c-0.1,0-0.3,0-0.3-0.2c0,0-0.1-0.1-0.1-0.1C302.6,60.5,302.4,60.3,302,60.4z
			 M302.5,60.6C302.5,60.6,302.5,60.6,302.5,60.6c0.1,0,0.2,0.1,0.4,0.1c-0.1,0-0.1,0.2-0.2,0.1C302.6,60.8,302.4,60.8,302.5,60.6
			C302.4,60.6,302.5,60.6,302.5,60.6z M300.6,60.6c0.1,0,0.1,0,0.2,0.1c0,0,0.1,0,0.2,0c-0.1,0.1-0.1,0.2-0.2,0.1
			c-0.1-0.1-0.2,0-0.2,0c-0.1,0.1-0.1,0.1-0.2,0c0,0,0-0.1,0-0.1c0-0.1,0.1-0.1,0.2-0.1C300.5,60.6,300.6,60.6,300.6,60.6z
			 M296.6,61.4C296.7,61.3,296.7,61.4,296.6,61.4c0.1,0,0.2,0,0.3,0.1c0,0.1,0,0.1-0.1,0.1c0,0-0.1,0-0.1,0
			C296.7,61.4,296.6,61.5,296.6,61.4C296.6,61.4,296.6,61.4,296.6,61.4z M296.4,61.4c-0.1,0.3-0.2,0.3-0.4,0.3
			C296,61.5,296.2,61.5,296.4,61.4z M295,62c0,0.1-0.1,0.1-0.1,0.2c0,0.1-0.3,0-0.1,0.2c-0.1,0-0.1,0.2-0.3,0.2
			c-0.1,0-0.3,0-0.4,0.1c-0.1,0.1-0.2,0.1-0.3,0c0-0.1,0.2-0.2,0.3-0.3c0.2-0.1,0.4-0.2,0.6-0.4C294.9,62,295,62.1,295,62z
			 M325.3,62.3c0.1,0,0.2,0.1,0.1,0.1c0,0.1-0.1,0.1-0.2,0.1c-0.1,0-0.1,0-0.1-0.1C325.1,62.4,325.2,62.3,325.3,62.3z M328.2,62.5
			c0.1,0.1,0.2,0.2,0.4,0.3c0,0,0.1,0.1,0.1,0.1c0,0.1-0.1,0.1-0.1,0.1c-0.2,0-0.3,0-0.4,0.2C327.9,62.8,328.2,62.7,328.2,62.5z
			 M293.9,62.8c0,0,0,0.1,0,0.1c-0.2,0.1-0.2,0.2-0.3,0.3c-0.1,0-0.1,0-0.2,0C293.4,62.9,293.6,62.8,293.9,62.8z M329.5,62.8
			C329.5,62.8,329.5,62.8,329.5,62.8c0.2,0,0.3,0,0.3,0.1c0,0.1,0,0.1,0.1,0.1c0.1,0,0.1,0,0.1,0.1c0,0.1,0,0.2-0.1,0.2
			c-0.1,0.1-0.1,0-0.2,0c-0.1-0.1-0.2-0.2-0.3-0.4C329.4,62.8,329.4,62.8,329.5,62.8z M324.6,63c0.1,0,0.1,0.1,0.1,0.2
			c0,0,0,0.1-0.1,0.1c-0.1,0-0.2,0.1-0.3,0.1c0,0,0,0,0,0C324.4,63.2,324.5,63.1,324.6,63z M328.9,63.5
			C328.9,63.5,328.9,63.5,328.9,63.5c0.1,0.1,0.2,0.2,0.3,0.2c-0.1,0.1-0.3,0-0.2,0.3c-0.1-0.1-0.2-0.1-0.3-0.1
			c-0.1,0-0.1,0-0.1-0.1c0-0.1,0.1,0,0.1,0c0.1,0,0.1,0,0.1,0c0,0,0-0.1,0-0.1C328.8,63.6,328.8,63.6,328.9,63.5
			C328.8,63.5,328.9,63.5,328.9,63.5z M330.2,63.5C330.2,63.5,330.2,63.5,330.2,63.5c0.1,0.1,0.2-0.1,0.2,0.1c0,0.1-0.1,0.1-0.1,0.1
			C330.2,63.7,330.1,63.6,330.2,63.5C330.1,63.5,330.2,63.5,330.2,63.5z M329.7,63.8c0.1,0,0.2,0.1,0.2,0.1c0.1,0,0,0.1,0,0.2
			c0,0,0,0-0.1,0C329.8,64,329.7,63.9,329.7,63.8C329.6,63.8,329.6,63.8,329.7,63.8C329.7,63.8,329.7,63.8,329.7,63.8z M329.4,63.9
			C329.4,63.9,329.5,63.9,329.4,63.9c0.2,0,0.4,0.3,0.4,0.4c0,0,0,0,0,0c-0.1-0.1-0.2,0-0.2-0.1c0-0.1,0-0.1-0.1-0.1
			C329.4,64.1,329.3,64,329.4,63.9C329.4,63.9,329.4,63.9,329.4,63.9z M331.6,64.1c0.1,0,0.1,0.1,0.2,0.1
			C331.7,64.2,331.6,64.2,331.6,64.1C331.6,64.1,331.6,64.1,331.6,64.1C331.6,64.1,331.6,64.1,331.6,64.1z M330.1,64.1
			c0.1,0,0.1,0,0.1,0.1c0,0.1-0.1,0.1-0.1,0.1c-0.1,0,0-0.1-0.1-0.1C330,64.2,330,64.1,330.1,64.1z M329.4,64.6
			c0.1,0,0.1,0.1,0.1,0.1c-0.1,0-0.2,0.1-0.2,0C329.2,64.7,329.3,64.6,329.4,64.6C329.3,64.6,329.4,64.6,329.4,64.6z M323.1,64.8
			C323.1,64.8,323.2,64.8,323.1,64.8c0.1,0,0.2,0,0.2,0.1c0,0.1-0.2,0.1-0.2,0.1c0,0-0.1-0.1-0.1-0.1
			C323,64.9,323.1,64.8,323.1,64.8z M333.6,65.2C333.6,65.2,333.6,65.2,333.6,65.2c0.1,0,0.2,0,0.2,0.1c0,0.1,0,0.1-0.1,0.1
			C333.6,65.3,333.5,65.3,333.6,65.2C333.5,65.2,333.5,65.2,333.6,65.2z M322.8,65.3c0.1,0.1,0.2,0.2,0.2,0.3c0,0.1,0,0.1-0.1,0.1
			c-0.1,0-0.3-0.1-0.3-0.2C322.6,65.4,322.7,65.4,322.8,65.3z M334,65.3C334,65.3,334,65.3,334,65.3c0.1,0,0.2,0,0.2,0.1
			c0,0.1-0.1,0.1-0.2,0.2c-0.1,0-0.1-0.1-0.1-0.1C333.9,65.4,334,65.4,334,65.3z M322.5,65.8c0.1,0.1,0.1,0.3,0,0.4
			c-0.1,0.1-0.2,0.2-0.2,0.3c-0.1-0.1-0.1-0.2-0.1-0.2c-0.1-0.1-0.1-0.2,0.1-0.3C322.3,66,322.4,66,322.5,65.8z M334.5,66.8
			c0.1,0,0.2,0,0.3,0.2c0,0.1,0.2,0,0.2,0.1c0,0,0.1,0.1,0,0.1c0,0-0.1,0-0.1,0c-0.2-0.1-0.5-0.2-0.6-0.4
			C334.5,66.9,334.5,66.8,334.5,66.8z M322.1,67.1c0.1,0,0.2,0,0.3,0.1c-0.1,0-0.2,0.2-0.3,0.1C322,67.2,321.9,67.1,322.1,67.1z
			 M337.6,68.6c0.2,0.4,0.3,0.7,0.4,1.1C337.9,69.3,337.8,69,337.6,68.6z M335.3,70C335.3,70,335.3,70.1,335.3,70
			c0.2,0.1,0.2,0.3,0,0.4c0-0.1,0-0.2-0.1-0.3C335.2,70.2,335.2,70.1,335.3,70C335.2,70,335.3,70,335.3,70z M327.6,70.3
			C327.7,70.3,327.7,70.3,327.6,70.3c0.1,0.1,0.1,0.2,0,0.3c-0.1,0-0.2,0.1-0.3,0.1C327.4,70.5,327.5,70.4,327.6,70.3
			C327.6,70.3,327.6,70.3,327.6,70.3z M315,70.3c0.1,0.1,0.2,0.1,0.1,0.2c0,0,0,0-0.1,0C315,70.5,314.9,70.4,315,70.3z M336.1,70.3
			C336.1,70.3,336.1,70.3,336.1,70.3c0.1,0.1,0.2,0.2,0.1,0.2c-0.1,0.1-0.1,0-0.2,0c0,0,0,0-0.1,0c0,0,0,0,0,0c0,0,0,0,0,0
			c0,0,0,0.1,0,0.1c0,0,0.1,0.1,0,0.1c0,0,0,0-0.1,0c-0.1,0-0.1-0.1-0.1-0.1c0-0.1,0-0.2,0.1-0.2c0,0,0,0,0,0c0,0,0,0,0,0
			C336,70.4,336,70.3,336.1,70.3C336.1,70.3,336.1,70.3,336.1,70.3z M322,70.5C322,70.5,322.1,70.5,322,70.5c0.1,0,0.2,0,0.2,0.1
			c0,0.1-0.1,0.2-0.2,0.2c-0.1,0-0.1-0.1-0.1-0.2C321.9,70.5,322,70.5,322,70.5z M337.2,70.6C337.3,70.6,337.3,70.6,337.2,70.6
			c0,0.1,0,0.2,0,0.2C337.2,70.8,337.1,70.7,337.2,70.6C337.2,70.6,337.2,70.6,337.2,70.6z M338.2,70.8
			C338.2,70.8,338.2,70.8,338.2,70.8c0.1,0.1,0.1,0.2,0.1,0.2C338.2,70.9,338.1,70.9,338.2,70.8C338.2,70.8,338.2,70.8,338.2,70.8z
			 M322.2,70.8C322.3,70.8,322.3,70.8,322.2,70.8c0.1,0,0.1,0.1,0.1,0.1c0,0.1,0,0.2,0.1,0.3c0.1,0.1,0,0.1-0.1,0.1
			c-0.2,0-0.1-0.2-0.3-0.2c0-0.1,0.1-0.1,0.1-0.1C322.1,71,322.2,71,322.2,70.8C322.2,70.9,322.2,70.8,322.2,70.8z M323.5,70.9
			c0.1,0,0.1,0.2,0.2,0.3c0,0,0,0.1,0,0.1c0,0-0.1,0-0.1,0C323.5,71.1,323.5,71,323.5,70.9L323.5,70.9z M330.1,71.7
			c0,0.1,0.2,0.3,0,0.4c0,0-0.1,0.1-0.1,0.1c0-0.1-0.2-0.1-0.1-0.2C330,71.9,330,71.8,330.1,71.7z M337.8,71.9c0,0,0.2,0.1,0.1,0.2
			c0,0,0,0.1-0.1,0.1C337.7,72.1,337.8,72,337.8,71.9z M337.1,72c0.1,0.2,0,0.3,0,0.4C337,72.3,337,72.2,337.1,72z M336.7,72.2
			c0.1,0.2,0.1,0.4,0.1,0.7c0,0.1,0,0.2,0.1,0.2c0.1,0-0.1,0.2,0,0.2c0,0-0.1,0.1-0.1,0.1c-0.1,0-0.1-0.1-0.1-0.1
			c0.1-0.3-0.1-0.6-0.1-0.9C336.6,72.3,336.6,72.2,336.7,72.2z M337,73.3c0.3,0.1,0.3,0.2,0.2,0.5C337.1,73.7,337.1,73.5,337,73.3z
			 M338,73.8C338.1,73.8,338.1,73.8,338,73.8c0.1,0.1,0,0.2,0,0.2C338,73.9,337.9,73.9,338,73.8C337.9,73.8,338,73.8,338,73.8z
			 M315.6,74.3C315.6,74.3,315.6,74.3,315.6,74.3c0.2,0.1,0.1,0.2,0.1,0.3C315.6,74.5,315.5,74.4,315.6,74.3
			C315.6,74.3,315.6,74.3,315.6,74.3z M337.5,74.6c0.1,0.1,0.1,0.2,0.2,0.3c0,0.1,0,0.1-0.1,0.1c-0.2,0-0.1-0.2-0.2-0.2
			C337.4,74.7,337.4,74.6,337.5,74.6z M336.2,74.6v0.3c-0.1,0-0.2-0.1-0.2-0.2C336,74.6,336.1,74.7,336.2,74.6z M336.5,76
			C336.6,76,336.6,76,336.5,76c0.1,0.1,0,0.2,0,0.2C336.5,76.1,336.4,76.1,336.5,76C336.4,76,336.5,76,336.5,76z M336.2,76.2
			C336.3,76.2,336.3,76.2,336.2,76.2c0.1,0.1,0,0.2,0,0.2c0,0,0,0-0.1,0c0,0,0-0.1,0-0.1C336.2,76.3,336.1,76.2,336.2,76.2z
			 M336.2,76.4c0.2,0.1,0,0.3,0,0.4c-0.1,0-0.2,0-0.2,0.1C335.8,76.7,336.1,76.6,336.2,76.4z M336.6,76.6c0,0.1,0.2,0.1,0.1,0.2
			c0,0-0.1,0.1-0.1,0C336.5,76.8,336.5,76.8,336.6,76.6z M336.3,76.8C336.3,76.8,336.3,76.8,336.3,76.8c0,0.2,0,0.4-0.1,0.5
			c0,0,0,0.1,0,0.1c-0.3,0-0.2,0.3-0.3,0.5c-0.1,0.1-0.1,0.2-0.2,0.3c0-0.1,0-0.1,0-0.2c0.2-0.1,0.2-0.3,0.3-0.5
			c0.1-0.1-0.1-0.2-0.1-0.3c0-0.1,0.2,0,0.3-0.2c0,0,0-0.1,0-0.1C336.2,76.9,336.3,76.8,336.3,76.8z M335,77.3
			c0.1,0,0.2,0.1,0.2,0.1c-0.1,0.1-0.1,0.3-0.2,0.4C335,77.6,335.2,77.4,335,77.3z M335.5,78.2c0.1,0.1,0,0.2-0.1,0.3
			C335.3,78.3,335.4,78.3,335.5,78.2z M334.8,79.2C334.8,79.2,334.9,79.2,334.8,79.2C334.9,79.2,334.9,79.2,334.8,79.2
			c0.1,0.1,0,0.2,0,0.2c-0.1,0.1-0.2,0.2-0.2,0.3c0,0.2-0.2,0.2-0.4,0.3c0,0-0.1,0-0.1,0c-0.1-0.1,0-0.1,0-0.1
			c0.2-0.1,0.2-0.2,0.3-0.3C334.6,79.4,334.6,79.3,334.8,79.2C334.8,79.2,334.8,79.2,334.8,79.2z M331.5,82.6c0,0,0.1,0.1,0.2,0.2
			h-0.3C331.5,82.7,331.5,82.6,331.5,82.6z M328.9,83.2c0.1,0.1,0.2,0.1,0.3,0.2c0,0,0.1,0,0.1,0.1c0,0-0.1,0.1-0.1,0
			c-0.1-0.1-0.1-0.2-0.2,0c0,0-0.1,0-0.1,0c0,0,0-0.1,0-0.1C328.9,83.3,328.9,83.3,328.9,83.2z"/>
		<path id="path25" inkscape:connector-curvature="0" class="st2" d="M322.6,56.1c-0.2,0-0.4,0.1-0.6-0.1c0,0-0.1,0-0.1,0
			c-0.3,0.1-0.4-0.2-0.6-0.2c0,0,0-0.1,0-0.1c0.1-0.2,0-0.3-0.2-0.3c-0.1,0-0.1,0-0.2,0c-0.1,0-0.1,0-0.1,0.1c0,0.1,0,0.1,0.1,0.1
			c0.1,0,0.1,0.1,0.1,0.2c0,0.1-0.1,0.1-0.2,0.1c-0.1,0-0.3,0.1-0.3-0.1c0-0.1-0.1-0.1-0.2-0.1c-0.2,0-0.3,0-0.5,0
			c-0.1,0-0.2,0-0.3-0.1c0-0.1-0.2-0.1-0.3,0c-0.2,0.2-0.4,0.2-0.6,0.1c-0.1,0-0.2-0.2-0.3,0.1c0,0.1-0.1,0.1-0.2,0.1
			c-0.1,0-0.2-0.1-0.2-0.2c0-0.1,0-0.1,0.1-0.2c0.1,0,0.1-0.1,0.1-0.2c-0.1-0.1-0.3-0.2-0.4-0.1c-0.1,0.1-0.2,0-0.3,0.1
			c-0.1,0.1-0.1,0-0.1-0.1c0-0.1,0-0.2,0-0.3c0-0.1,0-0.2-0.1-0.3c0,0-0.1,0-0.1,0c-0.1,0-0.1,0.1,0,0.2c0.1,0.1,0.1,0.1,0.1,0.2
			c0,0.1,0,0.1-0.1,0.1c-0.1,0-0.1,0-0.1,0c-0.2-0.2-0.4-0.1-0.6-0.1c-0.2,0-0.4,0.1-0.5,0.3c-0.1,0.2-0.5,0.3-0.6,0.1
			c-0.2-0.3-0.5-0.4-0.9-0.3c-0.2,0.1-0.4,0.1-0.7,0.1c-0.1,0-0.1,0-0.2-0.1c0-0.1-0.1-0.1-0.1-0.2c0-0.1,0.1,0,0.2-0.1
			c0.1,0,0.1,0,0.2,0c0.1,0,0.1,0,0.1-0.1c0-0.1,0-0.1-0.1-0.1c-0.2,0-0.4,0-0.6-0.1c-0.1,0-0.2,0-0.2,0.1c0,0.1-0.1,0.1-0.2,0
			c0-0.1-0.2-0.1-0.3-0.2c-0.1,0.1-0.2,0.2-0.2,0.3c0,0.1,0,0.1,0,0.2c0,0.2,0.1,0.2,0.2,0.1c0,0,0.1-0.1,0.1-0.1c0.1,0,0.2,0,0.3,0
			c0,0,0,0.1,0,0.1c-0.1,0.1-0.1,0.2-0.3,0.2c-0.2,0-0.3,0.1-0.5,0.1c-0.2,0-0.3-0.2-0.2-0.4c0.1-0.1,0-0.2-0.1-0.2
			c-0.2,0-0.3,0-0.3-0.2c0-0.1-0.1-0.1-0.2-0.1c-0.1,0-0.1,0.1,0,0.1c0.1,0.1,0,0.1-0.1,0.1c-0.1,0-0.2,0-0.2-0.1c0,0-0.1-0.1-0.1,0
			c-0.2,0.2-0.5,0.2-0.6,0.4c-0.1,0.1-0.1,0.2-0.3,0.1c-0.1-0.1-0.1,0-0.2,0.1c-0.1,0.1-0.1,0.1,0,0.2c0.1,0.1,0.1,0.1,0.2,0.1
			c0.1,0,0.2-0.2,0.3,0c0.1,0.1-0.1,0.2-0.2,0.3c-0.1,0.1-0.3,0.1-0.3,0.2c0,0.1-0.1,0.1-0.2,0c0-0.1-0.1-0.1-0.2-0.1
			c-0.1,0.1-0.2,0.1-0.3,0c0,0,0,0-0.1,0c-0.3,0.2-0.2-0.1-0.2-0.2c0-0.1,0-0.2-0.1-0.2c-0.1,0-0.1,0.1-0.1,0.2c0,0,0,0.1,0,0.1
			c0,0,0,0.1,0,0.1c-0.1,0-0.1-0.1-0.1-0.1c-0.1-0.1-0.2-0.2-0.3-0.1c-0.1,0-0.1,0-0.2,0c-0.4,0-0.8,0-1.2,0c-0.2,0-0.3-0.2-0.4-0.4
			c0-0.1,0-0.1-0.1-0.2c-0.1,0-0.3,0-0.4,0c-0.1,0.1,0,0.2,0.1,0.2c0.1,0,0.1,0,0.2,0c0.1,0,0.1,0,0.1,0.1c0,0.1,0,0.1-0.1,0.1
			c-0.2,0.1-0.4-0.1-0.5-0.3c-0.1-0.2-0.2-0.4-0.3-0.5c-0.1-0.1-0.5-0.1-0.5,0.1c-0.1,0.3-0.2,0.4-0.5,0.4c-0.1,0-0.1,0.1-0.2,0.1
			c-0.3,0.2-0.5,0.6-1,0.6c-0.1,0-0.1,0-0.1,0.1c-0.1,0.1-0.2,0.1-0.4,0c-0.1-0.1-0.2-0.1-0.3,0c0,0-0.1,0-0.1,0
			c-0.6-0.2-1.1,0-1.7-0.1c-0.1,0-0.3,0.1-0.3-0.1c0,0-0.1,0-0.1,0c-0.3,0.3-0.6,0.2-0.9,0.2c-0.5,0-0.9,0.1-1.3,0.1
			c-0.2,0-0.4,0.1-0.6,0.1c-0.1,0-0.2,0.1-0.3,0.2c-0.1,0.1-0.2,0.1-0.3,0c-0.1-0.1-0.2-0.1-0.3,0c0,0-0.1,0.1-0.1,0.1
			c-0.4,0-0.8,0.2-1.1,0.1c-0.3-0.1-0.5-0.1-0.7-0.1c-0.3,0-0.5,0-0.8,0c-0.1,0-0.2,0-0.3-0.1c0,0-0.1-0.1-0.1-0.1
			c-0.5,0.1-1-0.2-1.5-0.2c-0.2,0-0.5-0.1-0.7-0.2c-0.1,0-0.1-0.2,0-0.3c0.2-0.3,0.5-0.5,0.8-0.8c0.3-0.3,0.6-0.6,0.9-0.9
			c0.2-0.3,0.5-0.5,0.8-0.7c0.1-0.1,0.2-0.1,0.3-0.2c0.3-0.2,0.5-0.4,0.6-0.7c0.1-0.1,0.2,0,0.3-0.1c0.1-0.1,0.2-0.2,0.3-0.3
			c0.5-0.3,0.7-0.2,0.9,0.2c0.2,0.4,0.5,0.7,0.8,1c0.2,0.1,0.3,0.2,0.4,0.4c0.1,0.1,0.2,0.1,0.3,0c0.7-0.4,1.2-1,1.8-1.5
			c0.2-0.2,0.5-0.4,0.7-0.7c0.1-0.1,0.1-0.1,0.2-0.1c0.3,0,0.4-0.3,0.5-0.5c0.2-0.2,0.5-0.4,0.7-0.7c0.1-0.2,0.4-0.3,0.4-0.6
			c0-0.2,0.2-0.3,0.2-0.4c0.1-0.1,0.2-0.2,0.2-0.3c0,0,0,0,0.1,0c0.3,0,0.4-0.2,0.5-0.4c0.1-0.1,0.2-0.3,0.3-0.4
			c0.2-0.2,0.5-0.3,0.8-0.5c0.5-0.2,1-0.4,1.5-0.1c0.1,0,0,0.1,0.1,0.1c0.1,0.1,0.2,0.3,0.4,0.3c0,0,0.1,0,0.1,0
			c0,0.3,0.4,0.2,0.5,0.5c0,0,0.1,0.1,0.1,0c0.2-0.1,0.2,0,0.2,0.2c0,0.1,0,0.2,0.2,0.1c0.4-0.1,0.8,0.1,1.1,0.3
			c0.1,0,0.1,0.1,0.2,0c0.2-0.1,0.2,0,0.3,0.1c0,0.1-0.1,0.2,0.1,0.2c0.1,0,0.3,0.1,0.4,0c0.1-0.1,0.1-0.1,0.2-0.1
			c0.1,0,0.1,0,0.2,0c0,0.1,0.1,0.2,0,0.3c-0.1,0.1,0,0.1,0,0.2c0.1,0.1,0.2,0.2,0.3,0.2c0.2,0.1,0.4,0.2,0.5,0.2c0.2,0,0.3,0,0.5,0
			c0.2,0,0.3,0.1,0.5,0.1c0.1,0,0,0.1,0,0.2c0,0.1,0,0.2,0.2,0.1c0.1-0.1,0.2-0.1,0.3,0c0.2,0.1,0.5,0.1,0.7,0.3
			c0.1,0.1,0.3,0,0.4,0c0.1,0,0.3,0,0.4,0.1c0,0.1,0.1,0.1,0.2,0.1c0.1,0,0.2,0,0.2,0.1c0.2,0.2,0.4,0.2,0.6-0.1
			c0.1-0.1,0.1,0,0.2,0c0.1,0,0.1,0.1,0.2,0.1c0.2,0.2,0.5,0.2,0.8,0.2c0.2,0,0.3,0.2,0.4,0.2c0,0,0.1,0,0.1,0.1
			c0.5,0,0.8,0.4,1.1,0.6c0.2,0.1,0.4,0.4,0.6,0.5c0.1,0.1,0.4,0.1,0.6,0.1c0.2,0,0.3,0,0.3,0.2c0,0.1,0.1,0.1,0.2,0.1
			c0.2,0,0.4,0,0.6,0.2c0,0,0.1,0,0.1,0c0.3,0,0.6,0,0.8,0.4c0.1,0.2,0.3,0.3,0.5,0.4c0.4,0.2,0.7,0.4,1.1,0.3
			c0.2,0,0.3-0.2,0.5-0.1c0.1,0,0.2,0,0.2,0.1c0,0.1,0.1,0.2,0,0.3c-0.3,0.1-0.1,0.2,0,0.3c0.1,0.1,0.1,0.1,0.1,0.2
			c0,0.1,0.2,0.1,0.3,0.1c0.1,0,0.1,0,0.2,0.1c0,0.1,0,0.1-0.1,0.2c-0.1,0.1-0.1,0.2-0.1,0.3c0,0.2,0,0.3-0.2,0.2
			C322.7,56.1,322.7,56.1,322.6,56.1L322.6,56.1z M307.6,55.5c0.1,0,0.2,0,0.2-0.1c0-0.1-0.1-0.2-0.2-0.2c-0.1,0-0.2,0-0.2,0.1
			C307.5,55.5,307.5,55.5,307.6,55.5z M322.3,55.5c0-0.1-0.1-0.2-0.2-0.2c-0.1,0-0.1,0-0.1,0.1c0,0.1,0,0.2,0.1,0.2
			C322.2,55.6,322.3,55.6,322.3,55.5L322.3,55.5z M317.1,54.5c0,0.1,0,0.1,0.1,0.1c0.1,0,0.1-0.1,0.2-0.2c0-0.1,0-0.1-0.1-0.2
			C317.1,54.3,317.1,54.4,317.1,54.5z M319.3,54.7c0.1,0,0.1,0,0.1-0.1c0-0.1-0.1-0.1-0.1-0.1c-0.1,0-0.1,0-0.1,0.1
			C319.2,54.7,319.2,54.7,319.3,54.7z"/>
		<path id="path27" inkscape:connector-curvature="0" class="st1" d="M333.1,66.1c0,0.1,0.1,0.2,0.2,0.2c0.1,0,0.2,0.1,0.2,0.2
			c0,0.1-0.1,0.2-0.2,0.2c-0.1,0-0.1,0-0.1,0.1c0,0.1,0,0.1,0.1,0.1c0,0,0,0,0,0c0.1,0.1,0.1,0.1,0.1,0.2c-0.1,0.1-0.1,0-0.2-0.1
			c-0.1-0.1-0.2-0.2-0.3-0.3c-0.1,0.2,0,0.3,0.2,0.3c0,0,0.1,0,0.2,0c0,0.1-0.1,0.2-0.1,0.3c-0.1,0.1-0.2,0.1-0.3,0
			c-0.1-0.1-0.1-0.2-0.2-0.1c-0.1,0.1-0.1,0-0.2-0.1c0-0.1-0.1-0.2-0.2-0.2c-0.1-0.1-0.2-0.2,0-0.3c0,0,0-0.1,0-0.1
			c-0.1-0.1-0.1,0-0.1,0c-0.1,0.1-0.1,0.1-0.2,0.1c-0.1,0,0-0.1,0-0.2c0-0.1,0-0.1,0.1-0.1c0.1,0.1,0.1,0,0.1-0.1c0,0,0-0.1,0-0.1
			c-0.1-0.1-0.1-0.3-0.3-0.3c0,0-0.1-0.1-0.1-0.1c0-0.1-0.1-0.2-0.2-0.1c0,0-0.1,0-0.1,0c0-0.1,0-0.1,0.1-0.1c0,0,0.1-0.1,0-0.1
			c0,0-0.1-0.1-0.1-0.1c-0.1,0-0.1,0-0.1,0.1c0,0.1-0.2,0.2-0.3,0.2c-0.1,0-0.2-0.1-0.2-0.2c0-0.1-0.2-0.1-0.1-0.3
			c0.1,0,0.2,0.1,0.3,0.2c0.1,0.1,0.2,0,0.2-0.1c0-0.1,0.1-0.1,0.2-0.1c0.2,0.1,0.3,0.3,0.5,0.4c0,0,0.2,0.1,0.3,0
			c0-0.1,0-0.1,0.1-0.1c0.2,0,0.3,0.2,0.5,0.1c0.1-0.1,0.2,0.1,0.3,0.1c0,0,0,0.1,0,0.1c0,0,0,0.1-0.1,0c-0.1-0.1-0.2,0.1-0.2-0.1
			c0,0,0,0,0,0c-0.2,0.2-0.4-0.1-0.5,0c-0.1,0-0.2,0.1-0.1,0.2c0.1,0.1,0.2,0.3,0.3,0.5c0,0.1,0.1,0.1,0.2,0.1c0.2-0.1,0.3,0,0.5,0
			c0-0.1,0-0.1-0.1-0.1c-0.2,0-0.2-0.1-0.1-0.3C332.8,66,332.9,66.1,333.1,66.1C333,66.2,333,66.1,333.1,66.1L333.1,66.1L333.1,66.1
			z"/>
		<path id="path29" inkscape:connector-curvature="0" class="st1" d="M334.8,76.5c0.1-0.2,0-0.4,0.2-0.6c0.1-0.1,0-0.2,0-0.3
			c0.1-0.2,0.1-0.4,0.2-0.6c0,0,0-0.1,0-0.1c-0.3-0.1,0-0.2,0-0.3c0-0.1,0-0.3,0-0.3c-0.1-0.2,0-0.4,0.2-0.5c0.1-0.1,0.1-0.1,0-0.2
			c-0.2-0.1-0.2-0.1-0.1-0.2c0.1-0.1,0-0.1-0.1-0.1c-0.1,0-0.1-0.1-0.1-0.2c0-0.1,0.1,0,0.2,0c0.1,0.1,0.3,0.1,0.1,0.3
			c-0.1,0.1,0.1,0.1,0,0.2c0,0.1,0.1,0.3,0,0.5c-0.1,0.2,0.1,0.4,0,0.5c-0.1,0.1,0,0.3,0,0.4c0,0.1,0,0.2-0.1,0.1c0,0-0.1,0-0.1,0
			c0,0,0,0.1,0,0.1c0,0.1,0.1,0,0.1,0c0,0,0.1,0,0.1,0c0,0.1,0,0.2,0,0.3c-0.2,0.1-0.2,0.3-0.2,0.4C335.2,76.4,335,76.4,334.8,76.5
			L334.8,76.5L334.8,76.5z"/>
		<path id="path31" inkscape:connector-curvature="0" class="st1" d="M334.4,67.2c0,0.1-0.1,0.2-0.2,0.2c-0.2,0-0.2,0.1-0.3,0.2
			c-0.1,0.1-0.1,0.1,0.1,0.1c0.1,0,0.1,0,0.1,0.1c0,0,0,0.1-0.1,0.1c-0.1,0-0.2,0-0.3-0.2c0,0.1-0.1,0.2-0.2,0.3c0,0-0.1,0-0.1,0
			c0-0.1-0.2,0-0.2-0.1c0-0.1,0.1-0.2,0.2-0.2c0.2,0,0.1-0.1,0-0.2c0-0.1-0.1-0.1-0.1-0.2c0.2,0,0.1-0.2,0.3-0.2
			C333.9,67.1,334.1,67.1,334.4,67.2L334.4,67.2L334.4,67.2z"/>
		<path id="path33" inkscape:connector-curvature="0" class="st1" d="M329.5,82.5c0,0.3-0.2,0.4-0.5,0.2c-0.1-0.1-0.3-0.1-0.1-0.3
			c0.1-0.1,0.1-0.2,0.1-0.3c0-0.1,0.1-0.1,0.2-0.1c0,0,0,0.1,0,0.1c0,0,0,0-0.1,0c-0.1,0.1-0.2,0.2-0.1,0.3c0.1,0.1,0.1,0,0.2,0
			C329.3,82.4,329.4,82.6,329.5,82.5L329.5,82.5L329.5,82.5z"/>
		<path id="path35" inkscape:connector-curvature="0" class="st1" d="M331.5,67C331.5,67,331.5,67,331.5,67
			c-0.1-0.1-0.1-0.2-0.1-0.2c0.1-0.1,0.1,0,0.2,0.1c0.1,0.1,0.1,0.1,0.1,0.3c0,0,0,0.1-0.1,0.1c0,0-0.1-0.1-0.1,0
			c0,0.1,0.1,0.1,0.1,0.2c0,0,0.1,0,0.2,0.1c0,0,0.1,0,0.1,0.1c0,0-0.1,0-0.1,0c-0.1-0.1-0.2-0.2-0.3-0.3
			C331.3,67.1,331.5,67.2,331.5,67L331.5,67z"/>
		<path id="path37" inkscape:connector-curvature="0" class="st1" d="M334.4,68c0.1,0,0.3,0,0.2,0.1c-0.1,0.1,0,0.3-0.2,0.4
			c-0.1,0-0.1-0.1-0.2-0.1c-0.1-0.1-0.1-0.1-0.2-0.2C334.3,68.2,334.2,67.9,334.4,68L334.4,68z"/>
		<path id="path39" inkscape:connector-curvature="0" class="st1" d="M331,80.9c0,0.1-0.2,0.1-0.2,0.2c-0.1,0.2-0.2,0-0.3,0
			c0,0-0.1,0,0-0.1C330.6,80.8,330.8,80.7,331,80.9C331,80.9,331,80.9,331,80.9L331,80.9z"/>
		<path id="path41" inkscape:connector-curvature="0" class="st1" d="M335,71.8c-0.1,0-0.1-0.2-0.2-0.3c0-0.1,0-0.1,0.1-0.1
			c0.1,0,0.4,0.2,0.4,0.3C335.3,71.8,335.2,71.8,335,71.8L335,71.8z"/>
		<path id="path43" inkscape:connector-curvature="0" class="st1" d="M322.5,81.4c0.1-0.1,0.1-0.3,0.3-0.1c0.1,0.1,0.2-0.1,0.2,0.1
			c0,0.1,0,0.2-0.2,0.1C322.8,81.5,322.6,81.4,322.5,81.4L322.5,81.4z"/>
		<path id="path45" inkscape:connector-curvature="0" class="st1" d="M331.7,82c-0.1-0.2,0-0.2,0.1-0.3c0,0,0.1-0.1,0.1-0.2
			c0,0-0.1-0.1,0-0.1c0,0,0.1,0,0.1,0c0.3,0.1,0.3,0.2,0,0.4C331.9,81.9,331.7,81.9,331.7,82z"/>
		<path id="path47" inkscape:connector-curvature="0" class="st1" d="M332.1,80.1C332.1,80.1,332.1,80.1,332.1,80.1
			c0.1,0.1,0.1,0.1,0.1,0.1c-0.1,0.1-0.3,0.1-0.3,0.3c0,0-0.1,0-0.1,0c0,0,0-0.1,0-0.1C331.7,80.4,331.9,80.1,332.1,80.1L332.1,80.1
			z"/>
		<path id="path49" inkscape:connector-curvature="0" class="st1" d="M333.4,79.7c0,0.2-0.2,0.3-0.3,0.3c0,0-0.1,0-0.1,0
			c0,0,0-0.1,0-0.1C333.1,79.8,333.2,79.6,333.4,79.7L333.4,79.7z"/>
		<path id="path51" inkscape:connector-curvature="0" class="st1" d="M333.8,68.3c0.1,0,0.2,0,0.1,0.2c-0.1,0.1-0.1,0.1,0,0.2
			c0,0,0,0.1,0,0.1c-0.1,0-0.1,0-0.1-0.1c-0.1-0.1-0.1-0.2-0.1-0.3C333.7,68.3,333.8,68.3,333.8,68.3L333.8,68.3z"/>
		<path id="path53" inkscape:connector-curvature="0" class="st1" d="M333.6,69.3C333.6,69.3,333.5,69.3,333.6,69.3
			c-0.2,0-0.3,0-0.3-0.1c0-0.1,0.1-0.2,0.2-0.2c0.1,0,0.1,0,0.1,0.1C333.6,69.1,333.4,69.2,333.6,69.3L333.6,69.3z"/>
		<path id="path55" inkscape:connector-curvature="0" class="st1" d="M334.4,69.8c-0.2,0.1-0.3-0.1-0.4,0c0,0,0,0,0-0.1c0,0,0,0,0,0
			c0.1,0,0-0.3,0.1-0.3c0.2,0,0.1,0.2,0.1,0.2C334.3,69.8,334.3,69.8,334.4,69.8L334.4,69.8z"/>
		<path id="path57" inkscape:connector-curvature="0" class="st1" d="M332,80.7c0.1,0,0.2,0.1,0.2,0.2c0,0.1-0.1,0.2-0.2,0.2
			c-0.1,0-0.2-0.1-0.2-0.1C331.8,80.8,332,80.8,332,80.7z"/>
		<path id="path59" inkscape:connector-curvature="0" class="st1" d="M334.2,77.7c0,0.1,0,0.1,0.1,0.2c0,0,0,0.1,0,0.1
			c-0.1,0-0.1,0-0.1-0.1c0,0,0-0.1-0.1-0.1c0,0,0,0.1,0,0.1c0,0.1-0.1,0.1-0.1,0.1c0,0-0.1,0-0.1,0c0,0,0-0.1,0-0.1
			C334,78,334.1,77.8,334.2,77.7L334.2,77.7L334.2,77.7z"/>
		<path id="path61" inkscape:connector-curvature="0" class="st1" d="M335.5,76.6c0,0.1,0,0.2-0.1,0.2c-0.1,0-0.2,0-0.1-0.1
			c0-0.1,0-0.2,0.2-0.3C335.5,76.4,335.5,76.5,335.5,76.6L335.5,76.6z"/>
		<path id="path63" inkscape:connector-curvature="0" class="st1" d="M328.4,82.4c0.1-0.1,0.3-0.2,0.4-0.2c0.1,0,0.1,0,0.1,0.1
			C328.8,82.4,328.5,82.5,328.4,82.4L328.4,82.4z"/>
		<path id="path65" inkscape:connector-curvature="0" class="st1" d="M332.5,80.2c-0.1,0-0.2,0.1-0.2,0c0-0.2,0-0.3,0.2-0.4
			c0,0,0,0,0.1,0c0,0,0,0.1,0,0.1C332.4,80,332.4,80.1,332.5,80.2z"/>
		<path id="path67" inkscape:connector-curvature="0" class="st1" d="M336.2,73.7c-0.1,0.2-0.3,0.1-0.4-0.1
			C336,73.5,336,73.5,336.2,73.7C336.3,73.7,336.2,73.7,336.2,73.7L336.2,73.7z"/>
		<path id="path69" inkscape:connector-curvature="0" class="st1" d="M336,73c0.1,0,0.2,0.1,0.2,0.2c0,0.1-0.1,0.1-0.1,0.1
			c-0.1,0-0.1,0-0.1-0.1C335.9,73,335.9,73,336,73L336,73z"/>
		<path id="path71" inkscape:connector-curvature="0" class="st1" d="M332.6,68.2c-0.1,0-0.2,0.2-0.3,0c0,0,0-0.1,0-0.1
			C332.4,68,332.5,68,332.6,68.2z"/>
		<path id="path73" inkscape:connector-curvature="0" class="st1" d="M328.5,82.1c0,0.1,0,0.1-0.1,0.1c-0.1,0-0.2,0-0.2-0.1
			c0-0.1,0.1-0.1,0.2-0.1C328.5,81.9,328.5,82,328.5,82.1L328.5,82.1z"/>
		<path id="path75" inkscape:connector-curvature="0" class="st1" d="M322.1,81c-0.2,0.2-0.3,0.2-0.5,0
			C321.8,80.9,321.9,80.9,322.1,81z"/>
		<path id="path77" inkscape:connector-curvature="0" class="st1" d="M335.9,68.2c-0.1,0-0.1,0-0.1,0c0,0-0.2,0.1-0.2,0
			c0-0.1,0.1-0.2,0.2-0.2C335.9,67.9,335.9,68,335.9,68.2C335.9,68.1,335.9,68.2,335.9,68.2L335.9,68.2z"/>
		<path id="path79" inkscape:connector-curvature="0" class="st1" d="M334.9,72.2C334.9,72.3,334.9,72.3,334.9,72.2
			c-0.2,0.1-0.2,0-0.3-0.1c0,0,0-0.1,0-0.1c0,0,0.1,0,0.1,0.1C334.7,72.2,334.9,72.1,334.9,72.2z"/>
		<path id="path81" inkscape:connector-curvature="0" class="st1" d="M333.6,69.6c0.2-0.2,0.2-0.2,0.3,0c0,0,0.1,0,0,0.1
			c0,0-0.1,0-0.1,0C333.7,69.6,333.7,69.6,333.6,69.6L333.6,69.6z"/>
		<path id="path83" inkscape:connector-curvature="0" class="st1" d="M322.2,81.1c0.1,0,0.2,0.1,0.2,0.2c0,0,0,0.1-0.1,0.1
			C322.2,81.3,322.1,81.3,322.2,81.1C322.1,81.1,322.1,81.1,322.2,81.1L322.2,81.1z"/>
		<path id="path85" inkscape:connector-curvature="0" class="st1" d="M330.2,66.2c-0.1-0.1-0.1-0.2-0.1-0.3c0.1-0.1,0.2-0.1,0.3,0
			C330.4,66,330.2,66,330.2,66.2L330.2,66.2z"/>
		<path id="path87" inkscape:connector-curvature="0" class="st1" d="M333.2,79.2c0,0.1-0.1,0.2-0.1,0.2c-0.1,0,0-0.1-0.1-0.1
			c0-0.1,0.1-0.2,0.1-0.2C333.2,79.1,333.2,79.2,333.2,79.2L333.2,79.2z"/>
		<path id="path89" inkscape:connector-curvature="0" class="st1" d="M331.8,67.3c0.2-0.1,0.3,0,0.5,0.1
			C332.1,67.5,332,67.3,331.8,67.3z"/>
		<path id="path91" inkscape:connector-curvature="0" class="st1" d="M335.1,72.2c-0.1,0-0.1,0-0.1-0.1c0-0.1,0.1-0.1,0.2-0.1
			c0.1,0,0.1,0,0.1,0.1C335.3,72.2,335.2,72.2,335.1,72.2L335.1,72.2z"/>
		<path id="path93" inkscape:connector-curvature="0" class="st1" d="M331.8,63.8c0-0.2,0.1-0.2,0.2-0.3c0.1,0,0.1,0,0.1,0
			c0,0,0,0.1,0,0.1C332,63.5,332,63.7,331.8,63.8z"/>
		<path id="path95" inkscape:connector-curvature="0" class="st1" d="M335.4,72.7C335.4,72.7,335.4,72.8,335.4,72.7
			c-0.2,0-0.2-0.1-0.3-0.2c0,0,0-0.1,0.1,0C335.3,72.5,335.3,72.6,335.4,72.7z"/>
		<path id="path97" inkscape:connector-curvature="0" class="st1" d="M329.5,82.5c0-0.1,0.1-0.1,0.1-0.2c0,0,0.1-0.1,0.1-0.1
			c0.1,0,0,0.1,0,0.2c0,0.1-0.1,0.1-0.1,0.1C329.6,82.5,329.6,82.5,329.5,82.5L329.5,82.5L329.5,82.5z"/>
		<path id="path99" inkscape:connector-curvature="0" class="st1" d="M332,65.2c-0.1,0-0.1,0-0.1-0.1c0-0.1,0.1-0.1,0.2-0.1
			c0.1,0,0.2,0.1,0.2,0.1C332.1,65.2,332,65.2,332,65.2L332,65.2z"/>
		<path id="path101" inkscape:connector-curvature="0" class="st1" d="M329,82c-0.1-0.1-0.1-0.1-0.1-0.2c0-0.1,0.1-0.2,0.1-0.1
			c0.1,0,0,0.1,0,0.2C329.1,81.9,329.1,81.9,329,82z"/>
		<path id="path103" inkscape:connector-curvature="0" class="st1" d="M332.7,68.7c0.1-0.1,0.1-0.2,0.2-0.2c0.1,0,0.1,0.1,0,0.1
			C332.9,68.6,332.8,68.6,332.7,68.7z"/>
		<path id="path105" inkscape:connector-curvature="0" class="st1" d="M327.2,82c-0.1,0.1-0.1,0.2-0.2,0.2c0,0-0.1,0,0-0.1
			C327,82,327.1,82,327.2,82L327.2,82z"/>
		<path id="path107" inkscape:connector-curvature="0" class="st1" d="M331.4,80.7c-0.1,0.1-0.1,0.1-0.2,0.1c0,0-0.1,0-0.1-0.1
			C331.2,80.7,331.2,80.7,331.4,80.7C331.3,80.7,331.4,80.7,331.4,80.7L331.4,80.7z"/>
		<path id="path109" inkscape:connector-curvature="0" class="st1" d="M332.4,80.8c0,0,0-0.1,0.1-0.1c0.1,0,0.1,0.1,0.1,0.2
			c0,0.1,0,0.1-0.1,0.1C332.4,80.9,332.4,80.9,332.4,80.8z"/>
		<path id="path111" inkscape:connector-curvature="0" class="st1" d="M333.8,78.8c-0.1-0.1-0.2-0.1-0.2-0.2c0-0.1,0.1-0.1,0.1,0
			C333.8,78.5,333.8,78.6,333.8,78.8z"/>
		<path id="path113" inkscape:connector-curvature="0" class="st1" d="M333,79.7c0,0,0,0.1-0.1,0.1c-0.1,0-0.1-0.1-0.1-0.2
			c0-0.1,0-0.1,0.1-0.1C333,79.5,333,79.6,333,79.7z"/>
		<path id="path115" inkscape:connector-curvature="0" class="st1" d="M330,81.4c-0.1,0-0.1-0.1-0.1-0.1c0,0,0-0.1,0-0.1
			C330,81.2,330,81.3,330,81.4C330.1,81.3,330,81.4,330,81.4z"/>
		<path id="path117" inkscape:connector-curvature="0" class="st1" d="M329.6,81.6c0,0,0-0.1,0.1-0.1c0.1,0,0.1,0.1,0.1,0.1
			c0,0.1-0.1,0.1-0.1,0.1C329.6,81.7,329.6,81.6,329.6,81.6L329.6,81.6z"/>
		<path id="path119" inkscape:connector-curvature="0" class="st1" d="M333.1,67.5c0.1,0,0.1,0,0.1,0.1c0,0.1,0,0.1-0.1,0.1
			C333,67.6,333,67.6,333.1,67.5C333,67.5,333,67.5,333.1,67.5z"/>
		<path id="path121" inkscape:connector-curvature="0" class="st1" d="M320.9,80.5c0.1,0,0.1,0.1,0.1,0.1c0,0.1,0,0.1-0.1,0.1
			C320.9,80.7,320.8,80.6,320.9,80.5C320.8,80.5,320.9,80.5,320.9,80.5L320.9,80.5z"/>
		<path id="path123" inkscape:connector-curvature="0" class="st1" d="M330.6,81.7c0,0.1,0,0.1-0.1,0.1c0,0-0.1,0-0.1-0.1
			c0.1-0.1,0-0.2,0.1-0.2C330.6,81.6,330.6,81.7,330.6,81.7z"/>
		<path id="path125" inkscape:connector-curvature="0" class="st1" d="M330.1,81.7c0.1,0,0.1,0,0.1,0.1c0,0.1,0,0.1-0.1,0.1
			c-0.1,0-0.1,0-0.1-0.1C330,81.8,330.1,81.7,330.1,81.7z"/>
		<path id="path127" inkscape:connector-curvature="0" class="st1" d="M331,81.5c-0.1,0.1-0.2,0.1-0.3,0.1c0,0,0-0.1,0-0.1
			C330.8,81.4,330.8,81.5,331,81.5L331,81.5z"/>
		<path id="path129" inkscape:connector-curvature="0" class="st1" d="M335,74.3c0.1,0.1,0.1,0.2,0,0.3c0,0,0,0-0.1,0
			C334.9,74.5,334.9,74.4,335,74.3L335,74.3z"/>
		<path id="path131" inkscape:connector-curvature="0" class="st1" d="M332.8,64.8c0.1,0,0.2,0,0.2,0.1c0,0,0,0.1,0,0.1
			c0,0-0.1,0-0.1,0C332.8,64.9,332.8,64.9,332.8,64.8L332.8,64.8L332.8,64.8z"/>
		<path id="path133" inkscape:connector-curvature="0" class="st1" d="M331.4,65c0.1,0,0.2,0.1,0.2,0.2
			C331.5,65.2,331.4,65.1,331.4,65L331.4,65z"/>
		<path id="path135" inkscape:connector-curvature="0" class="st1" d="M331.7,66.3C331.8,66.3,331.8,66.3,331.7,66.3
			C331.8,66.3,331.8,66.3,331.7,66.3C331.8,66.3,331.8,66.3,331.7,66.3C331.8,66.3,331.7,66.3,331.7,66.3z"/>
		<path id="path137" inkscape:connector-curvature="0" class="st1" d="M329.2,65.1C329.3,65.1,329.3,65.1,329.2,65.1
			C329.2,65.2,329.2,65.1,329.2,65.1C329.2,65.1,329.2,65.1,329.2,65.1L329.2,65.1z"/>
	</g>
</g>
</svg>
