<?xml version="1.0" encoding="utf-8"?>
<!-- Generator: Adobe Illustrator 25.4.1, SVG Export Plug-In . SVG Version: 6.00 Build 0)  -->
<svg version="1.1" id="圖層_1" xmlns="http://www.w3.org/2000/svg" xmlns:xlink="http://www.w3.org/1999/xlink" x="0px" y="0px"
	 viewBox="0 0 50 50" style="enable-background:new 0 0 50 50;" xml:space="preserve">
<style type="text/css">
	.st0{fill:#2EA84C;}
	.st1{fill:#EF7F48;}
	.st2{fill:#C6DB5E;}
	.st3{fill:#7D884F;}
	.st4{fill:#FFFFFF;}
</style>
<g>
	<g>
		<g>
			<circle class="st0" cx="25" cy="25" r="24.4"/>
			<path class="st0" d="M25,50c-1.7,0-3.4-0.2-5-0.5c-1.6-0.3-3.2-0.8-4.7-1.4c-1.5-0.6-2.9-1.4-4.2-2.3c-1.3-0.9-2.6-1.9-3.7-3.1
				c-1.1-1.1-2.2-2.4-3.1-3.7S2.6,36.2,2,34.7c-0.6-1.5-1.1-3.1-1.4-4.7C0.2,28.4,0,26.7,0,25s0.2-3.4,0.5-5
				c0.3-1.6,0.8-3.2,1.4-4.7c0.6-1.5,1.4-2.9,2.3-4.2s1.9-2.6,3.1-3.7C8.4,6.2,9.7,5.2,11,4.2s2.8-1.7,4.2-2.3
				c1.5-0.6,3.1-1.1,4.7-1.4C21.6,0.1,23.3,0,25,0s3.4,0.2,5,0.5c1.6,0.3,3.2,0.8,4.7,1.4c1.5,0.6,2.9,1.4,4.2,2.3s2.6,1.9,3.7,3.1
				c1.1,1.1,2.2,2.4,3.1,3.7c0.9,1.3,1.7,2.8,2.3,4.2c0.6,1.5,1.1,3.1,1.4,4.7c0.4,1.7,0.5,3.4,0.5,5s-0.2,3.4-0.5,5
				c-0.3,1.6-0.8,3.2-1.4,4.7c-0.6,1.5-1.4,2.9-2.3,4.2c-0.9,1.3-1.9,2.6-3.1,3.7c-1.1,1.1-2.4,2.2-3.7,3.1
				c-1.3,0.9-2.8,1.7-4.2,2.3c-1.5,0.6-3.1,1.1-4.7,1.4C28.4,49.8,26.7,50,25,50z M25,1.3C12,1.3,1.3,11.9,1.3,25S11.9,48.7,25,48.7
				S48.7,38.1,48.7,25S38.1,1.3,25,1.3z"/>
		</g>
		<g>
			<path class="st1" d="M2.6,34.2c-0.5-1.1-0.8-2.2-1.1-3.4c-0.3-1.2-0.5-2.4-0.6-3.6C0.8,26.1,0.8,25,0.8,24
				c0.1-2.2,0.5-4.3,1.1-6.3c0.9-2.8,2.2-5.3,4-7.6c1.1-1.4,2.4-2.8,3.8-3.9C11.1,5,12.5,4.2,14,3.4c2-1,4.1-1.8,6.2-2.2
				c1.2-0.2,2.3-0.4,3.5-0.5c1.3-0.1,2.7,0,4.1,0.1c1.9,0.2,3.7,0.6,5.5,1.3c2.6,0.9,5,2.3,7.1,4c2.3,1.9,4.2,4.1,5.8,6.7
				c1.4,2.4,2.4,5,2.9,7.8c0.2,1.1,0.3,2.2,0.4,3.3c0.2,3.5-0.4,6.9-1.7,10.1c0,0,0,0.1,0,0.1c-0.4,0.2-0.9,0.2-1.3,0.2
				C45,34.1,43.7,34,42.4,34c-0.6,0-1.2,0-1.9,0c-0.4,0-0.4-0.1-0.3-0.4c0.7-1.9,1.2-3.8,1.4-5.9c0.1-0.7,0.1-1.3,0.1-2
				c0-0.2,0-0.3-0.3-0.2c-1.1,0.2-2.2,0.5-3.2,0.8c-1.3,0.4-2.5,0.8-3.7,1.4c-1,0.5-1.9,1-2.7,1.6c-0.4,0.3-0.5,0.3-0.6-0.2
				c-0.4-1.8-1-3.5-1.6-5.2c-0.6-1.6-1.2-3.1-1.9-4.5c-0.7-1.5-1.6-2.9-2.6-4.2c-0.2-0.2-0.2-0.2-0.4,0c-0.7,0.9-1.4,1.8-1.9,2.8
				c-1.4,2.4-2.5,5-3.3,7.8c-0.4,1.1-0.7,2.2-0.9,3.4c0,0,0,0.1,0,0.1c-0.1,0.2-0.1,0.3-0.4,0.1c-0.8-0.6-1.6-1.1-2.5-1.6
				c-0.7-0.4-1.4-0.7-2.1-1c-1.4-0.6-3-1-4.5-1.3c-0.2,0-0.5-0.1-0.7-0.1c-0.2,0-0.2,0-0.2,0.2c0,0.6,0,1.2,0.1,1.7
				C8.5,29.3,9,31.2,9.6,33c0.1,0.2,0.2,0.5,0.3,0.7c0.1,0.2,0,0.2-0.2,0.2c-0.6,0-1.2-0.1-1.7-0.1c-1.3,0-2.6,0.1-3.9,0.4
				c-0.1,0-0.1,0-0.2,0c-0.3,0-0.7,0-1-0.1C2.7,34.3,2.6,34.3,2.6,34.2z"/>
		</g>
		<g>
			<g>
				<g>
					<path class="st2" d="M27.3,49.3c0-1,0-2,0-3c0-0.2,0-0.3,0.1-0.4c0.7-0.8,1.4-1.7,2.2-2.5c0.2-0.2,0.5-0.2,0.7,0
						c0.9,1,2,1.7,3.3,1.9c1.2,0.2,2.3,0,3.4-0.4c1.5-0.6,2.7-1.6,3.8-2.8c1.6-1.7,3-3.5,4.2-5.5c0.4-0.7,0.9-1.4,1.3-2.2
						c0.5-0.1,0.9-0.2,1.3-0.2c-0.9,2.3-2.1,4.3-3.6,6.2c-2,2.5-4.4,4.5-7.2,6c-2.2,1.2-4.5,2-7,2.5C29,49.1,28.2,49.2,27.3,49.3z"
						/>
				</g>
			</g>
			<g>
				<g>
					<path class="st2" d="M3.8,34.3c-0.1,0-0.1,0.1,0,0.2c1.6,2.9,3.4,5.6,5.8,7.9c1.1,1.1,2.4,2,3.8,2.5c2.2,0.7,4.1,0.4,5.8-1.1
						c0.1-0.1,0.2-0.2,0.4-0.4c0.1-0.2,0.3-0.3,0.6-0.3c0.1,0,0.2,0,0.4,0.2c0.7,0.8,1.4,1.6,2.1,2.5c0.1,0.1,0.2,0.3,0.2,0.5
						c0,1,0,2,0,2.9c-0.8-0.1-1.7-0.2-2.5-0.4c-2.4-0.5-4.6-1.3-6.7-2.4c-1.5-0.8-2.9-1.8-4.2-2.9c-1.8-1.5-3.4-3.3-4.7-5.2
						c-0.8-1.3-1.6-2.6-2.1-4c0,0,0-0.1,0-0.2C3,34.3,3.4,34.3,3.8,34.3z"/>
				</g>
			</g>
			<g>
				<g>
					<path class="st2" d="M23.8,43.3c-0.5-0.4-1-0.8-1.4-1.2c0,0,0,0-0.1-0.1c0-0.1,0.4-0.6,0.5-0.6c0.3,0,0.6,0.1,0.9,0.1
						c0.1,0,0.1,0.1,0.1,0.2c0,0.4,0,0.8,0,1.3C23.8,43.1,23.8,43.1,23.8,43.3z"/>
				</g>
			</g>
			<g>
				<g>
					<path class="st2" d="M26.3,43.3c0-0.6,0-1.1,0-1.6c0-0.1,0-0.1,0.1-0.1c0.3,0,0.6-0.1,0.8-0.1c0.1,0,0.1,0,0.2,0.1
						c0,0.1,0.1,0.1,0.1,0.2c0.2,0.3,0.2,0.3-0.1,0.6C27.1,42.6,26.8,42.9,26.3,43.3z"/>
				</g>
			</g>
		</g>
		<g>
			<g>
				<path class="st3" d="M41.1,26l0.1-0.1c0,0,0,0-0.2,0L41.1,26z"/>
			</g>
		</g>
		<g>
			<g>
				<g>
					<path class="st0" d="M25.3,15.8c0.9,1.1,1.7,2.3,2.3,3.5c1.4,2.8,2.5,5.7,3.3,8.8c0.2,0.6,0.3,1.2,0.5,1.8c0,0.1,0,0.1,0.1,0.2
						c2.9-2.3,6.2-3.5,9.7-4.3c0,0,0,0,0,0.1c-4.3,5.3-8.7,10.6-13,16c-0.2-0.2-0.3-0.4-0.4-0.6c-0.1-0.2-0.2-0.2-0.4-0.2
						c-0.6,0.1-1.2,0.2-1.8,0.2c-0.2,0-0.2,0-0.2-0.2c0-0.8,0-1.7,0-2.5c0-7.5,0-15,0-22.5C25.3,16,25.3,16,25.3,15.8z"/>
				</g>
			</g>
			<g>
				<g>
					<path class="st0" d="M25,47c-0.5,0-1.1-0.2-1.7-0.5c-0.1-0.1-0.2-0.1-0.1-0.2c0-0.2,0-0.4-0.2-0.6c-0.2-0.2-0.3-0.4-0.5-0.6
						c-0.1-0.1-0.1-0.1,0-0.2c0.3-0.5,0.7-0.9,1.3-1.1c0.1,0,0.1,0,0.2,0c0.2,0.2,0.4,0.3,0.7,0.5c0.4,0.2,0.8,0.2,1.2-0.1
						c0.1-0.1,0.2-0.1,0.4-0.2c0.2-0.2,0.4-0.2,0.6-0.1c0.4,0.2,0.8,0.6,1,1c0.1,0.1,0,0.2,0,0.3c-0.1,0.2-0.3,0.4-0.5,0.5
						C27,45.9,26.9,46,27,46.3c0,0.1-0.1,0.2-0.1,0.2C26.3,46.8,25.7,47,25,47z"/>
				</g>
			</g>
			<g>
				<g>
					<path class="st0" d="M20.8,43.1c0.5-0.2,0.9-0.4,1.2-0.7c0.1-0.1,0.1,0,0.2,0c0.4,0.4,0.8,0.7,1.2,1c0.1,0.1,0.1,0.1,0,0.1
						c-0.5,0.2-0.9,0.6-1.2,1.1c0,0.1-0.1,0.1-0.1,0C21.6,44.1,21.2,43.6,20.8,43.1z"/>
				</g>
			</g>
			<g>
				<g>
					<path class="st0" d="M29.4,43.1c-0.4,0.5-0.8,1-1.3,1.5c-0.1,0.1-0.1,0.1-0.2,0c-0.2-0.5-0.6-0.8-1.1-1.1
						c-0.1-0.1-0.1-0.1,0-0.2c0.4-0.3,0.8-0.6,1.2-0.9c0.1,0,0.1-0.1,0.2,0C28.5,42.7,28.9,43,29.4,43.1z"/>
				</g>
			</g>
			<g>
				<g>
					<path class="st0" d="M4.6,35.1l-0.2-0.1l0.4,0.6l0,0C6,37.6,7.4,39.6,9,41.4c1,1.1,2.2,2.1,3.5,2.8c1.3,0.7,2.6,1,4,0.7
						c0.8-0.2,1.4-0.5,2.1-1C14,40.9,9.3,38,4.6,35.1z"/>
				</g>
			</g>
			<g>
				<g>
					<path class="st0" d="M21.5,42.1c-0.5-0.6-1-1.2-1.5-1.8c-3.5-4.3-7.1-8.7-10.6-13c-0.3-0.3-0.5-0.7-0.8-1
						c0.1,2.8,0.7,5.5,1.8,8.1c-1.8-0.2-3.6-0.2-5.4,0.1l-0.3,0l0.1,0.1c0,0,0,0,0.1,0L5,34.7c4.5,2.8,9,5.6,13.5,8.4
						c0.2,0.1,0.4,0.4,0.6,0.3c0.2,0,0.4-0.3,0.5-0.5c0.1-0.1,0.1-0.1,0.3-0.1c0.6,0.1,1.1-0.1,1.6-0.4
						C21.6,42.3,21.6,42.3,21.5,42.1z"/>
				</g>
			</g>
			<g>
				<g>
					<path class="st0" d="M24.8,16.1c0-0.1,0-0.1,0-0.2l0,0v-0.1l-0.1,0.1l0,0c-3.2,4.3-4.8,9.2-6,14.3c-2.9-2.3-6.2-3.5-9.7-4.2
						c4.3,5.3,8.7,10.7,13,16c0.2-0.2,0.3-0.4,0.4-0.6c0.1-0.1,0.1-0.2,0.3-0.1c0.6,0.1,1.2,0.2,1.8,0.2c0.2,0,0.3,0,0.3-0.3
						C24.8,32.7,24.8,24.4,24.8,16.1z"/>
				</g>
			</g>
			<g>
				<g>
					<path class="st0" d="M45.6,34.9l-0.8,0.5c-2.6,1.7-5.3,3.3-7.9,4.9c-1.8,1.1-3.5,2.2-5.3,3.3c-0.1,0.1-0.3,0.1-0.1,0.2
						c1.2,0.8,2.5,1.2,4,0.9c1.2-0.2,2.3-0.8,3.3-1.6c1.6-1.2,2.9-2.7,4.1-4.3c0.9-1.2,1.7-2.5,2.5-3.8L45.6,34.9z"/>
				</g>
			</g>
			<g>
				<g>
					<path class="st0" d="M45.1,34.7C45.2,34.7,45.2,34.6,45.1,34.7l0.3-0.2l-0.1,0c-1.9-0.3-3.7-0.3-5.6-0.1c1.1-2.6,1.7-5.2,1.8-8
						c0,0.1-0.1,0.1-0.1,0.2c-2.8,3.4-5.6,6.9-8.4,10.3c-1.4,1.8-2.9,3.6-4.4,5.4c-0.1,0.1-0.1,0.2,0,0.3c0.4,0.3,0.8,0.5,1.2,0.4
						c0.5-0.1,0.7,0.1,0.9,0.5c0.1,0.2,0.2,0.2,0.4,0.1c4.6-2.9,9.2-5.8,13.8-8.6L45.1,34.7z"/>
				</g>
			</g>
			<g>
				<g>
					<path class="st0" d="M27,47.1v-0.4l-0.2,0.1c-1.2,0.6-2.4,0.6-3.7-0.1c0,0.7,0,1.3,0,2c0,0.2,0.1,0.2,0.2,0.2
						c1.2,0.1,2.3,0.1,3.5,0c0.2,0,0.2-0.1,0.2-0.2C27,48.2,27,47.7,27,47.1z"/>
				</g>
			</g>
			<g>
				<g>
					<path class="st0" d="M26,43.3L26,43.3C26,43.3,26,43.3,26,43.3l0-0.8c0-0.2,0-0.4,0-0.6c0-0.1,0-0.2-0.2-0.2c-0.5,0-1,0-1.4,0
						c-0.1,0-0.2,0-0.2,0.2c0,0.5,0,1,0,1.5c0,0.2,0.1,0.3,0.2,0.4c0.1,0,0.2,0.1,0.3,0.2c0.3,0.1,0.6,0.2,0.8,0
						C25.8,43.8,26,43.6,26,43.3L26,43.3z"/>
				</g>
			</g>
		</g>
	</g>
	<g>
		<g>
			<path class="st4" d="M45.9,34.2c-1-0.2-1.9-0.3-2.9-0.4c-0.8,0-1.7,0-2.5,0c-0.2,0-0.2,0-0.2-0.2c0.2-0.5,0.4-1.1,0.6-1.6
				c0.6-2.1,1.1-4.3,1.1-6.5c0-0.2-0.1-0.2-0.3-0.2c-0.6,0.1-1.2,0.2-1.7,0.4c-2.7,0.7-5.3,1.7-7.6,3.2c-0.2,0.2-0.5,0.3-0.7,0.5
				c-0.1-0.5-0.2-1-0.4-1.4c-0.9-3.3-2-6.5-3.7-9.5c-0.7-1.2-1.4-2.4-2.4-3.4c-0.1-0.1-0.1-0.2-0.3,0c-0.1,0.2-0.3,0.4-0.5,0.6
				c-1.3,1.6-2.3,3.5-3.1,5.4c-1.2,2.7-2.1,5.4-2.8,8.3c0,0.2-0.1,0.2-0.2,0.1c-3-2.2-6.4-3.4-9.9-4c-0.2,0-0.2,0-0.2,0.2
				c0,0.6,0,1.2,0.1,1.8c0.2,1.9,0.6,3.7,1.2,5.5c0.1,0.3,0.2,0.7,0.4,1c-1.7-0.1-3.3-0.1-4.9,0.1l-1.3,0.2l0.1,0.1c0,0,0,0,0,0.1
				L4,34.8l0,0c0.3,0.5,0.6,1.1,0.9,1.6c1.4,2.3,3,4.6,5,6.4c1.1,1,2.3,1.8,3.6,2.3c0.9,0.3,1.8,0.4,2.7,0.3
				c1.4-0.2,2.5-0.9,3.5-1.9c0.2-0.2,0.6-0.2,0.8,0c0.7,0.8,1.3,1.6,2,2.4c0.1,0.2,0.2,0.4,0.2,0.6c0,0.8,0,1.7,0,2.6
				c0,0.1,0,0.2,0.1,0.3c1.5,0.1,3,0.1,4.5,0c0.1-0.1,0.1-0.2,0.1-0.3c0-0.9,0-1.7,0-2.6c0-0.2,0-0.4,0.2-0.5c0.7-0.8,1.4-1.6,2-2.4
				c0.2-0.2,0.5-0.2,0.7,0c0.4,0.5,0.9,0.8,1.4,1.2c1,0.6,2.2,0.9,3.4,0.7c1.2-0.1,2.3-0.6,3.4-1.3c1.4-0.9,2.5-2,3.6-3.3
				c1.6-1.9,2.9-4,4.1-6.1c0,0,0.1-0.2,0.1-0.2L45.9,34.2z"/>
		</g>
	</g>
	<g>
		<g>
			<path class="st0" d="M25.3,15.8c0.9,1.1,1.7,2.3,2.3,3.5c1.4,2.8,2.5,5.7,3.3,8.8c0.2,0.6,0.3,1.2,0.5,1.8c0,0.1,0,0.1,0.1,0.2
				c2.9-2.3,6.2-3.5,9.7-4.3c0,0,0,0,0,0.1c-4.3,5.3-8.7,10.6-13,16c-0.2-0.2-0.3-0.4-0.4-0.6c-0.1-0.2-0.2-0.2-0.4-0.2
				c-0.6,0.1-1.2,0.2-1.8,0.2c-0.2,0-0.2,0-0.2-0.2c0-0.8,0-1.7,0-2.5c0-7.5,0-15,0-22.5C25.3,16,25.3,16,25.3,15.8z"/>
		</g>
		<g>
			<path class="st0" d="M25,47c-0.5,0-1.1-0.2-1.7-0.5c-0.1-0.1-0.2-0.1-0.1-0.2c0-0.2,0-0.4-0.2-0.6c-0.2-0.2-0.3-0.4-0.5-0.6
				c-0.1-0.1-0.1-0.1,0-0.2c0.3-0.5,0.7-0.9,1.3-1.1c0.1,0,0.1,0,0.2,0c0.2,0.2,0.4,0.3,0.7,0.5c0.4,0.2,0.8,0.2,1.2-0.1
				c0.1-0.1,0.2-0.1,0.4-0.2c0.2-0.2,0.4-0.2,0.6-0.1c0.4,0.2,0.8,0.6,1,1c0.1,0.1,0,0.2,0,0.3c-0.1,0.2-0.3,0.4-0.5,0.5
				C27,45.9,26.9,46,27,46.3c0,0.1-0.1,0.2-0.1,0.2C26.3,46.8,25.7,47,25,47z"/>
		</g>
		<g>
			<path class="st0" d="M20.8,43.1c0.5-0.2,0.9-0.4,1.2-0.7c0.1-0.1,0.1,0,0.2,0c0.4,0.4,0.8,0.7,1.2,1c0.1,0.1,0.1,0.1,0,0.1
				c-0.5,0.2-0.9,0.6-1.2,1.1c0,0.1-0.1,0.1-0.1,0C21.6,44.1,21.2,43.6,20.8,43.1z"/>
		</g>
		<g>
			<path class="st0" d="M29.4,43.1c-0.4,0.5-0.8,1-1.3,1.5c-0.1,0.1-0.1,0.1-0.2,0c-0.2-0.5-0.6-0.8-1.1-1.1c-0.1-0.1-0.1-0.1,0-0.2
				c0.4-0.3,0.8-0.6,1.2-0.9c0.1,0,0.1-0.1,0.2,0C28.5,42.7,28.9,43,29.4,43.1z"/>
		</g>
		<g>
			<g>
				<path class="st2" d="M23.8,43.3c-0.5-0.4-1-0.8-1.4-1.2c0,0,0,0-0.1-0.1c0-0.1,0.4-0.6,0.5-0.6c0.3,0,0.6,0.1,0.9,0.1
					c0.1,0,0.1,0.1,0.1,0.2c0,0.4,0,0.8,0,1.3C23.8,43.1,23.8,43.1,23.8,43.3z"/>
			</g>
			<g>
				<path class="st2" d="M26.3,43.3c0-0.6,0-1.1,0-1.6c0-0.1,0-0.1,0.1-0.1c0.3,0,0.6-0.1,0.8-0.1c0.1,0,0.1,0,0.2,0.1
					c0,0.1,0.1,0.1,0.1,0.2c0.2,0.3,0.2,0.3-0.1,0.6C27.2,42.6,26.8,42.9,26.3,43.3z"/>
			</g>
		</g>
		<g>
			<path class="st0" d="M4.7,35.1l-0.2-0.1l0.4,0.6l0,0C6,37.6,7.4,39.6,9,41.4c1,1.1,2.2,2.1,3.5,2.8c1.3,0.7,2.6,1,4,0.7
				c0.8-0.2,1.4-0.5,2.1-1C14,40.9,9.3,38,4.7,35.1z"/>
		</g>
		<g>
			<path class="st0" d="M21.5,42.1c-0.5-0.6-1-1.2-1.5-1.8c-3.5-4.3-7.1-8.7-10.6-13c-0.3-0.3-0.5-0.7-0.8-1
				c0.1,2.8,0.7,5.5,1.8,8.1c-1.8-0.2-3.6-0.2-5.4,0.1l-0.3,0l0.1,0.1c0,0,0,0,0.1,0L5,34.7c4.5,2.8,9,5.6,13.5,8.4
				c0.2,0.1,0.4,0.4,0.6,0.3c0.2,0,0.4-0.3,0.5-0.5c0.1-0.1,0.1-0.1,0.3-0.1c0.6,0.1,1.1-0.1,1.6-0.4C21.6,42.3,21.6,42.3,21.5,42.1
				z"/>
		</g>
		<g>
			<path class="st0" d="M24.8,16.1c0-0.1,0-0.1,0-0.2l0,0v-0.1l-0.1,0.1l0,0c-3.2,4.2-4.8,9.2-6.1,14.3c-2.9-2.3-6.2-3.5-9.7-4.2
				c4.3,5.3,8.7,10.7,13,16c0.2-0.2,0.3-0.4,0.4-0.6c0.1-0.1,0.1-0.2,0.3-0.1c0.6,0.1,1.2,0.2,1.8,0.2c0.2,0,0.3,0,0.3-0.3
				C24.8,32.7,24.8,24.4,24.8,16.1z"/>
		</g>
		<g>
			<path class="st0" d="M45.7,34.9l-0.8,0.5c-2.6,1.7-5.3,3.3-7.9,4.9c-1.8,1.1-3.5,2.2-5.3,3.3c-0.1,0.1-0.3,0.1-0.1,0.2
				c1.2,0.8,2.5,1.2,4,0.9c1.2-0.2,2.3-0.8,3.3-1.6c1.6-1.2,2.9-2.7,4.1-4.3c0.9-1.2,1.7-2.5,2.5-3.8L45.7,34.9z"/>
		</g>
		<g>
			<path class="st0" d="M45.1,34.7C45.2,34.7,45.2,34.6,45.1,34.7l0.3-0.2l-0.1,0c-1.9-0.3-3.7-0.3-5.6-0.1c1.1-2.6,1.7-5.2,1.8-8
				c0,0.1-0.1,0.1-0.1,0.2c-2.8,3.4-5.6,6.9-8.4,10.3c-1.4,1.8-2.9,3.6-4.4,5.4c-0.1,0.1-0.1,0.2,0,0.3c0.4,0.3,0.8,0.5,1.2,0.4
				c0.5-0.1,0.7,0.1,0.9,0.5c0.1,0.2,0.2,0.2,0.4,0.1c4.6-2.9,9.2-5.8,13.8-8.6L45.1,34.7z"/>
		</g>
		<g>
			<path class="st0" d="M27,47.1v-0.4l-0.2,0.1c-1.2,0.6-2.4,0.6-3.7-0.1c0,0.7,0,1.3,0,2c0,0.2,0.1,0.2,0.2,0.2
				c1.2,0.1,2.3,0.1,3.5,0c0.2,0,0.2-0.1,0.2-0.2C27,48.2,27,47.7,27,47.1z"/>
		</g>
		<g>
			<path class="st0" d="M26,43.3L26,43.3C26,43.3,26,43.3,26,43.3l0-0.8c0-0.2,0-0.4,0-0.6c0-0.1,0-0.2-0.2-0.2c-0.5,0-1,0-1.4,0
				c-0.1,0-0.2,0-0.2,0.2c0,0.5,0,1,0,1.5c0,0.2,0.1,0.3,0.2,0.4c0.1,0,0.2,0.1,0.3,0.2c0.3,0.1,0.6,0.2,0.8,0
				C25.8,43.8,26,43.6,26,43.3L26,43.3z"/>
		</g>
	</g>
</g>
</svg>
